<?xml version="1.0" encoding="utf-8" standalone="no"?>
<!DOCTYPE svg PUBLIC "-//W3C//DTD SVG 1.1//EN"
  "http://www.w3.org/Graphics/SVG/1.1/DTD/svg11.dtd">
<svg xmlns:xlink="http://www.w3.org/1999/xlink" width="1440pt" height="360pt" viewBox="0 0 1440 360" xmlns="http://www.w3.org/2000/svg" version="1.1">
 <metadata>
  <rdf:RDF xmlns:dc="http://purl.org/dc/elements/1.1/" xmlns:cc="http://creativecommons.org/ns#" xmlns:rdf="http://www.w3.org/1999/02/22-rdf-syntax-ns#">
   <cc:Work>
    <dc:type rdf:resource="http://purl.org/dc/dcmitype/StillImage"/>
    <dc:date>2021-11-20T13:17:07.133612</dc:date>
    <dc:format>image/svg+xml</dc:format>
    <dc:creator>
     <cc:Agent>
      <dc:title>Matplotlib v3.5.0, https://matplotlib.org/</dc:title>
     </cc:Agent>
    </dc:creator>
   </cc:Work>
  </rdf:RDF>
 </metadata>
 <defs>
  <style type="text/css">*{stroke-linejoin: round; stroke-linecap: butt}</style>
 </defs>
 <g id="figure_1">
  <g id="patch_1">
   <path d="M 0 360 
L 1440 360 
L 1440 0 
L 0 0 
z
" style="fill: #ffffff"/>
  </g>
  <g id="axes_1">
   <g id="patch_2">
    <path d="M 180 315 
L 1296 315 
L 1296 43.2 
L 180 43.2 
z
" style="fill: #ffffff"/>
   </g>
   <g id="matplotlib.axis_1">
    <g id="xtick_1">
     <g id="line2d_1">
      <path d="M 210.436364 315 
L 210.436364 43.2 
" clip-path="url(#p06bb10d2c8)" style="fill: none; stroke: #cccccc; stroke-linecap: round"/>
     </g>
     <g id="text_1">
      <!-- 0 -->
      <g style="fill: #262626" transform="translate(207.377848 332.373594)scale(0.11 -0.11)">
       <defs>
        <path id="ArialMT-30" d="M 266 2259 
Q 266 3072 433 3567 
Q 600 4063 929 4331 
Q 1259 4600 1759 4600 
Q 2128 4600 2406 4451 
Q 2684 4303 2865 4023 
Q 3047 3744 3150 3342 
Q 3253 2941 3253 2259 
Q 3253 1453 3087 958 
Q 2922 463 2592 192 
Q 2263 -78 1759 -78 
Q 1097 -78 719 397 
Q 266 969 266 2259 
z
M 844 2259 
Q 844 1131 1108 757 
Q 1372 384 1759 384 
Q 2147 384 2411 759 
Q 2675 1134 2675 2259 
Q 2675 3391 2411 3762 
Q 2147 4134 1753 4134 
Q 1366 4134 1134 3806 
Q 844 3388 844 2259 
z
" transform="scale(0.015625)"/>
       </defs>
       <use xlink:href="#ArialMT-30"/>
      </g>
     </g>
    </g>
    <g id="xtick_2">
     <g id="line2d_2">
      <path d="M 230.727273 315 
L 230.727273 43.2 
" clip-path="url(#p06bb10d2c8)" style="fill: none; stroke: #cccccc; stroke-linecap: round"/>
     </g>
     <g id="text_2">
      <!-- 1 -->
      <g style="fill: #262626" transform="translate(227.668757 332.373594)scale(0.11 -0.11)">
       <defs>
        <path id="ArialMT-31" d="M 2384 0 
L 1822 0 
L 1822 3584 
Q 1619 3391 1289 3197 
Q 959 3003 697 2906 
L 697 3450 
Q 1169 3672 1522 3987 
Q 1875 4303 2022 4600 
L 2384 4600 
L 2384 0 
z
" transform="scale(0.015625)"/>
       </defs>
       <use xlink:href="#ArialMT-31"/>
      </g>
     </g>
    </g>
    <g id="xtick_3">
     <g id="line2d_3">
      <path d="M 251.018182 315 
L 251.018182 43.2 
" clip-path="url(#p06bb10d2c8)" style="fill: none; stroke: #cccccc; stroke-linecap: round"/>
     </g>
     <g id="text_3">
      <!-- 2 -->
      <g style="fill: #262626" transform="translate(247.959666 332.373594)scale(0.11 -0.11)">
       <defs>
        <path id="ArialMT-32" d="M 3222 541 
L 3222 0 
L 194 0 
Q 188 203 259 391 
Q 375 700 629 1000 
Q 884 1300 1366 1694 
Q 2113 2306 2375 2664 
Q 2638 3022 2638 3341 
Q 2638 3675 2398 3904 
Q 2159 4134 1775 4134 
Q 1369 4134 1125 3890 
Q 881 3647 878 3216 
L 300 3275 
Q 359 3922 746 4261 
Q 1134 4600 1788 4600 
Q 2447 4600 2831 4234 
Q 3216 3869 3216 3328 
Q 3216 3053 3103 2787 
Q 2991 2522 2730 2228 
Q 2469 1934 1863 1422 
Q 1356 997 1212 845 
Q 1069 694 975 541 
L 3222 541 
z
" transform="scale(0.015625)"/>
       </defs>
       <use xlink:href="#ArialMT-32"/>
      </g>
     </g>
    </g>
    <g id="xtick_4">
     <g id="line2d_4">
      <path d="M 271.309091 315 
L 271.309091 43.2 
" clip-path="url(#p06bb10d2c8)" style="fill: none; stroke: #cccccc; stroke-linecap: round"/>
     </g>
     <g id="text_4">
      <!-- 3 -->
      <g style="fill: #262626" transform="translate(268.250575 332.373594)scale(0.11 -0.11)">
       <defs>
        <path id="ArialMT-33" d="M 269 1209 
L 831 1284 
Q 928 806 1161 595 
Q 1394 384 1728 384 
Q 2125 384 2398 659 
Q 2672 934 2672 1341 
Q 2672 1728 2419 1979 
Q 2166 2231 1775 2231 
Q 1616 2231 1378 2169 
L 1441 2663 
Q 1497 2656 1531 2656 
Q 1891 2656 2178 2843 
Q 2466 3031 2466 3422 
Q 2466 3731 2256 3934 
Q 2047 4138 1716 4138 
Q 1388 4138 1169 3931 
Q 950 3725 888 3313 
L 325 3413 
Q 428 3978 793 4289 
Q 1159 4600 1703 4600 
Q 2078 4600 2393 4439 
Q 2709 4278 2876 4000 
Q 3044 3722 3044 3409 
Q 3044 3113 2884 2869 
Q 2725 2625 2413 2481 
Q 2819 2388 3044 2092 
Q 3269 1797 3269 1353 
Q 3269 753 2831 336 
Q 2394 -81 1725 -81 
Q 1122 -81 723 278 
Q 325 638 269 1209 
z
" transform="scale(0.015625)"/>
       </defs>
       <use xlink:href="#ArialMT-33"/>
      </g>
     </g>
    </g>
    <g id="xtick_5">
     <g id="line2d_5">
      <path d="M 291.6 315 
L 291.6 43.2 
" clip-path="url(#p06bb10d2c8)" style="fill: none; stroke: #cccccc; stroke-linecap: round"/>
     </g>
     <g id="text_5">
      <!-- 4 -->
      <g style="fill: #262626" transform="translate(288.541484 332.373594)scale(0.11 -0.11)">
       <defs>
        <path id="ArialMT-34" d="M 2069 0 
L 2069 1097 
L 81 1097 
L 81 1613 
L 2172 4581 
L 2631 4581 
L 2631 1613 
L 3250 1613 
L 3250 1097 
L 2631 1097 
L 2631 0 
L 2069 0 
z
M 2069 1613 
L 2069 3678 
L 634 1613 
L 2069 1613 
z
" transform="scale(0.015625)"/>
       </defs>
       <use xlink:href="#ArialMT-34"/>
      </g>
     </g>
    </g>
    <g id="xtick_6">
     <g id="line2d_6">
      <path d="M 311.890909 315 
L 311.890909 43.2 
" clip-path="url(#p06bb10d2c8)" style="fill: none; stroke: #cccccc; stroke-linecap: round"/>
     </g>
     <g id="text_6">
      <!-- 5 -->
      <g style="fill: #262626" transform="translate(308.832393 332.373594)scale(0.11 -0.11)">
       <defs>
        <path id="ArialMT-35" d="M 266 1200 
L 856 1250 
Q 922 819 1161 601 
Q 1400 384 1738 384 
Q 2144 384 2425 690 
Q 2706 997 2706 1503 
Q 2706 1984 2436 2262 
Q 2166 2541 1728 2541 
Q 1456 2541 1237 2417 
Q 1019 2294 894 2097 
L 366 2166 
L 809 4519 
L 3088 4519 
L 3088 3981 
L 1259 3981 
L 1013 2750 
Q 1425 3038 1878 3038 
Q 2478 3038 2890 2622 
Q 3303 2206 3303 1553 
Q 3303 931 2941 478 
Q 2500 -78 1738 -78 
Q 1113 -78 717 272 
Q 322 622 266 1200 
z
" transform="scale(0.015625)"/>
       </defs>
       <use xlink:href="#ArialMT-35"/>
      </g>
     </g>
    </g>
    <g id="xtick_7">
     <g id="line2d_7">
      <path d="M 332.181818 315 
L 332.181818 43.2 
" clip-path="url(#p06bb10d2c8)" style="fill: none; stroke: #cccccc; stroke-linecap: round"/>
     </g>
     <g id="text_7">
      <!-- 6 -->
      <g style="fill: #262626" transform="translate(329.123303 332.373594)scale(0.11 -0.11)">
       <defs>
        <path id="ArialMT-36" d="M 3184 3459 
L 2625 3416 
Q 2550 3747 2413 3897 
Q 2184 4138 1850 4138 
Q 1581 4138 1378 3988 
Q 1113 3794 959 3422 
Q 806 3050 800 2363 
Q 1003 2672 1297 2822 
Q 1591 2972 1913 2972 
Q 2475 2972 2870 2558 
Q 3266 2144 3266 1488 
Q 3266 1056 3080 686 
Q 2894 316 2569 119 
Q 2244 -78 1831 -78 
Q 1128 -78 684 439 
Q 241 956 241 2144 
Q 241 3472 731 4075 
Q 1159 4600 1884 4600 
Q 2425 4600 2770 4297 
Q 3116 3994 3184 3459 
z
M 888 1484 
Q 888 1194 1011 928 
Q 1134 663 1356 523 
Q 1578 384 1822 384 
Q 2178 384 2434 671 
Q 2691 959 2691 1453 
Q 2691 1928 2437 2201 
Q 2184 2475 1800 2475 
Q 1419 2475 1153 2201 
Q 888 1928 888 1484 
z
" transform="scale(0.015625)"/>
       </defs>
       <use xlink:href="#ArialMT-36"/>
      </g>
     </g>
    </g>
    <g id="xtick_8">
     <g id="line2d_8">
      <path d="M 352.472727 315 
L 352.472727 43.2 
" clip-path="url(#p06bb10d2c8)" style="fill: none; stroke: #cccccc; stroke-linecap: round"/>
     </g>
     <g id="text_8">
      <!-- 7 -->
      <g style="fill: #262626" transform="translate(349.414212 332.373594)scale(0.11 -0.11)">
       <defs>
        <path id="ArialMT-37" d="M 303 3981 
L 303 4522 
L 3269 4522 
L 3269 4084 
Q 2831 3619 2401 2847 
Q 1972 2075 1738 1259 
Q 1569 684 1522 0 
L 944 0 
Q 953 541 1156 1306 
Q 1359 2072 1739 2783 
Q 2119 3494 2547 3981 
L 303 3981 
z
" transform="scale(0.015625)"/>
       </defs>
       <use xlink:href="#ArialMT-37"/>
      </g>
     </g>
    </g>
    <g id="xtick_9">
     <g id="line2d_9">
      <path d="M 372.763636 315 
L 372.763636 43.2 
" clip-path="url(#p06bb10d2c8)" style="fill: none; stroke: #cccccc; stroke-linecap: round"/>
     </g>
     <g id="text_9">
      <!-- 8 -->
      <g style="fill: #262626" transform="translate(369.705121 332.373594)scale(0.11 -0.11)">
       <defs>
        <path id="ArialMT-38" d="M 1131 2484 
Q 781 2613 612 2850 
Q 444 3088 444 3419 
Q 444 3919 803 4259 
Q 1163 4600 1759 4600 
Q 2359 4600 2725 4251 
Q 3091 3903 3091 3403 
Q 3091 3084 2923 2848 
Q 2756 2613 2416 2484 
Q 2838 2347 3058 2040 
Q 3278 1734 3278 1309 
Q 3278 722 2862 322 
Q 2447 -78 1769 -78 
Q 1091 -78 675 323 
Q 259 725 259 1325 
Q 259 1772 486 2073 
Q 713 2375 1131 2484 
z
M 1019 3438 
Q 1019 3113 1228 2906 
Q 1438 2700 1772 2700 
Q 2097 2700 2305 2904 
Q 2513 3109 2513 3406 
Q 2513 3716 2298 3927 
Q 2084 4138 1766 4138 
Q 1444 4138 1231 3931 
Q 1019 3725 1019 3438 
z
M 838 1322 
Q 838 1081 952 856 
Q 1066 631 1291 507 
Q 1516 384 1775 384 
Q 2178 384 2440 643 
Q 2703 903 2703 1303 
Q 2703 1709 2433 1975 
Q 2163 2241 1756 2241 
Q 1359 2241 1098 1978 
Q 838 1716 838 1322 
z
" transform="scale(0.015625)"/>
       </defs>
       <use xlink:href="#ArialMT-38"/>
      </g>
     </g>
    </g>
    <g id="xtick_10">
     <g id="line2d_10">
      <path d="M 393.054545 315 
L 393.054545 43.2 
" clip-path="url(#p06bb10d2c8)" style="fill: none; stroke: #cccccc; stroke-linecap: round"/>
     </g>
     <g id="text_10">
      <!-- 9 -->
      <g style="fill: #262626" transform="translate(389.99603 332.373594)scale(0.11 -0.11)">
       <defs>
        <path id="ArialMT-39" d="M 350 1059 
L 891 1109 
Q 959 728 1153 556 
Q 1347 384 1650 384 
Q 1909 384 2104 503 
Q 2300 622 2425 820 
Q 2550 1019 2634 1356 
Q 2719 1694 2719 2044 
Q 2719 2081 2716 2156 
Q 2547 1888 2255 1720 
Q 1963 1553 1622 1553 
Q 1053 1553 659 1965 
Q 266 2378 266 3053 
Q 266 3750 677 4175 
Q 1088 4600 1706 4600 
Q 2153 4600 2523 4359 
Q 2894 4119 3086 3673 
Q 3278 3228 3278 2384 
Q 3278 1506 3087 986 
Q 2897 466 2520 194 
Q 2144 -78 1638 -78 
Q 1100 -78 759 220 
Q 419 519 350 1059 
z
M 2653 3081 
Q 2653 3566 2395 3850 
Q 2138 4134 1775 4134 
Q 1400 4134 1122 3828 
Q 844 3522 844 3034 
Q 844 2597 1108 2323 
Q 1372 2050 1759 2050 
Q 2150 2050 2401 2323 
Q 2653 2597 2653 3081 
z
" transform="scale(0.015625)"/>
       </defs>
       <use xlink:href="#ArialMT-39"/>
      </g>
     </g>
    </g>
    <g id="xtick_11">
     <g id="line2d_11">
      <path d="M 413.345455 315 
L 413.345455 43.2 
" clip-path="url(#p06bb10d2c8)" style="fill: none; stroke: #cccccc; stroke-linecap: round"/>
     </g>
     <g id="text_11">
      <!-- 10 -->
      <g style="fill: #262626" transform="translate(407.228423 332.373594)scale(0.11 -0.11)">
       <use xlink:href="#ArialMT-31"/>
       <use xlink:href="#ArialMT-30" x="55.615234"/>
      </g>
     </g>
    </g>
    <g id="xtick_12">
     <g id="line2d_12">
      <path d="M 433.636364 315 
L 433.636364 43.2 
" clip-path="url(#p06bb10d2c8)" style="fill: none; stroke: #cccccc; stroke-linecap: round"/>
     </g>
     <g id="text_12">
      <!-- 11 -->
      <g style="fill: #262626" transform="translate(427.924957 332.373594)scale(0.11 -0.11)">
       <use xlink:href="#ArialMT-31"/>
       <use xlink:href="#ArialMT-31" x="48.240234"/>
      </g>
     </g>
    </g>
    <g id="xtick_13">
     <g id="line2d_13">
      <path d="M 453.927273 315 
L 453.927273 43.2 
" clip-path="url(#p06bb10d2c8)" style="fill: none; stroke: #cccccc; stroke-linecap: round"/>
     </g>
     <g id="text_13">
      <!-- 12 -->
      <g style="fill: #262626" transform="translate(447.810241 332.373594)scale(0.11 -0.11)">
       <use xlink:href="#ArialMT-31"/>
       <use xlink:href="#ArialMT-32" x="55.615234"/>
      </g>
     </g>
    </g>
    <g id="xtick_14">
     <g id="line2d_14">
      <path d="M 474.218182 315 
L 474.218182 43.2 
" clip-path="url(#p06bb10d2c8)" style="fill: none; stroke: #cccccc; stroke-linecap: round"/>
     </g>
     <g id="text_14">
      <!-- 13 -->
      <g style="fill: #262626" transform="translate(468.101151 332.373594)scale(0.11 -0.11)">
       <use xlink:href="#ArialMT-31"/>
       <use xlink:href="#ArialMT-33" x="55.615234"/>
      </g>
     </g>
    </g>
    <g id="xtick_15">
     <g id="line2d_15">
      <path d="M 494.509091 315 
L 494.509091 43.2 
" clip-path="url(#p06bb10d2c8)" style="fill: none; stroke: #cccccc; stroke-linecap: round"/>
     </g>
     <g id="text_15">
      <!-- 14 -->
      <g style="fill: #262626" transform="translate(488.39206 332.373594)scale(0.11 -0.11)">
       <use xlink:href="#ArialMT-31"/>
       <use xlink:href="#ArialMT-34" x="55.615234"/>
      </g>
     </g>
    </g>
    <g id="xtick_16">
     <g id="line2d_16">
      <path d="M 514.8 315 
L 514.8 43.2 
" clip-path="url(#p06bb10d2c8)" style="fill: none; stroke: #cccccc; stroke-linecap: round"/>
     </g>
     <g id="text_16">
      <!-- 15 -->
      <g style="fill: #262626" transform="translate(508.682969 332.373594)scale(0.11 -0.11)">
       <use xlink:href="#ArialMT-31"/>
       <use xlink:href="#ArialMT-35" x="55.615234"/>
      </g>
     </g>
    </g>
    <g id="xtick_17">
     <g id="line2d_17">
      <path d="M 535.090909 315 
L 535.090909 43.2 
" clip-path="url(#p06bb10d2c8)" style="fill: none; stroke: #cccccc; stroke-linecap: round"/>
     </g>
     <g id="text_17">
      <!-- 16 -->
      <g style="fill: #262626" transform="translate(528.973878 332.373594)scale(0.11 -0.11)">
       <use xlink:href="#ArialMT-31"/>
       <use xlink:href="#ArialMT-36" x="55.615234"/>
      </g>
     </g>
    </g>
    <g id="xtick_18">
     <g id="line2d_18">
      <path d="M 555.381818 315 
L 555.381818 43.2 
" clip-path="url(#p06bb10d2c8)" style="fill: none; stroke: #cccccc; stroke-linecap: round"/>
     </g>
     <g id="text_18">
      <!-- 17 -->
      <g style="fill: #262626" transform="translate(549.264787 332.373594)scale(0.11 -0.11)">
       <use xlink:href="#ArialMT-31"/>
       <use xlink:href="#ArialMT-37" x="55.615234"/>
      </g>
     </g>
    </g>
    <g id="xtick_19">
     <g id="line2d_19">
      <path d="M 575.672727 315 
L 575.672727 43.2 
" clip-path="url(#p06bb10d2c8)" style="fill: none; stroke: #cccccc; stroke-linecap: round"/>
     </g>
     <g id="text_19">
      <!-- 18 -->
      <g style="fill: #262626" transform="translate(569.555696 332.373594)scale(0.11 -0.11)">
       <use xlink:href="#ArialMT-31"/>
       <use xlink:href="#ArialMT-38" x="55.615234"/>
      </g>
     </g>
    </g>
    <g id="xtick_20">
     <g id="line2d_20">
      <path d="M 595.963636 315 
L 595.963636 43.2 
" clip-path="url(#p06bb10d2c8)" style="fill: none; stroke: #cccccc; stroke-linecap: round"/>
     </g>
     <g id="text_20">
      <!-- 19 -->
      <g style="fill: #262626" transform="translate(589.846605 332.373594)scale(0.11 -0.11)">
       <use xlink:href="#ArialMT-31"/>
       <use xlink:href="#ArialMT-39" x="55.615234"/>
      </g>
     </g>
    </g>
    <g id="xtick_21">
     <g id="line2d_21">
      <path d="M 616.254545 315 
L 616.254545 43.2 
" clip-path="url(#p06bb10d2c8)" style="fill: none; stroke: #cccccc; stroke-linecap: round"/>
     </g>
     <g id="text_21">
      <!-- 20 -->
      <g style="fill: #262626" transform="translate(610.137514 332.373594)scale(0.11 -0.11)">
       <use xlink:href="#ArialMT-32"/>
       <use xlink:href="#ArialMT-30" x="55.615234"/>
      </g>
     </g>
    </g>
    <g id="xtick_22">
     <g id="line2d_22">
      <path d="M 636.545455 315 
L 636.545455 43.2 
" clip-path="url(#p06bb10d2c8)" style="fill: none; stroke: #cccccc; stroke-linecap: round"/>
     </g>
     <g id="text_22">
      <!-- 21 -->
      <g style="fill: #262626" transform="translate(630.428423 332.373594)scale(0.11 -0.11)">
       <use xlink:href="#ArialMT-32"/>
       <use xlink:href="#ArialMT-31" x="55.615234"/>
      </g>
     </g>
    </g>
    <g id="xtick_23">
     <g id="line2d_23">
      <path d="M 656.836364 315 
L 656.836364 43.2 
" clip-path="url(#p06bb10d2c8)" style="fill: none; stroke: #cccccc; stroke-linecap: round"/>
     </g>
     <g id="text_23">
      <!-- 22 -->
      <g style="fill: #262626" transform="translate(650.719332 332.373594)scale(0.11 -0.11)">
       <use xlink:href="#ArialMT-32"/>
       <use xlink:href="#ArialMT-32" x="55.615234"/>
      </g>
     </g>
    </g>
    <g id="xtick_24">
     <g id="line2d_24">
      <path d="M 677.127273 315 
L 677.127273 43.2 
" clip-path="url(#p06bb10d2c8)" style="fill: none; stroke: #cccccc; stroke-linecap: round"/>
     </g>
     <g id="text_24">
      <!-- 23 -->
      <g style="fill: #262626" transform="translate(671.010241 332.373594)scale(0.11 -0.11)">
       <use xlink:href="#ArialMT-32"/>
       <use xlink:href="#ArialMT-33" x="55.615234"/>
      </g>
     </g>
    </g>
    <g id="xtick_25">
     <g id="line2d_25">
      <path d="M 697.418182 315 
L 697.418182 43.2 
" clip-path="url(#p06bb10d2c8)" style="fill: none; stroke: #cccccc; stroke-linecap: round"/>
     </g>
     <g id="text_25">
      <!-- 24 -->
      <g style="fill: #262626" transform="translate(691.301151 332.373594)scale(0.11 -0.11)">
       <use xlink:href="#ArialMT-32"/>
       <use xlink:href="#ArialMT-34" x="55.615234"/>
      </g>
     </g>
    </g>
    <g id="xtick_26">
     <g id="line2d_26">
      <path d="M 717.709091 315 
L 717.709091 43.2 
" clip-path="url(#p06bb10d2c8)" style="fill: none; stroke: #cccccc; stroke-linecap: round"/>
     </g>
     <g id="text_26">
      <!-- 25 -->
      <g style="fill: #262626" transform="translate(711.59206 332.373594)scale(0.11 -0.11)">
       <use xlink:href="#ArialMT-32"/>
       <use xlink:href="#ArialMT-35" x="55.615234"/>
      </g>
     </g>
    </g>
    <g id="xtick_27">
     <g id="line2d_27">
      <path d="M 738 315 
L 738 43.2 
" clip-path="url(#p06bb10d2c8)" style="fill: none; stroke: #cccccc; stroke-linecap: round"/>
     </g>
     <g id="text_27">
      <!-- 26 -->
      <g style="fill: #262626" transform="translate(731.882969 332.373594)scale(0.11 -0.11)">
       <use xlink:href="#ArialMT-32"/>
       <use xlink:href="#ArialMT-36" x="55.615234"/>
      </g>
     </g>
    </g>
    <g id="xtick_28">
     <g id="line2d_28">
      <path d="M 758.290909 315 
L 758.290909 43.2 
" clip-path="url(#p06bb10d2c8)" style="fill: none; stroke: #cccccc; stroke-linecap: round"/>
     </g>
     <g id="text_28">
      <!-- 27 -->
      <g style="fill: #262626" transform="translate(752.173878 332.373594)scale(0.11 -0.11)">
       <use xlink:href="#ArialMT-32"/>
       <use xlink:href="#ArialMT-37" x="55.615234"/>
      </g>
     </g>
    </g>
    <g id="xtick_29">
     <g id="line2d_29">
      <path d="M 778.581818 315 
L 778.581818 43.2 
" clip-path="url(#p06bb10d2c8)" style="fill: none; stroke: #cccccc; stroke-linecap: round"/>
     </g>
     <g id="text_29">
      <!-- 28 -->
      <g style="fill: #262626" transform="translate(772.464787 332.373594)scale(0.11 -0.11)">
       <use xlink:href="#ArialMT-32"/>
       <use xlink:href="#ArialMT-38" x="55.615234"/>
      </g>
     </g>
    </g>
    <g id="xtick_30">
     <g id="line2d_30">
      <path d="M 798.872727 315 
L 798.872727 43.2 
" clip-path="url(#p06bb10d2c8)" style="fill: none; stroke: #cccccc; stroke-linecap: round"/>
     </g>
     <g id="text_30">
      <!-- 29 -->
      <g style="fill: #262626" transform="translate(792.755696 332.373594)scale(0.11 -0.11)">
       <use xlink:href="#ArialMT-32"/>
       <use xlink:href="#ArialMT-39" x="55.615234"/>
      </g>
     </g>
    </g>
    <g id="xtick_31">
     <g id="line2d_31">
      <path d="M 819.163636 315 
L 819.163636 43.2 
" clip-path="url(#p06bb10d2c8)" style="fill: none; stroke: #cccccc; stroke-linecap: round"/>
     </g>
     <g id="text_31">
      <!-- 30 -->
      <g style="fill: #262626" transform="translate(813.046605 332.373594)scale(0.11 -0.11)">
       <use xlink:href="#ArialMT-33"/>
       <use xlink:href="#ArialMT-30" x="55.615234"/>
      </g>
     </g>
    </g>
    <g id="xtick_32">
     <g id="line2d_32">
      <path d="M 839.454545 315 
L 839.454545 43.2 
" clip-path="url(#p06bb10d2c8)" style="fill: none; stroke: #cccccc; stroke-linecap: round"/>
     </g>
     <g id="text_32">
      <!-- 31 -->
      <g style="fill: #262626" transform="translate(833.337514 332.373594)scale(0.11 -0.11)">
       <use xlink:href="#ArialMT-33"/>
       <use xlink:href="#ArialMT-31" x="55.615234"/>
      </g>
     </g>
    </g>
    <g id="xtick_33">
     <g id="line2d_33">
      <path d="M 859.745455 315 
L 859.745455 43.2 
" clip-path="url(#p06bb10d2c8)" style="fill: none; stroke: #cccccc; stroke-linecap: round"/>
     </g>
     <g id="text_33">
      <!-- 32 -->
      <g style="fill: #262626" transform="translate(853.628423 332.373594)scale(0.11 -0.11)">
       <use xlink:href="#ArialMT-33"/>
       <use xlink:href="#ArialMT-32" x="55.615234"/>
      </g>
     </g>
    </g>
    <g id="xtick_34">
     <g id="line2d_34">
      <path d="M 880.036364 315 
L 880.036364 43.2 
" clip-path="url(#p06bb10d2c8)" style="fill: none; stroke: #cccccc; stroke-linecap: round"/>
     </g>
     <g id="text_34">
      <!-- 33 -->
      <g style="fill: #262626" transform="translate(873.919332 332.373594)scale(0.11 -0.11)">
       <use xlink:href="#ArialMT-33"/>
       <use xlink:href="#ArialMT-33" x="55.615234"/>
      </g>
     </g>
    </g>
    <g id="xtick_35">
     <g id="line2d_35">
      <path d="M 900.327273 315 
L 900.327273 43.2 
" clip-path="url(#p06bb10d2c8)" style="fill: none; stroke: #cccccc; stroke-linecap: round"/>
     </g>
     <g id="text_35">
      <!-- 34 -->
      <g style="fill: #262626" transform="translate(894.210241 332.373594)scale(0.11 -0.11)">
       <use xlink:href="#ArialMT-33"/>
       <use xlink:href="#ArialMT-34" x="55.615234"/>
      </g>
     </g>
    </g>
    <g id="xtick_36">
     <g id="line2d_36">
      <path d="M 920.618182 315 
L 920.618182 43.2 
" clip-path="url(#p06bb10d2c8)" style="fill: none; stroke: #cccccc; stroke-linecap: round"/>
     </g>
     <g id="text_36">
      <!-- 35 -->
      <g style="fill: #262626" transform="translate(914.501151 332.373594)scale(0.11 -0.11)">
       <use xlink:href="#ArialMT-33"/>
       <use xlink:href="#ArialMT-35" x="55.615234"/>
      </g>
     </g>
    </g>
    <g id="xtick_37">
     <g id="line2d_37">
      <path d="M 940.909091 315 
L 940.909091 43.2 
" clip-path="url(#p06bb10d2c8)" style="fill: none; stroke: #cccccc; stroke-linecap: round"/>
     </g>
     <g id="text_37">
      <!-- 36 -->
      <g style="fill: #262626" transform="translate(934.79206 332.373594)scale(0.11 -0.11)">
       <use xlink:href="#ArialMT-33"/>
       <use xlink:href="#ArialMT-36" x="55.615234"/>
      </g>
     </g>
    </g>
    <g id="xtick_38">
     <g id="line2d_38">
      <path d="M 961.2 315 
L 961.2 43.2 
" clip-path="url(#p06bb10d2c8)" style="fill: none; stroke: #cccccc; stroke-linecap: round"/>
     </g>
     <g id="text_38">
      <!-- 37 -->
      <g style="fill: #262626" transform="translate(955.082969 332.373594)scale(0.11 -0.11)">
       <use xlink:href="#ArialMT-33"/>
       <use xlink:href="#ArialMT-37" x="55.615234"/>
      </g>
     </g>
    </g>
    <g id="xtick_39">
     <g id="line2d_39">
      <path d="M 981.490909 315 
L 981.490909 43.2 
" clip-path="url(#p06bb10d2c8)" style="fill: none; stroke: #cccccc; stroke-linecap: round"/>
     </g>
     <g id="text_39">
      <!-- 38 -->
      <g style="fill: #262626" transform="translate(975.373878 332.373594)scale(0.11 -0.11)">
       <use xlink:href="#ArialMT-33"/>
       <use xlink:href="#ArialMT-38" x="55.615234"/>
      </g>
     </g>
    </g>
    <g id="xtick_40">
     <g id="line2d_40">
      <path d="M 1001.781818 315 
L 1001.781818 43.2 
" clip-path="url(#p06bb10d2c8)" style="fill: none; stroke: #cccccc; stroke-linecap: round"/>
     </g>
     <g id="text_40">
      <!-- 39 -->
      <g style="fill: #262626" transform="translate(995.664787 332.373594)scale(0.11 -0.11)">
       <use xlink:href="#ArialMT-33"/>
       <use xlink:href="#ArialMT-39" x="55.615234"/>
      </g>
     </g>
    </g>
    <g id="xtick_41">
     <g id="line2d_41">
      <path d="M 1022.072727 315 
L 1022.072727 43.2 
" clip-path="url(#p06bb10d2c8)" style="fill: none; stroke: #cccccc; stroke-linecap: round"/>
     </g>
     <g id="text_41">
      <!-- 40 -->
      <g style="fill: #262626" transform="translate(1015.955696 332.373594)scale(0.11 -0.11)">
       <use xlink:href="#ArialMT-34"/>
       <use xlink:href="#ArialMT-30" x="55.615234"/>
      </g>
     </g>
    </g>
    <g id="xtick_42">
     <g id="line2d_42">
      <path d="M 1042.363636 315 
L 1042.363636 43.2 
" clip-path="url(#p06bb10d2c8)" style="fill: none; stroke: #cccccc; stroke-linecap: round"/>
     </g>
     <g id="text_42">
      <!-- 41 -->
      <g style="fill: #262626" transform="translate(1036.246605 332.373594)scale(0.11 -0.11)">
       <use xlink:href="#ArialMT-34"/>
       <use xlink:href="#ArialMT-31" x="55.615234"/>
      </g>
     </g>
    </g>
    <g id="xtick_43">
     <g id="line2d_43">
      <path d="M 1062.654545 315 
L 1062.654545 43.2 
" clip-path="url(#p06bb10d2c8)" style="fill: none; stroke: #cccccc; stroke-linecap: round"/>
     </g>
     <g id="text_43">
      <!-- 42 -->
      <g style="fill: #262626" transform="translate(1056.537514 332.373594)scale(0.11 -0.11)">
       <use xlink:href="#ArialMT-34"/>
       <use xlink:href="#ArialMT-32" x="55.615234"/>
      </g>
     </g>
    </g>
    <g id="xtick_44">
     <g id="line2d_44">
      <path d="M 1082.945455 315 
L 1082.945455 43.2 
" clip-path="url(#p06bb10d2c8)" style="fill: none; stroke: #cccccc; stroke-linecap: round"/>
     </g>
     <g id="text_44">
      <!-- 43 -->
      <g style="fill: #262626" transform="translate(1076.828423 332.373594)scale(0.11 -0.11)">
       <use xlink:href="#ArialMT-34"/>
       <use xlink:href="#ArialMT-33" x="55.615234"/>
      </g>
     </g>
    </g>
    <g id="xtick_45">
     <g id="line2d_45">
      <path d="M 1103.236364 315 
L 1103.236364 43.2 
" clip-path="url(#p06bb10d2c8)" style="fill: none; stroke: #cccccc; stroke-linecap: round"/>
     </g>
     <g id="text_45">
      <!-- 44 -->
      <g style="fill: #262626" transform="translate(1097.119332 332.373594)scale(0.11 -0.11)">
       <use xlink:href="#ArialMT-34"/>
       <use xlink:href="#ArialMT-34" x="55.615234"/>
      </g>
     </g>
    </g>
    <g id="xtick_46">
     <g id="line2d_46">
      <path d="M 1123.527273 315 
L 1123.527273 43.2 
" clip-path="url(#p06bb10d2c8)" style="fill: none; stroke: #cccccc; stroke-linecap: round"/>
     </g>
     <g id="text_46">
      <!-- 45 -->
      <g style="fill: #262626" transform="translate(1117.410241 332.373594)scale(0.11 -0.11)">
       <use xlink:href="#ArialMT-34"/>
       <use xlink:href="#ArialMT-35" x="55.615234"/>
      </g>
     </g>
    </g>
    <g id="xtick_47">
     <g id="line2d_47">
      <path d="M 1143.818182 315 
L 1143.818182 43.2 
" clip-path="url(#p06bb10d2c8)" style="fill: none; stroke: #cccccc; stroke-linecap: round"/>
     </g>
     <g id="text_47">
      <!-- 46 -->
      <g style="fill: #262626" transform="translate(1137.701151 332.373594)scale(0.11 -0.11)">
       <use xlink:href="#ArialMT-34"/>
       <use xlink:href="#ArialMT-36" x="55.615234"/>
      </g>
     </g>
    </g>
    <g id="xtick_48">
     <g id="line2d_48">
      <path d="M 1164.109091 315 
L 1164.109091 43.2 
" clip-path="url(#p06bb10d2c8)" style="fill: none; stroke: #cccccc; stroke-linecap: round"/>
     </g>
     <g id="text_48">
      <!-- 47 -->
      <g style="fill: #262626" transform="translate(1157.99206 332.373594)scale(0.11 -0.11)">
       <use xlink:href="#ArialMT-34"/>
       <use xlink:href="#ArialMT-37" x="55.615234"/>
      </g>
     </g>
    </g>
    <g id="xtick_49">
     <g id="line2d_49">
      <path d="M 1184.4 315 
L 1184.4 43.2 
" clip-path="url(#p06bb10d2c8)" style="fill: none; stroke: #cccccc; stroke-linecap: round"/>
     </g>
     <g id="text_49">
      <!-- 48 -->
      <g style="fill: #262626" transform="translate(1178.282969 332.373594)scale(0.11 -0.11)">
       <use xlink:href="#ArialMT-34"/>
       <use xlink:href="#ArialMT-38" x="55.615234"/>
      </g>
     </g>
    </g>
    <g id="xtick_50">
     <g id="line2d_50">
      <path d="M 1204.690909 315 
L 1204.690909 43.2 
" clip-path="url(#p06bb10d2c8)" style="fill: none; stroke: #cccccc; stroke-linecap: round"/>
     </g>
     <g id="text_50">
      <!-- 49 -->
      <g style="fill: #262626" transform="translate(1198.573878 332.373594)scale(0.11 -0.11)">
       <use xlink:href="#ArialMT-34"/>
       <use xlink:href="#ArialMT-39" x="55.615234"/>
      </g>
     </g>
    </g>
    <g id="xtick_51">
     <g id="line2d_51">
      <path d="M 1224.981818 315 
L 1224.981818 43.2 
" clip-path="url(#p06bb10d2c8)" style="fill: none; stroke: #cccccc; stroke-linecap: round"/>
     </g>
     <g id="text_51">
      <!-- 50 -->
      <g style="fill: #262626" transform="translate(1218.864787 332.373594)scale(0.11 -0.11)">
       <use xlink:href="#ArialMT-35"/>
       <use xlink:href="#ArialMT-30" x="55.615234"/>
      </g>
     </g>
    </g>
    <g id="text_52">
     <!-- number of counts -->
     <g style="fill: #262626" transform="translate(691.644375 347.149219)scale(0.12 -0.12)">
      <defs>
       <path id="ArialMT-6e" d="M 422 0 
L 422 3319 
L 928 3319 
L 928 2847 
Q 1294 3394 1984 3394 
Q 2284 3394 2536 3286 
Q 2788 3178 2913 3003 
Q 3038 2828 3088 2588 
Q 3119 2431 3119 2041 
L 3119 0 
L 2556 0 
L 2556 2019 
Q 2556 2363 2490 2533 
Q 2425 2703 2258 2804 
Q 2091 2906 1866 2906 
Q 1506 2906 1245 2678 
Q 984 2450 984 1813 
L 984 0 
L 422 0 
z
" transform="scale(0.015625)"/>
       <path id="ArialMT-75" d="M 2597 0 
L 2597 488 
Q 2209 -75 1544 -75 
Q 1250 -75 995 37 
Q 741 150 617 320 
Q 494 491 444 738 
Q 409 903 409 1263 
L 409 3319 
L 972 3319 
L 972 1478 
Q 972 1038 1006 884 
Q 1059 663 1231 536 
Q 1403 409 1656 409 
Q 1909 409 2131 539 
Q 2353 669 2445 892 
Q 2538 1116 2538 1541 
L 2538 3319 
L 3100 3319 
L 3100 0 
L 2597 0 
z
" transform="scale(0.015625)"/>
       <path id="ArialMT-6d" d="M 422 0 
L 422 3319 
L 925 3319 
L 925 2853 
Q 1081 3097 1340 3245 
Q 1600 3394 1931 3394 
Q 2300 3394 2536 3241 
Q 2772 3088 2869 2813 
Q 3263 3394 3894 3394 
Q 4388 3394 4653 3120 
Q 4919 2847 4919 2278 
L 4919 0 
L 4359 0 
L 4359 2091 
Q 4359 2428 4304 2576 
Q 4250 2725 4106 2815 
Q 3963 2906 3769 2906 
Q 3419 2906 3187 2673 
Q 2956 2441 2956 1928 
L 2956 0 
L 2394 0 
L 2394 2156 
Q 2394 2531 2256 2718 
Q 2119 2906 1806 2906 
Q 1569 2906 1367 2781 
Q 1166 2656 1075 2415 
Q 984 2175 984 1722 
L 984 0 
L 422 0 
z
" transform="scale(0.015625)"/>
       <path id="ArialMT-62" d="M 941 0 
L 419 0 
L 419 4581 
L 981 4581 
L 981 2947 
Q 1338 3394 1891 3394 
Q 2197 3394 2470 3270 
Q 2744 3147 2920 2923 
Q 3097 2700 3197 2384 
Q 3297 2069 3297 1709 
Q 3297 856 2875 390 
Q 2453 -75 1863 -75 
Q 1275 -75 941 416 
L 941 0 
z
M 934 1684 
Q 934 1088 1097 822 
Q 1363 388 1816 388 
Q 2184 388 2453 708 
Q 2722 1028 2722 1663 
Q 2722 2313 2464 2622 
Q 2206 2931 1841 2931 
Q 1472 2931 1203 2611 
Q 934 2291 934 1684 
z
" transform="scale(0.015625)"/>
       <path id="ArialMT-65" d="M 2694 1069 
L 3275 997 
Q 3138 488 2766 206 
Q 2394 -75 1816 -75 
Q 1088 -75 661 373 
Q 234 822 234 1631 
Q 234 2469 665 2931 
Q 1097 3394 1784 3394 
Q 2450 3394 2872 2941 
Q 3294 2488 3294 1666 
Q 3294 1616 3291 1516 
L 816 1516 
Q 847 969 1125 678 
Q 1403 388 1819 388 
Q 2128 388 2347 550 
Q 2566 713 2694 1069 
z
M 847 1978 
L 2700 1978 
Q 2663 2397 2488 2606 
Q 2219 2931 1791 2931 
Q 1403 2931 1139 2672 
Q 875 2413 847 1978 
z
" transform="scale(0.015625)"/>
       <path id="ArialMT-72" d="M 416 0 
L 416 3319 
L 922 3319 
L 922 2816 
Q 1116 3169 1280 3281 
Q 1444 3394 1641 3394 
Q 1925 3394 2219 3213 
L 2025 2691 
Q 1819 2813 1613 2813 
Q 1428 2813 1281 2702 
Q 1134 2591 1072 2394 
Q 978 2094 978 1738 
L 978 0 
L 416 0 
z
" transform="scale(0.015625)"/>
       <path id="ArialMT-20" transform="scale(0.015625)"/>
       <path id="ArialMT-6f" d="M 213 1659 
Q 213 2581 725 3025 
Q 1153 3394 1769 3394 
Q 2453 3394 2887 2945 
Q 3322 2497 3322 1706 
Q 3322 1066 3130 698 
Q 2938 331 2570 128 
Q 2203 -75 1769 -75 
Q 1072 -75 642 372 
Q 213 819 213 1659 
z
M 791 1659 
Q 791 1022 1069 705 
Q 1347 388 1769 388 
Q 2188 388 2466 706 
Q 2744 1025 2744 1678 
Q 2744 2294 2464 2611 
Q 2184 2928 1769 2928 
Q 1347 2928 1069 2612 
Q 791 2297 791 1659 
z
" transform="scale(0.015625)"/>
       <path id="ArialMT-66" d="M 556 0 
L 556 2881 
L 59 2881 
L 59 3319 
L 556 3319 
L 556 3672 
Q 556 4006 616 4169 
Q 697 4388 901 4523 
Q 1106 4659 1475 4659 
Q 1713 4659 2000 4603 
L 1916 4113 
Q 1741 4144 1584 4144 
Q 1328 4144 1222 4034 
Q 1116 3925 1116 3625 
L 1116 3319 
L 1763 3319 
L 1763 2881 
L 1116 2881 
L 1116 0 
L 556 0 
z
" transform="scale(0.015625)"/>
       <path id="ArialMT-63" d="M 2588 1216 
L 3141 1144 
Q 3050 572 2676 248 
Q 2303 -75 1759 -75 
Q 1078 -75 664 370 
Q 250 816 250 1647 
Q 250 2184 428 2587 
Q 606 2991 970 3192 
Q 1334 3394 1763 3394 
Q 2303 3394 2647 3120 
Q 2991 2847 3088 2344 
L 2541 2259 
Q 2463 2594 2264 2762 
Q 2066 2931 1784 2931 
Q 1359 2931 1093 2626 
Q 828 2322 828 1663 
Q 828 994 1084 691 
Q 1341 388 1753 388 
Q 2084 388 2306 591 
Q 2528 794 2588 1216 
z
" transform="scale(0.015625)"/>
       <path id="ArialMT-74" d="M 1650 503 
L 1731 6 
Q 1494 -44 1306 -44 
Q 1000 -44 831 53 
Q 663 150 594 308 
Q 525 466 525 972 
L 525 2881 
L 113 2881 
L 113 3319 
L 525 3319 
L 525 4141 
L 1084 4478 
L 1084 3319 
L 1650 3319 
L 1650 2881 
L 1084 2881 
L 1084 941 
Q 1084 700 1114 631 
Q 1144 563 1211 522 
Q 1278 481 1403 481 
Q 1497 481 1650 503 
z
" transform="scale(0.015625)"/>
       <path id="ArialMT-73" d="M 197 991 
L 753 1078 
Q 800 744 1014 566 
Q 1228 388 1613 388 
Q 2000 388 2187 545 
Q 2375 703 2375 916 
Q 2375 1106 2209 1216 
Q 2094 1291 1634 1406 
Q 1016 1563 777 1677 
Q 538 1791 414 1992 
Q 291 2194 291 2438 
Q 291 2659 392 2848 
Q 494 3038 669 3163 
Q 800 3259 1026 3326 
Q 1253 3394 1513 3394 
Q 1903 3394 2198 3281 
Q 2494 3169 2634 2976 
Q 2775 2784 2828 2463 
L 2278 2388 
Q 2241 2644 2061 2787 
Q 1881 2931 1553 2931 
Q 1166 2931 1000 2803 
Q 834 2675 834 2503 
Q 834 2394 903 2306 
Q 972 2216 1119 2156 
Q 1203 2125 1616 2013 
Q 2213 1853 2448 1751 
Q 2684 1650 2818 1456 
Q 2953 1263 2953 975 
Q 2953 694 2789 445 
Q 2625 197 2315 61 
Q 2006 -75 1616 -75 
Q 969 -75 630 194 
Q 291 463 197 991 
z
" transform="scale(0.015625)"/>
      </defs>
      <use xlink:href="#ArialMT-6e"/>
      <use xlink:href="#ArialMT-75" x="55.615234"/>
      <use xlink:href="#ArialMT-6d" x="111.230469"/>
      <use xlink:href="#ArialMT-62" x="194.53125"/>
      <use xlink:href="#ArialMT-65" x="250.146484"/>
      <use xlink:href="#ArialMT-72" x="305.761719"/>
      <use xlink:href="#ArialMT-20" x="339.0625"/>
      <use xlink:href="#ArialMT-6f" x="366.845703"/>
      <use xlink:href="#ArialMT-66" x="422.460938"/>
      <use xlink:href="#ArialMT-20" x="450.244141"/>
      <use xlink:href="#ArialMT-63" x="478.027344"/>
      <use xlink:href="#ArialMT-6f" x="528.027344"/>
      <use xlink:href="#ArialMT-75" x="583.642578"/>
      <use xlink:href="#ArialMT-6e" x="639.257812"/>
      <use xlink:href="#ArialMT-74" x="694.873047"/>
      <use xlink:href="#ArialMT-73" x="722.65625"/>
     </g>
    </g>
   </g>
   <g id="matplotlib.axis_2">
    <g id="ytick_1">
     <g id="line2d_52">
      <path d="M 180 315 
L 1296 315 
" clip-path="url(#p06bb10d2c8)" style="fill: none; stroke: #cccccc; stroke-linecap: round"/>
     </g>
     <g id="text_53">
      <!-- 0 -->
      <g style="fill: #262626" transform="translate(164.382969 318.936797)scale(0.11 -0.11)">
       <use xlink:href="#ArialMT-30"/>
      </g>
     </g>
    </g>
    <g id="ytick_2">
     <g id="line2d_53">
      <path d="M 180 269.792675 
L 1296 269.792675 
" clip-path="url(#p06bb10d2c8)" style="fill: none; stroke: #cccccc; stroke-linecap: round"/>
     </g>
     <g id="text_54">
      <!-- 500 -->
      <g style="fill: #262626" transform="translate(152.148906 273.729472)scale(0.11 -0.11)">
       <use xlink:href="#ArialMT-35"/>
       <use xlink:href="#ArialMT-30" x="55.615234"/>
       <use xlink:href="#ArialMT-30" x="111.230469"/>
      </g>
     </g>
    </g>
    <g id="ytick_3">
     <g id="line2d_54">
      <path d="M 180 224.58535 
L 1296 224.58535 
" clip-path="url(#p06bb10d2c8)" style="fill: none; stroke: #cccccc; stroke-linecap: round"/>
     </g>
     <g id="text_55">
      <!-- 1000 -->
      <g style="fill: #262626" transform="translate(146.031875 228.522147)scale(0.11 -0.11)">
       <use xlink:href="#ArialMT-31"/>
       <use xlink:href="#ArialMT-30" x="55.615234"/>
       <use xlink:href="#ArialMT-30" x="111.230469"/>
       <use xlink:href="#ArialMT-30" x="166.845703"/>
      </g>
     </g>
    </g>
    <g id="ytick_4">
     <g id="line2d_55">
      <path d="M 180 179.378025 
L 1296 179.378025 
" clip-path="url(#p06bb10d2c8)" style="fill: none; stroke: #cccccc; stroke-linecap: round"/>
     </g>
     <g id="text_56">
      <!-- 1500 -->
      <g style="fill: #262626" transform="translate(146.031875 183.314822)scale(0.11 -0.11)">
       <use xlink:href="#ArialMT-31"/>
       <use xlink:href="#ArialMT-35" x="55.615234"/>
       <use xlink:href="#ArialMT-30" x="111.230469"/>
       <use xlink:href="#ArialMT-30" x="166.845703"/>
      </g>
     </g>
    </g>
    <g id="ytick_5">
     <g id="line2d_56">
      <path d="M 180 134.1707 
L 1296 134.1707 
" clip-path="url(#p06bb10d2c8)" style="fill: none; stroke: #cccccc; stroke-linecap: round"/>
     </g>
     <g id="text_57">
      <!-- 2000 -->
      <g style="fill: #262626" transform="translate(146.031875 138.107497)scale(0.11 -0.11)">
       <use xlink:href="#ArialMT-32"/>
       <use xlink:href="#ArialMT-30" x="55.615234"/>
       <use xlink:href="#ArialMT-30" x="111.230469"/>
       <use xlink:href="#ArialMT-30" x="166.845703"/>
      </g>
     </g>
    </g>
    <g id="ytick_6">
     <g id="line2d_57">
      <path d="M 180 88.963375 
L 1296 88.963375 
" clip-path="url(#p06bb10d2c8)" style="fill: none; stroke: #cccccc; stroke-linecap: round"/>
     </g>
     <g id="text_58">
      <!-- 2500 -->
      <g style="fill: #262626" transform="translate(146.031875 92.900172)scale(0.11 -0.11)">
       <use xlink:href="#ArialMT-32"/>
       <use xlink:href="#ArialMT-35" x="55.615234"/>
       <use xlink:href="#ArialMT-30" x="111.230469"/>
       <use xlink:href="#ArialMT-30" x="166.845703"/>
      </g>
     </g>
    </g>
    <g id="ytick_7">
     <g id="line2d_58">
      <path d="M 180 43.75605 
L 1296 43.75605 
" clip-path="url(#p06bb10d2c8)" style="fill: none; stroke: #cccccc; stroke-linecap: round"/>
     </g>
     <g id="text_59">
      <!-- 3000 -->
      <g style="fill: #262626" transform="translate(146.031875 47.692847)scale(0.11 -0.11)">
       <use xlink:href="#ArialMT-33"/>
       <use xlink:href="#ArialMT-30" x="55.615234"/>
       <use xlink:href="#ArialMT-30" x="111.230469"/>
       <use xlink:href="#ArialMT-30" x="166.845703"/>
      </g>
     </g>
    </g>
    <g id="text_60">
     <!-- number of cunstomer -->
     <g style="fill: #262626" transform="translate(139.646875 235.787813)rotate(-90)scale(0.12 -0.12)">
      <use xlink:href="#ArialMT-6e"/>
      <use xlink:href="#ArialMT-75" x="55.615234"/>
      <use xlink:href="#ArialMT-6d" x="111.230469"/>
      <use xlink:href="#ArialMT-62" x="194.53125"/>
      <use xlink:href="#ArialMT-65" x="250.146484"/>
      <use xlink:href="#ArialMT-72" x="305.761719"/>
      <use xlink:href="#ArialMT-20" x="339.0625"/>
      <use xlink:href="#ArialMT-6f" x="366.845703"/>
      <use xlink:href="#ArialMT-66" x="422.460938"/>
      <use xlink:href="#ArialMT-20" x="450.244141"/>
      <use xlink:href="#ArialMT-63" x="478.027344"/>
      <use xlink:href="#ArialMT-75" x="528.027344"/>
      <use xlink:href="#ArialMT-6e" x="583.642578"/>
      <use xlink:href="#ArialMT-73" x="639.257812"/>
      <use xlink:href="#ArialMT-74" x="689.257812"/>
      <use xlink:href="#ArialMT-6f" x="717.041016"/>
      <use xlink:href="#ArialMT-6d" x="772.65625"/>
      <use xlink:href="#ArialMT-65" x="855.957031"/>
      <use xlink:href="#ArialMT-72" x="911.572266"/>
     </g>
    </g>
   </g>
   <g id="patch_3">
    <path d="M 230.727273 315 
L 287.090909 315 
L 287.090909 312.558804 
L 230.727273 312.558804 
z
" clip-path="url(#p06bb10d2c8)" style="fill: #4c72b0; fill-opacity: 0.5"/>
   </g>
   <g id="patch_4">
    <path d="M 287.090909 315 
L 343.454545 315 
L 343.454545 291.67302 
L 287.090909 291.67302 
z
" clip-path="url(#p06bb10d2c8)" style="fill: #4c72b0; fill-opacity: 0.5"/>
   </g>
   <g id="patch_5">
    <path d="M 343.454545 315 
L 399.818182 315 
L 399.818182 214.006836 
L 343.454545 214.006836 
z
" clip-path="url(#p06bb10d2c8)" style="fill: #4c72b0; fill-opacity: 0.5"/>
   </g>
   <g id="patch_6">
    <path d="M 399.818182 315 
L 456.181818 315 
L 456.181818 84.98513 
L 399.818182 84.98513 
z
" clip-path="url(#p06bb10d2c8)" style="fill: #4c72b0; fill-opacity: 0.5"/>
   </g>
   <g id="patch_7">
    <path d="M 456.181818 315 
L 512.545455 315 
L 512.545455 133.085724 
L 456.181818 133.085724 
z
" clip-path="url(#p06bb10d2c8)" style="fill: #4c72b0; fill-opacity: 0.5"/>
   </g>
   <g id="patch_8">
    <path d="M 512.545455 315 
L 568.909091 315 
L 568.909091 56.142857 
L 512.545455 56.142857 
z
" clip-path="url(#p06bb10d2c8)" style="fill: #4c72b0; fill-opacity: 0.5"/>
   </g>
   <g id="patch_9">
    <path d="M 568.909091 315 
L 625.272727 315 
L 625.272727 91.404571 
L 568.909091 91.404571 
z
" clip-path="url(#p06bb10d2c8)" style="fill: #4c72b0; fill-opacity: 0.5"/>
   </g>
   <g id="patch_10">
    <path d="M 625.272727 315 
L 681.636364 315 
L 681.636364 127.660845 
L 625.272727 127.660845 
z
" clip-path="url(#p06bb10d2c8)" style="fill: #4c72b0; fill-opacity: 0.5"/>
   </g>
   <g id="patch_11">
    <path d="M 681.636364 315 
L 738 315 
L 738 213.554763 
L 681.636364 213.554763 
z
" clip-path="url(#p06bb10d2c8)" style="fill: #4c72b0; fill-opacity: 0.5"/>
   </g>
   <g id="patch_12">
    <path d="M 738 315 
L 794.363636 315 
L 794.363636 210.299835 
L 738 210.299835 
z
" clip-path="url(#p06bb10d2c8)" style="fill: #4c72b0; fill-opacity: 0.5"/>
   </g>
   <g id="patch_13">
    <path d="M 794.363636 315 
L 850.727273 315 
L 850.727273 249.991867 
L 794.363636 249.991867 
z
" clip-path="url(#p06bb10d2c8)" style="fill: #4c72b0; fill-opacity: 0.5"/>
   </g>
   <g id="patch_14">
    <path d="M 850.727273 315 
L 907.090909 315 
L 907.090909 283.806946 
L 850.727273 283.806946 
z
" clip-path="url(#p06bb10d2c8)" style="fill: #4c72b0; fill-opacity: 0.5"/>
   </g>
   <g id="patch_15">
    <path d="M 907.090909 315 
L 963.454545 315 
L 963.454545 297.821217 
L 907.090909 297.821217 
z
" clip-path="url(#p06bb10d2c8)" style="fill: #4c72b0; fill-opacity: 0.5"/>
   </g>
   <g id="patch_16">
    <path d="M 963.454545 315 
L 1019.818182 315 
L 1019.818182 310.750511 
L 963.454545 310.750511 
z
" clip-path="url(#p06bb10d2c8)" style="fill: #4c72b0; fill-opacity: 0.5"/>
   </g>
   <g id="patch_17">
    <path d="M 1019.818182 315 
L 1076.181818 315 
L 1076.181818 311.564243 
L 1019.818182 311.564243 
z
" clip-path="url(#p06bb10d2c8)" style="fill: #4c72b0; fill-opacity: 0.5"/>
   </g>
   <g id="patch_18">
    <path d="M 1076.181818 315 
L 1132.545455 315 
L 1132.545455 314.457512 
L 1076.181818 314.457512 
z
" clip-path="url(#p06bb10d2c8)" style="fill: #4c72b0; fill-opacity: 0.5"/>
   </g>
   <g id="patch_19">
    <path d="M 1132.545455 315 
L 1188.909091 315 
L 1188.909091 314.367097 
L 1132.545455 314.367097 
z
" clip-path="url(#p06bb10d2c8)" style="fill: #4c72b0; fill-opacity: 0.5"/>
   </g>
   <g id="patch_20">
    <path d="M 1188.909091 315 
L 1245.272727 315 
L 1245.272727 314.819171 
L 1188.909091 314.819171 
z
" clip-path="url(#p06bb10d2c8)" style="fill: #4c72b0; fill-opacity: 0.5"/>
   </g>
   <g id="line2d_59">
    <path d="M 230.727273 314.004917 
L 240.923709 313.287248 
L 251.120146 312.352813 
L 261.316583 311.132988 
L 266.414801 310.35906 
L 271.51302 309.432727 
L 276.611238 308.319064 
L 281.709456 306.983889 
L 286.807675 305.394401 
L 291.905893 303.518863 
L 297.004111 301.326549 
L 302.10233 298.788953 
L 307.200548 295.882171 
L 312.298767 292.589131 
L 317.396985 288.89967 
L 322.495203 284.807156 
L 327.593422 280.302276 
L 332.69164 275.366897 
L 337.789858 269.972041 
L 342.888077 264.082821 
L 347.986295 257.669784 
L 353.084513 250.722162 
L 358.182732 243.25639 
L 363.28095 235.314805 
L 368.379169 226.954312 
L 373.477387 218.230735 
L 378.575605 209.187766 
L 383.673824 199.85751 
L 393.87026 180.485222 
L 409.164915 150.792115 
L 419.361352 131.648321 
L 424.459571 122.425692 
L 429.557789 113.474889 
L 434.656007 104.873091 
L 439.754226 96.765669 
L 444.852444 89.353446 
L 449.950662 82.844044 
L 455.048881 77.386185 
L 460.147099 73.017331 
L 465.245317 69.650634 
L 470.343536 67.108563 
L 475.441754 65.187971 
L 480.539973 63.72747 
L 485.638191 62.649426 
L 490.736409 61.963393 
L 495.834628 61.736052 
L 500.932846 62.04531 
L 506.031064 62.938317 
L 511.129283 64.406696 
L 516.227501 66.382731 
L 521.32572 68.752969 
L 526.423938 71.38213 
L 546.816811 82.346861 
L 597.798995 108.742487 
L 613.09365 117.049062 
L 623.290087 122.800027 
L 633.486524 128.765248 
L 648.781179 137.836688 
L 658.977615 143.611327 
L 674.27227 152.070723 
L 679.370489 155.069915 
L 684.468707 158.248789 
L 689.566926 161.628747 
L 694.665144 165.209877 
L 699.763362 168.98009 
L 704.861581 172.923188 
L 715.058017 181.249363 
L 740.549109 202.762981 
L 750.745546 210.850391 
L 766.040201 222.550962 
L 776.236638 229.937672 
L 781.334856 233.383742 
L 786.433074 236.634579 
L 791.531293 239.704516 
L 801.72773 245.472715 
L 842.513476 267.749036 
L 852.709913 272.951003 
L 862.90635 277.805536 
L 873.102787 282.340336 
L 883.299223 286.570447 
L 888.397442 288.524744 
L 893.49566 290.322776 
L 898.593878 291.928287 
L 903.692097 293.32075 
L 908.790315 294.50364 
L 913.888534 295.504576 
L 924.08497 297.142695 
L 944.477844 300.110188 
L 954.67428 301.812908 
L 980.165372 306.525963 
L 985.263591 307.28817 
L 990.361809 307.922562 
L 1000.558246 308.842648 
L 1031.147556 310.992809 
L 1046.442211 312.254093 
L 1056.638648 312.912596 
L 1071.933303 313.571411 
L 1097.424395 314.32928 
L 1112.71905 314.595457 
L 1128.013705 314.607704 
L 1158.603015 314.548127 
L 1214.683417 314.782093 
L 1245.272727 314.88204 
L 1245.272727 314.88204 
" clip-path="url(#p06bb10d2c8)" style="fill: none; stroke: #4c72b0; stroke-width: 1.5; stroke-linecap: round"/>
   </g>
   <g id="patch_21">
    <path d="M 180 315 
L 180 43.2 
" style="fill: none; stroke: #cccccc; stroke-width: 1.25; stroke-linejoin: miter; stroke-linecap: square"/>
   </g>
   <g id="patch_22">
    <path d="M 1296 315 
L 1296 43.2 
" style="fill: none; stroke: #cccccc; stroke-width: 1.25; stroke-linejoin: miter; stroke-linecap: square"/>
   </g>
   <g id="patch_23">
    <path d="M 180 315 
L 1296 315 
" style="fill: none; stroke: #cccccc; stroke-width: 1.25; stroke-linejoin: miter; stroke-linecap: square"/>
   </g>
   <g id="patch_24">
    <path d="M 180 43.2 
L 1296 43.2 
" style="fill: none; stroke: #cccccc; stroke-width: 1.25; stroke-linejoin: miter; stroke-linecap: square"/>
   </g>
   <g id="text_61">
    <!-- 27 -->
    <g style="fill: #262626" transform="translate(252.235966 306.660992)scale(0.12 -0.12)">
     <use xlink:href="#ArialMT-32"/>
     <use xlink:href="#ArialMT-37" x="55.615234"/>
    </g>
   </g>
   <g id="text_62">
    <!-- 258 -->
    <g style="fill: #262626" transform="translate(305.26304 285.775208)scale(0.12 -0.12)">
     <use xlink:href="#ArialMT-32"/>
     <use xlink:href="#ArialMT-35" x="55.615234"/>
     <use xlink:href="#ArialMT-38" x="111.230469"/>
    </g>
   </g>
   <g id="text_63">
    <!-- 1117 -->
    <g style="fill: #262626" transform="translate(359.175114 208.109023)scale(0.12 -0.12)">
     <use xlink:href="#ArialMT-31"/>
     <use xlink:href="#ArialMT-31" x="48.240234"/>
     <use xlink:href="#ArialMT-31" x="96.480469"/>
     <use xlink:href="#ArialMT-37" x="152.095703"/>
    </g>
   </g>
   <g id="text_64">
    <!-- 2544 -->
    <g style="fill: #262626" transform="translate(414.65375 79.087318)scale(0.12 -0.12)">
     <use xlink:href="#ArialMT-32"/>
     <use xlink:href="#ArialMT-35" x="55.615234"/>
     <use xlink:href="#ArialMT-34" x="111.230469"/>
     <use xlink:href="#ArialMT-34" x="166.845703"/>
    </g>
   </g>
   <g id="text_65">
    <!-- 2012 -->
    <g style="fill: #262626" transform="translate(471.017386 127.187912)scale(0.12 -0.12)">
     <use xlink:href="#ArialMT-32"/>
     <use xlink:href="#ArialMT-30" x="55.615234"/>
     <use xlink:href="#ArialMT-31" x="111.230469"/>
     <use xlink:href="#ArialMT-32" x="166.845703"/>
    </g>
   </g>
   <g id="text_66">
    <!-- 2863 -->
    <g style="fill: #262626" transform="translate(527.381023 50.245045)scale(0.12 -0.12)">
     <use xlink:href="#ArialMT-32"/>
     <use xlink:href="#ArialMT-38" x="55.615234"/>
     <use xlink:href="#ArialMT-36" x="111.230469"/>
     <use xlink:href="#ArialMT-33" x="166.845703"/>
    </g>
   </g>
   <g id="text_67">
    <!-- 2473 -->
    <g style="fill: #262626" transform="translate(583.744659 85.506758)scale(0.12 -0.12)">
     <use xlink:href="#ArialMT-32"/>
     <use xlink:href="#ArialMT-34" x="55.615234"/>
     <use xlink:href="#ArialMT-37" x="111.230469"/>
     <use xlink:href="#ArialMT-33" x="166.845703"/>
    </g>
   </g>
   <g id="text_68">
    <!-- 2072 -->
    <g style="fill: #262626" transform="translate(640.108295 121.763033)scale(0.12 -0.12)">
     <use xlink:href="#ArialMT-32"/>
     <use xlink:href="#ArialMT-30" x="55.615234"/>
     <use xlink:href="#ArialMT-37" x="111.230469"/>
     <use xlink:href="#ArialMT-32" x="166.845703"/>
    </g>
   </g>
   <g id="text_69">
    <!-- 1122 -->
    <g style="fill: #262626" transform="translate(696.914432 207.65695)scale(0.12 -0.12)">
     <use xlink:href="#ArialMT-31"/>
     <use xlink:href="#ArialMT-31" x="48.240234"/>
     <use xlink:href="#ArialMT-32" x="103.855469"/>
     <use xlink:href="#ArialMT-32" x="159.470703"/>
    </g>
   </g>
   <g id="text_70">
    <!-- 1158 -->
    <g style="fill: #262626" transform="translate(753.278068 204.402023)scale(0.12 -0.12)">
     <use xlink:href="#ArialMT-31"/>
     <use xlink:href="#ArialMT-31" x="48.240234"/>
     <use xlink:href="#ArialMT-35" x="103.855469"/>
     <use xlink:href="#ArialMT-38" x="159.470703"/>
    </g>
   </g>
   <g id="text_71">
    <!-- 719 -->
    <g style="fill: #262626" transform="translate(812.535767 244.094054)scale(0.12 -0.12)">
     <use xlink:href="#ArialMT-37"/>
     <use xlink:href="#ArialMT-31" x="55.615234"/>
     <use xlink:href="#ArialMT-39" x="111.230469"/>
    </g>
   </g>
   <g id="text_72">
    <!-- 345 -->
    <g style="fill: #262626" transform="translate(868.899403 277.909133)scale(0.12 -0.12)">
     <use xlink:href="#ArialMT-33"/>
     <use xlink:href="#ArialMT-34" x="55.615234"/>
     <use xlink:href="#ArialMT-35" x="111.230469"/>
    </g>
   </g>
   <g id="text_73">
    <!-- 190 -->
    <g style="fill: #262626" transform="translate(925.26304 291.923404)scale(0.12 -0.12)">
     <use xlink:href="#ArialMT-31"/>
     <use xlink:href="#ArialMT-39" x="55.615234"/>
     <use xlink:href="#ArialMT-30" x="111.230469"/>
    </g>
   </g>
   <g id="text_74">
    <!-- 47 -->
    <g style="fill: #262626" transform="translate(984.963239 304.852699)scale(0.12 -0.12)">
     <use xlink:href="#ArialMT-34"/>
     <use xlink:href="#ArialMT-37" x="55.615234"/>
    </g>
   </g>
   <g id="text_75">
    <!-- 38 -->
    <g style="fill: #262626" transform="translate(1041.326875 305.666431)scale(0.12 -0.12)">
     <use xlink:href="#ArialMT-33"/>
     <use xlink:href="#ArialMT-38" x="55.615234"/>
    </g>
   </g>
   <g id="text_76">
    <!-- 6 -->
    <g style="fill: #262626" transform="translate(1101.027074 308.5597)scale(0.12 -0.12)">
     <use xlink:href="#ArialMT-36"/>
    </g>
   </g>
   <g id="text_77">
    <!-- 7 -->
    <g style="fill: #262626" transform="translate(1157.39071 308.469285)scale(0.12 -0.12)">
     <use xlink:href="#ArialMT-37"/>
    </g>
   </g>
   <g id="text_78">
    <!-- 2 -->
    <g style="fill: #262626" transform="translate(1213.754347 308.921358)scale(0.12 -0.12)">
     <use xlink:href="#ArialMT-32"/>
    </g>
   </g>
   <g id="text_79">
    <!-- Distribution of event counts iin transcript -->
    <g style="fill: #262626" transform="translate(631.62375 37.2)scale(0.12 -0.12)">
     <defs>
      <path id="ArialMT-44" d="M 494 0 
L 494 4581 
L 2072 4581 
Q 2606 4581 2888 4516 
Q 3281 4425 3559 4188 
Q 3922 3881 4101 3404 
Q 4281 2928 4281 2316 
Q 4281 1794 4159 1391 
Q 4038 988 3847 723 
Q 3656 459 3429 307 
Q 3203 156 2883 78 
Q 2563 0 2147 0 
L 494 0 
z
M 1100 541 
L 2078 541 
Q 2531 541 2789 625 
Q 3047 709 3200 863 
Q 3416 1078 3536 1442 
Q 3656 1806 3656 2325 
Q 3656 3044 3420 3430 
Q 3184 3816 2847 3947 
Q 2603 4041 2063 4041 
L 1100 4041 
L 1100 541 
z
" transform="scale(0.015625)"/>
      <path id="ArialMT-69" d="M 425 3934 
L 425 4581 
L 988 4581 
L 988 3934 
L 425 3934 
z
M 425 0 
L 425 3319 
L 988 3319 
L 988 0 
L 425 0 
z
" transform="scale(0.015625)"/>
      <path id="ArialMT-76" d="M 1344 0 
L 81 3319 
L 675 3319 
L 1388 1331 
Q 1503 1009 1600 663 
Q 1675 925 1809 1294 
L 2547 3319 
L 3125 3319 
L 1869 0 
L 1344 0 
z
" transform="scale(0.015625)"/>
      <path id="ArialMT-61" d="M 2588 409 
Q 2275 144 1986 34 
Q 1697 -75 1366 -75 
Q 819 -75 525 192 
Q 231 459 231 875 
Q 231 1119 342 1320 
Q 453 1522 633 1644 
Q 813 1766 1038 1828 
Q 1203 1872 1538 1913 
Q 2219 1994 2541 2106 
Q 2544 2222 2544 2253 
Q 2544 2597 2384 2738 
Q 2169 2928 1744 2928 
Q 1347 2928 1158 2789 
Q 969 2650 878 2297 
L 328 2372 
Q 403 2725 575 2942 
Q 747 3159 1072 3276 
Q 1397 3394 1825 3394 
Q 2250 3394 2515 3294 
Q 2781 3194 2906 3042 
Q 3031 2891 3081 2659 
Q 3109 2516 3109 2141 
L 3109 1391 
Q 3109 606 3145 398 
Q 3181 191 3288 0 
L 2700 0 
Q 2613 175 2588 409 
z
M 2541 1666 
Q 2234 1541 1622 1453 
Q 1275 1403 1131 1340 
Q 988 1278 909 1158 
Q 831 1038 831 891 
Q 831 666 1001 516 
Q 1172 366 1500 366 
Q 1825 366 2078 508 
Q 2331 650 2450 897 
Q 2541 1088 2541 1459 
L 2541 1666 
z
" transform="scale(0.015625)"/>
      <path id="ArialMT-70" d="M 422 -1272 
L 422 3319 
L 934 3319 
L 934 2888 
Q 1116 3141 1344 3267 
Q 1572 3394 1897 3394 
Q 2322 3394 2647 3175 
Q 2972 2956 3137 2557 
Q 3303 2159 3303 1684 
Q 3303 1175 3120 767 
Q 2938 359 2589 142 
Q 2241 -75 1856 -75 
Q 1575 -75 1351 44 
Q 1128 163 984 344 
L 984 -1272 
L 422 -1272 
z
M 931 1641 
Q 931 1000 1190 694 
Q 1450 388 1819 388 
Q 2194 388 2461 705 
Q 2728 1022 2728 1688 
Q 2728 2322 2467 2637 
Q 2206 2953 1844 2953 
Q 1484 2953 1207 2617 
Q 931 2281 931 1641 
z
" transform="scale(0.015625)"/>
     </defs>
     <use xlink:href="#ArialMT-44"/>
     <use xlink:href="#ArialMT-69" x="72.216797"/>
     <use xlink:href="#ArialMT-73" x="94.433594"/>
     <use xlink:href="#ArialMT-74" x="144.433594"/>
     <use xlink:href="#ArialMT-72" x="172.216797"/>
     <use xlink:href="#ArialMT-69" x="205.517578"/>
     <use xlink:href="#ArialMT-62" x="227.734375"/>
     <use xlink:href="#ArialMT-75" x="283.349609"/>
     <use xlink:href="#ArialMT-74" x="338.964844"/>
     <use xlink:href="#ArialMT-69" x="366.748047"/>
     <use xlink:href="#ArialMT-6f" x="388.964844"/>
     <use xlink:href="#ArialMT-6e" x="444.580078"/>
     <use xlink:href="#ArialMT-20" x="500.195312"/>
     <use xlink:href="#ArialMT-6f" x="527.978516"/>
     <use xlink:href="#ArialMT-66" x="583.59375"/>
     <use xlink:href="#ArialMT-20" x="611.376953"/>
     <use xlink:href="#ArialMT-65" x="639.160156"/>
     <use xlink:href="#ArialMT-76" x="694.775391"/>
     <use xlink:href="#ArialMT-65" x="744.775391"/>
     <use xlink:href="#ArialMT-6e" x="800.390625"/>
     <use xlink:href="#ArialMT-74" x="856.005859"/>
     <use xlink:href="#ArialMT-20" x="883.789062"/>
     <use xlink:href="#ArialMT-63" x="911.572266"/>
     <use xlink:href="#ArialMT-6f" x="961.572266"/>
     <use xlink:href="#ArialMT-75" x="1017.1875"/>
     <use xlink:href="#ArialMT-6e" x="1072.802734"/>
     <use xlink:href="#ArialMT-74" x="1128.417969"/>
     <use xlink:href="#ArialMT-73" x="1156.201172"/>
     <use xlink:href="#ArialMT-20" x="1206.201172"/>
     <use xlink:href="#ArialMT-69" x="1233.984375"/>
     <use xlink:href="#ArialMT-69" x="1256.201172"/>
     <use xlink:href="#ArialMT-6e" x="1278.417969"/>
     <use xlink:href="#ArialMT-20" x="1334.033203"/>
     <use xlink:href="#ArialMT-74" x="1361.816406"/>
     <use xlink:href="#ArialMT-72" x="1389.599609"/>
     <use xlink:href="#ArialMT-61" x="1422.900391"/>
     <use xlink:href="#ArialMT-6e" x="1478.515625"/>
     <use xlink:href="#ArialMT-73" x="1534.130859"/>
     <use xlink:href="#ArialMT-63" x="1584.130859"/>
     <use xlink:href="#ArialMT-72" x="1634.130859"/>
     <use xlink:href="#ArialMT-69" x="1667.431641"/>
     <use xlink:href="#ArialMT-70" x="1689.648438"/>
     <use xlink:href="#ArialMT-74" x="1745.263672"/>
    </g>
   </g>
   <g id="legend_1">
    <g id="patch_25">
     <path d="M 1187.668906 67.559844 
L 1288.3 67.559844 
Q 1290.5 67.559844 1290.5 65.359844 
L 1290.5 50.9 
Q 1290.5 48.7 1288.3 48.7 
L 1187.668906 48.7 
Q 1185.468906 48.7 1185.468906 50.9 
L 1185.468906 65.359844 
Q 1185.468906 67.559844 1187.668906 67.559844 
z
" style="fill: #ffffff; opacity: 0.8; stroke: #cccccc; stroke-linejoin: miter"/>
    </g>
    <g id="patch_26">
     <path d="M 1189.868906 60.973594 
L 1211.868906 60.973594 
L 1211.868906 53.273594 
L 1189.868906 53.273594 
z
" style="fill: #4c72b0; fill-opacity: 0.5"/>
    </g>
    <g id="text_80">
     <!-- event_counts -->
     <g style="fill: #262626" transform="translate(1220.668906 60.973594)scale(0.11 -0.11)">
      <defs>
       <path id="ArialMT-5f" d="M -97 -1272 
L -97 -866 
L 3631 -866 
L 3631 -1272 
L -97 -1272 
z
" transform="scale(0.015625)"/>
      </defs>
      <use xlink:href="#ArialMT-65"/>
      <use xlink:href="#ArialMT-76" x="55.615234"/>
      <use xlink:href="#ArialMT-65" x="105.615234"/>
      <use xlink:href="#ArialMT-6e" x="161.230469"/>
      <use xlink:href="#ArialMT-74" x="216.845703"/>
      <use xlink:href="#ArialMT-5f" x="244.628906"/>
      <use xlink:href="#ArialMT-63" x="300.244141"/>
      <use xlink:href="#ArialMT-6f" x="350.244141"/>
      <use xlink:href="#ArialMT-75" x="405.859375"/>
      <use xlink:href="#ArialMT-6e" x="461.474609"/>
      <use xlink:href="#ArialMT-74" x="517.089844"/>
      <use xlink:href="#ArialMT-73" x="544.873047"/>
     </g>
    </g>
   </g>
  </g>
 </g>
 <defs>
  <clipPath id="p06bb10d2c8">
   <rect x="180" y="43.2" width="1116" height="271.8"/>
  </clipPath>
 </defs>
</svg>
