<?xml version="1.0" encoding="utf-8" standalone="no"?>
<!DOCTYPE svg PUBLIC "-//W3C//DTD SVG 1.1//EN"
  "http://www.w3.org/Graphics/SVG/1.1/DTD/svg11.dtd">
<!-- Created with matplotlib (https://matplotlib.org/) -->
<svg height="360pt" version="1.1" viewBox="0 0 1440 360" width="1440pt" xmlns="http://www.w3.org/2000/svg" xmlns:xlink="http://www.w3.org/1999/xlink">
 <metadata>
  <rdf:RDF xmlns:cc="http://creativecommons.org/ns#" xmlns:dc="http://purl.org/dc/elements/1.1/" xmlns:rdf="http://www.w3.org/1999/02/22-rdf-syntax-ns#">
   <cc:Work>
    <dc:type rdf:resource="http://purl.org/dc/dcmitype/StillImage"/>
    <dc:date>2021-11-08T03:06:47.128748</dc:date>
    <dc:format>image/svg+xml</dc:format>
    <dc:creator>
     <cc:Agent>
      <dc:title>Matplotlib v3.3.4, https://matplotlib.org/</dc:title>
     </cc:Agent>
    </dc:creator>
   </cc:Work>
  </rdf:RDF>
 </metadata>
 <defs>
  <style type="text/css">*{stroke-linecap:butt;stroke-linejoin:round;}</style>
 </defs>
 <g id="figure_1">
  <g id="patch_1">
   <path d="M 0 360 
L 1440 360 
L 1440 0 
L 0 0 
z
" style="fill:#ffffff;"/>
  </g>
  <g id="axes_1">
   <g id="patch_2">
    <path d="M 180 315 
L 508.235294 315 
L 508.235294 43.2 
L 180 43.2 
z
" style="fill:#ffffff;"/>
   </g>
   <g id="matplotlib.axis_1">
    <g id="xtick_1">
     <g id="line2d_1">
      <path clip-path="url(#p7d32c82693)" d="M 180 315 
L 180 43.2 
" style="fill:none;stroke:#cccccc;stroke-linecap:round;"/>
     </g>
     <g id="text_1">
      <!-- 0 -->
      <g style="fill:#262626;" transform="translate(176.941484 332.373594)scale(0.11 -0.11)">
       <defs>
        <path d="M 4.15625 35.296875 
Q 4.15625 48 6.765625 55.734375 
Q 9.375 63.484375 14.515625 67.671875 
Q 19.671875 71.875 27.484375 71.875 
Q 33.25 71.875 37.59375 69.546875 
Q 41.9375 67.234375 44.765625 62.859375 
Q 47.609375 58.5 49.21875 52.21875 
Q 50.828125 45.953125 50.828125 35.296875 
Q 50.828125 22.703125 48.234375 14.96875 
Q 45.65625 7.234375 40.5 3 
Q 35.359375 -1.21875 27.484375 -1.21875 
Q 17.140625 -1.21875 11.234375 6.203125 
Q 4.15625 15.140625 4.15625 35.296875 
z
M 13.1875 35.296875 
Q 13.1875 17.671875 17.3125 11.828125 
Q 21.4375 6 27.484375 6 
Q 33.546875 6 37.671875 11.859375 
Q 41.796875 17.71875 41.796875 35.296875 
Q 41.796875 52.984375 37.671875 58.78125 
Q 33.546875 64.59375 27.390625 64.59375 
Q 21.34375 64.59375 17.71875 59.46875 
Q 13.1875 52.9375 13.1875 35.296875 
z
" id="ArialMT-48"/>
       </defs>
       <use xlink:href="#ArialMT-48"/>
      </g>
     </g>
    </g>
    <g id="xtick_2">
     <g id="line2d_2">
      <path clip-path="url(#p7d32c82693)" d="M 211.21591 315 
L 211.21591 43.2 
" style="fill:none;stroke:#cccccc;stroke-linecap:round;"/>
     </g>
     <g id="text_2">
      <!-- 10 -->
      <g style="fill:#262626;" transform="translate(205.098879 332.373594)scale(0.11 -0.11)">
       <defs>
        <path d="M 37.25 0 
L 28.46875 0 
L 28.46875 56 
Q 25.296875 52.984375 20.140625 49.953125 
Q 14.984375 46.921875 10.890625 45.40625 
L 10.890625 53.90625 
Q 18.265625 57.375 23.78125 62.296875 
Q 29.296875 67.234375 31.59375 71.875 
L 37.25 71.875 
z
" id="ArialMT-49"/>
       </defs>
       <use xlink:href="#ArialMT-49"/>
       <use x="55.615234" xlink:href="#ArialMT-48"/>
      </g>
     </g>
    </g>
    <g id="xtick_3">
     <g id="line2d_3">
      <path clip-path="url(#p7d32c82693)" d="M 242.43182 315 
L 242.43182 43.2 
" style="fill:none;stroke:#cccccc;stroke-linecap:round;"/>
     </g>
     <g id="text_3">
      <!-- 20 -->
      <g style="fill:#262626;" transform="translate(236.314789 332.373594)scale(0.11 -0.11)">
       <defs>
        <path d="M 50.34375 8.453125 
L 50.34375 0 
L 3.03125 0 
Q 2.9375 3.171875 4.046875 6.109375 
Q 5.859375 10.9375 9.828125 15.625 
Q 13.8125 20.3125 21.34375 26.46875 
Q 33.015625 36.03125 37.109375 41.625 
Q 41.21875 47.21875 41.21875 52.203125 
Q 41.21875 57.421875 37.46875 61 
Q 33.734375 64.59375 27.734375 64.59375 
Q 21.390625 64.59375 17.578125 60.78125 
Q 13.765625 56.984375 13.71875 50.25 
L 4.6875 51.171875 
Q 5.609375 61.28125 11.65625 66.578125 
Q 17.71875 71.875 27.9375 71.875 
Q 38.234375 71.875 44.234375 66.15625 
Q 50.25 60.453125 50.25 52 
Q 50.25 47.703125 48.484375 43.546875 
Q 46.734375 39.40625 42.65625 34.8125 
Q 38.578125 30.21875 29.109375 22.21875 
Q 21.1875 15.578125 18.9375 13.203125 
Q 16.703125 10.84375 15.234375 8.453125 
z
" id="ArialMT-50"/>
       </defs>
       <use xlink:href="#ArialMT-50"/>
       <use x="55.615234" xlink:href="#ArialMT-48"/>
      </g>
     </g>
    </g>
    <g id="xtick_4">
     <g id="line2d_4">
      <path clip-path="url(#p7d32c82693)" d="M 273.64773 315 
L 273.64773 43.2 
" style="fill:none;stroke:#cccccc;stroke-linecap:round;"/>
     </g>
     <g id="text_4">
      <!-- 30 -->
      <g style="fill:#262626;" transform="translate(267.530699 332.373594)scale(0.11 -0.11)">
       <defs>
        <path d="M 4.203125 18.890625 
L 12.984375 20.0625 
Q 14.5 12.59375 18.140625 9.296875 
Q 21.78125 6 27 6 
Q 33.203125 6 37.46875 10.296875 
Q 41.75 14.59375 41.75 20.953125 
Q 41.75 27 37.796875 30.921875 
Q 33.84375 34.859375 27.734375 34.859375 
Q 25.25 34.859375 21.53125 33.890625 
L 22.515625 41.609375 
Q 23.390625 41.5 23.921875 41.5 
Q 29.546875 41.5 34.03125 44.421875 
Q 38.53125 47.359375 38.53125 53.46875 
Q 38.53125 58.296875 35.25 61.46875 
Q 31.984375 64.65625 26.8125 64.65625 
Q 21.6875 64.65625 18.265625 61.421875 
Q 14.84375 58.203125 13.875 51.765625 
L 5.078125 53.328125 
Q 6.6875 62.15625 12.390625 67.015625 
Q 18.109375 71.875 26.609375 71.875 
Q 32.46875 71.875 37.390625 69.359375 
Q 42.328125 66.84375 44.9375 62.5 
Q 47.5625 58.15625 47.5625 53.265625 
Q 47.5625 48.640625 45.0625 44.828125 
Q 42.578125 41.015625 37.703125 38.765625 
Q 44.046875 37.3125 47.5625 32.6875 
Q 51.078125 28.078125 51.078125 21.140625 
Q 51.078125 11.765625 44.234375 5.25 
Q 37.40625 -1.265625 26.953125 -1.265625 
Q 17.53125 -1.265625 11.296875 4.34375 
Q 5.078125 9.96875 4.203125 18.890625 
z
" id="ArialMT-51"/>
       </defs>
       <use xlink:href="#ArialMT-51"/>
       <use x="55.615234" xlink:href="#ArialMT-48"/>
      </g>
     </g>
    </g>
    <g id="xtick_5">
     <g id="line2d_5">
      <path clip-path="url(#p7d32c82693)" d="M 304.86364 315 
L 304.86364 43.2 
" style="fill:none;stroke:#cccccc;stroke-linecap:round;"/>
     </g>
     <g id="text_5">
      <!-- 40 -->
      <g style="fill:#262626;" transform="translate(298.746609 332.373594)scale(0.11 -0.11)">
       <defs>
        <path d="M 32.328125 0 
L 32.328125 17.140625 
L 1.265625 17.140625 
L 1.265625 25.203125 
L 33.9375 71.578125 
L 41.109375 71.578125 
L 41.109375 25.203125 
L 50.78125 25.203125 
L 50.78125 17.140625 
L 41.109375 17.140625 
L 41.109375 0 
z
M 32.328125 25.203125 
L 32.328125 57.46875 
L 9.90625 25.203125 
z
" id="ArialMT-52"/>
       </defs>
       <use xlink:href="#ArialMT-52"/>
       <use x="55.615234" xlink:href="#ArialMT-48"/>
      </g>
     </g>
    </g>
    <g id="xtick_6">
     <g id="line2d_6">
      <path clip-path="url(#p7d32c82693)" d="M 336.07955 315 
L 336.07955 43.2 
" style="fill:none;stroke:#cccccc;stroke-linecap:round;"/>
     </g>
     <g id="text_6">
      <!-- 50 -->
      <g style="fill:#262626;" transform="translate(329.962519 332.373594)scale(0.11 -0.11)">
       <defs>
        <path d="M 4.15625 18.75 
L 13.375 19.53125 
Q 14.40625 12.796875 18.140625 9.390625 
Q 21.875 6 27.15625 6 
Q 33.5 6 37.890625 10.78125 
Q 42.28125 15.578125 42.28125 23.484375 
Q 42.28125 31 38.0625 35.34375 
Q 33.84375 39.703125 27 39.703125 
Q 22.75 39.703125 19.328125 37.765625 
Q 15.921875 35.84375 13.96875 32.765625 
L 5.71875 33.84375 
L 12.640625 70.609375 
L 48.25 70.609375 
L 48.25 62.203125 
L 19.671875 62.203125 
L 15.828125 42.96875 
Q 22.265625 47.46875 29.34375 47.46875 
Q 38.71875 47.46875 45.15625 40.96875 
Q 51.609375 34.46875 51.609375 24.265625 
Q 51.609375 14.546875 45.953125 7.46875 
Q 39.0625 -1.21875 27.15625 -1.21875 
Q 17.390625 -1.21875 11.203125 4.25 
Q 5.03125 9.71875 4.15625 18.75 
z
" id="ArialMT-53"/>
       </defs>
       <use xlink:href="#ArialMT-53"/>
       <use x="55.615234" xlink:href="#ArialMT-48"/>
      </g>
     </g>
    </g>
    <g id="xtick_7">
     <g id="line2d_7">
      <path clip-path="url(#p7d32c82693)" d="M 367.29546 315 
L 367.29546 43.2 
" style="fill:none;stroke:#cccccc;stroke-linecap:round;"/>
     </g>
     <g id="text_7">
      <!-- 60 -->
      <g style="fill:#262626;" transform="translate(361.178429 332.373594)scale(0.11 -0.11)">
       <defs>
        <path d="M 49.75 54.046875 
L 41.015625 53.375 
Q 39.84375 58.546875 37.703125 60.890625 
Q 34.125 64.65625 28.90625 64.65625 
Q 24.703125 64.65625 21.53125 62.3125 
Q 17.390625 59.28125 14.984375 53.46875 
Q 12.59375 47.65625 12.5 36.921875 
Q 15.671875 41.75 20.265625 44.09375 
Q 24.859375 46.4375 29.890625 46.4375 
Q 38.671875 46.4375 44.84375 39.96875 
Q 51.03125 33.5 51.03125 23.25 
Q 51.03125 16.5 48.125 10.71875 
Q 45.21875 4.9375 40.140625 1.859375 
Q 35.0625 -1.21875 28.609375 -1.21875 
Q 17.625 -1.21875 10.6875 6.859375 
Q 3.765625 14.9375 3.765625 33.5 
Q 3.765625 54.25 11.421875 63.671875 
Q 18.109375 71.875 29.4375 71.875 
Q 37.890625 71.875 43.28125 67.140625 
Q 48.6875 62.40625 49.75 54.046875 
z
M 13.875 23.1875 
Q 13.875 18.65625 15.796875 14.5 
Q 17.71875 10.359375 21.1875 8.171875 
Q 24.65625 6 28.46875 6 
Q 34.03125 6 38.03125 10.484375 
Q 42.046875 14.984375 42.046875 22.703125 
Q 42.046875 30.125 38.078125 34.390625 
Q 34.125 38.671875 28.125 38.671875 
Q 22.171875 38.671875 18.015625 34.390625 
Q 13.875 30.125 13.875 23.1875 
z
" id="ArialMT-54"/>
       </defs>
       <use xlink:href="#ArialMT-54"/>
       <use x="55.615234" xlink:href="#ArialMT-48"/>
      </g>
     </g>
    </g>
    <g id="xtick_8">
     <g id="line2d_8">
      <path clip-path="url(#p7d32c82693)" d="M 398.51137 315 
L 398.51137 43.2 
" style="fill:none;stroke:#cccccc;stroke-linecap:round;"/>
     </g>
     <g id="text_8">
      <!-- 70 -->
      <g style="fill:#262626;" transform="translate(392.394339 332.373594)scale(0.11 -0.11)">
       <defs>
        <path d="M 4.734375 62.203125 
L 4.734375 70.65625 
L 51.078125 70.65625 
L 51.078125 63.8125 
Q 44.234375 56.546875 37.515625 44.484375 
Q 30.8125 32.421875 27.15625 19.671875 
Q 24.515625 10.6875 23.78125 0 
L 14.75 0 
Q 14.890625 8.453125 18.0625 20.40625 
Q 21.234375 32.375 27.171875 43.484375 
Q 33.109375 54.59375 39.796875 62.203125 
z
" id="ArialMT-55"/>
       </defs>
       <use xlink:href="#ArialMT-55"/>
       <use x="55.615234" xlink:href="#ArialMT-48"/>
      </g>
     </g>
    </g>
    <g id="xtick_9">
     <g id="line2d_9">
      <path clip-path="url(#p7d32c82693)" d="M 429.72728 315 
L 429.72728 43.2 
" style="fill:none;stroke:#cccccc;stroke-linecap:round;"/>
     </g>
     <g id="text_9">
      <!-- 80 -->
      <g style="fill:#262626;" transform="translate(423.610249 332.373594)scale(0.11 -0.11)">
       <defs>
        <path d="M 17.671875 38.8125 
Q 12.203125 40.828125 9.5625 44.53125 
Q 6.9375 48.25 6.9375 53.421875 
Q 6.9375 61.234375 12.546875 66.546875 
Q 18.171875 71.875 27.484375 71.875 
Q 36.859375 71.875 42.578125 66.421875 
Q 48.296875 60.984375 48.296875 53.171875 
Q 48.296875 48.1875 45.671875 44.5 
Q 43.0625 40.828125 37.75 38.8125 
Q 44.34375 36.671875 47.78125 31.875 
Q 51.21875 27.09375 51.21875 20.453125 
Q 51.21875 11.28125 44.71875 5.03125 
Q 38.234375 -1.21875 27.640625 -1.21875 
Q 17.046875 -1.21875 10.546875 5.046875 
Q 4.046875 11.328125 4.046875 20.703125 
Q 4.046875 27.6875 7.59375 32.390625 
Q 11.140625 37.109375 17.671875 38.8125 
z
M 15.921875 53.71875 
Q 15.921875 48.640625 19.1875 45.40625 
Q 22.46875 42.1875 27.6875 42.1875 
Q 32.765625 42.1875 36.015625 45.375 
Q 39.265625 48.578125 39.265625 53.21875 
Q 39.265625 58.0625 35.90625 61.359375 
Q 32.5625 64.65625 27.59375 64.65625 
Q 22.5625 64.65625 19.234375 61.421875 
Q 15.921875 58.203125 15.921875 53.71875 
z
M 13.09375 20.65625 
Q 13.09375 16.890625 14.875 13.375 
Q 16.65625 9.859375 20.171875 7.921875 
Q 23.6875 6 27.734375 6 
Q 34.03125 6 38.125 10.046875 
Q 42.234375 14.109375 42.234375 20.359375 
Q 42.234375 26.703125 38.015625 30.859375 
Q 33.796875 35.015625 27.4375 35.015625 
Q 21.234375 35.015625 17.15625 30.90625 
Q 13.09375 26.8125 13.09375 20.65625 
z
" id="ArialMT-56"/>
       </defs>
       <use xlink:href="#ArialMT-56"/>
       <use x="55.615234" xlink:href="#ArialMT-48"/>
      </g>
     </g>
    </g>
    <g id="xtick_10">
     <g id="line2d_10">
      <path clip-path="url(#p7d32c82693)" d="M 460.94319 315 
L 460.94319 43.2 
" style="fill:none;stroke:#cccccc;stroke-linecap:round;"/>
     </g>
     <g id="text_10">
      <!-- 90 -->
      <g style="fill:#262626;" transform="translate(454.826159 332.373594)scale(0.11 -0.11)">
       <defs>
        <path d="M 5.46875 16.546875 
L 13.921875 17.328125 
Q 14.984375 11.375 18.015625 8.6875 
Q 21.046875 6 25.78125 6 
Q 29.828125 6 32.875 7.859375 
Q 35.9375 9.71875 37.890625 12.8125 
Q 39.84375 15.921875 41.15625 21.1875 
Q 42.484375 26.46875 42.484375 31.9375 
Q 42.484375 32.515625 42.4375 33.6875 
Q 39.796875 29.5 35.234375 26.875 
Q 30.671875 24.265625 25.34375 24.265625 
Q 16.453125 24.265625 10.296875 30.703125 
Q 4.15625 37.15625 4.15625 47.703125 
Q 4.15625 58.59375 10.578125 65.234375 
Q 17 71.875 26.65625 71.875 
Q 33.640625 71.875 39.421875 68.109375 
Q 45.21875 64.359375 48.21875 57.390625 
Q 51.21875 50.4375 51.21875 37.25 
Q 51.21875 23.53125 48.234375 15.40625 
Q 45.265625 7.28125 39.375 3.03125 
Q 33.5 -1.21875 25.59375 -1.21875 
Q 17.1875 -1.21875 11.859375 3.4375 
Q 6.546875 8.109375 5.46875 16.546875 
z
M 41.453125 48.140625 
Q 41.453125 55.71875 37.421875 60.15625 
Q 33.40625 64.59375 27.734375 64.59375 
Q 21.875 64.59375 17.53125 59.8125 
Q 13.1875 55.03125 13.1875 47.40625 
Q 13.1875 40.578125 17.3125 36.296875 
Q 21.4375 32.03125 27.484375 32.03125 
Q 33.59375 32.03125 37.515625 36.296875 
Q 41.453125 40.578125 41.453125 48.140625 
z
" id="ArialMT-57"/>
       </defs>
       <use xlink:href="#ArialMT-57"/>
       <use x="55.615234" xlink:href="#ArialMT-48"/>
      </g>
     </g>
    </g>
    <g id="xtick_11">
     <g id="line2d_11">
      <path clip-path="url(#p7d32c82693)" d="M 492.1591 315 
L 492.1591 43.2 
" style="fill:none;stroke:#cccccc;stroke-linecap:round;"/>
     </g>
     <g id="text_11">
      <!-- 100 -->
      <g style="fill:#262626;" transform="translate(482.983554 332.373594)scale(0.11 -0.11)">
       <use xlink:href="#ArialMT-49"/>
       <use x="55.615234" xlink:href="#ArialMT-48"/>
       <use x="111.230469" xlink:href="#ArialMT-48"/>
      </g>
     </g>
    </g>
    <g id="text_12">
     <!-- age -->
     <g style="fill:#262626;" transform="translate(334.10796 347.008594)scale(0.12 -0.12)">
      <defs>
       <path d="M 40.4375 6.390625 
Q 35.546875 2.25 31.03125 0.53125 
Q 26.515625 -1.171875 21.34375 -1.171875 
Q 12.796875 -1.171875 8.203125 3 
Q 3.609375 7.171875 3.609375 13.671875 
Q 3.609375 17.484375 5.34375 20.625 
Q 7.078125 23.78125 9.890625 25.6875 
Q 12.703125 27.59375 16.21875 28.5625 
Q 18.796875 29.25 24.03125 29.890625 
Q 34.671875 31.15625 39.703125 32.90625 
Q 39.75 34.71875 39.75 35.203125 
Q 39.75 40.578125 37.25 42.78125 
Q 33.890625 45.75 27.25 45.75 
Q 21.046875 45.75 18.09375 43.578125 
Q 15.140625 41.40625 13.71875 35.890625 
L 5.125 37.0625 
Q 6.296875 42.578125 8.984375 45.96875 
Q 11.671875 49.359375 16.75 51.1875 
Q 21.828125 53.03125 28.515625 53.03125 
Q 35.15625 53.03125 39.296875 51.46875 
Q 43.453125 49.90625 45.40625 47.53125 
Q 47.359375 45.171875 48.140625 41.546875 
Q 48.578125 39.3125 48.578125 33.453125 
L 48.578125 21.734375 
Q 48.578125 9.46875 49.140625 6.21875 
Q 49.703125 2.984375 51.375 0 
L 42.1875 0 
Q 40.828125 2.734375 40.4375 6.390625 
z
M 39.703125 26.03125 
Q 34.90625 24.078125 25.34375 22.703125 
Q 19.921875 21.921875 17.671875 20.9375 
Q 15.4375 19.96875 14.203125 18.09375 
Q 12.984375 16.21875 12.984375 13.921875 
Q 12.984375 10.40625 15.640625 8.0625 
Q 18.3125 5.71875 23.4375 5.71875 
Q 28.515625 5.71875 32.46875 7.9375 
Q 36.421875 10.15625 38.28125 14.015625 
Q 39.703125 17 39.703125 22.796875 
z
" id="ArialMT-97"/>
       <path d="M 4.984375 -4.296875 
L 13.53125 -5.5625 
Q 14.0625 -9.515625 16.5 -11.328125 
Q 19.78125 -13.765625 25.4375 -13.765625 
Q 31.546875 -13.765625 34.859375 -11.328125 
Q 38.1875 -8.890625 39.359375 -4.5 
Q 40.046875 -1.8125 39.984375 6.78125 
Q 34.234375 0 25.640625 0 
Q 14.9375 0 9.078125 7.71875 
Q 3.21875 15.4375 3.21875 26.21875 
Q 3.21875 33.640625 5.90625 39.90625 
Q 8.59375 46.1875 13.6875 49.609375 
Q 18.796875 53.03125 25.6875 53.03125 
Q 34.859375 53.03125 40.828125 45.609375 
L 40.828125 51.859375 
L 48.921875 51.859375 
L 48.921875 7.03125 
Q 48.921875 -5.078125 46.453125 -10.125 
Q 44 -15.1875 38.640625 -18.109375 
Q 33.296875 -21.046875 25.484375 -21.046875 
Q 16.21875 -21.046875 10.5 -16.875 
Q 4.78125 -12.703125 4.984375 -4.296875 
z
M 12.25 26.859375 
Q 12.25 16.65625 16.296875 11.96875 
Q 20.359375 7.28125 26.46875 7.28125 
Q 32.515625 7.28125 36.609375 11.9375 
Q 40.71875 16.609375 40.71875 26.5625 
Q 40.71875 36.078125 36.5 40.90625 
Q 32.28125 45.75 26.3125 45.75 
Q 20.453125 45.75 16.34375 40.984375 
Q 12.25 36.234375 12.25 26.859375 
z
" id="ArialMT-103"/>
       <path d="M 42.09375 16.703125 
L 51.171875 15.578125 
Q 49.03125 7.625 43.21875 3.21875 
Q 37.40625 -1.171875 28.375 -1.171875 
Q 17 -1.171875 10.328125 5.828125 
Q 3.65625 12.84375 3.65625 25.484375 
Q 3.65625 38.578125 10.390625 45.796875 
Q 17.140625 53.03125 27.875 53.03125 
Q 38.28125 53.03125 44.875 45.953125 
Q 51.46875 38.875 51.46875 26.03125 
Q 51.46875 25.25 51.421875 23.6875 
L 12.75 23.6875 
Q 13.234375 15.140625 17.578125 10.59375 
Q 21.921875 6.0625 28.421875 6.0625 
Q 33.25 6.0625 36.671875 8.59375 
Q 40.09375 11.140625 42.09375 16.703125 
z
M 13.234375 30.90625 
L 42.1875 30.90625 
Q 41.609375 37.453125 38.875 40.71875 
Q 34.671875 45.796875 27.984375 45.796875 
Q 21.921875 45.796875 17.796875 41.75 
Q 13.671875 37.703125 13.234375 30.90625 
z
" id="ArialMT-101"/>
      </defs>
      <use xlink:href="#ArialMT-97"/>
      <use x="55.615234" xlink:href="#ArialMT-103"/>
      <use x="111.230469" xlink:href="#ArialMT-101"/>
     </g>
    </g>
   </g>
   <g id="matplotlib.axis_2">
    <g id="ytick_1">
     <g id="line2d_12">
      <path clip-path="url(#p7d32c82693)" d="M 180 315 
L 508.235294 315 
" style="fill:none;stroke:#cccccc;stroke-linecap:round;"/>
     </g>
     <g id="text_13">
      <!-- 0 -->
      <g style="fill:#262626;" transform="translate(164.382969 318.936797)scale(0.11 -0.11)">
       <use xlink:href="#ArialMT-48"/>
      </g>
     </g>
    </g>
    <g id="ytick_2">
     <g id="line2d_13">
      <path clip-path="url(#p7d32c82693)" d="M 180 256.698842 
L 508.235294 256.698842 
" style="fill:none;stroke:#cccccc;stroke-linecap:round;"/>
     </g>
     <g id="text_14">
      <!-- 200 -->
      <g style="fill:#262626;" transform="translate(152.148906 260.635639)scale(0.11 -0.11)">
       <use xlink:href="#ArialMT-50"/>
       <use x="55.615234" xlink:href="#ArialMT-48"/>
       <use x="111.230469" xlink:href="#ArialMT-48"/>
      </g>
     </g>
    </g>
    <g id="ytick_3">
     <g id="line2d_14">
      <path clip-path="url(#p7d32c82693)" d="M 180 198.397683 
L 508.235294 198.397683 
" style="fill:none;stroke:#cccccc;stroke-linecap:round;"/>
     </g>
     <g id="text_15">
      <!-- 400 -->
      <g style="fill:#262626;" transform="translate(152.148906 202.33448)scale(0.11 -0.11)">
       <use xlink:href="#ArialMT-52"/>
       <use x="55.615234" xlink:href="#ArialMT-48"/>
       <use x="111.230469" xlink:href="#ArialMT-48"/>
      </g>
     </g>
    </g>
    <g id="ytick_4">
     <g id="line2d_15">
      <path clip-path="url(#p7d32c82693)" d="M 180 140.096525 
L 508.235294 140.096525 
" style="fill:none;stroke:#cccccc;stroke-linecap:round;"/>
     </g>
     <g id="text_16">
      <!-- 600 -->
      <g style="fill:#262626;" transform="translate(152.148906 144.033322)scale(0.11 -0.11)">
       <use xlink:href="#ArialMT-54"/>
       <use x="55.615234" xlink:href="#ArialMT-48"/>
       <use x="111.230469" xlink:href="#ArialMT-48"/>
      </g>
     </g>
    </g>
    <g id="ytick_5">
     <g id="line2d_16">
      <path clip-path="url(#p7d32c82693)" d="M 180 81.795367 
L 508.235294 81.795367 
" style="fill:none;stroke:#cccccc;stroke-linecap:round;"/>
     </g>
     <g id="text_17">
      <!-- 800 -->
      <g style="fill:#262626;" transform="translate(152.148906 85.732164)scale(0.11 -0.11)">
       <use xlink:href="#ArialMT-56"/>
       <use x="55.615234" xlink:href="#ArialMT-48"/>
       <use x="111.230469" xlink:href="#ArialMT-48"/>
      </g>
     </g>
    </g>
    <g id="text_18">
     <!-- count of user -->
     <g style="fill:#262626;" transform="translate(145.763906 213.784687)rotate(-90)scale(0.12 -0.12)">
      <defs>
       <path d="M 40.4375 19 
L 49.078125 17.875 
Q 47.65625 8.9375 41.8125 3.875 
Q 35.984375 -1.171875 27.484375 -1.171875 
Q 16.84375 -1.171875 10.375 5.78125 
Q 3.90625 12.75 3.90625 25.734375 
Q 3.90625 34.125 6.6875 40.421875 
Q 9.46875 46.734375 15.15625 49.875 
Q 20.84375 53.03125 27.546875 53.03125 
Q 35.984375 53.03125 41.359375 48.75 
Q 46.734375 44.484375 48.25 36.625 
L 39.703125 35.296875 
Q 38.484375 40.53125 35.375 43.15625 
Q 32.28125 45.796875 27.875 45.796875 
Q 21.234375 45.796875 17.078125 41.03125 
Q 12.9375 36.28125 12.9375 25.984375 
Q 12.9375 15.53125 16.9375 10.796875 
Q 20.953125 6.0625 27.390625 6.0625 
Q 32.5625 6.0625 36.03125 9.234375 
Q 39.5 12.40625 40.4375 19 
z
" id="ArialMT-99"/>
       <path d="M 3.328125 25.921875 
Q 3.328125 40.328125 11.328125 47.265625 
Q 18.015625 53.03125 27.640625 53.03125 
Q 38.328125 53.03125 45.109375 46.015625 
Q 51.90625 39.015625 51.90625 26.65625 
Q 51.90625 16.65625 48.90625 10.90625 
Q 45.90625 5.171875 40.15625 2 
Q 34.421875 -1.171875 27.640625 -1.171875 
Q 16.75 -1.171875 10.03125 5.8125 
Q 3.328125 12.796875 3.328125 25.921875 
z
M 12.359375 25.921875 
Q 12.359375 15.96875 16.703125 11.015625 
Q 21.046875 6.0625 27.640625 6.0625 
Q 34.1875 6.0625 38.53125 11.03125 
Q 42.875 16.015625 42.875 26.21875 
Q 42.875 35.84375 38.5 40.796875 
Q 34.125 45.75 27.640625 45.75 
Q 21.046875 45.75 16.703125 40.8125 
Q 12.359375 35.890625 12.359375 25.921875 
z
" id="ArialMT-111"/>
       <path d="M 40.578125 0 
L 40.578125 7.625 
Q 34.515625 -1.171875 24.125 -1.171875 
Q 19.53125 -1.171875 15.546875 0.578125 
Q 11.578125 2.34375 9.640625 5 
Q 7.71875 7.671875 6.9375 11.53125 
Q 6.390625 14.109375 6.390625 19.734375 
L 6.390625 51.859375 
L 15.1875 51.859375 
L 15.1875 23.09375 
Q 15.1875 16.21875 15.71875 13.8125 
Q 16.546875 10.359375 19.234375 8.375 
Q 21.921875 6.390625 25.875 6.390625 
Q 29.828125 6.390625 33.296875 8.421875 
Q 36.765625 10.453125 38.203125 13.9375 
Q 39.65625 17.4375 39.65625 24.078125 
L 39.65625 51.859375 
L 48.4375 51.859375 
L 48.4375 0 
z
" id="ArialMT-117"/>
       <path d="M 6.59375 0 
L 6.59375 51.859375 
L 14.5 51.859375 
L 14.5 44.484375 
Q 20.21875 53.03125 31 53.03125 
Q 35.6875 53.03125 39.625 51.34375 
Q 43.5625 49.65625 45.515625 46.921875 
Q 47.46875 44.1875 48.25 40.4375 
Q 48.734375 37.984375 48.734375 31.890625 
L 48.734375 0 
L 39.9375 0 
L 39.9375 31.546875 
Q 39.9375 36.921875 38.90625 39.578125 
Q 37.890625 42.234375 35.28125 43.8125 
Q 32.671875 45.40625 29.15625 45.40625 
Q 23.53125 45.40625 19.453125 41.84375 
Q 15.375 38.28125 15.375 28.328125 
L 15.375 0 
z
" id="ArialMT-110"/>
       <path d="M 25.78125 7.859375 
L 27.046875 0.09375 
Q 23.34375 -0.6875 20.40625 -0.6875 
Q 15.625 -0.6875 12.984375 0.828125 
Q 10.359375 2.34375 9.28125 4.8125 
Q 8.203125 7.28125 8.203125 15.1875 
L 8.203125 45.015625 
L 1.765625 45.015625 
L 1.765625 51.859375 
L 8.203125 51.859375 
L 8.203125 64.703125 
L 16.9375 69.96875 
L 16.9375 51.859375 
L 25.78125 51.859375 
L 25.78125 45.015625 
L 16.9375 45.015625 
L 16.9375 14.703125 
Q 16.9375 10.9375 17.40625 9.859375 
Q 17.875 8.796875 18.921875 8.15625 
Q 19.96875 7.515625 21.921875 7.515625 
Q 23.390625 7.515625 25.78125 7.859375 
z
" id="ArialMT-116"/>
       <path id="ArialMT-32"/>
       <path d="M 8.6875 0 
L 8.6875 45.015625 
L 0.921875 45.015625 
L 0.921875 51.859375 
L 8.6875 51.859375 
L 8.6875 57.375 
Q 8.6875 62.59375 9.625 65.140625 
Q 10.890625 68.5625 14.078125 70.671875 
Q 17.28125 72.796875 23.046875 72.796875 
Q 26.765625 72.796875 31.25 71.921875 
L 29.9375 64.265625 
Q 27.203125 64.75 24.75 64.75 
Q 20.75 64.75 19.09375 63.03125 
Q 17.4375 61.328125 17.4375 56.640625 
L 17.4375 51.859375 
L 27.546875 51.859375 
L 27.546875 45.015625 
L 17.4375 45.015625 
L 17.4375 0 
z
" id="ArialMT-102"/>
       <path d="M 3.078125 15.484375 
L 11.765625 16.84375 
Q 12.5 11.625 15.84375 8.84375 
Q 19.1875 6.0625 25.203125 6.0625 
Q 31.25 6.0625 34.171875 8.515625 
Q 37.109375 10.984375 37.109375 14.3125 
Q 37.109375 17.28125 34.515625 19 
Q 32.71875 20.171875 25.53125 21.96875 
Q 15.875 24.421875 12.140625 26.203125 
Q 8.40625 27.984375 6.46875 31.125 
Q 4.546875 34.28125 4.546875 38.09375 
Q 4.546875 41.546875 6.125 44.5 
Q 7.71875 47.46875 10.453125 49.421875 
Q 12.5 50.921875 16.03125 51.96875 
Q 19.578125 53.03125 23.640625 53.03125 
Q 29.734375 53.03125 34.34375 51.265625 
Q 38.96875 49.515625 41.15625 46.5 
Q 43.359375 43.5 44.1875 38.484375 
L 35.59375 37.3125 
Q 35.015625 41.3125 32.203125 43.546875 
Q 29.390625 45.796875 24.265625 45.796875 
Q 18.21875 45.796875 15.625 43.796875 
Q 13.03125 41.796875 13.03125 39.109375 
Q 13.03125 37.40625 14.109375 36.03125 
Q 15.1875 34.625 17.484375 33.6875 
Q 18.796875 33.203125 25.25 31.453125 
Q 34.578125 28.953125 38.25 27.359375 
Q 41.9375 25.78125 44.03125 22.75 
Q 46.140625 19.734375 46.140625 15.234375 
Q 46.140625 10.84375 43.578125 6.953125 
Q 41.015625 3.078125 36.171875 0.953125 
Q 31.34375 -1.171875 25.25 -1.171875 
Q 15.140625 -1.171875 9.84375 3.03125 
Q 4.546875 7.234375 3.078125 15.484375 
z
" id="ArialMT-115"/>
       <path d="M 6.5 0 
L 6.5 51.859375 
L 14.40625 51.859375 
L 14.40625 44 
Q 17.4375 49.515625 20 51.265625 
Q 22.5625 53.03125 25.640625 53.03125 
Q 30.078125 53.03125 34.671875 50.203125 
L 31.640625 42.046875 
Q 28.421875 43.953125 25.203125 43.953125 
Q 22.3125 43.953125 20.015625 42.21875 
Q 17.71875 40.484375 16.75 37.40625 
Q 15.28125 32.71875 15.28125 27.15625 
L 15.28125 0 
z
" id="ArialMT-114"/>
      </defs>
      <use xlink:href="#ArialMT-99"/>
      <use x="50" xlink:href="#ArialMT-111"/>
      <use x="105.615234" xlink:href="#ArialMT-117"/>
      <use x="161.230469" xlink:href="#ArialMT-110"/>
      <use x="216.845703" xlink:href="#ArialMT-116"/>
      <use x="244.628906" xlink:href="#ArialMT-32"/>
      <use x="272.412109" xlink:href="#ArialMT-111"/>
      <use x="328.027344" xlink:href="#ArialMT-102"/>
      <use x="355.810547" xlink:href="#ArialMT-32"/>
      <use x="383.59375" xlink:href="#ArialMT-117"/>
      <use x="439.208984" xlink:href="#ArialMT-115"/>
      <use x="489.208984" xlink:href="#ArialMT-101"/>
      <use x="544.824219" xlink:href="#ArialMT-114"/>
     </g>
    </g>
   </g>
   <g id="patch_3">
    <path clip-path="url(#p7d32c82693)" d="M 236.188638 315 
L 249.143241 315 
L 249.143241 266.318533 
L 236.188638 266.318533 
z
" style="fill:#dd8452;fill-opacity:0.75;stroke:#ffffff;stroke-linejoin:miter;"/>
   </g>
   <g id="patch_4">
    <path clip-path="url(#p7d32c82693)" d="M 249.143241 315 
L 262.097843 315 
L 262.097843 270.399614 
L 249.143241 270.399614 
z
" style="fill:#dd8452;fill-opacity:0.75;stroke:#ffffff;stroke-linejoin:miter;"/>
   </g>
   <g id="patch_5">
    <path clip-path="url(#p7d32c82693)" d="M 262.097843 315 
L 275.052446 315 
L 275.052446 268.942085 
L 262.097843 268.942085 
z
" style="fill:#dd8452;fill-opacity:0.75;stroke:#ffffff;stroke-linejoin:miter;"/>
   </g>
   <g id="patch_6">
    <path clip-path="url(#p7d32c82693)" d="M 275.052446 315 
L 288.007049 315 
L 288.007049 266.318533 
L 275.052446 266.318533 
z
" style="fill:#dd8452;fill-opacity:0.75;stroke:#ffffff;stroke-linejoin:miter;"/>
   </g>
   <g id="patch_7">
    <path clip-path="url(#p7d32c82693)" d="M 288.007049 315 
L 300.961651 315 
L 300.961651 250.57722 
L 288.007049 250.57722 
z
" style="fill:#dd8452;fill-opacity:0.75;stroke:#ffffff;stroke-linejoin:miter;"/>
   </g>
   <g id="patch_8">
    <path clip-path="url(#p7d32c82693)" d="M 300.961651 315 
L 313.916254 315 
L 313.916254 238.333977 
L 300.961651 238.333977 
z
" style="fill:#dd8452;fill-opacity:0.75;stroke:#ffffff;stroke-linejoin:miter;"/>
   </g>
   <g id="patch_9">
    <path clip-path="url(#p7d32c82693)" d="M 313.916254 315 
L 326.870857 315 
L 326.870857 205.393822 
L 313.916254 205.393822 
z
" style="fill:#dd8452;fill-opacity:0.75;stroke:#ffffff;stroke-linejoin:miter;"/>
   </g>
   <g id="patch_10">
    <path clip-path="url(#p7d32c82693)" d="M 326.870857 315 
L 339.825459 315 
L 339.825459 156.420849 
L 326.870857 156.420849 
z
" style="fill:#dd8452;fill-opacity:0.75;stroke:#ffffff;stroke-linejoin:miter;"/>
   </g>
   <g id="patch_11">
    <path clip-path="url(#p7d32c82693)" d="M 339.825459 315 
L 352.780062 315 
L 352.780062 136.015444 
L 339.825459 136.015444 
z
" style="fill:#dd8452;fill-opacity:0.75;stroke:#ffffff;stroke-linejoin:miter;"/>
   </g>
   <g id="patch_12">
    <path clip-path="url(#p7d32c82693)" d="M 352.780062 315 
L 365.734665 315 
L 365.734665 121.148649 
L 352.780062 121.148649 
z
" style="fill:#dd8452;fill-opacity:0.75;stroke:#ffffff;stroke-linejoin:miter;"/>
   </g>
   <g id="patch_13">
    <path clip-path="url(#p7d32c82693)" d="M 365.734665 315 
L 378.689267 315 
L 378.689267 143.594595 
L 365.734665 143.594595 
z
" style="fill:#dd8452;fill-opacity:0.75;stroke:#ffffff;stroke-linejoin:miter;"/>
   </g>
   <g id="patch_14">
    <path clip-path="url(#p7d32c82693)" d="M 378.689267 315 
L 391.64387 315 
L 391.64387 161.959459 
L 378.689267 161.959459 
z
" style="fill:#dd8452;fill-opacity:0.75;stroke:#ffffff;stroke-linejoin:miter;"/>
   </g>
   <g id="patch_15">
    <path clip-path="url(#p7d32c82693)" d="M 391.64387 315 
L 404.598473 315 
L 404.598473 182.656371 
L 391.64387 182.656371 
z
" style="fill:#dd8452;fill-opacity:0.75;stroke:#ffffff;stroke-linejoin:miter;"/>
   </g>
   <g id="patch_16">
    <path clip-path="url(#p7d32c82693)" d="M 404.598473 315 
L 417.553075 315 
L 417.553075 190.235521 
L 404.598473 190.235521 
z
" style="fill:#dd8452;fill-opacity:0.75;stroke:#ffffff;stroke-linejoin:miter;"/>
   </g>
   <g id="patch_17">
    <path clip-path="url(#p7d32c82693)" d="M 417.553075 315 
L 430.507678 315 
L 430.507678 242.998069 
L 417.553075 242.998069 
z
" style="fill:#dd8452;fill-opacity:0.75;stroke:#ffffff;stroke-linejoin:miter;"/>
   </g>
   <g id="patch_18">
    <path clip-path="url(#p7d32c82693)" d="M 430.507678 315 
L 443.462281 315 
L 443.462281 252.909266 
L 430.507678 252.909266 
z
" style="fill:#dd8452;fill-opacity:0.75;stroke:#ffffff;stroke-linejoin:miter;"/>
   </g>
   <g id="patch_19">
    <path clip-path="url(#p7d32c82693)" d="M 443.462281 315 
L 456.416883 315 
L 456.416883 272.148649 
L 443.462281 272.148649 
z
" style="fill:#dd8452;fill-opacity:0.75;stroke:#ffffff;stroke-linejoin:miter;"/>
   </g>
   <g id="patch_20">
    <path clip-path="url(#p7d32c82693)" d="M 456.416883 315 
L 469.371486 315 
L 469.371486 281.476834 
L 456.416883 281.476834 
z
" style="fill:#dd8452;fill-opacity:0.75;stroke:#ffffff;stroke-linejoin:miter;"/>
   </g>
   <g id="patch_21">
    <path clip-path="url(#p7d32c82693)" d="M 469.371486 315 
L 482.326089 315 
L 482.326089 298.092664 
L 469.371486 298.092664 
z
" style="fill:#dd8452;fill-opacity:0.75;stroke:#ffffff;stroke-linejoin:miter;"/>
   </g>
   <g id="patch_22">
    <path clip-path="url(#p7d32c82693)" d="M 482.326089 315 
L 495.280691 315 
L 495.280691 307.420849 
L 482.326089 307.420849 
z
" style="fill:#dd8452;fill-opacity:0.75;stroke:#ffffff;stroke-linejoin:miter;"/>
   </g>
   <g id="patch_23">
    <path d="M 180 315 
L 180 43.2 
" style="fill:none;stroke:#cccccc;stroke-linecap:square;stroke-linejoin:miter;stroke-width:1.25;"/>
   </g>
   <g id="patch_24">
    <path d="M 508.235294 315 
L 508.235294 43.2 
" style="fill:none;stroke:#cccccc;stroke-linecap:square;stroke-linejoin:miter;stroke-width:1.25;"/>
   </g>
   <g id="patch_25">
    <path d="M 180 315 
L 508.235294 315 
" style="fill:none;stroke:#cccccc;stroke-linecap:square;stroke-linejoin:miter;stroke-width:1.25;"/>
   </g>
   <g id="patch_26">
    <path d="M 180 43.2 
L 508.235294 43.2 
" style="fill:none;stroke:#cccccc;stroke-linecap:square;stroke-linejoin:miter;stroke-width:1.25;"/>
   </g>
   <g id="text_19">
    <!-- Number of female / age in Profile dataset -->
    <g style="fill:#262626;" transform="translate(235.067647 37.2)scale(0.12 -0.12)">
     <defs>
      <path d="M 7.625 0 
L 7.625 71.578125 
L 17.328125 71.578125 
L 54.9375 15.375 
L 54.9375 71.578125 
L 64.015625 71.578125 
L 64.015625 0 
L 54.296875 0 
L 16.703125 56.25 
L 16.703125 0 
z
" id="ArialMT-78"/>
      <path d="M 6.59375 0 
L 6.59375 51.859375 
L 14.453125 51.859375 
L 14.453125 44.578125 
Q 16.890625 48.390625 20.9375 50.703125 
Q 25 53.03125 30.171875 53.03125 
Q 35.9375 53.03125 39.625 50.640625 
Q 43.3125 48.25 44.828125 43.953125 
Q 50.984375 53.03125 60.84375 53.03125 
Q 68.5625 53.03125 72.703125 48.75 
Q 76.859375 44.484375 76.859375 35.59375 
L 76.859375 0 
L 68.109375 0 
L 68.109375 32.671875 
Q 68.109375 37.9375 67.25 40.25 
Q 66.40625 42.578125 64.15625 43.984375 
Q 61.921875 45.40625 58.890625 45.40625 
Q 53.421875 45.40625 49.796875 41.765625 
Q 46.1875 38.140625 46.1875 30.125 
L 46.1875 0 
L 37.40625 0 
L 37.40625 33.6875 
Q 37.40625 39.546875 35.25 42.46875 
Q 33.109375 45.40625 28.21875 45.40625 
Q 24.515625 45.40625 21.359375 43.453125 
Q 18.21875 41.5 16.796875 37.734375 
Q 15.375 33.984375 15.375 26.90625 
L 15.375 0 
z
" id="ArialMT-109"/>
      <path d="M 14.703125 0 
L 6.546875 0 
L 6.546875 71.578125 
L 15.328125 71.578125 
L 15.328125 46.046875 
Q 20.90625 53.03125 29.546875 53.03125 
Q 34.328125 53.03125 38.59375 51.09375 
Q 42.875 49.171875 45.625 45.671875 
Q 48.390625 42.1875 49.953125 37.25 
Q 51.515625 32.328125 51.515625 26.703125 
Q 51.515625 13.375 44.921875 6.09375 
Q 38.328125 -1.171875 29.109375 -1.171875 
Q 19.921875 -1.171875 14.703125 6.5 
z
M 14.59375 26.3125 
Q 14.59375 17 17.140625 12.84375 
Q 21.296875 6.0625 28.375 6.0625 
Q 34.125 6.0625 38.328125 11.0625 
Q 42.53125 16.0625 42.53125 25.984375 
Q 42.53125 36.140625 38.5 40.96875 
Q 34.46875 45.796875 28.765625 45.796875 
Q 23 45.796875 18.796875 40.796875 
Q 14.59375 35.796875 14.59375 26.3125 
z
" id="ArialMT-98"/>
      <path d="M 6.390625 0 
L 6.390625 71.578125 
L 15.1875 71.578125 
L 15.1875 0 
z
" id="ArialMT-108"/>
      <path d="M 0 -1.21875 
L 20.75 72.796875 
L 27.78125 72.796875 
L 7.078125 -1.21875 
z
" id="ArialMT-47"/>
      <path d="M 6.640625 61.46875 
L 6.640625 71.578125 
L 15.4375 71.578125 
L 15.4375 61.46875 
z
M 6.640625 0 
L 6.640625 51.859375 
L 15.4375 51.859375 
L 15.4375 0 
z
" id="ArialMT-105"/>
      <path d="M 7.71875 0 
L 7.71875 71.578125 
L 34.71875 71.578125 
Q 41.84375 71.578125 45.609375 70.90625 
Q 50.875 70.015625 54.4375 67.546875 
Q 58.015625 65.09375 60.1875 60.640625 
Q 62.359375 56.203125 62.359375 50.875 
Q 62.359375 41.75 56.546875 35.421875 
Q 50.734375 29.109375 35.546875 29.109375 
L 17.1875 29.109375 
L 17.1875 0 
z
M 17.1875 37.546875 
L 35.6875 37.546875 
Q 44.875 37.546875 48.734375 40.96875 
Q 52.59375 44.390625 52.59375 50.59375 
Q 52.59375 55.078125 50.3125 58.265625 
Q 48.046875 61.46875 44.34375 62.5 
Q 41.9375 63.140625 35.5 63.140625 
L 17.1875 63.140625 
z
" id="ArialMT-80"/>
      <path d="M 40.234375 0 
L 40.234375 6.546875 
Q 35.296875 -1.171875 25.734375 -1.171875 
Q 19.53125 -1.171875 14.328125 2.25 
Q 9.125 5.671875 6.265625 11.796875 
Q 3.421875 17.921875 3.421875 25.875 
Q 3.421875 33.640625 6 39.96875 
Q 8.59375 46.296875 13.765625 49.65625 
Q 18.953125 53.03125 25.34375 53.03125 
Q 30.03125 53.03125 33.6875 51.046875 
Q 37.359375 49.078125 39.65625 45.90625 
L 39.65625 71.578125 
L 48.390625 71.578125 
L 48.390625 0 
z
M 12.453125 25.875 
Q 12.453125 15.921875 16.640625 10.984375 
Q 20.84375 6.0625 26.5625 6.0625 
Q 32.328125 6.0625 36.34375 10.765625 
Q 40.375 15.484375 40.375 25.140625 
Q 40.375 35.796875 36.265625 40.765625 
Q 32.171875 45.75 26.171875 45.75 
Q 20.3125 45.75 16.375 40.96875 
Q 12.453125 36.1875 12.453125 25.875 
z
" id="ArialMT-100"/>
     </defs>
     <use xlink:href="#ArialMT-78"/>
     <use x="72.216797" xlink:href="#ArialMT-117"/>
     <use x="127.832031" xlink:href="#ArialMT-109"/>
     <use x="211.132812" xlink:href="#ArialMT-98"/>
     <use x="266.748047" xlink:href="#ArialMT-101"/>
     <use x="322.363281" xlink:href="#ArialMT-114"/>
     <use x="355.664062" xlink:href="#ArialMT-32"/>
     <use x="383.447266" xlink:href="#ArialMT-111"/>
     <use x="439.0625" xlink:href="#ArialMT-102"/>
     <use x="466.845703" xlink:href="#ArialMT-32"/>
     <use x="494.628906" xlink:href="#ArialMT-102"/>
     <use x="522.412109" xlink:href="#ArialMT-101"/>
     <use x="578.027344" xlink:href="#ArialMT-109"/>
     <use x="661.328125" xlink:href="#ArialMT-97"/>
     <use x="716.943359" xlink:href="#ArialMT-108"/>
     <use x="739.160156" xlink:href="#ArialMT-101"/>
     <use x="794.775391" xlink:href="#ArialMT-32"/>
     <use x="822.558594" xlink:href="#ArialMT-47"/>
     <use x="850.341797" xlink:href="#ArialMT-32"/>
     <use x="878.125" xlink:href="#ArialMT-97"/>
     <use x="933.740234" xlink:href="#ArialMT-103"/>
     <use x="989.355469" xlink:href="#ArialMT-101"/>
     <use x="1044.970703" xlink:href="#ArialMT-32"/>
     <use x="1072.753906" xlink:href="#ArialMT-105"/>
     <use x="1094.970703" xlink:href="#ArialMT-110"/>
     <use x="1150.585938" xlink:href="#ArialMT-32"/>
     <use x="1178.369141" xlink:href="#ArialMT-80"/>
     <use x="1245.068359" xlink:href="#ArialMT-114"/>
     <use x="1278.369141" xlink:href="#ArialMT-111"/>
     <use x="1333.984375" xlink:href="#ArialMT-102"/>
     <use x="1361.767578" xlink:href="#ArialMT-105"/>
     <use x="1383.984375" xlink:href="#ArialMT-108"/>
     <use x="1406.201172" xlink:href="#ArialMT-101"/>
     <use x="1461.816406" xlink:href="#ArialMT-32"/>
     <use x="1489.599609" xlink:href="#ArialMT-100"/>
     <use x="1545.214844" xlink:href="#ArialMT-97"/>
     <use x="1600.830078" xlink:href="#ArialMT-116"/>
     <use x="1628.613281" xlink:href="#ArialMT-97"/>
     <use x="1684.228516" xlink:href="#ArialMT-115"/>
     <use x="1734.228516" xlink:href="#ArialMT-101"/>
     <use x="1789.84375" xlink:href="#ArialMT-116"/>
    </g>
   </g>
  </g>
  <g id="axes_2">
   <g id="patch_27">
    <path d="M 573.882353 315 
L 902.117647 315 
L 902.117647 43.2 
L 573.882353 43.2 
z
" style="fill:#ffffff;"/>
   </g>
   <g id="matplotlib.axis_3">
    <g id="xtick_12">
     <g id="line2d_17">
      <path clip-path="url(#p026731bfcc)" d="M 573.882353 315 
L 573.882353 43.2 
" style="fill:none;stroke:#cccccc;stroke-linecap:round;"/>
     </g>
     <g id="text_20">
      <!-- 0 -->
      <g style="fill:#262626;" transform="translate(570.823837 332.373594)scale(0.11 -0.11)">
       <use xlink:href="#ArialMT-48"/>
      </g>
     </g>
    </g>
    <g id="xtick_13">
     <g id="line2d_18">
      <path clip-path="url(#p026731bfcc)" d="M 605.413121 315 
L 605.413121 43.2 
" style="fill:none;stroke:#cccccc;stroke-linecap:round;"/>
     </g>
     <g id="text_21">
      <!-- 10 -->
      <g style="fill:#262626;" transform="translate(599.29609 332.373594)scale(0.11 -0.11)">
       <use xlink:href="#ArialMT-49"/>
       <use x="55.615234" xlink:href="#ArialMT-48"/>
      </g>
     </g>
    </g>
    <g id="xtick_14">
     <g id="line2d_19">
      <path clip-path="url(#p026731bfcc)" d="M 636.943889 315 
L 636.943889 43.2 
" style="fill:none;stroke:#cccccc;stroke-linecap:round;"/>
     </g>
     <g id="text_22">
      <!-- 20 -->
      <g style="fill:#262626;" transform="translate(630.826858 332.373594)scale(0.11 -0.11)">
       <use xlink:href="#ArialMT-50"/>
       <use x="55.615234" xlink:href="#ArialMT-48"/>
      </g>
     </g>
    </g>
    <g id="xtick_15">
     <g id="line2d_20">
      <path clip-path="url(#p026731bfcc)" d="M 668.474657 315 
L 668.474657 43.2 
" style="fill:none;stroke:#cccccc;stroke-linecap:round;"/>
     </g>
     <g id="text_23">
      <!-- 30 -->
      <g style="fill:#262626;" transform="translate(662.357625 332.373594)scale(0.11 -0.11)">
       <use xlink:href="#ArialMT-51"/>
       <use x="55.615234" xlink:href="#ArialMT-48"/>
      </g>
     </g>
    </g>
    <g id="xtick_16">
     <g id="line2d_21">
      <path clip-path="url(#p026731bfcc)" d="M 700.005425 315 
L 700.005425 43.2 
" style="fill:none;stroke:#cccccc;stroke-linecap:round;"/>
     </g>
     <g id="text_24">
      <!-- 40 -->
      <g style="fill:#262626;" transform="translate(693.888393 332.373594)scale(0.11 -0.11)">
       <use xlink:href="#ArialMT-52"/>
       <use x="55.615234" xlink:href="#ArialMT-48"/>
      </g>
     </g>
    </g>
    <g id="xtick_17">
     <g id="line2d_22">
      <path clip-path="url(#p026731bfcc)" d="M 731.536193 315 
L 731.536193 43.2 
" style="fill:none;stroke:#cccccc;stroke-linecap:round;"/>
     </g>
     <g id="text_25">
      <!-- 50 -->
      <g style="fill:#262626;" transform="translate(725.419161 332.373594)scale(0.11 -0.11)">
       <use xlink:href="#ArialMT-53"/>
       <use x="55.615234" xlink:href="#ArialMT-48"/>
      </g>
     </g>
    </g>
    <g id="xtick_18">
     <g id="line2d_23">
      <path clip-path="url(#p026731bfcc)" d="M 763.066961 315 
L 763.066961 43.2 
" style="fill:none;stroke:#cccccc;stroke-linecap:round;"/>
     </g>
     <g id="text_26">
      <!-- 60 -->
      <g style="fill:#262626;" transform="translate(756.949929 332.373594)scale(0.11 -0.11)">
       <use xlink:href="#ArialMT-54"/>
       <use x="55.615234" xlink:href="#ArialMT-48"/>
      </g>
     </g>
    </g>
    <g id="xtick_19">
     <g id="line2d_24">
      <path clip-path="url(#p026731bfcc)" d="M 794.597728 315 
L 794.597728 43.2 
" style="fill:none;stroke:#cccccc;stroke-linecap:round;"/>
     </g>
     <g id="text_27">
      <!-- 70 -->
      <g style="fill:#262626;" transform="translate(788.480697 332.373594)scale(0.11 -0.11)">
       <use xlink:href="#ArialMT-55"/>
       <use x="55.615234" xlink:href="#ArialMT-48"/>
      </g>
     </g>
    </g>
    <g id="xtick_20">
     <g id="line2d_25">
      <path clip-path="url(#p026731bfcc)" d="M 826.128496 315 
L 826.128496 43.2 
" style="fill:none;stroke:#cccccc;stroke-linecap:round;"/>
     </g>
     <g id="text_28">
      <!-- 80 -->
      <g style="fill:#262626;" transform="translate(820.011465 332.373594)scale(0.11 -0.11)">
       <use xlink:href="#ArialMT-56"/>
       <use x="55.615234" xlink:href="#ArialMT-48"/>
      </g>
     </g>
    </g>
    <g id="xtick_21">
     <g id="line2d_26">
      <path clip-path="url(#p026731bfcc)" d="M 857.659264 315 
L 857.659264 43.2 
" style="fill:none;stroke:#cccccc;stroke-linecap:round;"/>
     </g>
     <g id="text_29">
      <!-- 90 -->
      <g style="fill:#262626;" transform="translate(851.542233 332.373594)scale(0.11 -0.11)">
       <use xlink:href="#ArialMT-57"/>
       <use x="55.615234" xlink:href="#ArialMT-48"/>
      </g>
     </g>
    </g>
    <g id="text_30">
     <!-- age -->
     <g style="fill:#262626;" transform="translate(727.990312 347.008594)scale(0.12 -0.12)">
      <use xlink:href="#ArialMT-97"/>
      <use x="55.615234" xlink:href="#ArialMT-103"/>
      <use x="111.230469" xlink:href="#ArialMT-101"/>
     </g>
    </g>
   </g>
   <g id="matplotlib.axis_4">
    <g id="ytick_6">
     <g id="line2d_27">
      <path clip-path="url(#p026731bfcc)" d="M 573.882353 315 
L 902.117647 315 
" style="fill:none;stroke:#cccccc;stroke-linecap:round;"/>
     </g>
    </g>
    <g id="ytick_7">
     <g id="line2d_28">
      <path clip-path="url(#p026731bfcc)" d="M 573.882353 256.698842 
L 902.117647 256.698842 
" style="fill:none;stroke:#cccccc;stroke-linecap:round;"/>
     </g>
    </g>
    <g id="ytick_8">
     <g id="line2d_29">
      <path clip-path="url(#p026731bfcc)" d="M 573.882353 198.397683 
L 902.117647 198.397683 
" style="fill:none;stroke:#cccccc;stroke-linecap:round;"/>
     </g>
    </g>
    <g id="ytick_9">
     <g id="line2d_30">
      <path clip-path="url(#p026731bfcc)" d="M 573.882353 140.096525 
L 902.117647 140.096525 
" style="fill:none;stroke:#cccccc;stroke-linecap:round;"/>
     </g>
    </g>
    <g id="ytick_10">
     <g id="line2d_31">
      <path clip-path="url(#p026731bfcc)" d="M 573.882353 81.795367 
L 902.117647 81.795367 
" style="fill:none;stroke:#cccccc;stroke-linecap:round;"/>
     </g>
    </g>
   </g>
   <g id="patch_28">
    <path clip-path="url(#p026731bfcc)" d="M 630.637735 315 
L 643.56535 315 
L 643.56535 187.903475 
L 630.637735 187.903475 
z
" style="fill:#55a868;fill-opacity:0.75;stroke:#ffffff;stroke-linejoin:miter;"/>
   </g>
   <g id="patch_29">
    <path clip-path="url(#p026731bfcc)" d="M 643.56535 315 
L 656.492965 315 
L 656.492965 198.106178 
L 643.56535 198.106178 
z
" style="fill:#55a868;fill-opacity:0.75;stroke:#ffffff;stroke-linejoin:miter;"/>
   </g>
   <g id="patch_30">
    <path clip-path="url(#p026731bfcc)" d="M 656.492965 315 
L 669.42058 315 
L 669.42058 206.559846 
L 656.492965 206.559846 
z
" style="fill:#55a868;fill-opacity:0.75;stroke:#ffffff;stroke-linejoin:miter;"/>
   </g>
   <g id="patch_31">
    <path clip-path="url(#p026731bfcc)" d="M 669.42058 315 
L 682.348195 315 
L 682.348195 205.685328 
L 669.42058 205.685328 
z
" style="fill:#55a868;fill-opacity:0.75;stroke:#ffffff;stroke-linejoin:miter;"/>
   </g>
   <g id="patch_32">
    <path clip-path="url(#p026731bfcc)" d="M 682.348195 315 
L 695.275809 315 
L 695.275809 188.194981 
L 682.348195 188.194981 
z
" style="fill:#55a868;fill-opacity:0.75;stroke:#ffffff;stroke-linejoin:miter;"/>
   </g>
   <g id="patch_33">
    <path clip-path="url(#p026731bfcc)" d="M 695.275809 315 
L 708.203424 315 
L 708.203424 163.708494 
L 695.275809 163.708494 
z
" style="fill:#55a868;fill-opacity:0.75;stroke:#ffffff;stroke-linejoin:miter;"/>
   </g>
   <g id="patch_34">
    <path clip-path="url(#p026731bfcc)" d="M 708.203424 315 
L 721.131039 315 
L 721.131039 155.837838 
L 708.203424 155.837838 
z
" style="fill:#55a868;fill-opacity:0.75;stroke:#ffffff;stroke-linejoin:miter;"/>
   </g>
   <g id="patch_35">
    <path clip-path="url(#p026731bfcc)" d="M 721.131039 315 
L 734.058654 315 
L 734.058654 131.059846 
L 721.131039 131.059846 
z
" style="fill:#55a868;fill-opacity:0.75;stroke:#ffffff;stroke-linejoin:miter;"/>
   </g>
   <g id="patch_36">
    <path clip-path="url(#p026731bfcc)" d="M 734.058654 315 
L 746.986269 315 
L 746.986269 80.337838 
L 734.058654 80.337838 
z
" style="fill:#55a868;fill-opacity:0.75;stroke:#ffffff;stroke-linejoin:miter;"/>
   </g>
   <g id="patch_37">
    <path clip-path="url(#p026731bfcc)" d="M 746.986269 315 
L 759.913884 315 
L 759.913884 89.957529 
L 746.986269 89.957529 
z
" style="fill:#55a868;fill-opacity:0.75;stroke:#ffffff;stroke-linejoin:miter;"/>
   </g>
   <g id="patch_38">
    <path clip-path="url(#p026731bfcc)" d="M 759.913884 315 
L 772.841499 315 
L 772.841499 56.142857 
L 759.913884 56.142857 
z
" style="fill:#55a868;fill-opacity:0.75;stroke:#ffffff;stroke-linejoin:miter;"/>
   </g>
   <g id="patch_39">
    <path clip-path="url(#p026731bfcc)" d="M 772.841499 315 
L 785.769113 315 
L 785.769113 125.22973 
L 772.841499 125.22973 
z
" style="fill:#55a868;fill-opacity:0.75;stroke:#ffffff;stroke-linejoin:miter;"/>
   </g>
   <g id="patch_40">
    <path clip-path="url(#p026731bfcc)" d="M 785.769113 315 
L 798.696728 315 
L 798.696728 164 
L 785.769113 164 
z
" style="fill:#55a868;fill-opacity:0.75;stroke:#ffffff;stroke-linejoin:miter;"/>
   </g>
   <g id="patch_41">
    <path clip-path="url(#p026731bfcc)" d="M 798.696728 315 
L 811.624343 315 
L 811.624343 204.519305 
L 798.696728 204.519305 
z
" style="fill:#55a868;fill-opacity:0.75;stroke:#ffffff;stroke-linejoin:miter;"/>
   </g>
   <g id="patch_42">
    <path clip-path="url(#p026731bfcc)" d="M 811.624343 315 
L 824.551958 315 
L 824.551958 231.629344 
L 811.624343 231.629344 
z
" style="fill:#55a868;fill-opacity:0.75;stroke:#ffffff;stroke-linejoin:miter;"/>
   </g>
   <g id="patch_43">
    <path clip-path="url(#p026731bfcc)" d="M 824.551958 315 
L 837.479573 315 
L 837.479573 254.07529 
L 824.551958 254.07529 
z
" style="fill:#55a868;fill-opacity:0.75;stroke:#ffffff;stroke-linejoin:miter;"/>
   </g>
   <g id="patch_44">
    <path clip-path="url(#p026731bfcc)" d="M 837.479573 315 
L 850.407188 315 
L 850.407188 280.019305 
L 837.479573 280.019305 
z
" style="fill:#55a868;fill-opacity:0.75;stroke:#ffffff;stroke-linejoin:miter;"/>
   </g>
   <g id="patch_45">
    <path clip-path="url(#p026731bfcc)" d="M 850.407188 315 
L 863.334803 315 
L 863.334803 291.096525 
L 850.407188 291.096525 
z
" style="fill:#55a868;fill-opacity:0.75;stroke:#ffffff;stroke-linejoin:miter;"/>
   </g>
   <g id="patch_46">
    <path clip-path="url(#p026731bfcc)" d="M 863.334803 315 
L 876.262417 315 
L 876.262417 302.173745 
L 863.334803 302.173745 
z
" style="fill:#55a868;fill-opacity:0.75;stroke:#ffffff;stroke-linejoin:miter;"/>
   </g>
   <g id="patch_47">
    <path clip-path="url(#p026731bfcc)" d="M 876.262417 315 
L 889.190032 315 
L 889.190032 310.627413 
L 876.262417 310.627413 
z
" style="fill:#55a868;fill-opacity:0.75;stroke:#ffffff;stroke-linejoin:miter;"/>
   </g>
   <g id="patch_48">
    <path d="M 573.882353 315 
L 573.882353 43.2 
" style="fill:none;stroke:#cccccc;stroke-linecap:square;stroke-linejoin:miter;stroke-width:1.25;"/>
   </g>
   <g id="patch_49">
    <path d="M 902.117647 315 
L 902.117647 43.2 
" style="fill:none;stroke:#cccccc;stroke-linecap:square;stroke-linejoin:miter;stroke-width:1.25;"/>
   </g>
   <g id="patch_50">
    <path d="M 573.882353 315 
L 902.117647 315 
" style="fill:none;stroke:#cccccc;stroke-linecap:square;stroke-linejoin:miter;stroke-width:1.25;"/>
   </g>
   <g id="patch_51">
    <path d="M 573.882353 43.2 
L 902.117647 43.2 
" style="fill:none;stroke:#cccccc;stroke-linecap:square;stroke-linejoin:miter;stroke-width:1.25;"/>
   </g>
   <g id="text_31">
    <!-- Number of male / age in Profile dataset -->
    <g style="fill:#262626;" transform="translate(633.953438 37.2)scale(0.12 -0.12)">
     <use xlink:href="#ArialMT-78"/>
     <use x="72.216797" xlink:href="#ArialMT-117"/>
     <use x="127.832031" xlink:href="#ArialMT-109"/>
     <use x="211.132812" xlink:href="#ArialMT-98"/>
     <use x="266.748047" xlink:href="#ArialMT-101"/>
     <use x="322.363281" xlink:href="#ArialMT-114"/>
     <use x="355.664062" xlink:href="#ArialMT-32"/>
     <use x="383.447266" xlink:href="#ArialMT-111"/>
     <use x="439.0625" xlink:href="#ArialMT-102"/>
     <use x="466.845703" xlink:href="#ArialMT-32"/>
     <use x="494.628906" xlink:href="#ArialMT-109"/>
     <use x="577.929688" xlink:href="#ArialMT-97"/>
     <use x="633.544922" xlink:href="#ArialMT-108"/>
     <use x="655.761719" xlink:href="#ArialMT-101"/>
     <use x="711.376953" xlink:href="#ArialMT-32"/>
     <use x="739.160156" xlink:href="#ArialMT-47"/>
     <use x="766.943359" xlink:href="#ArialMT-32"/>
     <use x="794.726562" xlink:href="#ArialMT-97"/>
     <use x="850.341797" xlink:href="#ArialMT-103"/>
     <use x="905.957031" xlink:href="#ArialMT-101"/>
     <use x="961.572266" xlink:href="#ArialMT-32"/>
     <use x="989.355469" xlink:href="#ArialMT-105"/>
     <use x="1011.572266" xlink:href="#ArialMT-110"/>
     <use x="1067.1875" xlink:href="#ArialMT-32"/>
     <use x="1094.970703" xlink:href="#ArialMT-80"/>
     <use x="1161.669922" xlink:href="#ArialMT-114"/>
     <use x="1194.970703" xlink:href="#ArialMT-111"/>
     <use x="1250.585938" xlink:href="#ArialMT-102"/>
     <use x="1278.369141" xlink:href="#ArialMT-105"/>
     <use x="1300.585938" xlink:href="#ArialMT-108"/>
     <use x="1322.802734" xlink:href="#ArialMT-101"/>
     <use x="1378.417969" xlink:href="#ArialMT-32"/>
     <use x="1406.201172" xlink:href="#ArialMT-100"/>
     <use x="1461.816406" xlink:href="#ArialMT-97"/>
     <use x="1517.431641" xlink:href="#ArialMT-116"/>
     <use x="1545.214844" xlink:href="#ArialMT-97"/>
     <use x="1600.830078" xlink:href="#ArialMT-115"/>
     <use x="1650.830078" xlink:href="#ArialMT-101"/>
     <use x="1706.445312" xlink:href="#ArialMT-116"/>
    </g>
   </g>
  </g>
  <g id="axes_3">
   <g id="patch_52">
    <path d="M 967.764706 315 
L 1296 315 
L 1296 43.2 
L 967.764706 43.2 
z
" style="fill:#ffffff;"/>
   </g>
   <g id="matplotlib.axis_5">
    <g id="xtick_22">
     <g id="line2d_32">
      <path clip-path="url(#pbc03d091bd)" d="M 967.764706 315 
L 967.764706 43.2 
" style="fill:none;stroke:#cccccc;stroke-linecap:round;"/>
     </g>
     <g id="text_32">
      <!-- 0 -->
      <g style="fill:#262626;" transform="translate(964.70619 332.373594)scale(0.11 -0.11)">
       <use xlink:href="#ArialMT-48"/>
      </g>
     </g>
    </g>
    <g id="xtick_23">
     <g id="line2d_33">
      <path clip-path="url(#pbc03d091bd)" d="M 999.325792 315 
L 999.325792 43.2 
" style="fill:none;stroke:#cccccc;stroke-linecap:round;"/>
     </g>
     <g id="text_33">
      <!-- 10 -->
      <g style="fill:#262626;" transform="translate(993.208761 332.373594)scale(0.11 -0.11)">
       <use xlink:href="#ArialMT-49"/>
       <use x="55.615234" xlink:href="#ArialMT-48"/>
      </g>
     </g>
    </g>
    <g id="xtick_24">
     <g id="line2d_34">
      <path clip-path="url(#pbc03d091bd)" d="M 1030.886878 315 
L 1030.886878 43.2 
" style="fill:none;stroke:#cccccc;stroke-linecap:round;"/>
     </g>
     <g id="text_34">
      <!-- 20 -->
      <g style="fill:#262626;" transform="translate(1024.769847 332.373594)scale(0.11 -0.11)">
       <use xlink:href="#ArialMT-50"/>
       <use x="55.615234" xlink:href="#ArialMT-48"/>
      </g>
     </g>
    </g>
    <g id="xtick_25">
     <g id="line2d_35">
      <path clip-path="url(#pbc03d091bd)" d="M 1062.447964 315 
L 1062.447964 43.2 
" style="fill:none;stroke:#cccccc;stroke-linecap:round;"/>
     </g>
     <g id="text_35">
      <!-- 30 -->
      <g style="fill:#262626;" transform="translate(1056.330933 332.373594)scale(0.11 -0.11)">
       <use xlink:href="#ArialMT-51"/>
       <use x="55.615234" xlink:href="#ArialMT-48"/>
      </g>
     </g>
    </g>
    <g id="xtick_26">
     <g id="line2d_36">
      <path clip-path="url(#pbc03d091bd)" d="M 1094.00905 315 
L 1094.00905 43.2 
" style="fill:none;stroke:#cccccc;stroke-linecap:round;"/>
     </g>
     <g id="text_36">
      <!-- 40 -->
      <g style="fill:#262626;" transform="translate(1087.892019 332.373594)scale(0.11 -0.11)">
       <use xlink:href="#ArialMT-52"/>
       <use x="55.615234" xlink:href="#ArialMT-48"/>
      </g>
     </g>
    </g>
    <g id="xtick_27">
     <g id="line2d_37">
      <path clip-path="url(#pbc03d091bd)" d="M 1125.570136 315 
L 1125.570136 43.2 
" style="fill:none;stroke:#cccccc;stroke-linecap:round;"/>
     </g>
     <g id="text_37">
      <!-- 50 -->
      <g style="fill:#262626;" transform="translate(1119.453104 332.373594)scale(0.11 -0.11)">
       <use xlink:href="#ArialMT-53"/>
       <use x="55.615234" xlink:href="#ArialMT-48"/>
      </g>
     </g>
    </g>
    <g id="xtick_28">
     <g id="line2d_38">
      <path clip-path="url(#pbc03d091bd)" d="M 1157.131222 315 
L 1157.131222 43.2 
" style="fill:none;stroke:#cccccc;stroke-linecap:round;"/>
     </g>
     <g id="text_38">
      <!-- 60 -->
      <g style="fill:#262626;" transform="translate(1151.01419 332.373594)scale(0.11 -0.11)">
       <use xlink:href="#ArialMT-54"/>
       <use x="55.615234" xlink:href="#ArialMT-48"/>
      </g>
     </g>
    </g>
    <g id="xtick_29">
     <g id="line2d_39">
      <path clip-path="url(#pbc03d091bd)" d="M 1188.692308 315 
L 1188.692308 43.2 
" style="fill:none;stroke:#cccccc;stroke-linecap:round;"/>
     </g>
     <g id="text_39">
      <!-- 70 -->
      <g style="fill:#262626;" transform="translate(1182.575276 332.373594)scale(0.11 -0.11)">
       <use xlink:href="#ArialMT-55"/>
       <use x="55.615234" xlink:href="#ArialMT-48"/>
      </g>
     </g>
    </g>
    <g id="xtick_30">
     <g id="line2d_40">
      <path clip-path="url(#pbc03d091bd)" d="M 1220.253394 315 
L 1220.253394 43.2 
" style="fill:none;stroke:#cccccc;stroke-linecap:round;"/>
     </g>
     <g id="text_40">
      <!-- 80 -->
      <g style="fill:#262626;" transform="translate(1214.136362 332.373594)scale(0.11 -0.11)">
       <use xlink:href="#ArialMT-56"/>
       <use x="55.615234" xlink:href="#ArialMT-48"/>
      </g>
     </g>
    </g>
    <g id="xtick_31">
     <g id="line2d_41">
      <path clip-path="url(#pbc03d091bd)" d="M 1251.81448 315 
L 1251.81448 43.2 
" style="fill:none;stroke:#cccccc;stroke-linecap:round;"/>
     </g>
     <g id="text_41">
      <!-- 90 -->
      <g style="fill:#262626;" transform="translate(1245.697448 332.373594)scale(0.11 -0.11)">
       <use xlink:href="#ArialMT-57"/>
       <use x="55.615234" xlink:href="#ArialMT-48"/>
      </g>
     </g>
    </g>
    <g id="text_42">
     <!-- age -->
     <g style="fill:#262626;" transform="translate(1121.872665 347.008594)scale(0.12 -0.12)">
      <use xlink:href="#ArialMT-97"/>
      <use x="55.615234" xlink:href="#ArialMT-103"/>
      <use x="111.230469" xlink:href="#ArialMT-101"/>
     </g>
    </g>
   </g>
   <g id="matplotlib.axis_6">
    <g id="ytick_11">
     <g id="line2d_42">
      <path clip-path="url(#pbc03d091bd)" d="M 967.764706 315 
L 1296 315 
" style="fill:none;stroke:#cccccc;stroke-linecap:round;"/>
     </g>
    </g>
    <g id="ytick_12">
     <g id="line2d_43">
      <path clip-path="url(#pbc03d091bd)" d="M 967.764706 256.698842 
L 1296 256.698842 
" style="fill:none;stroke:#cccccc;stroke-linecap:round;"/>
     </g>
    </g>
    <g id="ytick_13">
     <g id="line2d_44">
      <path clip-path="url(#pbc03d091bd)" d="M 967.764706 198.397683 
L 1296 198.397683 
" style="fill:none;stroke:#cccccc;stroke-linecap:round;"/>
     </g>
    </g>
    <g id="ytick_14">
     <g id="line2d_45">
      <path clip-path="url(#pbc03d091bd)" d="M 967.764706 140.096525 
L 1296 140.096525 
" style="fill:none;stroke:#cccccc;stroke-linecap:round;"/>
     </g>
    </g>
    <g id="ytick_15">
     <g id="line2d_46">
      <path clip-path="url(#pbc03d091bd)" d="M 967.764706 81.795367 
L 1296 81.795367 
" style="fill:none;stroke:#cccccc;stroke-linecap:round;"/>
     </g>
    </g>
   </g>
   <g id="patch_53">
    <path clip-path="url(#pbc03d091bd)" d="M 1030.886878 315 
L 1043.511312 315 
L 1043.511312 312.667954 
L 1030.886878 312.667954 
z
" style="fill:#c44e52;fill-opacity:0.75;stroke:#ffffff;stroke-linejoin:miter;"/>
   </g>
   <g id="patch_54">
    <path clip-path="url(#pbc03d091bd)" d="M 1043.511312 315 
L 1056.135747 315 
L 1056.135747 313.833977 
L 1043.511312 313.833977 
z
" style="fill:#c44e52;fill-opacity:0.75;stroke:#ffffff;stroke-linejoin:miter;"/>
   </g>
   <g id="patch_55">
    <path clip-path="url(#pbc03d091bd)" d="M 1056.135747 315 
L 1068.760181 315 
L 1068.760181 312.667954 
L 1056.135747 312.667954 
z
" style="fill:#c44e52;fill-opacity:0.75;stroke:#ffffff;stroke-linejoin:miter;"/>
   </g>
   <g id="patch_56">
    <path clip-path="url(#pbc03d091bd)" d="M 1068.760181 315 
L 1081.384615 315 
L 1081.384615 312.376448 
L 1068.760181 312.376448 
z
" style="fill:#c44e52;fill-opacity:0.75;stroke:#ffffff;stroke-linejoin:miter;"/>
   </g>
   <g id="patch_57">
    <path clip-path="url(#pbc03d091bd)" d="M 1081.384615 315 
L 1094.00905 315 
L 1094.00905 312.084942 
L 1081.384615 312.084942 
z
" style="fill:#c44e52;fill-opacity:0.75;stroke:#ffffff;stroke-linejoin:miter;"/>
   </g>
   <g id="patch_58">
    <path clip-path="url(#pbc03d091bd)" d="M 1094.00905 315 
L 1106.633484 315 
L 1106.633484 310.335907 
L 1094.00905 310.335907 
z
" style="fill:#c44e52;fill-opacity:0.75;stroke:#ffffff;stroke-linejoin:miter;"/>
   </g>
   <g id="patch_59">
    <path clip-path="url(#pbc03d091bd)" d="M 1106.633484 315 
L 1119.257919 315 
L 1119.257919 312.084942 
L 1106.633484 312.084942 
z
" style="fill:#c44e52;fill-opacity:0.75;stroke:#ffffff;stroke-linejoin:miter;"/>
   </g>
   <g id="patch_60">
    <path clip-path="url(#pbc03d091bd)" d="M 1119.257919 315 
L 1131.882353 315 
L 1131.882353 308.878378 
L 1119.257919 308.878378 
z
" style="fill:#c44e52;fill-opacity:0.75;stroke:#ffffff;stroke-linejoin:miter;"/>
   </g>
   <g id="patch_61">
    <path clip-path="url(#pbc03d091bd)" d="M 1131.882353 315 
L 1144.506787 315 
L 1144.506787 307.420849 
L 1131.882353 307.420849 
z
" style="fill:#c44e52;fill-opacity:0.75;stroke:#ffffff;stroke-linejoin:miter;"/>
   </g>
   <g id="patch_62">
    <path clip-path="url(#pbc03d091bd)" d="M 1144.506787 315 
L 1157.131222 315 
L 1157.131222 308.295367 
L 1144.506787 308.295367 
z
" style="fill:#c44e52;fill-opacity:0.75;stroke:#ffffff;stroke-linejoin:miter;"/>
   </g>
   <g id="patch_63">
    <path clip-path="url(#pbc03d091bd)" d="M 1157.131222 315 
L 1169.755656 315 
L 1169.755656 310.044402 
L 1157.131222 310.044402 
z
" style="fill:#c44e52;fill-opacity:0.75;stroke:#ffffff;stroke-linejoin:miter;"/>
   </g>
   <g id="patch_64">
    <path clip-path="url(#pbc03d091bd)" d="M 1169.755656 315 
L 1182.38009 315 
L 1182.38009 310.335907 
L 1169.755656 310.335907 
z
" style="fill:#c44e52;fill-opacity:0.75;stroke:#ffffff;stroke-linejoin:miter;"/>
   </g>
   <g id="patch_65">
    <path clip-path="url(#pbc03d091bd)" d="M 1182.38009 315 
L 1195.004525 315 
L 1195.004525 311.793436 
L 1182.38009 311.793436 
z
" style="fill:#c44e52;fill-opacity:0.75;stroke:#ffffff;stroke-linejoin:miter;"/>
   </g>
   <g id="patch_66">
    <path clip-path="url(#pbc03d091bd)" d="M 1195.004525 315 
L 1207.628959 315 
L 1207.628959 311.501931 
L 1195.004525 311.501931 
z
" style="fill:#c44e52;fill-opacity:0.75;stroke:#ffffff;stroke-linejoin:miter;"/>
   </g>
   <g id="patch_67">
    <path clip-path="url(#pbc03d091bd)" d="M 1207.628959 315 
L 1220.253394 315 
L 1220.253394 312.667954 
L 1207.628959 312.667954 
z
" style="fill:#c44e52;fill-opacity:0.75;stroke:#ffffff;stroke-linejoin:miter;"/>
   </g>
   <g id="patch_68">
    <path clip-path="url(#pbc03d091bd)" d="M 1220.253394 315 
L 1232.877828 315 
L 1232.877828 313.542471 
L 1220.253394 313.542471 
z
" style="fill:#c44e52;fill-opacity:0.75;stroke:#ffffff;stroke-linejoin:miter;"/>
   </g>
   <g id="patch_69">
    <path clip-path="url(#pbc03d091bd)" d="M 1232.877828 315 
L 1245.502262 315 
L 1245.502262 314.125483 
L 1232.877828 314.125483 
z
" style="fill:#c44e52;fill-opacity:0.75;stroke:#ffffff;stroke-linejoin:miter;"/>
   </g>
   <g id="patch_70">
    <path clip-path="url(#pbc03d091bd)" d="M 1245.502262 315 
L 1258.126697 315 
L 1258.126697 314.125483 
L 1245.502262 314.125483 
z
" style="fill:#c44e52;fill-opacity:0.75;stroke:#ffffff;stroke-linejoin:miter;"/>
   </g>
   <g id="patch_71">
    <path clip-path="url(#pbc03d091bd)" d="M 1258.126697 315 
L 1270.751131 315 
L 1270.751131 314.708494 
L 1258.126697 314.708494 
z
" style="fill:#c44e52;fill-opacity:0.75;stroke:#ffffff;stroke-linejoin:miter;"/>
   </g>
   <g id="patch_72">
    <path clip-path="url(#pbc03d091bd)" d="M 1270.751131 315 
L 1283.375566 315 
L 1283.375566 314.708494 
L 1270.751131 314.708494 
z
" style="fill:#c44e52;fill-opacity:0.75;stroke:#ffffff;stroke-linejoin:miter;"/>
   </g>
   <g id="patch_73">
    <path d="M 967.764706 315 
L 967.764706 43.2 
" style="fill:none;stroke:#cccccc;stroke-linecap:square;stroke-linejoin:miter;stroke-width:1.25;"/>
   </g>
   <g id="patch_74">
    <path d="M 1296 315 
L 1296 43.2 
" style="fill:none;stroke:#cccccc;stroke-linecap:square;stroke-linejoin:miter;stroke-width:1.25;"/>
   </g>
   <g id="patch_75">
    <path d="M 967.764706 315 
L 1296 315 
" style="fill:none;stroke:#cccccc;stroke-linecap:square;stroke-linejoin:miter;stroke-width:1.25;"/>
   </g>
   <g id="patch_76">
    <path d="M 967.764706 43.2 
L 1296 43.2 
" style="fill:none;stroke:#cccccc;stroke-linecap:square;stroke-linejoin:miter;stroke-width:1.25;"/>
   </g>
   <g id="text_43">
    <!-- Number of other / age in Profile dataset -->
    <g style="fill:#262626;" transform="translate(1027.165478 37.2)scale(0.12 -0.12)">
     <defs>
      <path d="M 6.59375 0 
L 6.59375 71.578125 
L 15.375 71.578125 
L 15.375 45.90625 
Q 21.53125 53.03125 30.90625 53.03125 
Q 36.671875 53.03125 40.921875 50.75 
Q 45.171875 48.484375 47 44.484375 
Q 48.828125 40.484375 48.828125 32.859375 
L 48.828125 0 
L 40.046875 0 
L 40.046875 32.859375 
Q 40.046875 39.453125 37.1875 42.453125 
Q 34.328125 45.453125 29.109375 45.453125 
Q 25.203125 45.453125 21.75 43.421875 
Q 18.3125 41.40625 16.84375 37.9375 
Q 15.375 34.46875 15.375 28.375 
L 15.375 0 
z
" id="ArialMT-104"/>
     </defs>
     <use xlink:href="#ArialMT-78"/>
     <use x="72.216797" xlink:href="#ArialMT-117"/>
     <use x="127.832031" xlink:href="#ArialMT-109"/>
     <use x="211.132812" xlink:href="#ArialMT-98"/>
     <use x="266.748047" xlink:href="#ArialMT-101"/>
     <use x="322.363281" xlink:href="#ArialMT-114"/>
     <use x="355.664062" xlink:href="#ArialMT-32"/>
     <use x="383.447266" xlink:href="#ArialMT-111"/>
     <use x="439.0625" xlink:href="#ArialMT-102"/>
     <use x="466.845703" xlink:href="#ArialMT-32"/>
     <use x="494.628906" xlink:href="#ArialMT-111"/>
     <use x="550.244141" xlink:href="#ArialMT-116"/>
     <use x="578.027344" xlink:href="#ArialMT-104"/>
     <use x="633.642578" xlink:href="#ArialMT-101"/>
     <use x="689.257812" xlink:href="#ArialMT-114"/>
     <use x="722.558594" xlink:href="#ArialMT-32"/>
     <use x="750.341797" xlink:href="#ArialMT-47"/>
     <use x="778.125" xlink:href="#ArialMT-32"/>
     <use x="805.908203" xlink:href="#ArialMT-97"/>
     <use x="861.523438" xlink:href="#ArialMT-103"/>
     <use x="917.138672" xlink:href="#ArialMT-101"/>
     <use x="972.753906" xlink:href="#ArialMT-32"/>
     <use x="1000.537109" xlink:href="#ArialMT-105"/>
     <use x="1022.753906" xlink:href="#ArialMT-110"/>
     <use x="1078.369141" xlink:href="#ArialMT-32"/>
     <use x="1106.152344" xlink:href="#ArialMT-80"/>
     <use x="1172.851562" xlink:href="#ArialMT-114"/>
     <use x="1206.152344" xlink:href="#ArialMT-111"/>
     <use x="1261.767578" xlink:href="#ArialMT-102"/>
     <use x="1289.550781" xlink:href="#ArialMT-105"/>
     <use x="1311.767578" xlink:href="#ArialMT-108"/>
     <use x="1333.984375" xlink:href="#ArialMT-101"/>
     <use x="1389.599609" xlink:href="#ArialMT-32"/>
     <use x="1417.382812" xlink:href="#ArialMT-100"/>
     <use x="1472.998047" xlink:href="#ArialMT-97"/>
     <use x="1528.613281" xlink:href="#ArialMT-116"/>
     <use x="1556.396484" xlink:href="#ArialMT-97"/>
     <use x="1612.011719" xlink:href="#ArialMT-115"/>
     <use x="1662.011719" xlink:href="#ArialMT-101"/>
     <use x="1717.626953" xlink:href="#ArialMT-116"/>
    </g>
   </g>
  </g>
 </g>
 <defs>
  <clipPath id="p7d32c82693">
   <rect height="271.8" width="328.235294" x="180" y="43.2"/>
  </clipPath>
  <clipPath id="p026731bfcc">
   <rect height="271.8" width="328.235294" x="573.882353" y="43.2"/>
  </clipPath>
  <clipPath id="pbc03d091bd">
   <rect height="271.8" width="328.235294" x="967.764706" y="43.2"/>
  </clipPath>
 </defs>
</svg>
