<?xml version="1.0" encoding="utf-8" standalone="no"?>
<!DOCTYPE svg PUBLIC "-//W3C//DTD SVG 1.1//EN"
  "http://www.w3.org/Graphics/SVG/1.1/DTD/svg11.dtd">
<svg xmlns:xlink="http://www.w3.org/1999/xlink" width="1440pt" height="360pt" viewBox="0 0 1440 360" xmlns="http://www.w3.org/2000/svg" version="1.1">
 <metadata>
  <rdf:RDF xmlns:dc="http://purl.org/dc/elements/1.1/" xmlns:cc="http://creativecommons.org/ns#" xmlns:rdf="http://www.w3.org/1999/02/22-rdf-syntax-ns#">
   <cc:Work>
    <dc:type rdf:resource="http://purl.org/dc/dcmitype/StillImage"/>
    <dc:date>2021-11-20T13:17:02.477205</dc:date>
    <dc:format>image/svg+xml</dc:format>
    <dc:creator>
     <cc:Agent>
      <dc:title>Matplotlib v3.5.0, https://matplotlib.org/</dc:title>
     </cc:Agent>
    </dc:creator>
   </cc:Work>
  </rdf:RDF>
 </metadata>
 <defs>
  <style type="text/css">*{stroke-linejoin: round; stroke-linecap: butt}</style>
 </defs>
 <g id="figure_1">
  <g id="patch_1">
   <path d="M 0 360 
L 1440 360 
L 1440 0 
L 0 0 
z
" style="fill: #ffffff"/>
  </g>
  <g id="axes_1">
   <g id="patch_2">
    <path d="M 180 315 
L 687.272727 315 
L 687.272727 43.2 
L 180 43.2 
z
" style="fill: #ffffff"/>
   </g>
   <g id="matplotlib.axis_1">
    <g id="xtick_1">
     <g id="line2d_1">
      <path d="M 180 315 
L 180 43.2 
" clip-path="url(#p7deb539f12)" style="fill: none; stroke: #cccccc; stroke-linecap: round"/>
     </g>
     <g id="text_1">
      <!-- 0 -->
      <g style="fill: #262626" transform="translate(176.941484 332.373594)scale(0.11 -0.11)">
       <defs>
        <path id="ArialMT-30" d="M 266 2259 
Q 266 3072 433 3567 
Q 600 4063 929 4331 
Q 1259 4600 1759 4600 
Q 2128 4600 2406 4451 
Q 2684 4303 2865 4023 
Q 3047 3744 3150 3342 
Q 3253 2941 3253 2259 
Q 3253 1453 3087 958 
Q 2922 463 2592 192 
Q 2263 -78 1759 -78 
Q 1097 -78 719 397 
Q 266 969 266 2259 
z
M 844 2259 
Q 844 1131 1108 757 
Q 1372 384 1759 384 
Q 2147 384 2411 759 
Q 2675 1134 2675 2259 
Q 2675 3391 2411 3762 
Q 2147 4134 1753 4134 
Q 1366 4134 1134 3806 
Q 844 3388 844 2259 
z
" transform="scale(0.015625)"/>
       </defs>
       <use xlink:href="#ArialMT-30"/>
      </g>
     </g>
    </g>
    <g id="xtick_2">
     <g id="line2d_2">
      <path d="M 229.167857 315 
L 229.167857 43.2 
" clip-path="url(#p7deb539f12)" style="fill: none; stroke: #cccccc; stroke-linecap: round"/>
     </g>
     <g id="text_2">
      <!-- 303 -->
      <g style="fill: #262626" transform="translate(219.99231 332.373594)scale(0.11 -0.11)">
       <defs>
        <path id="ArialMT-33" d="M 269 1209 
L 831 1284 
Q 928 806 1161 595 
Q 1394 384 1728 384 
Q 2125 384 2398 659 
Q 2672 934 2672 1341 
Q 2672 1728 2419 1979 
Q 2166 2231 1775 2231 
Q 1616 2231 1378 2169 
L 1441 2663 
Q 1497 2656 1531 2656 
Q 1891 2656 2178 2843 
Q 2466 3031 2466 3422 
Q 2466 3731 2256 3934 
Q 2047 4138 1716 4138 
Q 1388 4138 1169 3931 
Q 950 3725 888 3313 
L 325 3413 
Q 428 3978 793 4289 
Q 1159 4600 1703 4600 
Q 2078 4600 2393 4439 
Q 2709 4278 2876 4000 
Q 3044 3722 3044 3409 
Q 3044 3113 2884 2869 
Q 2725 2625 2413 2481 
Q 2819 2388 3044 2092 
Q 3269 1797 3269 1353 
Q 3269 753 2831 336 
Q 2394 -81 1725 -81 
Q 1122 -81 723 278 
Q 325 638 269 1209 
z
" transform="scale(0.015625)"/>
       </defs>
       <use xlink:href="#ArialMT-33"/>
       <use xlink:href="#ArialMT-30" x="55.615234"/>
       <use xlink:href="#ArialMT-33" x="111.230469"/>
      </g>
     </g>
    </g>
    <g id="xtick_3">
     <g id="line2d_3">
      <path d="M 278.335713 315 
L 278.335713 43.2 
" clip-path="url(#p7deb539f12)" style="fill: none; stroke: #cccccc; stroke-linecap: round"/>
     </g>
     <g id="text_3">
      <!-- 606 -->
      <g style="fill: #262626" transform="translate(269.160166 332.373594)scale(0.11 -0.11)">
       <defs>
        <path id="ArialMT-36" d="M 3184 3459 
L 2625 3416 
Q 2550 3747 2413 3897 
Q 2184 4138 1850 4138 
Q 1581 4138 1378 3988 
Q 1113 3794 959 3422 
Q 806 3050 800 2363 
Q 1003 2672 1297 2822 
Q 1591 2972 1913 2972 
Q 2475 2972 2870 2558 
Q 3266 2144 3266 1488 
Q 3266 1056 3080 686 
Q 2894 316 2569 119 
Q 2244 -78 1831 -78 
Q 1128 -78 684 439 
Q 241 956 241 2144 
Q 241 3472 731 4075 
Q 1159 4600 1884 4600 
Q 2425 4600 2770 4297 
Q 3116 3994 3184 3459 
z
M 888 1484 
Q 888 1194 1011 928 
Q 1134 663 1356 523 
Q 1578 384 1822 384 
Q 2178 384 2434 671 
Q 2691 959 2691 1453 
Q 2691 1928 2437 2201 
Q 2184 2475 1800 2475 
Q 1419 2475 1153 2201 
Q 888 1928 888 1484 
z
" transform="scale(0.015625)"/>
       </defs>
       <use xlink:href="#ArialMT-36"/>
       <use xlink:href="#ArialMT-30" x="55.615234"/>
       <use xlink:href="#ArialMT-36" x="111.230469"/>
      </g>
     </g>
    </g>
    <g id="xtick_4">
     <g id="line2d_4">
      <path d="M 327.50357 315 
L 327.50357 43.2 
" clip-path="url(#p7deb539f12)" style="fill: none; stroke: #cccccc; stroke-linecap: round"/>
     </g>
     <g id="text_4">
      <!-- 909 -->
      <g style="fill: #262626" transform="translate(318.328023 332.373594)scale(0.11 -0.11)">
       <defs>
        <path id="ArialMT-39" d="M 350 1059 
L 891 1109 
Q 959 728 1153 556 
Q 1347 384 1650 384 
Q 1909 384 2104 503 
Q 2300 622 2425 820 
Q 2550 1019 2634 1356 
Q 2719 1694 2719 2044 
Q 2719 2081 2716 2156 
Q 2547 1888 2255 1720 
Q 1963 1553 1622 1553 
Q 1053 1553 659 1965 
Q 266 2378 266 3053 
Q 266 3750 677 4175 
Q 1088 4600 1706 4600 
Q 2153 4600 2523 4359 
Q 2894 4119 3086 3673 
Q 3278 3228 3278 2384 
Q 3278 1506 3087 986 
Q 2897 466 2520 194 
Q 2144 -78 1638 -78 
Q 1100 -78 759 220 
Q 419 519 350 1059 
z
M 2653 3081 
Q 2653 3566 2395 3850 
Q 2138 4134 1775 4134 
Q 1400 4134 1122 3828 
Q 844 3522 844 3034 
Q 844 2597 1108 2323 
Q 1372 2050 1759 2050 
Q 2150 2050 2401 2323 
Q 2653 2597 2653 3081 
z
" transform="scale(0.015625)"/>
       </defs>
       <use xlink:href="#ArialMT-39"/>
       <use xlink:href="#ArialMT-30" x="55.615234"/>
       <use xlink:href="#ArialMT-39" x="111.230469"/>
      </g>
     </g>
    </g>
    <g id="xtick_5">
     <g id="line2d_5">
      <path d="M 376.671426 315 
L 376.671426 43.2 
" clip-path="url(#p7deb539f12)" style="fill: none; stroke: #cccccc; stroke-linecap: round"/>
     </g>
     <g id="text_5">
      <!-- 1212 -->
      <g style="fill: #262626" transform="translate(364.437364 332.373594)scale(0.11 -0.11)">
       <defs>
        <path id="ArialMT-31" d="M 2384 0 
L 1822 0 
L 1822 3584 
Q 1619 3391 1289 3197 
Q 959 3003 697 2906 
L 697 3450 
Q 1169 3672 1522 3987 
Q 1875 4303 2022 4600 
L 2384 4600 
L 2384 0 
z
" transform="scale(0.015625)"/>
        <path id="ArialMT-32" d="M 3222 541 
L 3222 0 
L 194 0 
Q 188 203 259 391 
Q 375 700 629 1000 
Q 884 1300 1366 1694 
Q 2113 2306 2375 2664 
Q 2638 3022 2638 3341 
Q 2638 3675 2398 3904 
Q 2159 4134 1775 4134 
Q 1369 4134 1125 3890 
Q 881 3647 878 3216 
L 300 3275 
Q 359 3922 746 4261 
Q 1134 4600 1788 4600 
Q 2447 4600 2831 4234 
Q 3216 3869 3216 3328 
Q 3216 3053 3103 2787 
Q 2991 2522 2730 2228 
Q 2469 1934 1863 1422 
Q 1356 997 1212 845 
Q 1069 694 975 541 
L 3222 541 
z
" transform="scale(0.015625)"/>
       </defs>
       <use xlink:href="#ArialMT-31"/>
       <use xlink:href="#ArialMT-32" x="55.615234"/>
       <use xlink:href="#ArialMT-31" x="111.230469"/>
       <use xlink:href="#ArialMT-32" x="166.845703"/>
      </g>
     </g>
    </g>
    <g id="xtick_6">
     <g id="line2d_6">
      <path d="M 425.839283 315 
L 425.839283 43.2 
" clip-path="url(#p7deb539f12)" style="fill: none; stroke: #cccccc; stroke-linecap: round"/>
     </g>
     <g id="text_6">
      <!-- 1515 -->
      <g style="fill: #262626" transform="translate(413.60522 332.373594)scale(0.11 -0.11)">
       <defs>
        <path id="ArialMT-35" d="M 266 1200 
L 856 1250 
Q 922 819 1161 601 
Q 1400 384 1738 384 
Q 2144 384 2425 690 
Q 2706 997 2706 1503 
Q 2706 1984 2436 2262 
Q 2166 2541 1728 2541 
Q 1456 2541 1237 2417 
Q 1019 2294 894 2097 
L 366 2166 
L 809 4519 
L 3088 4519 
L 3088 3981 
L 1259 3981 
L 1013 2750 
Q 1425 3038 1878 3038 
Q 2478 3038 2890 2622 
Q 3303 2206 3303 1553 
Q 3303 931 2941 478 
Q 2500 -78 1738 -78 
Q 1113 -78 717 272 
Q 322 622 266 1200 
z
" transform="scale(0.015625)"/>
       </defs>
       <use xlink:href="#ArialMT-31"/>
       <use xlink:href="#ArialMT-35" x="55.615234"/>
       <use xlink:href="#ArialMT-31" x="111.230469"/>
       <use xlink:href="#ArialMT-35" x="166.845703"/>
      </g>
     </g>
    </g>
    <g id="xtick_7">
     <g id="line2d_7">
      <path d="M 475.007139 315 
L 475.007139 43.2 
" clip-path="url(#p7deb539f12)" style="fill: none; stroke: #cccccc; stroke-linecap: round"/>
     </g>
     <g id="text_7">
      <!-- 1818 -->
      <g style="fill: #262626" transform="translate(462.773077 332.373594)scale(0.11 -0.11)">
       <defs>
        <path id="ArialMT-38" d="M 1131 2484 
Q 781 2613 612 2850 
Q 444 3088 444 3419 
Q 444 3919 803 4259 
Q 1163 4600 1759 4600 
Q 2359 4600 2725 4251 
Q 3091 3903 3091 3403 
Q 3091 3084 2923 2848 
Q 2756 2613 2416 2484 
Q 2838 2347 3058 2040 
Q 3278 1734 3278 1309 
Q 3278 722 2862 322 
Q 2447 -78 1769 -78 
Q 1091 -78 675 323 
Q 259 725 259 1325 
Q 259 1772 486 2073 
Q 713 2375 1131 2484 
z
M 1019 3438 
Q 1019 3113 1228 2906 
Q 1438 2700 1772 2700 
Q 2097 2700 2305 2904 
Q 2513 3109 2513 3406 
Q 2513 3716 2298 3927 
Q 2084 4138 1766 4138 
Q 1444 4138 1231 3931 
Q 1019 3725 1019 3438 
z
M 838 1322 
Q 838 1081 952 856 
Q 1066 631 1291 507 
Q 1516 384 1775 384 
Q 2178 384 2440 643 
Q 2703 903 2703 1303 
Q 2703 1709 2433 1975 
Q 2163 2241 1756 2241 
Q 1359 2241 1098 1978 
Q 838 1716 838 1322 
z
" transform="scale(0.015625)"/>
       </defs>
       <use xlink:href="#ArialMT-31"/>
       <use xlink:href="#ArialMT-38" x="55.615234"/>
       <use xlink:href="#ArialMT-31" x="111.230469"/>
       <use xlink:href="#ArialMT-38" x="166.845703"/>
      </g>
     </g>
    </g>
    <g id="xtick_8">
     <g id="line2d_8">
      <path d="M 524.174996 315 
L 524.174996 43.2 
" clip-path="url(#p7deb539f12)" style="fill: none; stroke: #cccccc; stroke-linecap: round"/>
     </g>
     <g id="text_8">
      <!-- 2121 -->
      <g style="fill: #262626" transform="translate(511.940933 332.373594)scale(0.11 -0.11)">
       <use xlink:href="#ArialMT-32"/>
       <use xlink:href="#ArialMT-31" x="55.615234"/>
       <use xlink:href="#ArialMT-32" x="111.230469"/>
       <use xlink:href="#ArialMT-31" x="166.845703"/>
      </g>
     </g>
    </g>
    <g id="xtick_9">
     <g id="line2d_9">
      <path d="M 573.342852 315 
L 573.342852 43.2 
" clip-path="url(#p7deb539f12)" style="fill: none; stroke: #cccccc; stroke-linecap: round"/>
     </g>
     <g id="text_9">
      <!-- 2424 -->
      <g style="fill: #262626" transform="translate(561.10879 332.373594)scale(0.11 -0.11)">
       <defs>
        <path id="ArialMT-34" d="M 2069 0 
L 2069 1097 
L 81 1097 
L 81 1613 
L 2172 4581 
L 2631 4581 
L 2631 1613 
L 3250 1613 
L 3250 1097 
L 2631 1097 
L 2631 0 
L 2069 0 
z
M 2069 1613 
L 2069 3678 
L 634 1613 
L 2069 1613 
z
" transform="scale(0.015625)"/>
       </defs>
       <use xlink:href="#ArialMT-32"/>
       <use xlink:href="#ArialMT-34" x="55.615234"/>
       <use xlink:href="#ArialMT-32" x="111.230469"/>
       <use xlink:href="#ArialMT-34" x="166.845703"/>
      </g>
     </g>
    </g>
    <g id="xtick_10">
     <g id="line2d_10">
      <path d="M 622.510709 315 
L 622.510709 43.2 
" clip-path="url(#p7deb539f12)" style="fill: none; stroke: #cccccc; stroke-linecap: round"/>
     </g>
     <g id="text_10">
      <!-- 2727 -->
      <g style="fill: #262626" transform="translate(610.276646 332.373594)scale(0.11 -0.11)">
       <defs>
        <path id="ArialMT-37" d="M 303 3981 
L 303 4522 
L 3269 4522 
L 3269 4084 
Q 2831 3619 2401 2847 
Q 1972 2075 1738 1259 
Q 1569 684 1522 0 
L 944 0 
Q 953 541 1156 1306 
Q 1359 2072 1739 2783 
Q 2119 3494 2547 3981 
L 303 3981 
z
" transform="scale(0.015625)"/>
       </defs>
       <use xlink:href="#ArialMT-32"/>
       <use xlink:href="#ArialMT-37" x="55.615234"/>
       <use xlink:href="#ArialMT-32" x="111.230469"/>
       <use xlink:href="#ArialMT-37" x="166.845703"/>
      </g>
     </g>
    </g>
    <g id="xtick_11">
     <g id="line2d_11">
      <path d="M 671.678566 315 
L 671.678566 43.2 
" clip-path="url(#p7deb539f12)" style="fill: none; stroke: #cccccc; stroke-linecap: round"/>
     </g>
     <g id="text_11">
      <!-- 3030 -->
      <g style="fill: #262626" transform="translate(659.444503 332.373594)scale(0.11 -0.11)">
       <use xlink:href="#ArialMT-33"/>
       <use xlink:href="#ArialMT-30" x="55.615234"/>
       <use xlink:href="#ArialMT-33" x="111.230469"/>
       <use xlink:href="#ArialMT-30" x="166.845703"/>
      </g>
     </g>
    </g>
    <g id="text_12">
     <!-- membership_days -->
     <g style="fill: #262626" transform="translate(384.617301 347.149219)scale(0.12 -0.12)">
      <defs>
       <path id="ArialMT-6d" d="M 422 0 
L 422 3319 
L 925 3319 
L 925 2853 
Q 1081 3097 1340 3245 
Q 1600 3394 1931 3394 
Q 2300 3394 2536 3241 
Q 2772 3088 2869 2813 
Q 3263 3394 3894 3394 
Q 4388 3394 4653 3120 
Q 4919 2847 4919 2278 
L 4919 0 
L 4359 0 
L 4359 2091 
Q 4359 2428 4304 2576 
Q 4250 2725 4106 2815 
Q 3963 2906 3769 2906 
Q 3419 2906 3187 2673 
Q 2956 2441 2956 1928 
L 2956 0 
L 2394 0 
L 2394 2156 
Q 2394 2531 2256 2718 
Q 2119 2906 1806 2906 
Q 1569 2906 1367 2781 
Q 1166 2656 1075 2415 
Q 984 2175 984 1722 
L 984 0 
L 422 0 
z
" transform="scale(0.015625)"/>
       <path id="ArialMT-65" d="M 2694 1069 
L 3275 997 
Q 3138 488 2766 206 
Q 2394 -75 1816 -75 
Q 1088 -75 661 373 
Q 234 822 234 1631 
Q 234 2469 665 2931 
Q 1097 3394 1784 3394 
Q 2450 3394 2872 2941 
Q 3294 2488 3294 1666 
Q 3294 1616 3291 1516 
L 816 1516 
Q 847 969 1125 678 
Q 1403 388 1819 388 
Q 2128 388 2347 550 
Q 2566 713 2694 1069 
z
M 847 1978 
L 2700 1978 
Q 2663 2397 2488 2606 
Q 2219 2931 1791 2931 
Q 1403 2931 1139 2672 
Q 875 2413 847 1978 
z
" transform="scale(0.015625)"/>
       <path id="ArialMT-62" d="M 941 0 
L 419 0 
L 419 4581 
L 981 4581 
L 981 2947 
Q 1338 3394 1891 3394 
Q 2197 3394 2470 3270 
Q 2744 3147 2920 2923 
Q 3097 2700 3197 2384 
Q 3297 2069 3297 1709 
Q 3297 856 2875 390 
Q 2453 -75 1863 -75 
Q 1275 -75 941 416 
L 941 0 
z
M 934 1684 
Q 934 1088 1097 822 
Q 1363 388 1816 388 
Q 2184 388 2453 708 
Q 2722 1028 2722 1663 
Q 2722 2313 2464 2622 
Q 2206 2931 1841 2931 
Q 1472 2931 1203 2611 
Q 934 2291 934 1684 
z
" transform="scale(0.015625)"/>
       <path id="ArialMT-72" d="M 416 0 
L 416 3319 
L 922 3319 
L 922 2816 
Q 1116 3169 1280 3281 
Q 1444 3394 1641 3394 
Q 1925 3394 2219 3213 
L 2025 2691 
Q 1819 2813 1613 2813 
Q 1428 2813 1281 2702 
Q 1134 2591 1072 2394 
Q 978 2094 978 1738 
L 978 0 
L 416 0 
z
" transform="scale(0.015625)"/>
       <path id="ArialMT-73" d="M 197 991 
L 753 1078 
Q 800 744 1014 566 
Q 1228 388 1613 388 
Q 2000 388 2187 545 
Q 2375 703 2375 916 
Q 2375 1106 2209 1216 
Q 2094 1291 1634 1406 
Q 1016 1563 777 1677 
Q 538 1791 414 1992 
Q 291 2194 291 2438 
Q 291 2659 392 2848 
Q 494 3038 669 3163 
Q 800 3259 1026 3326 
Q 1253 3394 1513 3394 
Q 1903 3394 2198 3281 
Q 2494 3169 2634 2976 
Q 2775 2784 2828 2463 
L 2278 2388 
Q 2241 2644 2061 2787 
Q 1881 2931 1553 2931 
Q 1166 2931 1000 2803 
Q 834 2675 834 2503 
Q 834 2394 903 2306 
Q 972 2216 1119 2156 
Q 1203 2125 1616 2013 
Q 2213 1853 2448 1751 
Q 2684 1650 2818 1456 
Q 2953 1263 2953 975 
Q 2953 694 2789 445 
Q 2625 197 2315 61 
Q 2006 -75 1616 -75 
Q 969 -75 630 194 
Q 291 463 197 991 
z
" transform="scale(0.015625)"/>
       <path id="ArialMT-68" d="M 422 0 
L 422 4581 
L 984 4581 
L 984 2938 
Q 1378 3394 1978 3394 
Q 2347 3394 2619 3248 
Q 2891 3103 3008 2847 
Q 3125 2591 3125 2103 
L 3125 0 
L 2563 0 
L 2563 2103 
Q 2563 2525 2380 2717 
Q 2197 2909 1863 2909 
Q 1613 2909 1392 2779 
Q 1172 2650 1078 2428 
Q 984 2206 984 1816 
L 984 0 
L 422 0 
z
" transform="scale(0.015625)"/>
       <path id="ArialMT-69" d="M 425 3934 
L 425 4581 
L 988 4581 
L 988 3934 
L 425 3934 
z
M 425 0 
L 425 3319 
L 988 3319 
L 988 0 
L 425 0 
z
" transform="scale(0.015625)"/>
       <path id="ArialMT-70" d="M 422 -1272 
L 422 3319 
L 934 3319 
L 934 2888 
Q 1116 3141 1344 3267 
Q 1572 3394 1897 3394 
Q 2322 3394 2647 3175 
Q 2972 2956 3137 2557 
Q 3303 2159 3303 1684 
Q 3303 1175 3120 767 
Q 2938 359 2589 142 
Q 2241 -75 1856 -75 
Q 1575 -75 1351 44 
Q 1128 163 984 344 
L 984 -1272 
L 422 -1272 
z
M 931 1641 
Q 931 1000 1190 694 
Q 1450 388 1819 388 
Q 2194 388 2461 705 
Q 2728 1022 2728 1688 
Q 2728 2322 2467 2637 
Q 2206 2953 1844 2953 
Q 1484 2953 1207 2617 
Q 931 2281 931 1641 
z
" transform="scale(0.015625)"/>
       <path id="ArialMT-5f" d="M -97 -1272 
L -97 -866 
L 3631 -866 
L 3631 -1272 
L -97 -1272 
z
" transform="scale(0.015625)"/>
       <path id="ArialMT-64" d="M 2575 0 
L 2575 419 
Q 2259 -75 1647 -75 
Q 1250 -75 917 144 
Q 584 363 401 755 
Q 219 1147 219 1656 
Q 219 2153 384 2558 
Q 550 2963 881 3178 
Q 1213 3394 1622 3394 
Q 1922 3394 2156 3267 
Q 2391 3141 2538 2938 
L 2538 4581 
L 3097 4581 
L 3097 0 
L 2575 0 
z
M 797 1656 
Q 797 1019 1065 703 
Q 1334 388 1700 388 
Q 2069 388 2326 689 
Q 2584 991 2584 1609 
Q 2584 2291 2321 2609 
Q 2059 2928 1675 2928 
Q 1300 2928 1048 2622 
Q 797 2316 797 1656 
z
" transform="scale(0.015625)"/>
       <path id="ArialMT-61" d="M 2588 409 
Q 2275 144 1986 34 
Q 1697 -75 1366 -75 
Q 819 -75 525 192 
Q 231 459 231 875 
Q 231 1119 342 1320 
Q 453 1522 633 1644 
Q 813 1766 1038 1828 
Q 1203 1872 1538 1913 
Q 2219 1994 2541 2106 
Q 2544 2222 2544 2253 
Q 2544 2597 2384 2738 
Q 2169 2928 1744 2928 
Q 1347 2928 1158 2789 
Q 969 2650 878 2297 
L 328 2372 
Q 403 2725 575 2942 
Q 747 3159 1072 3276 
Q 1397 3394 1825 3394 
Q 2250 3394 2515 3294 
Q 2781 3194 2906 3042 
Q 3031 2891 3081 2659 
Q 3109 2516 3109 2141 
L 3109 1391 
Q 3109 606 3145 398 
Q 3181 191 3288 0 
L 2700 0 
Q 2613 175 2588 409 
z
M 2541 1666 
Q 2234 1541 1622 1453 
Q 1275 1403 1131 1340 
Q 988 1278 909 1158 
Q 831 1038 831 891 
Q 831 666 1001 516 
Q 1172 366 1500 366 
Q 1825 366 2078 508 
Q 2331 650 2450 897 
Q 2541 1088 2541 1459 
L 2541 1666 
z
" transform="scale(0.015625)"/>
       <path id="ArialMT-79" d="M 397 -1278 
L 334 -750 
Q 519 -800 656 -800 
Q 844 -800 956 -737 
Q 1069 -675 1141 -563 
Q 1194 -478 1313 -144 
Q 1328 -97 1363 -6 
L 103 3319 
L 709 3319 
L 1400 1397 
Q 1534 1031 1641 628 
Q 1738 1016 1872 1384 
L 2581 3319 
L 3144 3319 
L 1881 -56 
Q 1678 -603 1566 -809 
Q 1416 -1088 1222 -1217 
Q 1028 -1347 759 -1347 
Q 597 -1347 397 -1278 
z
" transform="scale(0.015625)"/>
      </defs>
      <use xlink:href="#ArialMT-6d"/>
      <use xlink:href="#ArialMT-65" x="83.300781"/>
      <use xlink:href="#ArialMT-6d" x="138.916016"/>
      <use xlink:href="#ArialMT-62" x="222.216797"/>
      <use xlink:href="#ArialMT-65" x="277.832031"/>
      <use xlink:href="#ArialMT-72" x="333.447266"/>
      <use xlink:href="#ArialMT-73" x="366.748047"/>
      <use xlink:href="#ArialMT-68" x="416.748047"/>
      <use xlink:href="#ArialMT-69" x="472.363281"/>
      <use xlink:href="#ArialMT-70" x="494.580078"/>
      <use xlink:href="#ArialMT-5f" x="550.195312"/>
      <use xlink:href="#ArialMT-64" x="605.810547"/>
      <use xlink:href="#ArialMT-61" x="661.425781"/>
      <use xlink:href="#ArialMT-79" x="717.041016"/>
      <use xlink:href="#ArialMT-73" x="767.041016"/>
     </g>
    </g>
   </g>
   <g id="matplotlib.axis_2">
    <g id="ytick_1">
     <g id="line2d_12">
      <path d="M 180 315 
L 687.272727 315 
" clip-path="url(#p7deb539f12)" style="fill: none; stroke: #cccccc; stroke-linecap: round"/>
     </g>
     <g id="text_13">
      <!-- 0 -->
      <g style="fill: #262626" transform="translate(164.382969 318.936797)scale(0.11 -0.11)">
       <use xlink:href="#ArialMT-30"/>
      </g>
     </g>
    </g>
    <g id="ytick_2">
     <g id="line2d_13">
      <path d="M 180 275.68988 
L 687.272727 275.68988 
" clip-path="url(#p7deb539f12)" style="fill: none; stroke: #cccccc; stroke-linecap: round"/>
     </g>
     <g id="text_14">
      <!-- 200 -->
      <g style="fill: #262626" transform="translate(152.148906 279.626676)scale(0.11 -0.11)">
       <use xlink:href="#ArialMT-32"/>
       <use xlink:href="#ArialMT-30" x="55.615234"/>
       <use xlink:href="#ArialMT-30" x="111.230469"/>
      </g>
     </g>
    </g>
    <g id="ytick_3">
     <g id="line2d_14">
      <path d="M 180 236.379759 
L 687.272727 236.379759 
" clip-path="url(#p7deb539f12)" style="fill: none; stroke: #cccccc; stroke-linecap: round"/>
     </g>
     <g id="text_15">
      <!-- 400 -->
      <g style="fill: #262626" transform="translate(152.148906 240.316556)scale(0.11 -0.11)">
       <use xlink:href="#ArialMT-34"/>
       <use xlink:href="#ArialMT-30" x="55.615234"/>
       <use xlink:href="#ArialMT-30" x="111.230469"/>
      </g>
     </g>
    </g>
    <g id="ytick_4">
     <g id="line2d_15">
      <path d="M 180 197.069639 
L 687.272727 197.069639 
" clip-path="url(#p7deb539f12)" style="fill: none; stroke: #cccccc; stroke-linecap: round"/>
     </g>
     <g id="text_16">
      <!-- 600 -->
      <g style="fill: #262626" transform="translate(152.148906 201.006436)scale(0.11 -0.11)">
       <use xlink:href="#ArialMT-36"/>
       <use xlink:href="#ArialMT-30" x="55.615234"/>
       <use xlink:href="#ArialMT-30" x="111.230469"/>
      </g>
     </g>
    </g>
    <g id="ytick_5">
     <g id="line2d_16">
      <path d="M 180 157.759518 
L 687.272727 157.759518 
" clip-path="url(#p7deb539f12)" style="fill: none; stroke: #cccccc; stroke-linecap: round"/>
     </g>
     <g id="text_17">
      <!-- 800 -->
      <g style="fill: #262626" transform="translate(152.148906 161.696315)scale(0.11 -0.11)">
       <use xlink:href="#ArialMT-38"/>
       <use xlink:href="#ArialMT-30" x="55.615234"/>
       <use xlink:href="#ArialMT-30" x="111.230469"/>
      </g>
     </g>
    </g>
    <g id="ytick_6">
     <g id="line2d_17">
      <path d="M 180 118.449398 
L 687.272727 118.449398 
" clip-path="url(#p7deb539f12)" style="fill: none; stroke: #cccccc; stroke-linecap: round"/>
     </g>
     <g id="text_18">
      <!-- 1000 -->
      <g style="fill: #262626" transform="translate(146.031875 122.386195)scale(0.11 -0.11)">
       <use xlink:href="#ArialMT-31"/>
       <use xlink:href="#ArialMT-30" x="55.615234"/>
       <use xlink:href="#ArialMT-30" x="111.230469"/>
       <use xlink:href="#ArialMT-30" x="166.845703"/>
      </g>
     </g>
    </g>
    <g id="ytick_7">
     <g id="line2d_18">
      <path d="M 180 79.139278 
L 687.272727 79.139278 
" clip-path="url(#p7deb539f12)" style="fill: none; stroke: #cccccc; stroke-linecap: round"/>
     </g>
     <g id="text_19">
      <!-- 1200 -->
      <g style="fill: #262626" transform="translate(146.031875 83.076074)scale(0.11 -0.11)">
       <use xlink:href="#ArialMT-31"/>
       <use xlink:href="#ArialMT-32" x="55.615234"/>
       <use xlink:href="#ArialMT-30" x="111.230469"/>
       <use xlink:href="#ArialMT-30" x="166.845703"/>
      </g>
     </g>
    </g>
    <g id="text_20">
     <!-- count of user -->
     <g style="fill: #262626" transform="translate(139.646875 213.784687)rotate(-90)scale(0.12 -0.12)">
      <defs>
       <path id="ArialMT-63" d="M 2588 1216 
L 3141 1144 
Q 3050 572 2676 248 
Q 2303 -75 1759 -75 
Q 1078 -75 664 370 
Q 250 816 250 1647 
Q 250 2184 428 2587 
Q 606 2991 970 3192 
Q 1334 3394 1763 3394 
Q 2303 3394 2647 3120 
Q 2991 2847 3088 2344 
L 2541 2259 
Q 2463 2594 2264 2762 
Q 2066 2931 1784 2931 
Q 1359 2931 1093 2626 
Q 828 2322 828 1663 
Q 828 994 1084 691 
Q 1341 388 1753 388 
Q 2084 388 2306 591 
Q 2528 794 2588 1216 
z
" transform="scale(0.015625)"/>
       <path id="ArialMT-6f" d="M 213 1659 
Q 213 2581 725 3025 
Q 1153 3394 1769 3394 
Q 2453 3394 2887 2945 
Q 3322 2497 3322 1706 
Q 3322 1066 3130 698 
Q 2938 331 2570 128 
Q 2203 -75 1769 -75 
Q 1072 -75 642 372 
Q 213 819 213 1659 
z
M 791 1659 
Q 791 1022 1069 705 
Q 1347 388 1769 388 
Q 2188 388 2466 706 
Q 2744 1025 2744 1678 
Q 2744 2294 2464 2611 
Q 2184 2928 1769 2928 
Q 1347 2928 1069 2612 
Q 791 2297 791 1659 
z
" transform="scale(0.015625)"/>
       <path id="ArialMT-75" d="M 2597 0 
L 2597 488 
Q 2209 -75 1544 -75 
Q 1250 -75 995 37 
Q 741 150 617 320 
Q 494 491 444 738 
Q 409 903 409 1263 
L 409 3319 
L 972 3319 
L 972 1478 
Q 972 1038 1006 884 
Q 1059 663 1231 536 
Q 1403 409 1656 409 
Q 1909 409 2131 539 
Q 2353 669 2445 892 
Q 2538 1116 2538 1541 
L 2538 3319 
L 3100 3319 
L 3100 0 
L 2597 0 
z
" transform="scale(0.015625)"/>
       <path id="ArialMT-6e" d="M 422 0 
L 422 3319 
L 928 3319 
L 928 2847 
Q 1294 3394 1984 3394 
Q 2284 3394 2536 3286 
Q 2788 3178 2913 3003 
Q 3038 2828 3088 2588 
Q 3119 2431 3119 2041 
L 3119 0 
L 2556 0 
L 2556 2019 
Q 2556 2363 2490 2533 
Q 2425 2703 2258 2804 
Q 2091 2906 1866 2906 
Q 1506 2906 1245 2678 
Q 984 2450 984 1813 
L 984 0 
L 422 0 
z
" transform="scale(0.015625)"/>
       <path id="ArialMT-74" d="M 1650 503 
L 1731 6 
Q 1494 -44 1306 -44 
Q 1000 -44 831 53 
Q 663 150 594 308 
Q 525 466 525 972 
L 525 2881 
L 113 2881 
L 113 3319 
L 525 3319 
L 525 4141 
L 1084 4478 
L 1084 3319 
L 1650 3319 
L 1650 2881 
L 1084 2881 
L 1084 941 
Q 1084 700 1114 631 
Q 1144 563 1211 522 
Q 1278 481 1403 481 
Q 1497 481 1650 503 
z
" transform="scale(0.015625)"/>
       <path id="ArialMT-20" transform="scale(0.015625)"/>
       <path id="ArialMT-66" d="M 556 0 
L 556 2881 
L 59 2881 
L 59 3319 
L 556 3319 
L 556 3672 
Q 556 4006 616 4169 
Q 697 4388 901 4523 
Q 1106 4659 1475 4659 
Q 1713 4659 2000 4603 
L 1916 4113 
Q 1741 4144 1584 4144 
Q 1328 4144 1222 4034 
Q 1116 3925 1116 3625 
L 1116 3319 
L 1763 3319 
L 1763 2881 
L 1116 2881 
L 1116 0 
L 556 0 
z
" transform="scale(0.015625)"/>
      </defs>
      <use xlink:href="#ArialMT-63"/>
      <use xlink:href="#ArialMT-6f" x="50"/>
      <use xlink:href="#ArialMT-75" x="105.615234"/>
      <use xlink:href="#ArialMT-6e" x="161.230469"/>
      <use xlink:href="#ArialMT-74" x="216.845703"/>
      <use xlink:href="#ArialMT-20" x="244.628906"/>
      <use xlink:href="#ArialMT-6f" x="272.412109"/>
      <use xlink:href="#ArialMT-66" x="328.027344"/>
      <use xlink:href="#ArialMT-20" x="355.810547"/>
      <use xlink:href="#ArialMT-75" x="383.59375"/>
      <use xlink:href="#ArialMT-73" x="439.208984"/>
      <use xlink:href="#ArialMT-65" x="489.208984"/>
      <use xlink:href="#ArialMT-72" x="544.824219"/>
     </g>
    </g>
   </g>
   <g id="patch_3">
    <path d="M 376.833696 315 
L 391.616507 315 
L 391.616507 204.14546 
L 376.833696 204.14546 
z
" clip-path="url(#p7deb539f12)" style="fill: #4c72b0; fill-opacity: 0.5"/>
   </g>
   <g id="patch_4">
    <path d="M 391.616507 315 
L 406.399318 315 
L 406.399318 212.400586 
L 391.616507 212.400586 
z
" clip-path="url(#p7deb539f12)" style="fill: #4c72b0; fill-opacity: 0.5"/>
   </g>
   <g id="patch_5">
    <path d="M 406.399318 315 
L 421.182129 315 
L 421.182129 132.01139 
L 406.399318 132.01139 
z
" clip-path="url(#p7deb539f12)" style="fill: #4c72b0; fill-opacity: 0.5"/>
   </g>
   <g id="patch_6">
    <path d="M 421.182129 315 
L 435.96494 315 
L 435.96494 136.532053 
L 421.182129 136.532053 
z
" clip-path="url(#p7deb539f12)" style="fill: #4c72b0; fill-opacity: 0.5"/>
   </g>
   <g id="patch_7">
    <path d="M 435.96494 315 
L 450.747751 315 
L 450.747751 246.207289 
L 435.96494 246.207289 
z
" clip-path="url(#p7deb539f12)" style="fill: #4c72b0; fill-opacity: 0.5"/>
   </g>
   <g id="patch_8">
    <path d="M 450.747751 315 
L 465.530562 315 
L 465.530562 241.096974 
L 450.747751 241.096974 
z
" clip-path="url(#p7deb539f12)" style="fill: #4c72b0; fill-opacity: 0.5"/>
   </g>
   <g id="patch_9">
    <path d="M 465.530562 315 
L 480.313373 315 
L 480.313373 243.25903 
L 465.530562 243.25903 
z
" clip-path="url(#p7deb539f12)" style="fill: #4c72b0; fill-opacity: 0.5"/>
   </g>
   <g id="patch_10">
    <path d="M 480.313373 315 
L 495.096184 315 
L 495.096184 243.06248 
L 480.313373 243.06248 
z
" clip-path="url(#p7deb539f12)" style="fill: #4c72b0; fill-opacity: 0.5"/>
   </g>
   <g id="patch_11">
    <path d="M 495.096184 315 
L 509.878995 315 
L 509.878995 237.362512 
L 495.096184 237.362512 
z
" clip-path="url(#p7deb539f12)" style="fill: #4c72b0; fill-opacity: 0.5"/>
   </g>
   <g id="patch_12">
    <path d="M 509.878995 315 
L 524.661806 315 
L 524.661806 240.900423 
L 509.878995 240.900423 
z
" clip-path="url(#p7deb539f12)" style="fill: #4c72b0; fill-opacity: 0.5"/>
   </g>
   <g id="patch_13">
    <path d="M 524.661806 315 
L 539.444617 315 
L 539.444617 247.779694 
L 524.661806 247.779694 
z
" clip-path="url(#p7deb539f12)" style="fill: #4c72b0; fill-opacity: 0.5"/>
   </g>
   <g id="patch_14">
    <path d="M 539.444617 315 
L 554.227428 315 
L 554.227428 250.334852 
L 539.444617 250.334852 
z
" clip-path="url(#p7deb539f12)" style="fill: #4c72b0; fill-opacity: 0.5"/>
   </g>
   <g id="patch_15">
    <path d="M 554.227428 315 
L 569.010239 315 
L 569.010239 307.531077 
L 554.227428 307.531077 
z
" clip-path="url(#p7deb539f12)" style="fill: #4c72b0; fill-opacity: 0.5"/>
   </g>
   <g id="patch_16">
    <path d="M 569.010239 315 
L 583.79305 315 
L 583.79305 306.155223 
L 569.010239 306.155223 
z
" clip-path="url(#p7deb539f12)" style="fill: #4c72b0; fill-opacity: 0.5"/>
   </g>
   <g id="patch_17">
    <path d="M 583.79305 315 
L 598.575861 315 
L 598.575861 308.906931 
L 583.79305 308.906931 
z
" clip-path="url(#p7deb539f12)" style="fill: #4c72b0; fill-opacity: 0.5"/>
   </g>
   <g id="patch_18">
    <path d="M 598.575861 315 
L 613.358672 315 
L 613.358672 309.103482 
L 598.575861 309.103482 
z
" clip-path="url(#p7deb539f12)" style="fill: #4c72b0; fill-opacity: 0.5"/>
   </g>
   <g id="patch_19">
    <path d="M 613.358672 315 
L 628.141483 315 
L 628.141483 308.31728 
L 613.358672 308.31728 
z
" clip-path="url(#p7deb539f12)" style="fill: #4c72b0; fill-opacity: 0.5"/>
   </g>
   <g id="patch_20">
    <path d="M 628.141483 315 
L 642.924294 315 
L 642.924294 306.548324 
L 628.141483 306.548324 
z
" clip-path="url(#p7deb539f12)" style="fill: #4c72b0; fill-opacity: 0.5"/>
   </g>
   <g id="patch_21">
    <path d="M 642.924294 315 
L 657.707105 315 
L 657.707105 308.31728 
L 642.924294 308.31728 
z
" clip-path="url(#p7deb539f12)" style="fill: #4c72b0; fill-opacity: 0.5"/>
   </g>
   <g id="patch_22">
    <path d="M 657.707105 315 
L 672.489916 315 
L 672.489916 305.369021 
L 657.707105 305.369021 
z
" clip-path="url(#p7deb539f12)" style="fill: #4c72b0; fill-opacity: 0.5"/>
   </g>
   <g id="line2d_19">
    <path d="M 376.833696 260.643656 
L 381.290825 242.935734 
L 384.262245 232.296865 
L 387.233664 223.017031 
L 390.205083 215.001455 
L 393.176502 207.807292 
L 397.633631 197.21844 
L 400.605051 189.562678 
L 403.57647 181.245758 
L 409.519309 164.146675 
L 411.005018 160.301002 
L 412.490728 156.841287 
L 413.976438 153.870545 
L 415.462147 151.481048 
L 416.947857 149.750699 
L 418.433566 148.740648 
L 419.919276 148.494023 
L 421.404986 149.035498 
L 422.890695 150.371397 
L 424.376405 152.490026 
L 425.862115 155.362035 
L 427.347824 158.940749 
L 428.833534 163.162548 
L 430.319244 167.94752 
L 433.290663 178.813851 
L 440.719211 208.034596 
L 442.204921 213.290139 
L 443.690631 218.12939 
L 445.17634 222.495991 
L 446.66205 226.35655 
L 448.147759 229.700233 
L 449.633469 232.536833 
L 451.119179 234.893612 
L 452.604888 236.811293 
L 454.090598 238.339671 
L 455.576308 239.533264 
L 457.062017 240.447382 
L 458.547727 241.134882 
L 460.033437 241.643759 
L 463.004856 242.284915 
L 465.976275 242.618374 
L 470.433404 242.830348 
L 474.890533 242.82196 
L 479.347662 242.558354 
L 482.319081 242.201929 
L 486.77621 241.398075 
L 495.690468 239.573076 
L 498.661887 239.241827 
L 501.633307 239.168652 
L 504.604726 239.368318 
L 507.576145 239.820174 
L 510.547565 240.483068 
L 515.004694 241.769142 
L 520.947532 243.797902 
L 528.37608 246.556155 
L 531.3475 247.817219 
L 534.318919 249.345947 
L 535.804629 250.272655 
L 537.290338 251.346046 
L 538.776048 252.595802 
L 540.261758 254.049891 
L 541.747467 255.732253 
L 543.233177 257.660401 
L 544.718887 259.843142 
L 546.204596 262.278683 
L 549.176016 267.841011 
L 552.147435 274.093129 
L 558.090273 286.936301 
L 561.061693 292.588854 
L 562.547402 295.062098 
L 564.033112 297.267535 
L 565.518822 299.196553 
L 567.004531 300.852339 
L 568.490241 302.248243 
L 569.975951 303.405579 
L 571.46166 304.351132 
L 572.94737 305.114624 
L 574.43308 305.726397 
L 577.404499 306.608031 
L 580.375918 307.189474 
L 584.833047 307.766627 
L 590.775886 308.248779 
L 596.718724 308.478934 
L 604.147272 308.485019 
L 614.54724 308.2303 
L 636.832885 307.51679 
L 657.63282 307.543765 
L 660.604239 307.782154 
L 663.575658 308.211607 
L 666.547078 308.845481 
L 671.004207 310.111863 
L 672.489916 310.584918 
L 672.489916 310.584918 
" clip-path="url(#p7deb539f12)" style="fill: none; stroke: #4c72b0; stroke-width: 1.5; stroke-linecap: round"/>
   </g>
   <g id="patch_23">
    <path d="M 180 315 
L 180 43.2 
" style="fill: none; stroke: #cccccc; stroke-width: 1.25; stroke-linejoin: miter; stroke-linecap: square"/>
   </g>
   <g id="patch_24">
    <path d="M 687.272727 315 
L 687.272727 43.2 
" style="fill: none; stroke: #cccccc; stroke-width: 1.25; stroke-linejoin: miter; stroke-linecap: square"/>
   </g>
   <g id="patch_25">
    <path d="M 180 315 
L 687.272727 315 
" style="fill: none; stroke: #cccccc; stroke-width: 1.25; stroke-linejoin: miter; stroke-linecap: square"/>
   </g>
   <g id="patch_26">
    <path d="M 180 43.2 
L 687.272727 43.2 
" style="fill: none; stroke: #cccccc; stroke-width: 1.25; stroke-linejoin: miter; stroke-linecap: square"/>
   </g>
   <g id="text_21">
    <!-- Number of female / membership_days in Profile dataset -->
    <g style="fill: #262626" transform="translate(285.576989 37.2)scale(0.12 -0.12)">
     <defs>
      <path id="ArialMT-4e" d="M 488 0 
L 488 4581 
L 1109 4581 
L 3516 984 
L 3516 4581 
L 4097 4581 
L 4097 0 
L 3475 0 
L 1069 3600 
L 1069 0 
L 488 0 
z
" transform="scale(0.015625)"/>
      <path id="ArialMT-6c" d="M 409 0 
L 409 4581 
L 972 4581 
L 972 0 
L 409 0 
z
" transform="scale(0.015625)"/>
      <path id="ArialMT-2f" d="M 0 -78 
L 1328 4659 
L 1778 4659 
L 453 -78 
L 0 -78 
z
" transform="scale(0.015625)"/>
      <path id="ArialMT-50" d="M 494 0 
L 494 4581 
L 2222 4581 
Q 2678 4581 2919 4538 
Q 3256 4481 3484 4323 
Q 3713 4166 3852 3881 
Q 3991 3597 3991 3256 
Q 3991 2672 3619 2267 
Q 3247 1863 2275 1863 
L 1100 1863 
L 1100 0 
L 494 0 
z
M 1100 2403 
L 2284 2403 
Q 2872 2403 3119 2622 
Q 3366 2841 3366 3238 
Q 3366 3525 3220 3729 
Q 3075 3934 2838 4000 
Q 2684 4041 2272 4041 
L 1100 4041 
L 1100 2403 
z
" transform="scale(0.015625)"/>
     </defs>
     <use xlink:href="#ArialMT-4e"/>
     <use xlink:href="#ArialMT-75" x="72.216797"/>
     <use xlink:href="#ArialMT-6d" x="127.832031"/>
     <use xlink:href="#ArialMT-62" x="211.132812"/>
     <use xlink:href="#ArialMT-65" x="266.748047"/>
     <use xlink:href="#ArialMT-72" x="322.363281"/>
     <use xlink:href="#ArialMT-20" x="355.664062"/>
     <use xlink:href="#ArialMT-6f" x="383.447266"/>
     <use xlink:href="#ArialMT-66" x="439.0625"/>
     <use xlink:href="#ArialMT-20" x="466.845703"/>
     <use xlink:href="#ArialMT-66" x="494.628906"/>
     <use xlink:href="#ArialMT-65" x="522.412109"/>
     <use xlink:href="#ArialMT-6d" x="578.027344"/>
     <use xlink:href="#ArialMT-61" x="661.328125"/>
     <use xlink:href="#ArialMT-6c" x="716.943359"/>
     <use xlink:href="#ArialMT-65" x="739.160156"/>
     <use xlink:href="#ArialMT-20" x="794.775391"/>
     <use xlink:href="#ArialMT-2f" x="822.558594"/>
     <use xlink:href="#ArialMT-20" x="850.341797"/>
     <use xlink:href="#ArialMT-6d" x="878.125"/>
     <use xlink:href="#ArialMT-65" x="961.425781"/>
     <use xlink:href="#ArialMT-6d" x="1017.041016"/>
     <use xlink:href="#ArialMT-62" x="1100.341797"/>
     <use xlink:href="#ArialMT-65" x="1155.957031"/>
     <use xlink:href="#ArialMT-72" x="1211.572266"/>
     <use xlink:href="#ArialMT-73" x="1244.873047"/>
     <use xlink:href="#ArialMT-68" x="1294.873047"/>
     <use xlink:href="#ArialMT-69" x="1350.488281"/>
     <use xlink:href="#ArialMT-70" x="1372.705078"/>
     <use xlink:href="#ArialMT-5f" x="1428.320312"/>
     <use xlink:href="#ArialMT-64" x="1483.935547"/>
     <use xlink:href="#ArialMT-61" x="1539.550781"/>
     <use xlink:href="#ArialMT-79" x="1595.166016"/>
     <use xlink:href="#ArialMT-73" x="1645.166016"/>
     <use xlink:href="#ArialMT-20" x="1695.166016"/>
     <use xlink:href="#ArialMT-69" x="1722.949219"/>
     <use xlink:href="#ArialMT-6e" x="1745.166016"/>
     <use xlink:href="#ArialMT-20" x="1800.78125"/>
     <use xlink:href="#ArialMT-50" x="1828.564453"/>
     <use xlink:href="#ArialMT-72" x="1895.263672"/>
     <use xlink:href="#ArialMT-6f" x="1928.564453"/>
     <use xlink:href="#ArialMT-66" x="1984.179688"/>
     <use xlink:href="#ArialMT-69" x="2011.962891"/>
     <use xlink:href="#ArialMT-6c" x="2034.179688"/>
     <use xlink:href="#ArialMT-65" x="2056.396484"/>
     <use xlink:href="#ArialMT-20" x="2112.011719"/>
     <use xlink:href="#ArialMT-64" x="2139.794922"/>
     <use xlink:href="#ArialMT-61" x="2195.410156"/>
     <use xlink:href="#ArialMT-74" x="2251.025391"/>
     <use xlink:href="#ArialMT-61" x="2278.808594"/>
     <use xlink:href="#ArialMT-73" x="2334.423828"/>
     <use xlink:href="#ArialMT-65" x="2384.423828"/>
     <use xlink:href="#ArialMT-74" x="2440.039062"/>
    </g>
   </g>
  </g>
  <g id="axes_2">
   <g id="patch_27">
    <path d="M 788.727273 315 
L 1296 315 
L 1296 43.2 
L 788.727273 43.2 
z
" style="fill: #ffffff"/>
   </g>
   <g id="matplotlib.axis_3">
    <g id="xtick_12">
     <g id="line2d_20">
      <path d="M 788.727273 315 
L 788.727273 43.2 
" clip-path="url(#pbf5a2baed1)" style="fill: none; stroke: #cccccc; stroke-linecap: round"/>
     </g>
     <g id="text_22">
      <!-- 0 -->
      <g style="fill: #262626" transform="translate(785.668757 332.373594)scale(0.11 -0.11)">
       <use xlink:href="#ArialMT-30"/>
      </g>
     </g>
    </g>
    <g id="xtick_13">
     <g id="line2d_21">
      <path d="M 837.87862 315 
L 837.87862 43.2 
" clip-path="url(#pbf5a2baed1)" style="fill: none; stroke: #cccccc; stroke-linecap: round"/>
     </g>
     <g id="text_23">
      <!-- 303 -->
      <g style="fill: #262626" transform="translate(828.703073 332.373594)scale(0.11 -0.11)">
       <use xlink:href="#ArialMT-33"/>
       <use xlink:href="#ArialMT-30" x="55.615234"/>
       <use xlink:href="#ArialMT-33" x="111.230469"/>
      </g>
     </g>
    </g>
    <g id="xtick_14">
     <g id="line2d_22">
      <path d="M 887.029968 315 
L 887.029968 43.2 
" clip-path="url(#pbf5a2baed1)" style="fill: none; stroke: #cccccc; stroke-linecap: round"/>
     </g>
     <g id="text_24">
      <!-- 606 -->
      <g style="fill: #262626" transform="translate(877.854421 332.373594)scale(0.11 -0.11)">
       <use xlink:href="#ArialMT-36"/>
       <use xlink:href="#ArialMT-30" x="55.615234"/>
       <use xlink:href="#ArialMT-36" x="111.230469"/>
      </g>
     </g>
    </g>
    <g id="xtick_15">
     <g id="line2d_23">
      <path d="M 936.181315 315 
L 936.181315 43.2 
" clip-path="url(#pbf5a2baed1)" style="fill: none; stroke: #cccccc; stroke-linecap: round"/>
     </g>
     <g id="text_25">
      <!-- 909 -->
      <g style="fill: #262626" transform="translate(927.005768 332.373594)scale(0.11 -0.11)">
       <use xlink:href="#ArialMT-39"/>
       <use xlink:href="#ArialMT-30" x="55.615234"/>
       <use xlink:href="#ArialMT-39" x="111.230469"/>
      </g>
     </g>
    </g>
    <g id="xtick_16">
     <g id="line2d_24">
      <path d="M 985.332663 315 
L 985.332663 43.2 
" clip-path="url(#pbf5a2baed1)" style="fill: none; stroke: #cccccc; stroke-linecap: round"/>
     </g>
     <g id="text_26">
      <!-- 1212 -->
      <g style="fill: #262626" transform="translate(973.0986 332.373594)scale(0.11 -0.11)">
       <use xlink:href="#ArialMT-31"/>
       <use xlink:href="#ArialMT-32" x="55.615234"/>
       <use xlink:href="#ArialMT-31" x="111.230469"/>
       <use xlink:href="#ArialMT-32" x="166.845703"/>
      </g>
     </g>
    </g>
    <g id="xtick_17">
     <g id="line2d_25">
      <path d="M 1034.48401 315 
L 1034.48401 43.2 
" clip-path="url(#pbf5a2baed1)" style="fill: none; stroke: #cccccc; stroke-linecap: round"/>
     </g>
     <g id="text_27">
      <!-- 1515 -->
      <g style="fill: #262626" transform="translate(1022.249948 332.373594)scale(0.11 -0.11)">
       <use xlink:href="#ArialMT-31"/>
       <use xlink:href="#ArialMT-35" x="55.615234"/>
       <use xlink:href="#ArialMT-31" x="111.230469"/>
       <use xlink:href="#ArialMT-35" x="166.845703"/>
      </g>
     </g>
    </g>
    <g id="xtick_18">
     <g id="line2d_26">
      <path d="M 1083.635358 315 
L 1083.635358 43.2 
" clip-path="url(#pbf5a2baed1)" style="fill: none; stroke: #cccccc; stroke-linecap: round"/>
     </g>
     <g id="text_28">
      <!-- 1818 -->
      <g style="fill: #262626" transform="translate(1071.401295 332.373594)scale(0.11 -0.11)">
       <use xlink:href="#ArialMT-31"/>
       <use xlink:href="#ArialMT-38" x="55.615234"/>
       <use xlink:href="#ArialMT-31" x="111.230469"/>
       <use xlink:href="#ArialMT-38" x="166.845703"/>
      </g>
     </g>
    </g>
    <g id="xtick_19">
     <g id="line2d_27">
      <path d="M 1132.786705 315 
L 1132.786705 43.2 
" clip-path="url(#pbf5a2baed1)" style="fill: none; stroke: #cccccc; stroke-linecap: round"/>
     </g>
     <g id="text_29">
      <!-- 2121 -->
      <g style="fill: #262626" transform="translate(1120.552643 332.373594)scale(0.11 -0.11)">
       <use xlink:href="#ArialMT-32"/>
       <use xlink:href="#ArialMT-31" x="55.615234"/>
       <use xlink:href="#ArialMT-32" x="111.230469"/>
       <use xlink:href="#ArialMT-31" x="166.845703"/>
      </g>
     </g>
    </g>
    <g id="xtick_20">
     <g id="line2d_28">
      <path d="M 1181.938053 315 
L 1181.938053 43.2 
" clip-path="url(#pbf5a2baed1)" style="fill: none; stroke: #cccccc; stroke-linecap: round"/>
     </g>
     <g id="text_30">
      <!-- 2424 -->
      <g style="fill: #262626" transform="translate(1169.70399 332.373594)scale(0.11 -0.11)">
       <use xlink:href="#ArialMT-32"/>
       <use xlink:href="#ArialMT-34" x="55.615234"/>
       <use xlink:href="#ArialMT-32" x="111.230469"/>
       <use xlink:href="#ArialMT-34" x="166.845703"/>
      </g>
     </g>
    </g>
    <g id="xtick_21">
     <g id="line2d_29">
      <path d="M 1231.0894 315 
L 1231.0894 43.2 
" clip-path="url(#pbf5a2baed1)" style="fill: none; stroke: #cccccc; stroke-linecap: round"/>
     </g>
     <g id="text_31">
      <!-- 2727 -->
      <g style="fill: #262626" transform="translate(1218.855338 332.373594)scale(0.11 -0.11)">
       <use xlink:href="#ArialMT-32"/>
       <use xlink:href="#ArialMT-37" x="55.615234"/>
       <use xlink:href="#ArialMT-32" x="111.230469"/>
       <use xlink:href="#ArialMT-37" x="166.845703"/>
      </g>
     </g>
    </g>
    <g id="xtick_22">
     <g id="line2d_30">
      <path d="M 1280.240748 315 
L 1280.240748 43.2 
" clip-path="url(#pbf5a2baed1)" style="fill: none; stroke: #cccccc; stroke-linecap: round"/>
     </g>
     <g id="text_32">
      <!-- 3030 -->
      <g style="fill: #262626" transform="translate(1268.006685 332.373594)scale(0.11 -0.11)">
       <use xlink:href="#ArialMT-33"/>
       <use xlink:href="#ArialMT-30" x="55.615234"/>
       <use xlink:href="#ArialMT-33" x="111.230469"/>
       <use xlink:href="#ArialMT-30" x="166.845703"/>
      </g>
     </g>
    </g>
    <g id="text_33">
     <!-- membership_days -->
     <g style="fill: #262626" transform="translate(993.344574 347.149219)scale(0.12 -0.12)">
      <use xlink:href="#ArialMT-6d"/>
      <use xlink:href="#ArialMT-65" x="83.300781"/>
      <use xlink:href="#ArialMT-6d" x="138.916016"/>
      <use xlink:href="#ArialMT-62" x="222.216797"/>
      <use xlink:href="#ArialMT-65" x="277.832031"/>
      <use xlink:href="#ArialMT-72" x="333.447266"/>
      <use xlink:href="#ArialMT-73" x="366.748047"/>
      <use xlink:href="#ArialMT-68" x="416.748047"/>
      <use xlink:href="#ArialMT-69" x="472.363281"/>
      <use xlink:href="#ArialMT-70" x="494.580078"/>
      <use xlink:href="#ArialMT-5f" x="550.195312"/>
      <use xlink:href="#ArialMT-64" x="605.810547"/>
      <use xlink:href="#ArialMT-61" x="661.425781"/>
      <use xlink:href="#ArialMT-79" x="717.041016"/>
      <use xlink:href="#ArialMT-73" x="767.041016"/>
     </g>
    </g>
   </g>
   <g id="matplotlib.axis_4">
    <g id="ytick_8">
     <g id="line2d_31">
      <path d="M 788.727273 315 
L 1296 315 
" clip-path="url(#pbf5a2baed1)" style="fill: none; stroke: #cccccc; stroke-linecap: round"/>
     </g>
    </g>
    <g id="ytick_9">
     <g id="line2d_32">
      <path d="M 788.727273 275.68988 
L 1296 275.68988 
" clip-path="url(#pbf5a2baed1)" style="fill: none; stroke: #cccccc; stroke-linecap: round"/>
     </g>
    </g>
    <g id="ytick_10">
     <g id="line2d_33">
      <path d="M 788.727273 236.379759 
L 1296 236.379759 
" clip-path="url(#pbf5a2baed1)" style="fill: none; stroke: #cccccc; stroke-linecap: round"/>
     </g>
    </g>
    <g id="ytick_11">
     <g id="line2d_34">
      <path d="M 788.727273 197.069639 
L 1296 197.069639 
" clip-path="url(#pbf5a2baed1)" style="fill: none; stroke: #cccccc; stroke-linecap: round"/>
     </g>
    </g>
    <g id="ytick_12">
     <g id="line2d_35">
      <path d="M 788.727273 157.759518 
L 1296 157.759518 
" clip-path="url(#pbf5a2baed1)" style="fill: none; stroke: #cccccc; stroke-linecap: round"/>
     </g>
    </g>
    <g id="ytick_13">
     <g id="line2d_36">
      <path d="M 788.727273 118.449398 
L 1296 118.449398 
" clip-path="url(#pbf5a2baed1)" style="fill: none; stroke: #cccccc; stroke-linecap: round"/>
     </g>
    </g>
    <g id="ytick_14">
     <g id="line2d_37">
      <path d="M 788.727273 79.139278 
L 1296 79.139278 
" clip-path="url(#pbf5a2baed1)" style="fill: none; stroke: #cccccc; stroke-linecap: round"/>
     </g>
    </g>
   </g>
   <g id="patch_28">
    <path d="M 985.494878 315 
L 1000.280837 315 
L 1000.280837 122.970062 
L 985.494878 122.970062 
z
" clip-path="url(#pbf5a2baed1)" style="fill: #4c72b0; fill-opacity: 0.5"/>
   </g>
   <g id="patch_29">
    <path d="M 1000.280837 315 
L 1015.066795 315 
L 1015.066795 118.645949 
L 1000.280837 118.645949 
z
" clip-path="url(#pbf5a2baed1)" style="fill: #4c72b0; fill-opacity: 0.5"/>
   </g>
   <g id="patch_30">
    <path d="M 1015.066795 315 
L 1029.852753 315 
L 1029.852753 68.722096 
L 1015.066795 68.722096 
z
" clip-path="url(#pbf5a2baed1)" style="fill: #4c72b0; fill-opacity: 0.5"/>
   </g>
   <g id="patch_31">
    <path d="M 1029.852753 315 
L 1044.638711 315 
L 1044.638711 56.142857 
L 1029.852753 56.142857 
z
" clip-path="url(#pbf5a2baed1)" style="fill: #4c72b0; fill-opacity: 0.5"/>
   </g>
   <g id="patch_32">
    <path d="M 1044.638711 315 
L 1059.424669 315 
L 1059.424669 242.669378 
L 1044.638711 242.669378 
z
" clip-path="url(#pbf5a2baed1)" style="fill: #4c72b0; fill-opacity: 0.5"/>
   </g>
   <g id="patch_33">
    <path d="M 1059.424669 315 
L 1074.210627 315 
L 1074.210627 243.06248 
L 1059.424669 243.06248 
z
" clip-path="url(#pbf5a2baed1)" style="fill: #4c72b0; fill-opacity: 0.5"/>
   </g>
   <g id="patch_34">
    <path d="M 1074.210627 315 
L 1088.996586 315 
L 1088.996586 245.224536 
L 1074.210627 245.224536 
z
" clip-path="url(#pbf5a2baed1)" style="fill: #4c72b0; fill-opacity: 0.5"/>
   </g>
   <g id="patch_35">
    <path d="M 1088.996586 315 
L 1103.782544 315 
L 1103.782544 241.686625 
L 1088.996586 241.686625 
z
" clip-path="url(#pbf5a2baed1)" style="fill: #4c72b0; fill-opacity: 0.5"/>
   </g>
   <g id="patch_36">
    <path d="M 1103.782544 315 
L 1118.568502 315 
L 1118.568502 243.25903 
L 1103.782544 243.25903 
z
" clip-path="url(#pbf5a2baed1)" style="fill: #4c72b0; fill-opacity: 0.5"/>
   </g>
   <g id="patch_37">
    <path d="M 1118.568502 315 
L 1133.35446 315 
L 1133.35446 240.507322 
L 1118.568502 240.507322 
z
" clip-path="url(#pbf5a2baed1)" style="fill: #4c72b0; fill-opacity: 0.5"/>
   </g>
   <g id="patch_38">
    <path d="M 1133.35446 315 
L 1148.140418 315 
L 1148.140418 244.831435 
L 1133.35446 244.831435 
z
" clip-path="url(#pbf5a2baed1)" style="fill: #4c72b0; fill-opacity: 0.5"/>
   </g>
   <g id="patch_39">
    <path d="M 1148.140418 315 
L 1162.926376 315 
L 1162.926376 245.027986 
L 1148.140418 245.027986 
z
" clip-path="url(#pbf5a2baed1)" style="fill: #4c72b0; fill-opacity: 0.5"/>
   </g>
   <g id="patch_40">
    <path d="M 1162.926376 315 
L 1177.712335 315 
L 1177.712335 290.824276 
L 1162.926376 290.824276 
z
" clip-path="url(#pbf5a2baed1)" style="fill: #4c72b0; fill-opacity: 0.5"/>
   </g>
   <g id="patch_41">
    <path d="M 1177.712335 315 
L 1192.498293 315 
L 1192.498293 288.072568 
L 1177.712335 288.072568 
z
" clip-path="url(#pbf5a2baed1)" style="fill: #4c72b0; fill-opacity: 0.5"/>
   </g>
   <g id="patch_42">
    <path d="M 1192.498293 315 
L 1207.284251 315 
L 1207.284251 291.217377 
L 1192.498293 291.217377 
z
" clip-path="url(#pbf5a2baed1)" style="fill: #4c72b0; fill-opacity: 0.5"/>
   </g>
   <g id="patch_43">
    <path d="M 1207.284251 315 
L 1222.070209 315 
L 1222.070209 289.448422 
L 1207.284251 289.448422 
z
" clip-path="url(#pbf5a2baed1)" style="fill: #4c72b0; fill-opacity: 0.5"/>
   </g>
   <g id="patch_44">
    <path d="M 1222.070209 315 
L 1236.856167 315 
L 1236.856167 288.465669 
L 1222.070209 288.465669 
z
" clip-path="url(#pbf5a2baed1)" style="fill: #4c72b0; fill-opacity: 0.5"/>
   </g>
   <g id="patch_45">
    <path d="M 1236.856167 315 
L 1251.642125 315 
L 1251.642125 289.448422 
L 1236.856167 289.448422 
z
" clip-path="url(#pbf5a2baed1)" style="fill: #4c72b0; fill-opacity: 0.5"/>
   </g>
   <g id="patch_46">
    <path d="M 1251.642125 315 
L 1266.428084 315 
L 1266.428084 291.217377 
L 1251.642125 291.217377 
z
" clip-path="url(#pbf5a2baed1)" style="fill: #4c72b0; fill-opacity: 0.5"/>
   </g>
   <g id="patch_47">
    <path d="M 1266.428084 315 
L 1281.214042 315 
L 1281.214042 291.020827 
L 1266.428084 291.020827 
z
" clip-path="url(#pbf5a2baed1)" style="fill: #4c72b0; fill-opacity: 0.5"/>
   </g>
   <g id="line2d_38">
    <path d="M 985.494878 218.1806 
L 989.952956 189.767652 
L 992.925008 172.213203 
L 995.89706 156.502597 
L 998.869112 142.854832 
L 1001.841164 131.155483 
L 1004.813216 121.077829 
L 1007.785268 112.241628 
L 1010.75732 104.358974 
L 1013.729371 97.331363 
L 1015.215397 94.169161 
L 1016.701423 91.285365 
L 1018.187449 88.727916 
L 1019.673475 86.554369 
L 1021.159501 84.829532 
L 1022.645527 83.622841 
L 1024.131553 83.005496 
L 1025.617579 83.047379 
L 1027.103605 83.813768 
L 1028.589631 85.361899 
L 1030.075657 87.73744 
L 1031.561683 90.971021 
L 1033.047709 95.075016 
L 1034.533735 100.040803 
L 1036.019761 105.836765 
L 1037.505787 112.407288 
L 1038.991813 119.672962 
L 1041.963864 135.863749 
L 1050.88002 187.792066 
L 1053.852072 202.610938 
L 1055.338098 209.113594 
L 1056.824124 214.95507 
L 1058.31015 220.122451 
L 1059.796176 224.624174 
L 1061.282202 228.486967 
L 1062.768228 231.752178 
L 1064.254254 234.471813 
L 1065.74028 236.704585 
L 1067.226306 238.512248 
L 1068.712331 239.956392 
L 1070.198357 241.09584 
L 1071.684383 241.984689 
L 1073.170409 242.671018 
L 1074.656435 243.196181 
L 1077.628487 243.894139 
L 1080.600539 244.277575 
L 1083.572591 244.460197 
L 1088.030669 244.468247 
L 1092.488747 244.206547 
L 1096.946824 243.701403 
L 1102.890928 242.743999 
L 1111.807084 241.241354 
L 1116.265162 240.791231 
L 1119.237214 240.699547 
L 1122.209266 240.801654 
L 1125.181317 241.101576 
L 1128.153369 241.589137 
L 1131.125421 242.247775 
L 1134.097473 243.06558 
L 1137.069525 244.047214 
L 1140.041577 245.223895 
L 1143.013629 246.658033 
L 1145.985681 248.438689 
L 1148.957733 250.664988 
L 1151.929784 253.417958 
L 1154.901836 256.72672 
L 1157.873888 260.539958 
L 1162.331966 266.871537 
L 1166.790044 273.233008 
L 1169.762096 277.073089 
L 1172.734148 280.369098 
L 1174.220174 281.780666 
L 1175.7062 283.029773 
L 1177.192226 284.120076 
L 1178.678252 285.060151 
L 1181.650303 286.542116 
L 1184.622355 287.600374 
L 1187.594407 288.365885 
L 1192.052485 289.192 
L 1196.510563 289.797958 
L 1200.968641 290.215286 
L 1205.426719 290.397641 
L 1209.884796 290.318913 
L 1214.342874 290.020214 
L 1229.203134 288.791217 
L 1233.661212 288.689868 
L 1238.119289 288.764379 
L 1242.577367 289.014722 
L 1247.035445 289.453463 
L 1251.493523 290.100492 
L 1255.951601 290.968477 
L 1260.409679 292.075817 
L 1263.38173 292.977224 
L 1266.353782 294.051351 
L 1269.325834 295.344231 
L 1272.297886 296.89427 
L 1275.269938 298.712548 
L 1278.24199 300.766997 
L 1281.214042 302.977924 
L 1281.214042 302.977924 
" clip-path="url(#pbf5a2baed1)" style="fill: none; stroke: #4c72b0; stroke-width: 1.5; stroke-linecap: round"/>
   </g>
   <g id="patch_48">
    <path d="M 788.727273 315 
L 788.727273 43.2 
" style="fill: none; stroke: #cccccc; stroke-width: 1.25; stroke-linejoin: miter; stroke-linecap: square"/>
   </g>
   <g id="patch_49">
    <path d="M 1296 315 
L 1296 43.2 
" style="fill: none; stroke: #cccccc; stroke-width: 1.25; stroke-linejoin: miter; stroke-linecap: square"/>
   </g>
   <g id="patch_50">
    <path d="M 788.727273 315 
L 1296 315 
" style="fill: none; stroke: #cccccc; stroke-width: 1.25; stroke-linejoin: miter; stroke-linecap: square"/>
   </g>
   <g id="patch_51">
    <path d="M 788.727273 43.2 
L 1296 43.2 
" style="fill: none; stroke: #cccccc; stroke-width: 1.25; stroke-linejoin: miter; stroke-linecap: square"/>
   </g>
   <g id="text_34">
    <!-- Number of male / membership_days in Profile dataset -->
    <g style="fill: #262626" transform="translate(899.307699 37.2)scale(0.12 -0.12)">
     <use xlink:href="#ArialMT-4e"/>
     <use xlink:href="#ArialMT-75" x="72.216797"/>
     <use xlink:href="#ArialMT-6d" x="127.832031"/>
     <use xlink:href="#ArialMT-62" x="211.132812"/>
     <use xlink:href="#ArialMT-65" x="266.748047"/>
     <use xlink:href="#ArialMT-72" x="322.363281"/>
     <use xlink:href="#ArialMT-20" x="355.664062"/>
     <use xlink:href="#ArialMT-6f" x="383.447266"/>
     <use xlink:href="#ArialMT-66" x="439.0625"/>
     <use xlink:href="#ArialMT-20" x="466.845703"/>
     <use xlink:href="#ArialMT-6d" x="494.628906"/>
     <use xlink:href="#ArialMT-61" x="577.929688"/>
     <use xlink:href="#ArialMT-6c" x="633.544922"/>
     <use xlink:href="#ArialMT-65" x="655.761719"/>
     <use xlink:href="#ArialMT-20" x="711.376953"/>
     <use xlink:href="#ArialMT-2f" x="739.160156"/>
     <use xlink:href="#ArialMT-20" x="766.943359"/>
     <use xlink:href="#ArialMT-6d" x="794.726562"/>
     <use xlink:href="#ArialMT-65" x="878.027344"/>
     <use xlink:href="#ArialMT-6d" x="933.642578"/>
     <use xlink:href="#ArialMT-62" x="1016.943359"/>
     <use xlink:href="#ArialMT-65" x="1072.558594"/>
     <use xlink:href="#ArialMT-72" x="1128.173828"/>
     <use xlink:href="#ArialMT-73" x="1161.474609"/>
     <use xlink:href="#ArialMT-68" x="1211.474609"/>
     <use xlink:href="#ArialMT-69" x="1267.089844"/>
     <use xlink:href="#ArialMT-70" x="1289.306641"/>
     <use xlink:href="#ArialMT-5f" x="1344.921875"/>
     <use xlink:href="#ArialMT-64" x="1400.537109"/>
     <use xlink:href="#ArialMT-61" x="1456.152344"/>
     <use xlink:href="#ArialMT-79" x="1511.767578"/>
     <use xlink:href="#ArialMT-73" x="1561.767578"/>
     <use xlink:href="#ArialMT-20" x="1611.767578"/>
     <use xlink:href="#ArialMT-69" x="1639.550781"/>
     <use xlink:href="#ArialMT-6e" x="1661.767578"/>
     <use xlink:href="#ArialMT-20" x="1717.382812"/>
     <use xlink:href="#ArialMT-50" x="1745.166016"/>
     <use xlink:href="#ArialMT-72" x="1811.865234"/>
     <use xlink:href="#ArialMT-6f" x="1845.166016"/>
     <use xlink:href="#ArialMT-66" x="1900.78125"/>
     <use xlink:href="#ArialMT-69" x="1928.564453"/>
     <use xlink:href="#ArialMT-6c" x="1950.78125"/>
     <use xlink:href="#ArialMT-65" x="1972.998047"/>
     <use xlink:href="#ArialMT-20" x="2028.613281"/>
     <use xlink:href="#ArialMT-64" x="2056.396484"/>
     <use xlink:href="#ArialMT-61" x="2112.011719"/>
     <use xlink:href="#ArialMT-74" x="2167.626953"/>
     <use xlink:href="#ArialMT-61" x="2195.410156"/>
     <use xlink:href="#ArialMT-73" x="2251.025391"/>
     <use xlink:href="#ArialMT-65" x="2301.025391"/>
     <use xlink:href="#ArialMT-74" x="2356.640625"/>
    </g>
   </g>
  </g>
 </g>
 <defs>
  <clipPath id="p7deb539f12">
   <rect x="180" y="43.2" width="507.272727" height="271.8"/>
  </clipPath>
  <clipPath id="pbf5a2baed1">
   <rect x="788.727273" y="43.2" width="507.272727" height="271.8"/>
  </clipPath>
 </defs>
</svg>
