<?xml version="1.0" encoding="utf-8" standalone="no"?>
<!DOCTYPE svg PUBLIC "-//W3C//DTD SVG 1.1//EN"
  "http://www.w3.org/Graphics/SVG/1.1/DTD/svg11.dtd">
<!-- Created with matplotlib (https://matplotlib.org/) -->
<svg height="360pt" version="1.1" viewBox="0 0 1440 360" width="1440pt" xmlns="http://www.w3.org/2000/svg" xmlns:xlink="http://www.w3.org/1999/xlink">
 <metadata>
  <rdf:RDF xmlns:cc="http://creativecommons.org/ns#" xmlns:dc="http://purl.org/dc/elements/1.1/" xmlns:rdf="http://www.w3.org/1999/02/22-rdf-syntax-ns#">
   <cc:Work>
    <dc:type rdf:resource="http://purl.org/dc/dcmitype/StillImage"/>
    <dc:date>2021-11-08T04:30:15.298613</dc:date>
    <dc:format>image/svg+xml</dc:format>
    <dc:creator>
     <cc:Agent>
      <dc:title>Matplotlib v3.3.4, https://matplotlib.org/</dc:title>
     </cc:Agent>
    </dc:creator>
   </cc:Work>
  </rdf:RDF>
 </metadata>
 <defs>
  <style type="text/css">*{stroke-linecap:butt;stroke-linejoin:round;}</style>
 </defs>
 <g id="figure_1">
  <g id="patch_1">
   <path d="M 0 360 
L 1440 360 
L 1440 0 
L 0 0 
z
" style="fill:#ffffff;"/>
  </g>
  <g id="axes_1">
   <g id="patch_2">
    <path d="M 180 315 
L 687.272727 315 
L 687.272727 43.2 
L 180 43.2 
z
" style="fill:#ffffff;"/>
   </g>
   <g id="matplotlib.axis_1">
    <g id="xtick_1">
     <g id="line2d_1">
      <path clip-path="url(#pce9d29fbcc)" d="M 180 315 
L 180 43.2 
" style="fill:none;stroke:#cccccc;stroke-linecap:round;"/>
     </g>
     <g id="text_1">
      <!-- 0 -->
      <g style="fill:#262626;" transform="translate(176.941484 332.373594)scale(0.11 -0.11)">
       <defs>
        <path d="M 4.15625 35.296875 
Q 4.15625 48 6.765625 55.734375 
Q 9.375 63.484375 14.515625 67.671875 
Q 19.671875 71.875 27.484375 71.875 
Q 33.25 71.875 37.59375 69.546875 
Q 41.9375 67.234375 44.765625 62.859375 
Q 47.609375 58.5 49.21875 52.21875 
Q 50.828125 45.953125 50.828125 35.296875 
Q 50.828125 22.703125 48.234375 14.96875 
Q 45.65625 7.234375 40.5 3 
Q 35.359375 -1.21875 27.484375 -1.21875 
Q 17.140625 -1.21875 11.234375 6.203125 
Q 4.15625 15.140625 4.15625 35.296875 
z
M 13.1875 35.296875 
Q 13.1875 17.671875 17.3125 11.828125 
Q 21.4375 6 27.484375 6 
Q 33.546875 6 37.671875 11.859375 
Q 41.796875 17.71875 41.796875 35.296875 
Q 41.796875 52.984375 37.671875 58.78125 
Q 33.546875 64.59375 27.390625 64.59375 
Q 21.34375 64.59375 17.71875 59.46875 
Q 13.1875 52.9375 13.1875 35.296875 
z
" id="ArialMT-48"/>
       </defs>
       <use xlink:href="#ArialMT-48"/>
      </g>
     </g>
    </g>
    <g id="xtick_2">
     <g id="line2d_2">
      <path clip-path="url(#pce9d29fbcc)" d="M 228.893757 315 
L 228.893757 43.2 
" style="fill:none;stroke:#cccccc;stroke-linecap:round;"/>
     </g>
     <g id="text_2">
      <!-- 12000 -->
      <g style="fill:#262626;" transform="translate(213.601179 332.373594)scale(0.11 -0.11)">
       <defs>
        <path d="M 37.25 0 
L 28.46875 0 
L 28.46875 56 
Q 25.296875 52.984375 20.140625 49.953125 
Q 14.984375 46.921875 10.890625 45.40625 
L 10.890625 53.90625 
Q 18.265625 57.375 23.78125 62.296875 
Q 29.296875 67.234375 31.59375 71.875 
L 37.25 71.875 
z
" id="ArialMT-49"/>
        <path d="M 50.34375 8.453125 
L 50.34375 0 
L 3.03125 0 
Q 2.9375 3.171875 4.046875 6.109375 
Q 5.859375 10.9375 9.828125 15.625 
Q 13.8125 20.3125 21.34375 26.46875 
Q 33.015625 36.03125 37.109375 41.625 
Q 41.21875 47.21875 41.21875 52.203125 
Q 41.21875 57.421875 37.46875 61 
Q 33.734375 64.59375 27.734375 64.59375 
Q 21.390625 64.59375 17.578125 60.78125 
Q 13.765625 56.984375 13.71875 50.25 
L 4.6875 51.171875 
Q 5.609375 61.28125 11.65625 66.578125 
Q 17.71875 71.875 27.9375 71.875 
Q 38.234375 71.875 44.234375 66.15625 
Q 50.25 60.453125 50.25 52 
Q 50.25 47.703125 48.484375 43.546875 
Q 46.734375 39.40625 42.65625 34.8125 
Q 38.578125 30.21875 29.109375 22.21875 
Q 21.1875 15.578125 18.9375 13.203125 
Q 16.703125 10.84375 15.234375 8.453125 
z
" id="ArialMT-50"/>
       </defs>
       <use xlink:href="#ArialMT-49"/>
       <use x="55.615234" xlink:href="#ArialMT-50"/>
       <use x="111.230469" xlink:href="#ArialMT-48"/>
       <use x="166.845703" xlink:href="#ArialMT-48"/>
       <use x="222.460938" xlink:href="#ArialMT-48"/>
      </g>
     </g>
    </g>
    <g id="xtick_3">
     <g id="line2d_3">
      <path clip-path="url(#pce9d29fbcc)" d="M 277.787514 315 
L 277.787514 43.2 
" style="fill:none;stroke:#cccccc;stroke-linecap:round;"/>
     </g>
     <g id="text_3">
      <!-- 24000 -->
      <g style="fill:#262626;" transform="translate(262.494936 332.373594)scale(0.11 -0.11)">
       <defs>
        <path d="M 32.328125 0 
L 32.328125 17.140625 
L 1.265625 17.140625 
L 1.265625 25.203125 
L 33.9375 71.578125 
L 41.109375 71.578125 
L 41.109375 25.203125 
L 50.78125 25.203125 
L 50.78125 17.140625 
L 41.109375 17.140625 
L 41.109375 0 
z
M 32.328125 25.203125 
L 32.328125 57.46875 
L 9.90625 25.203125 
z
" id="ArialMT-52"/>
       </defs>
       <use xlink:href="#ArialMT-50"/>
       <use x="55.615234" xlink:href="#ArialMT-52"/>
       <use x="111.230469" xlink:href="#ArialMT-48"/>
       <use x="166.845703" xlink:href="#ArialMT-48"/>
       <use x="222.460938" xlink:href="#ArialMT-48"/>
      </g>
     </g>
    </g>
    <g id="xtick_4">
     <g id="line2d_4">
      <path clip-path="url(#pce9d29fbcc)" d="M 326.681271 315 
L 326.681271 43.2 
" style="fill:none;stroke:#cccccc;stroke-linecap:round;"/>
     </g>
     <g id="text_4">
      <!-- 36000 -->
      <g style="fill:#262626;" transform="translate(311.388692 332.373594)scale(0.11 -0.11)">
       <defs>
        <path d="M 4.203125 18.890625 
L 12.984375 20.0625 
Q 14.5 12.59375 18.140625 9.296875 
Q 21.78125 6 27 6 
Q 33.203125 6 37.46875 10.296875 
Q 41.75 14.59375 41.75 20.953125 
Q 41.75 27 37.796875 30.921875 
Q 33.84375 34.859375 27.734375 34.859375 
Q 25.25 34.859375 21.53125 33.890625 
L 22.515625 41.609375 
Q 23.390625 41.5 23.921875 41.5 
Q 29.546875 41.5 34.03125 44.421875 
Q 38.53125 47.359375 38.53125 53.46875 
Q 38.53125 58.296875 35.25 61.46875 
Q 31.984375 64.65625 26.8125 64.65625 
Q 21.6875 64.65625 18.265625 61.421875 
Q 14.84375 58.203125 13.875 51.765625 
L 5.078125 53.328125 
Q 6.6875 62.15625 12.390625 67.015625 
Q 18.109375 71.875 26.609375 71.875 
Q 32.46875 71.875 37.390625 69.359375 
Q 42.328125 66.84375 44.9375 62.5 
Q 47.5625 58.15625 47.5625 53.265625 
Q 47.5625 48.640625 45.0625 44.828125 
Q 42.578125 41.015625 37.703125 38.765625 
Q 44.046875 37.3125 47.5625 32.6875 
Q 51.078125 28.078125 51.078125 21.140625 
Q 51.078125 11.765625 44.234375 5.25 
Q 37.40625 -1.265625 26.953125 -1.265625 
Q 17.53125 -1.265625 11.296875 4.34375 
Q 5.078125 9.96875 4.203125 18.890625 
z
" id="ArialMT-51"/>
        <path d="M 49.75 54.046875 
L 41.015625 53.375 
Q 39.84375 58.546875 37.703125 60.890625 
Q 34.125 64.65625 28.90625 64.65625 
Q 24.703125 64.65625 21.53125 62.3125 
Q 17.390625 59.28125 14.984375 53.46875 
Q 12.59375 47.65625 12.5 36.921875 
Q 15.671875 41.75 20.265625 44.09375 
Q 24.859375 46.4375 29.890625 46.4375 
Q 38.671875 46.4375 44.84375 39.96875 
Q 51.03125 33.5 51.03125 23.25 
Q 51.03125 16.5 48.125 10.71875 
Q 45.21875 4.9375 40.140625 1.859375 
Q 35.0625 -1.21875 28.609375 -1.21875 
Q 17.625 -1.21875 10.6875 6.859375 
Q 3.765625 14.9375 3.765625 33.5 
Q 3.765625 54.25 11.421875 63.671875 
Q 18.109375 71.875 29.4375 71.875 
Q 37.890625 71.875 43.28125 67.140625 
Q 48.6875 62.40625 49.75 54.046875 
z
M 13.875 23.1875 
Q 13.875 18.65625 15.796875 14.5 
Q 17.71875 10.359375 21.1875 8.171875 
Q 24.65625 6 28.46875 6 
Q 34.03125 6 38.03125 10.484375 
Q 42.046875 14.984375 42.046875 22.703125 
Q 42.046875 30.125 38.078125 34.390625 
Q 34.125 38.671875 28.125 38.671875 
Q 22.171875 38.671875 18.015625 34.390625 
Q 13.875 30.125 13.875 23.1875 
z
" id="ArialMT-54"/>
       </defs>
       <use xlink:href="#ArialMT-51"/>
       <use x="55.615234" xlink:href="#ArialMT-54"/>
       <use x="111.230469" xlink:href="#ArialMT-48"/>
       <use x="166.845703" xlink:href="#ArialMT-48"/>
       <use x="222.460938" xlink:href="#ArialMT-48"/>
      </g>
     </g>
    </g>
    <g id="xtick_5">
     <g id="line2d_5">
      <path clip-path="url(#pce9d29fbcc)" d="M 375.575027 315 
L 375.575027 43.2 
" style="fill:none;stroke:#cccccc;stroke-linecap:round;"/>
     </g>
     <g id="text_5">
      <!-- 48000 -->
      <g style="fill:#262626;" transform="translate(360.282449 332.373594)scale(0.11 -0.11)">
       <defs>
        <path d="M 17.671875 38.8125 
Q 12.203125 40.828125 9.5625 44.53125 
Q 6.9375 48.25 6.9375 53.421875 
Q 6.9375 61.234375 12.546875 66.546875 
Q 18.171875 71.875 27.484375 71.875 
Q 36.859375 71.875 42.578125 66.421875 
Q 48.296875 60.984375 48.296875 53.171875 
Q 48.296875 48.1875 45.671875 44.5 
Q 43.0625 40.828125 37.75 38.8125 
Q 44.34375 36.671875 47.78125 31.875 
Q 51.21875 27.09375 51.21875 20.453125 
Q 51.21875 11.28125 44.71875 5.03125 
Q 38.234375 -1.21875 27.640625 -1.21875 
Q 17.046875 -1.21875 10.546875 5.046875 
Q 4.046875 11.328125 4.046875 20.703125 
Q 4.046875 27.6875 7.59375 32.390625 
Q 11.140625 37.109375 17.671875 38.8125 
z
M 15.921875 53.71875 
Q 15.921875 48.640625 19.1875 45.40625 
Q 22.46875 42.1875 27.6875 42.1875 
Q 32.765625 42.1875 36.015625 45.375 
Q 39.265625 48.578125 39.265625 53.21875 
Q 39.265625 58.0625 35.90625 61.359375 
Q 32.5625 64.65625 27.59375 64.65625 
Q 22.5625 64.65625 19.234375 61.421875 
Q 15.921875 58.203125 15.921875 53.71875 
z
M 13.09375 20.65625 
Q 13.09375 16.890625 14.875 13.375 
Q 16.65625 9.859375 20.171875 7.921875 
Q 23.6875 6 27.734375 6 
Q 34.03125 6 38.125 10.046875 
Q 42.234375 14.109375 42.234375 20.359375 
Q 42.234375 26.703125 38.015625 30.859375 
Q 33.796875 35.015625 27.4375 35.015625 
Q 21.234375 35.015625 17.15625 30.90625 
Q 13.09375 26.8125 13.09375 20.65625 
z
" id="ArialMT-56"/>
       </defs>
       <use xlink:href="#ArialMT-52"/>
       <use x="55.615234" xlink:href="#ArialMT-56"/>
       <use x="111.230469" xlink:href="#ArialMT-48"/>
       <use x="166.845703" xlink:href="#ArialMT-48"/>
       <use x="222.460938" xlink:href="#ArialMT-48"/>
      </g>
     </g>
    </g>
    <g id="xtick_6">
     <g id="line2d_6">
      <path clip-path="url(#pce9d29fbcc)" d="M 424.468784 315 
L 424.468784 43.2 
" style="fill:none;stroke:#cccccc;stroke-linecap:round;"/>
     </g>
     <g id="text_6">
      <!-- 60000 -->
      <g style="fill:#262626;" transform="translate(409.176206 332.373594)scale(0.11 -0.11)">
       <use xlink:href="#ArialMT-54"/>
       <use x="55.615234" xlink:href="#ArialMT-48"/>
       <use x="111.230469" xlink:href="#ArialMT-48"/>
       <use x="166.845703" xlink:href="#ArialMT-48"/>
       <use x="222.460938" xlink:href="#ArialMT-48"/>
      </g>
     </g>
    </g>
    <g id="xtick_7">
     <g id="line2d_7">
      <path clip-path="url(#pce9d29fbcc)" d="M 473.362541 315 
L 473.362541 43.2 
" style="fill:none;stroke:#cccccc;stroke-linecap:round;"/>
     </g>
     <g id="text_7">
      <!-- 72000 -->
      <g style="fill:#262626;" transform="translate(458.069963 332.373594)scale(0.11 -0.11)">
       <defs>
        <path d="M 4.734375 62.203125 
L 4.734375 70.65625 
L 51.078125 70.65625 
L 51.078125 63.8125 
Q 44.234375 56.546875 37.515625 44.484375 
Q 30.8125 32.421875 27.15625 19.671875 
Q 24.515625 10.6875 23.78125 0 
L 14.75 0 
Q 14.890625 8.453125 18.0625 20.40625 
Q 21.234375 32.375 27.171875 43.484375 
Q 33.109375 54.59375 39.796875 62.203125 
z
" id="ArialMT-55"/>
       </defs>
       <use xlink:href="#ArialMT-55"/>
       <use x="55.615234" xlink:href="#ArialMT-50"/>
       <use x="111.230469" xlink:href="#ArialMT-48"/>
       <use x="166.845703" xlink:href="#ArialMT-48"/>
       <use x="222.460938" xlink:href="#ArialMT-48"/>
      </g>
     </g>
    </g>
    <g id="xtick_8">
     <g id="line2d_8">
      <path clip-path="url(#pce9d29fbcc)" d="M 522.256298 315 
L 522.256298 43.2 
" style="fill:none;stroke:#cccccc;stroke-linecap:round;"/>
     </g>
     <g id="text_8">
      <!-- 84000 -->
      <g style="fill:#262626;" transform="translate(506.96372 332.373594)scale(0.11 -0.11)">
       <use xlink:href="#ArialMT-56"/>
       <use x="55.615234" xlink:href="#ArialMT-52"/>
       <use x="111.230469" xlink:href="#ArialMT-48"/>
       <use x="166.845703" xlink:href="#ArialMT-48"/>
       <use x="222.460938" xlink:href="#ArialMT-48"/>
      </g>
     </g>
    </g>
    <g id="xtick_9">
     <g id="line2d_9">
      <path clip-path="url(#pce9d29fbcc)" d="M 571.150055 315 
L 571.150055 43.2 
" style="fill:none;stroke:#cccccc;stroke-linecap:round;"/>
     </g>
     <g id="text_9">
      <!-- 96000 -->
      <g style="fill:#262626;" transform="translate(555.857477 332.373594)scale(0.11 -0.11)">
       <defs>
        <path d="M 5.46875 16.546875 
L 13.921875 17.328125 
Q 14.984375 11.375 18.015625 8.6875 
Q 21.046875 6 25.78125 6 
Q 29.828125 6 32.875 7.859375 
Q 35.9375 9.71875 37.890625 12.8125 
Q 39.84375 15.921875 41.15625 21.1875 
Q 42.484375 26.46875 42.484375 31.9375 
Q 42.484375 32.515625 42.4375 33.6875 
Q 39.796875 29.5 35.234375 26.875 
Q 30.671875 24.265625 25.34375 24.265625 
Q 16.453125 24.265625 10.296875 30.703125 
Q 4.15625 37.15625 4.15625 47.703125 
Q 4.15625 58.59375 10.578125 65.234375 
Q 17 71.875 26.65625 71.875 
Q 33.640625 71.875 39.421875 68.109375 
Q 45.21875 64.359375 48.21875 57.390625 
Q 51.21875 50.4375 51.21875 37.25 
Q 51.21875 23.53125 48.234375 15.40625 
Q 45.265625 7.28125 39.375 3.03125 
Q 33.5 -1.21875 25.59375 -1.21875 
Q 17.1875 -1.21875 11.859375 3.4375 
Q 6.546875 8.109375 5.46875 16.546875 
z
M 41.453125 48.140625 
Q 41.453125 55.71875 37.421875 60.15625 
Q 33.40625 64.59375 27.734375 64.59375 
Q 21.875 64.59375 17.53125 59.8125 
Q 13.1875 55.03125 13.1875 47.40625 
Q 13.1875 40.578125 17.3125 36.296875 
Q 21.4375 32.03125 27.484375 32.03125 
Q 33.59375 32.03125 37.515625 36.296875 
Q 41.453125 40.578125 41.453125 48.140625 
z
" id="ArialMT-57"/>
       </defs>
       <use xlink:href="#ArialMT-57"/>
       <use x="55.615234" xlink:href="#ArialMT-54"/>
       <use x="111.230469" xlink:href="#ArialMT-48"/>
       <use x="166.845703" xlink:href="#ArialMT-48"/>
       <use x="222.460938" xlink:href="#ArialMT-48"/>
      </g>
     </g>
    </g>
    <g id="xtick_10">
     <g id="line2d_10">
      <path clip-path="url(#pce9d29fbcc)" d="M 620.043812 315 
L 620.043812 43.2 
" style="fill:none;stroke:#cccccc;stroke-linecap:round;"/>
     </g>
     <g id="text_10">
      <!-- 108000 -->
      <g style="fill:#262626;" transform="translate(601.692718 332.373594)scale(0.11 -0.11)">
       <use xlink:href="#ArialMT-49"/>
       <use x="55.615234" xlink:href="#ArialMT-48"/>
       <use x="111.230469" xlink:href="#ArialMT-56"/>
       <use x="166.845703" xlink:href="#ArialMT-48"/>
       <use x="222.460938" xlink:href="#ArialMT-48"/>
       <use x="278.076172" xlink:href="#ArialMT-48"/>
      </g>
     </g>
    </g>
    <g id="text_11">
     <!-- income -->
     <g style="fill:#262626;" transform="translate(414.295739 347.149219)scale(0.12 -0.12)">
      <defs>
       <path d="M 6.640625 61.46875 
L 6.640625 71.578125 
L 15.4375 71.578125 
L 15.4375 61.46875 
z
M 6.640625 0 
L 6.640625 51.859375 
L 15.4375 51.859375 
L 15.4375 0 
z
" id="ArialMT-105"/>
       <path d="M 6.59375 0 
L 6.59375 51.859375 
L 14.5 51.859375 
L 14.5 44.484375 
Q 20.21875 53.03125 31 53.03125 
Q 35.6875 53.03125 39.625 51.34375 
Q 43.5625 49.65625 45.515625 46.921875 
Q 47.46875 44.1875 48.25 40.4375 
Q 48.734375 37.984375 48.734375 31.890625 
L 48.734375 0 
L 39.9375 0 
L 39.9375 31.546875 
Q 39.9375 36.921875 38.90625 39.578125 
Q 37.890625 42.234375 35.28125 43.8125 
Q 32.671875 45.40625 29.15625 45.40625 
Q 23.53125 45.40625 19.453125 41.84375 
Q 15.375 38.28125 15.375 28.328125 
L 15.375 0 
z
" id="ArialMT-110"/>
       <path d="M 40.4375 19 
L 49.078125 17.875 
Q 47.65625 8.9375 41.8125 3.875 
Q 35.984375 -1.171875 27.484375 -1.171875 
Q 16.84375 -1.171875 10.375 5.78125 
Q 3.90625 12.75 3.90625 25.734375 
Q 3.90625 34.125 6.6875 40.421875 
Q 9.46875 46.734375 15.15625 49.875 
Q 20.84375 53.03125 27.546875 53.03125 
Q 35.984375 53.03125 41.359375 48.75 
Q 46.734375 44.484375 48.25 36.625 
L 39.703125 35.296875 
Q 38.484375 40.53125 35.375 43.15625 
Q 32.28125 45.796875 27.875 45.796875 
Q 21.234375 45.796875 17.078125 41.03125 
Q 12.9375 36.28125 12.9375 25.984375 
Q 12.9375 15.53125 16.9375 10.796875 
Q 20.953125 6.0625 27.390625 6.0625 
Q 32.5625 6.0625 36.03125 9.234375 
Q 39.5 12.40625 40.4375 19 
z
" id="ArialMT-99"/>
       <path d="M 3.328125 25.921875 
Q 3.328125 40.328125 11.328125 47.265625 
Q 18.015625 53.03125 27.640625 53.03125 
Q 38.328125 53.03125 45.109375 46.015625 
Q 51.90625 39.015625 51.90625 26.65625 
Q 51.90625 16.65625 48.90625 10.90625 
Q 45.90625 5.171875 40.15625 2 
Q 34.421875 -1.171875 27.640625 -1.171875 
Q 16.75 -1.171875 10.03125 5.8125 
Q 3.328125 12.796875 3.328125 25.921875 
z
M 12.359375 25.921875 
Q 12.359375 15.96875 16.703125 11.015625 
Q 21.046875 6.0625 27.640625 6.0625 
Q 34.1875 6.0625 38.53125 11.03125 
Q 42.875 16.015625 42.875 26.21875 
Q 42.875 35.84375 38.5 40.796875 
Q 34.125 45.75 27.640625 45.75 
Q 21.046875 45.75 16.703125 40.8125 
Q 12.359375 35.890625 12.359375 25.921875 
z
" id="ArialMT-111"/>
       <path d="M 6.59375 0 
L 6.59375 51.859375 
L 14.453125 51.859375 
L 14.453125 44.578125 
Q 16.890625 48.390625 20.9375 50.703125 
Q 25 53.03125 30.171875 53.03125 
Q 35.9375 53.03125 39.625 50.640625 
Q 43.3125 48.25 44.828125 43.953125 
Q 50.984375 53.03125 60.84375 53.03125 
Q 68.5625 53.03125 72.703125 48.75 
Q 76.859375 44.484375 76.859375 35.59375 
L 76.859375 0 
L 68.109375 0 
L 68.109375 32.671875 
Q 68.109375 37.9375 67.25 40.25 
Q 66.40625 42.578125 64.15625 43.984375 
Q 61.921875 45.40625 58.890625 45.40625 
Q 53.421875 45.40625 49.796875 41.765625 
Q 46.1875 38.140625 46.1875 30.125 
L 46.1875 0 
L 37.40625 0 
L 37.40625 33.6875 
Q 37.40625 39.546875 35.25 42.46875 
Q 33.109375 45.40625 28.21875 45.40625 
Q 24.515625 45.40625 21.359375 43.453125 
Q 18.21875 41.5 16.796875 37.734375 
Q 15.375 33.984375 15.375 26.90625 
L 15.375 0 
z
" id="ArialMT-109"/>
       <path d="M 42.09375 16.703125 
L 51.171875 15.578125 
Q 49.03125 7.625 43.21875 3.21875 
Q 37.40625 -1.171875 28.375 -1.171875 
Q 17 -1.171875 10.328125 5.828125 
Q 3.65625 12.84375 3.65625 25.484375 
Q 3.65625 38.578125 10.390625 45.796875 
Q 17.140625 53.03125 27.875 53.03125 
Q 38.28125 53.03125 44.875 45.953125 
Q 51.46875 38.875 51.46875 26.03125 
Q 51.46875 25.25 51.421875 23.6875 
L 12.75 23.6875 
Q 13.234375 15.140625 17.578125 10.59375 
Q 21.921875 6.0625 28.421875 6.0625 
Q 33.25 6.0625 36.671875 8.59375 
Q 40.09375 11.140625 42.09375 16.703125 
z
M 13.234375 30.90625 
L 42.1875 30.90625 
Q 41.609375 37.453125 38.875 40.71875 
Q 34.671875 45.796875 27.984375 45.796875 
Q 21.921875 45.796875 17.796875 41.75 
Q 13.671875 37.703125 13.234375 30.90625 
z
" id="ArialMT-101"/>
      </defs>
      <use xlink:href="#ArialMT-105"/>
      <use x="22.216797" xlink:href="#ArialMT-110"/>
      <use x="77.832031" xlink:href="#ArialMT-99"/>
      <use x="127.832031" xlink:href="#ArialMT-111"/>
      <use x="183.447266" xlink:href="#ArialMT-109"/>
      <use x="266.748047" xlink:href="#ArialMT-101"/>
     </g>
    </g>
   </g>
   <g id="matplotlib.axis_2">
    <g id="ytick_1">
     <g id="line2d_11">
      <path clip-path="url(#pce9d29fbcc)" d="M 180 315 
L 687.272727 315 
" style="fill:none;stroke:#cccccc;stroke-linecap:round;"/>
     </g>
     <g id="text_12">
      <!-- 0 -->
      <g style="fill:#262626;" transform="translate(164.382969 318.936797)scale(0.11 -0.11)">
       <use xlink:href="#ArialMT-48"/>
      </g>
     </g>
    </g>
    <g id="ytick_2">
     <g id="line2d_12">
      <path clip-path="url(#pce9d29fbcc)" d="M 180 281.338473 
L 687.272727 281.338473 
" style="fill:none;stroke:#cccccc;stroke-linecap:round;"/>
     </g>
     <g id="text_13">
      <!-- 100 -->
      <g style="fill:#262626;" transform="translate(152.148906 285.27527)scale(0.11 -0.11)">
       <use xlink:href="#ArialMT-49"/>
       <use x="55.615234" xlink:href="#ArialMT-48"/>
       <use x="111.230469" xlink:href="#ArialMT-48"/>
      </g>
     </g>
    </g>
    <g id="ytick_3">
     <g id="line2d_13">
      <path clip-path="url(#pce9d29fbcc)" d="M 180 247.676946 
L 687.272727 247.676946 
" style="fill:none;stroke:#cccccc;stroke-linecap:round;"/>
     </g>
     <g id="text_14">
      <!-- 200 -->
      <g style="fill:#262626;" transform="translate(152.148906 251.613743)scale(0.11 -0.11)">
       <use xlink:href="#ArialMT-50"/>
       <use x="55.615234" xlink:href="#ArialMT-48"/>
       <use x="111.230469" xlink:href="#ArialMT-48"/>
      </g>
     </g>
    </g>
    <g id="ytick_4">
     <g id="line2d_14">
      <path clip-path="url(#pce9d29fbcc)" d="M 180 214.015419 
L 687.272727 214.015419 
" style="fill:none;stroke:#cccccc;stroke-linecap:round;"/>
     </g>
     <g id="text_15">
      <!-- 300 -->
      <g style="fill:#262626;" transform="translate(152.148906 217.952216)scale(0.11 -0.11)">
       <use xlink:href="#ArialMT-51"/>
       <use x="55.615234" xlink:href="#ArialMT-48"/>
       <use x="111.230469" xlink:href="#ArialMT-48"/>
      </g>
     </g>
    </g>
    <g id="ytick_5">
     <g id="line2d_15">
      <path clip-path="url(#pce9d29fbcc)" d="M 180 180.353892 
L 687.272727 180.353892 
" style="fill:none;stroke:#cccccc;stroke-linecap:round;"/>
     </g>
     <g id="text_16">
      <!-- 400 -->
      <g style="fill:#262626;" transform="translate(152.148906 184.290689)scale(0.11 -0.11)">
       <use xlink:href="#ArialMT-52"/>
       <use x="55.615234" xlink:href="#ArialMT-48"/>
       <use x="111.230469" xlink:href="#ArialMT-48"/>
      </g>
     </g>
    </g>
    <g id="ytick_6">
     <g id="line2d_16">
      <path clip-path="url(#pce9d29fbcc)" d="M 180 146.692365 
L 687.272727 146.692365 
" style="fill:none;stroke:#cccccc;stroke-linecap:round;"/>
     </g>
     <g id="text_17">
      <!-- 500 -->
      <g style="fill:#262626;" transform="translate(152.148906 150.629162)scale(0.11 -0.11)">
       <defs>
        <path d="M 4.15625 18.75 
L 13.375 19.53125 
Q 14.40625 12.796875 18.140625 9.390625 
Q 21.875 6 27.15625 6 
Q 33.5 6 37.890625 10.78125 
Q 42.28125 15.578125 42.28125 23.484375 
Q 42.28125 31 38.0625 35.34375 
Q 33.84375 39.703125 27 39.703125 
Q 22.75 39.703125 19.328125 37.765625 
Q 15.921875 35.84375 13.96875 32.765625 
L 5.71875 33.84375 
L 12.640625 70.609375 
L 48.25 70.609375 
L 48.25 62.203125 
L 19.671875 62.203125 
L 15.828125 42.96875 
Q 22.265625 47.46875 29.34375 47.46875 
Q 38.71875 47.46875 45.15625 40.96875 
Q 51.609375 34.46875 51.609375 24.265625 
Q 51.609375 14.546875 45.953125 7.46875 
Q 39.0625 -1.21875 27.15625 -1.21875 
Q 17.390625 -1.21875 11.203125 4.25 
Q 5.03125 9.71875 4.15625 18.75 
z
" id="ArialMT-53"/>
       </defs>
       <use xlink:href="#ArialMT-53"/>
       <use x="55.615234" xlink:href="#ArialMT-48"/>
       <use x="111.230469" xlink:href="#ArialMT-48"/>
      </g>
     </g>
    </g>
    <g id="ytick_7">
     <g id="line2d_17">
      <path clip-path="url(#pce9d29fbcc)" d="M 180 113.030838 
L 687.272727 113.030838 
" style="fill:none;stroke:#cccccc;stroke-linecap:round;"/>
     </g>
     <g id="text_18">
      <!-- 600 -->
      <g style="fill:#262626;" transform="translate(152.148906 116.967635)scale(0.11 -0.11)">
       <use xlink:href="#ArialMT-54"/>
       <use x="55.615234" xlink:href="#ArialMT-48"/>
       <use x="111.230469" xlink:href="#ArialMT-48"/>
      </g>
     </g>
    </g>
    <g id="ytick_8">
     <g id="line2d_18">
      <path clip-path="url(#pce9d29fbcc)" d="M 180 79.369311 
L 687.272727 79.369311 
" style="fill:none;stroke:#cccccc;stroke-linecap:round;"/>
     </g>
     <g id="text_19">
      <!-- 700 -->
      <g style="fill:#262626;" transform="translate(152.148906 83.306108)scale(0.11 -0.11)">
       <use xlink:href="#ArialMT-55"/>
       <use x="55.615234" xlink:href="#ArialMT-48"/>
       <use x="111.230469" xlink:href="#ArialMT-48"/>
      </g>
     </g>
    </g>
    <g id="ytick_9">
     <g id="line2d_19">
      <path clip-path="url(#pce9d29fbcc)" d="M 180 45.707784 
L 687.272727 45.707784 
" style="fill:none;stroke:#cccccc;stroke-linecap:round;"/>
     </g>
     <g id="text_20">
      <!-- 800 -->
      <g style="fill:#262626;" transform="translate(152.148906 49.644581)scale(0.11 -0.11)">
       <use xlink:href="#ArialMT-56"/>
       <use x="55.615234" xlink:href="#ArialMT-48"/>
       <use x="111.230469" xlink:href="#ArialMT-48"/>
      </g>
     </g>
    </g>
    <g id="text_21">
     <!-- count of user -->
     <g style="fill:#262626;" transform="translate(145.763906 213.784687)rotate(-90)scale(0.12 -0.12)">
      <defs>
       <path d="M 40.578125 0 
L 40.578125 7.625 
Q 34.515625 -1.171875 24.125 -1.171875 
Q 19.53125 -1.171875 15.546875 0.578125 
Q 11.578125 2.34375 9.640625 5 
Q 7.71875 7.671875 6.9375 11.53125 
Q 6.390625 14.109375 6.390625 19.734375 
L 6.390625 51.859375 
L 15.1875 51.859375 
L 15.1875 23.09375 
Q 15.1875 16.21875 15.71875 13.8125 
Q 16.546875 10.359375 19.234375 8.375 
Q 21.921875 6.390625 25.875 6.390625 
Q 29.828125 6.390625 33.296875 8.421875 
Q 36.765625 10.453125 38.203125 13.9375 
Q 39.65625 17.4375 39.65625 24.078125 
L 39.65625 51.859375 
L 48.4375 51.859375 
L 48.4375 0 
z
" id="ArialMT-117"/>
       <path d="M 25.78125 7.859375 
L 27.046875 0.09375 
Q 23.34375 -0.6875 20.40625 -0.6875 
Q 15.625 -0.6875 12.984375 0.828125 
Q 10.359375 2.34375 9.28125 4.8125 
Q 8.203125 7.28125 8.203125 15.1875 
L 8.203125 45.015625 
L 1.765625 45.015625 
L 1.765625 51.859375 
L 8.203125 51.859375 
L 8.203125 64.703125 
L 16.9375 69.96875 
L 16.9375 51.859375 
L 25.78125 51.859375 
L 25.78125 45.015625 
L 16.9375 45.015625 
L 16.9375 14.703125 
Q 16.9375 10.9375 17.40625 9.859375 
Q 17.875 8.796875 18.921875 8.15625 
Q 19.96875 7.515625 21.921875 7.515625 
Q 23.390625 7.515625 25.78125 7.859375 
z
" id="ArialMT-116"/>
       <path id="ArialMT-32"/>
       <path d="M 8.6875 0 
L 8.6875 45.015625 
L 0.921875 45.015625 
L 0.921875 51.859375 
L 8.6875 51.859375 
L 8.6875 57.375 
Q 8.6875 62.59375 9.625 65.140625 
Q 10.890625 68.5625 14.078125 70.671875 
Q 17.28125 72.796875 23.046875 72.796875 
Q 26.765625 72.796875 31.25 71.921875 
L 29.9375 64.265625 
Q 27.203125 64.75 24.75 64.75 
Q 20.75 64.75 19.09375 63.03125 
Q 17.4375 61.328125 17.4375 56.640625 
L 17.4375 51.859375 
L 27.546875 51.859375 
L 27.546875 45.015625 
L 17.4375 45.015625 
L 17.4375 0 
z
" id="ArialMT-102"/>
       <path d="M 3.078125 15.484375 
L 11.765625 16.84375 
Q 12.5 11.625 15.84375 8.84375 
Q 19.1875 6.0625 25.203125 6.0625 
Q 31.25 6.0625 34.171875 8.515625 
Q 37.109375 10.984375 37.109375 14.3125 
Q 37.109375 17.28125 34.515625 19 
Q 32.71875 20.171875 25.53125 21.96875 
Q 15.875 24.421875 12.140625 26.203125 
Q 8.40625 27.984375 6.46875 31.125 
Q 4.546875 34.28125 4.546875 38.09375 
Q 4.546875 41.546875 6.125 44.5 
Q 7.71875 47.46875 10.453125 49.421875 
Q 12.5 50.921875 16.03125 51.96875 
Q 19.578125 53.03125 23.640625 53.03125 
Q 29.734375 53.03125 34.34375 51.265625 
Q 38.96875 49.515625 41.15625 46.5 
Q 43.359375 43.5 44.1875 38.484375 
L 35.59375 37.3125 
Q 35.015625 41.3125 32.203125 43.546875 
Q 29.390625 45.796875 24.265625 45.796875 
Q 18.21875 45.796875 15.625 43.796875 
Q 13.03125 41.796875 13.03125 39.109375 
Q 13.03125 37.40625 14.109375 36.03125 
Q 15.1875 34.625 17.484375 33.6875 
Q 18.796875 33.203125 25.25 31.453125 
Q 34.578125 28.953125 38.25 27.359375 
Q 41.9375 25.78125 44.03125 22.75 
Q 46.140625 19.734375 46.140625 15.234375 
Q 46.140625 10.84375 43.578125 6.953125 
Q 41.015625 3.078125 36.171875 0.953125 
Q 31.34375 -1.171875 25.25 -1.171875 
Q 15.140625 -1.171875 9.84375 3.03125 
Q 4.546875 7.234375 3.078125 15.484375 
z
" id="ArialMT-115"/>
       <path d="M 6.5 0 
L 6.5 51.859375 
L 14.40625 51.859375 
L 14.40625 44 
Q 17.4375 49.515625 20 51.265625 
Q 22.5625 53.03125 25.640625 53.03125 
Q 30.078125 53.03125 34.671875 50.203125 
L 31.640625 42.046875 
Q 28.421875 43.953125 25.203125 43.953125 
Q 22.3125 43.953125 20.015625 42.21875 
Q 17.71875 40.484375 16.75 37.40625 
Q 15.28125 32.71875 15.28125 27.15625 
L 15.28125 0 
z
" id="ArialMT-114"/>
      </defs>
      <use xlink:href="#ArialMT-99"/>
      <use x="50" xlink:href="#ArialMT-111"/>
      <use x="105.615234" xlink:href="#ArialMT-117"/>
      <use x="161.230469" xlink:href="#ArialMT-110"/>
      <use x="216.845703" xlink:href="#ArialMT-116"/>
      <use x="244.628906" xlink:href="#ArialMT-32"/>
      <use x="272.412109" xlink:href="#ArialMT-111"/>
      <use x="328.027344" xlink:href="#ArialMT-102"/>
      <use x="355.810547" xlink:href="#ArialMT-32"/>
      <use x="383.59375" xlink:href="#ArialMT-117"/>
      <use x="439.208984" xlink:href="#ArialMT-115"/>
      <use x="489.208984" xlink:href="#ArialMT-101"/>
      <use x="544.824219" xlink:href="#ArialMT-114"/>
     </g>
    </g>
   </g>
   <g id="patch_3">
    <path clip-path="url(#pce9d29fbcc)" d="M 302.234392 315 
L 320.569551 315 
L 320.569551 224.787108 
L 302.234392 224.787108 
z
" style="fill:#4c72b0;fill-opacity:0.5;"/>
   </g>
   <g id="patch_4">
    <path clip-path="url(#pce9d29fbcc)" d="M 320.569551 315 
L 338.90471 315 
L 338.90471 237.578488 
L 320.569551 237.578488 
z
" style="fill:#4c72b0;fill-opacity:0.5;"/>
   </g>
   <g id="patch_5">
    <path clip-path="url(#pce9d29fbcc)" d="M 338.90471 315 
L 357.239869 315 
L 357.239869 219.737879 
L 338.90471 219.737879 
z
" style="fill:#4c72b0;fill-opacity:0.5;"/>
   </g>
   <g id="patch_6">
    <path clip-path="url(#pce9d29fbcc)" d="M 357.239869 315 
L 375.575027 315 
L 375.575027 247.003715 
L 357.239869 247.003715 
z
" style="fill:#4c72b0;fill-opacity:0.5;"/>
   </g>
   <g id="patch_7">
    <path clip-path="url(#pce9d29fbcc)" d="M 375.575027 315 
L 393.910186 315 
L 393.910186 191.798811 
L 375.575027 191.798811 
z
" style="fill:#4c72b0;fill-opacity:0.5;"/>
   </g>
   <g id="patch_8">
    <path clip-path="url(#pce9d29fbcc)" d="M 393.910186 315 
L 412.245345 315 
L 412.245345 183.383429 
L 393.910186 183.383429 
z
" style="fill:#4c72b0;fill-opacity:0.5;"/>
   </g>
   <g id="patch_9">
    <path clip-path="url(#pce9d29fbcc)" d="M 412.245345 315 
L 430.580504 315 
L 430.580504 152.414824 
L 412.245345 152.414824 
z
" style="fill:#4c72b0;fill-opacity:0.5;"/>
   </g>
   <g id="patch_10">
    <path clip-path="url(#pce9d29fbcc)" d="M 430.580504 315 
L 448.915663 315 
L 448.915663 200.214193 
L 430.580504 200.214193 
z
" style="fill:#4c72b0;fill-opacity:0.5;"/>
   </g>
   <g id="patch_11">
    <path clip-path="url(#pce9d29fbcc)" d="M 448.915663 315 
L 467.250821 315 
L 467.250821 177.324354 
L 448.915663 177.324354 
z
" style="fill:#4c72b0;fill-opacity:0.5;"/>
   </g>
   <g id="patch_12">
    <path clip-path="url(#pce9d29fbcc)" d="M 467.250821 315 
L 485.58598 315 
L 485.58598 138.950214 
L 467.250821 138.950214 
z
" style="fill:#4c72b0;fill-opacity:0.5;"/>
   </g>
   <g id="patch_13">
    <path clip-path="url(#pce9d29fbcc)" d="M 485.58598 315 
L 503.921139 315 
L 503.921139 156.454208 
L 485.58598 156.454208 
z
" style="fill:#4c72b0;fill-opacity:0.5;"/>
   </g>
   <g id="patch_14">
    <path clip-path="url(#pce9d29fbcc)" d="M 503.921139 315 
L 522.256298 315 
L 522.256298 212.332343 
L 503.921139 212.332343 
z
" style="fill:#4c72b0;fill-opacity:0.5;"/>
   </g>
   <g id="patch_15">
    <path clip-path="url(#pce9d29fbcc)" d="M 522.256298 315 
L 540.591457 315 
L 540.591457 177.66097 
L 522.256298 177.66097 
z
" style="fill:#4c72b0;fill-opacity:0.5;"/>
   </g>
   <g id="patch_16">
    <path clip-path="url(#pce9d29fbcc)" d="M 540.591457 315 
L 558.926616 315 
L 558.926616 233.87572 
L 540.591457 233.87572 
z
" style="fill:#4c72b0;fill-opacity:0.5;"/>
   </g>
   <g id="patch_17">
    <path clip-path="url(#pce9d29fbcc)" d="M 558.926616 315 
L 577.261774 315 
L 577.261774 201.560654 
L 558.926616 201.560654 
z
" style="fill:#4c72b0;fill-opacity:0.5;"/>
   </g>
   <g id="patch_18">
    <path clip-path="url(#pce9d29fbcc)" d="M 577.261774 315 
L 595.596933 315 
L 595.596933 239.598179 
L 577.261774 239.598179 
z
" style="fill:#4c72b0;fill-opacity:0.5;"/>
   </g>
   <g id="patch_19">
    <path clip-path="url(#pce9d29fbcc)" d="M 595.596933 315 
L 613.932092 315 
L 613.932092 253.736021 
L 595.596933 253.736021 
z
" style="fill:#4c72b0;fill-opacity:0.5;"/>
   </g>
   <g id="patch_20">
    <path clip-path="url(#pce9d29fbcc)" d="M 613.932092 315 
L 632.267251 315 
L 632.267251 260.131711 
L 613.932092 260.131711 
z
" style="fill:#4c72b0;fill-opacity:0.5;"/>
   </g>
   <g id="patch_21">
    <path clip-path="url(#pce9d29fbcc)" d="M 632.267251 315 
L 650.60241 315 
L 650.60241 257.102174 
L 632.267251 257.102174 
z
" style="fill:#4c72b0;fill-opacity:0.5;"/>
   </g>
   <g id="patch_22">
    <path clip-path="url(#pce9d29fbcc)" d="M 650.60241 315 
L 668.937568 315 
L 668.937568 271.240015 
L 650.60241 271.240015 
z
" style="fill:#4c72b0;fill-opacity:0.5;"/>
   </g>
   <g id="line2d_20">
    <path clip-path="url(#pce9d29fbcc)" d="M 302.234392 269.848276 
L 305.919851 261.75528 
L 309.60531 254.163964 
L 311.44804 250.674206 
L 313.290769 247.437495 
L 315.133499 244.480227 
L 316.976228 241.819939 
L 318.818958 239.465457 
L 320.661687 237.417466 
L 322.504417 235.669416 
L 324.347146 234.208671 
L 326.189876 233.017771 
L 328.032606 232.075709 
L 329.875335 231.359121 
L 331.718065 230.843316 
L 333.560794 230.503083 
L 335.403524 230.313265 
L 339.088983 230.286212 
L 342.774442 230.56893 
L 350.14536 231.293053 
L 353.830819 231.327856 
L 355.673548 231.169295 
L 357.516278 230.85719 
L 359.359008 230.365551 
L 361.201737 229.670395 
L 363.044467 228.75075 
L 364.887196 227.589695 
L 366.729926 226.175373 
L 368.572655 224.501903 
L 370.415385 222.570115 
L 372.258114 220.388043 
L 374.100844 217.971133 
L 377.786303 212.530515 
L 381.471762 206.506682 
L 388.84268 194.080489 
L 392.528139 188.392932 
L 394.370869 185.8168 
L 396.213598 183.457796 
L 398.056328 181.337108 
L 399.899057 179.469393 
L 401.741787 177.862883 
L 403.584516 176.519743 
L 405.427246 175.436611 
L 407.269975 174.605275 
L 409.112705 174.013408 
L 410.955434 173.645333 
L 412.798164 173.482743 
L 414.640893 173.505353 
L 416.483623 173.691459 
L 418.326352 174.018381 
L 422.011812 175.000949 
L 427.54 176.935866 
L 433.068189 178.830243 
L 436.753648 179.72896 
L 438.596377 179.990758 
L 440.439107 180.093588 
L 442.281836 180.013712 
L 444.124566 179.729874 
L 445.967295 179.224451 
L 447.810025 178.484755 
L 449.652754 177.504379 
L 451.495484 176.284512 
L 453.338214 174.835087 
L 455.180943 173.175628 
L 458.866402 169.354737 
L 466.23732 161.1013 
L 468.08005 159.271849 
L 469.922779 157.66645 
L 471.765509 156.344017 
L 473.608238 155.355168 
L 475.450968 154.739775 
L 477.293697 154.525107 
L 479.136427 154.724672 
L 480.979156 155.337828 
L 482.821886 156.350185 
L 484.664616 157.734709 
L 486.507345 159.453461 
L 488.350075 161.459786 
L 490.192804 163.700803 
L 493.878263 168.659846 
L 501.249181 178.960174 
L 504.93464 183.598933 
L 506.77737 185.690824 
L 508.620099 187.613521 
L 510.462829 189.363083 
L 512.305558 190.94229 
L 514.148288 192.359916 
L 517.833747 194.770248 
L 521.519206 196.748868 
L 527.047395 199.312002 
L 532.575583 201.876579 
L 538.103772 204.726832 
L 551.002879 211.712907 
L 556.531067 214.279296 
L 565.744715 218.393861 
L 569.430174 220.391831 
L 573.115633 222.800685 
L 576.801092 225.690895 
L 580.486551 229.051663 
L 584.17201 232.787482 
L 595.228387 244.415091 
L 598.913846 247.761483 
L 602.599305 250.600521 
L 604.442035 251.813928 
L 606.284764 252.891282 
L 609.970224 254.668147 
L 613.655683 256.025103 
L 617.341142 257.091234 
L 630.240248 260.390263 
L 633.925707 261.611336 
L 637.611166 263.080522 
L 641.296626 264.856493 
L 644.982085 267.001681 
L 648.667544 269.577817 
L 652.353003 272.632465 
L 656.038462 276.180124 
L 659.723921 280.184122 
L 663.40938 284.546303 
L 668.937568 291.405993 
L 668.937568 291.405993 
" style="fill:none;stroke:#4c72b0;stroke-linecap:round;stroke-width:1.5;"/>
   </g>
   <g id="patch_23">
    <path d="M 180 315 
L 180 43.2 
" style="fill:none;stroke:#cccccc;stroke-linecap:square;stroke-linejoin:miter;stroke-width:1.25;"/>
   </g>
   <g id="patch_24">
    <path d="M 687.272727 315 
L 687.272727 43.2 
" style="fill:none;stroke:#cccccc;stroke-linecap:square;stroke-linejoin:miter;stroke-width:1.25;"/>
   </g>
   <g id="patch_25">
    <path d="M 180 315 
L 687.272727 315 
" style="fill:none;stroke:#cccccc;stroke-linecap:square;stroke-linejoin:miter;stroke-width:1.25;"/>
   </g>
   <g id="patch_26">
    <path d="M 180 43.2 
L 687.272727 43.2 
" style="fill:none;stroke:#cccccc;stroke-linecap:square;stroke-linejoin:miter;stroke-width:1.25;"/>
   </g>
   <g id="text_22">
    <!-- Number of female / income in Profile dataset -->
    <g style="fill:#262626;" transform="translate(315.255426 37.2)scale(0.12 -0.12)">
     <defs>
      <path d="M 7.625 0 
L 7.625 71.578125 
L 17.328125 71.578125 
L 54.9375 15.375 
L 54.9375 71.578125 
L 64.015625 71.578125 
L 64.015625 0 
L 54.296875 0 
L 16.703125 56.25 
L 16.703125 0 
z
" id="ArialMT-78"/>
      <path d="M 14.703125 0 
L 6.546875 0 
L 6.546875 71.578125 
L 15.328125 71.578125 
L 15.328125 46.046875 
Q 20.90625 53.03125 29.546875 53.03125 
Q 34.328125 53.03125 38.59375 51.09375 
Q 42.875 49.171875 45.625 45.671875 
Q 48.390625 42.1875 49.953125 37.25 
Q 51.515625 32.328125 51.515625 26.703125 
Q 51.515625 13.375 44.921875 6.09375 
Q 38.328125 -1.171875 29.109375 -1.171875 
Q 19.921875 -1.171875 14.703125 6.5 
z
M 14.59375 26.3125 
Q 14.59375 17 17.140625 12.84375 
Q 21.296875 6.0625 28.375 6.0625 
Q 34.125 6.0625 38.328125 11.0625 
Q 42.53125 16.0625 42.53125 25.984375 
Q 42.53125 36.140625 38.5 40.96875 
Q 34.46875 45.796875 28.765625 45.796875 
Q 23 45.796875 18.796875 40.796875 
Q 14.59375 35.796875 14.59375 26.3125 
z
" id="ArialMT-98"/>
      <path d="M 40.4375 6.390625 
Q 35.546875 2.25 31.03125 0.53125 
Q 26.515625 -1.171875 21.34375 -1.171875 
Q 12.796875 -1.171875 8.203125 3 
Q 3.609375 7.171875 3.609375 13.671875 
Q 3.609375 17.484375 5.34375 20.625 
Q 7.078125 23.78125 9.890625 25.6875 
Q 12.703125 27.59375 16.21875 28.5625 
Q 18.796875 29.25 24.03125 29.890625 
Q 34.671875 31.15625 39.703125 32.90625 
Q 39.75 34.71875 39.75 35.203125 
Q 39.75 40.578125 37.25 42.78125 
Q 33.890625 45.75 27.25 45.75 
Q 21.046875 45.75 18.09375 43.578125 
Q 15.140625 41.40625 13.71875 35.890625 
L 5.125 37.0625 
Q 6.296875 42.578125 8.984375 45.96875 
Q 11.671875 49.359375 16.75 51.1875 
Q 21.828125 53.03125 28.515625 53.03125 
Q 35.15625 53.03125 39.296875 51.46875 
Q 43.453125 49.90625 45.40625 47.53125 
Q 47.359375 45.171875 48.140625 41.546875 
Q 48.578125 39.3125 48.578125 33.453125 
L 48.578125 21.734375 
Q 48.578125 9.46875 49.140625 6.21875 
Q 49.703125 2.984375 51.375 0 
L 42.1875 0 
Q 40.828125 2.734375 40.4375 6.390625 
z
M 39.703125 26.03125 
Q 34.90625 24.078125 25.34375 22.703125 
Q 19.921875 21.921875 17.671875 20.9375 
Q 15.4375 19.96875 14.203125 18.09375 
Q 12.984375 16.21875 12.984375 13.921875 
Q 12.984375 10.40625 15.640625 8.0625 
Q 18.3125 5.71875 23.4375 5.71875 
Q 28.515625 5.71875 32.46875 7.9375 
Q 36.421875 10.15625 38.28125 14.015625 
Q 39.703125 17 39.703125 22.796875 
z
" id="ArialMT-97"/>
      <path d="M 6.390625 0 
L 6.390625 71.578125 
L 15.1875 71.578125 
L 15.1875 0 
z
" id="ArialMT-108"/>
      <path d="M 0 -1.21875 
L 20.75 72.796875 
L 27.78125 72.796875 
L 7.078125 -1.21875 
z
" id="ArialMT-47"/>
      <path d="M 7.71875 0 
L 7.71875 71.578125 
L 34.71875 71.578125 
Q 41.84375 71.578125 45.609375 70.90625 
Q 50.875 70.015625 54.4375 67.546875 
Q 58.015625 65.09375 60.1875 60.640625 
Q 62.359375 56.203125 62.359375 50.875 
Q 62.359375 41.75 56.546875 35.421875 
Q 50.734375 29.109375 35.546875 29.109375 
L 17.1875 29.109375 
L 17.1875 0 
z
M 17.1875 37.546875 
L 35.6875 37.546875 
Q 44.875 37.546875 48.734375 40.96875 
Q 52.59375 44.390625 52.59375 50.59375 
Q 52.59375 55.078125 50.3125 58.265625 
Q 48.046875 61.46875 44.34375 62.5 
Q 41.9375 63.140625 35.5 63.140625 
L 17.1875 63.140625 
z
" id="ArialMT-80"/>
      <path d="M 40.234375 0 
L 40.234375 6.546875 
Q 35.296875 -1.171875 25.734375 -1.171875 
Q 19.53125 -1.171875 14.328125 2.25 
Q 9.125 5.671875 6.265625 11.796875 
Q 3.421875 17.921875 3.421875 25.875 
Q 3.421875 33.640625 6 39.96875 
Q 8.59375 46.296875 13.765625 49.65625 
Q 18.953125 53.03125 25.34375 53.03125 
Q 30.03125 53.03125 33.6875 51.046875 
Q 37.359375 49.078125 39.65625 45.90625 
L 39.65625 71.578125 
L 48.390625 71.578125 
L 48.390625 0 
z
M 12.453125 25.875 
Q 12.453125 15.921875 16.640625 10.984375 
Q 20.84375 6.0625 26.5625 6.0625 
Q 32.328125 6.0625 36.34375 10.765625 
Q 40.375 15.484375 40.375 25.140625 
Q 40.375 35.796875 36.265625 40.765625 
Q 32.171875 45.75 26.171875 45.75 
Q 20.3125 45.75 16.375 40.96875 
Q 12.453125 36.1875 12.453125 25.875 
z
" id="ArialMT-100"/>
     </defs>
     <use xlink:href="#ArialMT-78"/>
     <use x="72.216797" xlink:href="#ArialMT-117"/>
     <use x="127.832031" xlink:href="#ArialMT-109"/>
     <use x="211.132812" xlink:href="#ArialMT-98"/>
     <use x="266.748047" xlink:href="#ArialMT-101"/>
     <use x="322.363281" xlink:href="#ArialMT-114"/>
     <use x="355.664062" xlink:href="#ArialMT-32"/>
     <use x="383.447266" xlink:href="#ArialMT-111"/>
     <use x="439.0625" xlink:href="#ArialMT-102"/>
     <use x="466.845703" xlink:href="#ArialMT-32"/>
     <use x="494.628906" xlink:href="#ArialMT-102"/>
     <use x="522.412109" xlink:href="#ArialMT-101"/>
     <use x="578.027344" xlink:href="#ArialMT-109"/>
     <use x="661.328125" xlink:href="#ArialMT-97"/>
     <use x="716.943359" xlink:href="#ArialMT-108"/>
     <use x="739.160156" xlink:href="#ArialMT-101"/>
     <use x="794.775391" xlink:href="#ArialMT-32"/>
     <use x="822.558594" xlink:href="#ArialMT-47"/>
     <use x="850.341797" xlink:href="#ArialMT-32"/>
     <use x="878.125" xlink:href="#ArialMT-105"/>
     <use x="900.341797" xlink:href="#ArialMT-110"/>
     <use x="955.957031" xlink:href="#ArialMT-99"/>
     <use x="1005.957031" xlink:href="#ArialMT-111"/>
     <use x="1061.572266" xlink:href="#ArialMT-109"/>
     <use x="1144.873047" xlink:href="#ArialMT-101"/>
     <use x="1200.488281" xlink:href="#ArialMT-32"/>
     <use x="1228.271484" xlink:href="#ArialMT-105"/>
     <use x="1250.488281" xlink:href="#ArialMT-110"/>
     <use x="1306.103516" xlink:href="#ArialMT-32"/>
     <use x="1333.886719" xlink:href="#ArialMT-80"/>
     <use x="1400.585938" xlink:href="#ArialMT-114"/>
     <use x="1433.886719" xlink:href="#ArialMT-111"/>
     <use x="1489.501953" xlink:href="#ArialMT-102"/>
     <use x="1517.285156" xlink:href="#ArialMT-105"/>
     <use x="1539.501953" xlink:href="#ArialMT-108"/>
     <use x="1561.71875" xlink:href="#ArialMT-101"/>
     <use x="1617.333984" xlink:href="#ArialMT-32"/>
     <use x="1645.117188" xlink:href="#ArialMT-100"/>
     <use x="1700.732422" xlink:href="#ArialMT-97"/>
     <use x="1756.347656" xlink:href="#ArialMT-116"/>
     <use x="1784.130859" xlink:href="#ArialMT-97"/>
     <use x="1839.746094" xlink:href="#ArialMT-115"/>
     <use x="1889.746094" xlink:href="#ArialMT-101"/>
     <use x="1945.361328" xlink:href="#ArialMT-116"/>
    </g>
   </g>
  </g>
  <g id="axes_2">
   <g id="patch_27">
    <path d="M 788.727273 315 
L 1296 315 
L 1296 43.2 
L 788.727273 43.2 
z
" style="fill:#ffffff;"/>
   </g>
   <g id="matplotlib.axis_3">
    <g id="xtick_11">
     <g id="line2d_21">
      <path clip-path="url(#p206d5d2155)" d="M 788.727273 315 
L 788.727273 43.2 
" style="fill:none;stroke:#cccccc;stroke-linecap:round;"/>
     </g>
     <g id="text_23">
      <!-- 0 -->
      <g style="fill:#262626;" transform="translate(785.668757 332.373594)scale(0.11 -0.11)">
       <use xlink:href="#ArialMT-48"/>
      </g>
     </g>
    </g>
    <g id="xtick_12">
     <g id="line2d_22">
      <path clip-path="url(#p206d5d2155)" d="M 837.62103 315 
L 837.62103 43.2 
" style="fill:none;stroke:#cccccc;stroke-linecap:round;"/>
     </g>
     <g id="text_24">
      <!-- 12000 -->
      <g style="fill:#262626;" transform="translate(822.328451 332.373594)scale(0.11 -0.11)">
       <use xlink:href="#ArialMT-49"/>
       <use x="55.615234" xlink:href="#ArialMT-50"/>
       <use x="111.230469" xlink:href="#ArialMT-48"/>
       <use x="166.845703" xlink:href="#ArialMT-48"/>
       <use x="222.460938" xlink:href="#ArialMT-48"/>
      </g>
     </g>
    </g>
    <g id="xtick_13">
     <g id="line2d_23">
      <path clip-path="url(#p206d5d2155)" d="M 886.514786 315 
L 886.514786 43.2 
" style="fill:none;stroke:#cccccc;stroke-linecap:round;"/>
     </g>
     <g id="text_25">
      <!-- 24000 -->
      <g style="fill:#262626;" transform="translate(871.222208 332.373594)scale(0.11 -0.11)">
       <use xlink:href="#ArialMT-50"/>
       <use x="55.615234" xlink:href="#ArialMT-52"/>
       <use x="111.230469" xlink:href="#ArialMT-48"/>
       <use x="166.845703" xlink:href="#ArialMT-48"/>
       <use x="222.460938" xlink:href="#ArialMT-48"/>
      </g>
     </g>
    </g>
    <g id="xtick_14">
     <g id="line2d_24">
      <path clip-path="url(#p206d5d2155)" d="M 935.408543 315 
L 935.408543 43.2 
" style="fill:none;stroke:#cccccc;stroke-linecap:round;"/>
     </g>
     <g id="text_26">
      <!-- 36000 -->
      <g style="fill:#262626;" transform="translate(920.115965 332.373594)scale(0.11 -0.11)">
       <use xlink:href="#ArialMT-51"/>
       <use x="55.615234" xlink:href="#ArialMT-54"/>
       <use x="111.230469" xlink:href="#ArialMT-48"/>
       <use x="166.845703" xlink:href="#ArialMT-48"/>
       <use x="222.460938" xlink:href="#ArialMT-48"/>
      </g>
     </g>
    </g>
    <g id="xtick_15">
     <g id="line2d_25">
      <path clip-path="url(#p206d5d2155)" d="M 984.3023 315 
L 984.3023 43.2 
" style="fill:none;stroke:#cccccc;stroke-linecap:round;"/>
     </g>
     <g id="text_27">
      <!-- 48000 -->
      <g style="fill:#262626;" transform="translate(969.009722 332.373594)scale(0.11 -0.11)">
       <use xlink:href="#ArialMT-52"/>
       <use x="55.615234" xlink:href="#ArialMT-56"/>
       <use x="111.230469" xlink:href="#ArialMT-48"/>
       <use x="166.845703" xlink:href="#ArialMT-48"/>
       <use x="222.460938" xlink:href="#ArialMT-48"/>
      </g>
     </g>
    </g>
    <g id="xtick_16">
     <g id="line2d_26">
      <path clip-path="url(#p206d5d2155)" d="M 1033.196057 315 
L 1033.196057 43.2 
" style="fill:none;stroke:#cccccc;stroke-linecap:round;"/>
     </g>
     <g id="text_28">
      <!-- 60000 -->
      <g style="fill:#262626;" transform="translate(1017.903479 332.373594)scale(0.11 -0.11)">
       <use xlink:href="#ArialMT-54"/>
       <use x="55.615234" xlink:href="#ArialMT-48"/>
       <use x="111.230469" xlink:href="#ArialMT-48"/>
       <use x="166.845703" xlink:href="#ArialMT-48"/>
       <use x="222.460938" xlink:href="#ArialMT-48"/>
      </g>
     </g>
    </g>
    <g id="xtick_17">
     <g id="line2d_27">
      <path clip-path="url(#p206d5d2155)" d="M 1082.089814 315 
L 1082.089814 43.2 
" style="fill:none;stroke:#cccccc;stroke-linecap:round;"/>
     </g>
     <g id="text_29">
      <!-- 72000 -->
      <g style="fill:#262626;" transform="translate(1066.797236 332.373594)scale(0.11 -0.11)">
       <use xlink:href="#ArialMT-55"/>
       <use x="55.615234" xlink:href="#ArialMT-50"/>
       <use x="111.230469" xlink:href="#ArialMT-48"/>
       <use x="166.845703" xlink:href="#ArialMT-48"/>
       <use x="222.460938" xlink:href="#ArialMT-48"/>
      </g>
     </g>
    </g>
    <g id="xtick_18">
     <g id="line2d_28">
      <path clip-path="url(#p206d5d2155)" d="M 1130.983571 315 
L 1130.983571 43.2 
" style="fill:none;stroke:#cccccc;stroke-linecap:round;"/>
     </g>
     <g id="text_30">
      <!-- 84000 -->
      <g style="fill:#262626;" transform="translate(1115.690993 332.373594)scale(0.11 -0.11)">
       <use xlink:href="#ArialMT-56"/>
       <use x="55.615234" xlink:href="#ArialMT-52"/>
       <use x="111.230469" xlink:href="#ArialMT-48"/>
       <use x="166.845703" xlink:href="#ArialMT-48"/>
       <use x="222.460938" xlink:href="#ArialMT-48"/>
      </g>
     </g>
    </g>
    <g id="xtick_19">
     <g id="line2d_29">
      <path clip-path="url(#p206d5d2155)" d="M 1179.877327 315 
L 1179.877327 43.2 
" style="fill:none;stroke:#cccccc;stroke-linecap:round;"/>
     </g>
     <g id="text_31">
      <!-- 96000 -->
      <g style="fill:#262626;" transform="translate(1164.584749 332.373594)scale(0.11 -0.11)">
       <use xlink:href="#ArialMT-57"/>
       <use x="55.615234" xlink:href="#ArialMT-54"/>
       <use x="111.230469" xlink:href="#ArialMT-48"/>
       <use x="166.845703" xlink:href="#ArialMT-48"/>
       <use x="222.460938" xlink:href="#ArialMT-48"/>
      </g>
     </g>
    </g>
    <g id="xtick_20">
     <g id="line2d_30">
      <path clip-path="url(#p206d5d2155)" d="M 1228.771084 315 
L 1228.771084 43.2 
" style="fill:none;stroke:#cccccc;stroke-linecap:round;"/>
     </g>
     <g id="text_32">
      <!-- 108000 -->
      <g style="fill:#262626;" transform="translate(1210.419991 332.373594)scale(0.11 -0.11)">
       <use xlink:href="#ArialMT-49"/>
       <use x="55.615234" xlink:href="#ArialMT-48"/>
       <use x="111.230469" xlink:href="#ArialMT-56"/>
       <use x="166.845703" xlink:href="#ArialMT-48"/>
       <use x="222.460938" xlink:href="#ArialMT-48"/>
       <use x="278.076172" xlink:href="#ArialMT-48"/>
      </g>
     </g>
    </g>
    <g id="text_33">
     <!-- income -->
     <g style="fill:#262626;" transform="translate(1023.023011 347.149219)scale(0.12 -0.12)">
      <use xlink:href="#ArialMT-105"/>
      <use x="22.216797" xlink:href="#ArialMT-110"/>
      <use x="77.832031" xlink:href="#ArialMT-99"/>
      <use x="127.832031" xlink:href="#ArialMT-111"/>
      <use x="183.447266" xlink:href="#ArialMT-109"/>
      <use x="266.748047" xlink:href="#ArialMT-101"/>
     </g>
    </g>
   </g>
   <g id="matplotlib.axis_4">
    <g id="ytick_10">
     <g id="line2d_31">
      <path clip-path="url(#p206d5d2155)" d="M 788.727273 315 
L 1296 315 
" style="fill:none;stroke:#cccccc;stroke-linecap:round;"/>
     </g>
    </g>
    <g id="ytick_11">
     <g id="line2d_32">
      <path clip-path="url(#p206d5d2155)" d="M 788.727273 281.338473 
L 1296 281.338473 
" style="fill:none;stroke:#cccccc;stroke-linecap:round;"/>
     </g>
    </g>
    <g id="ytick_12">
     <g id="line2d_33">
      <path clip-path="url(#p206d5d2155)" d="M 788.727273 247.676946 
L 1296 247.676946 
" style="fill:none;stroke:#cccccc;stroke-linecap:round;"/>
     </g>
    </g>
    <g id="ytick_13">
     <g id="line2d_34">
      <path clip-path="url(#p206d5d2155)" d="M 788.727273 214.015419 
L 1296 214.015419 
" style="fill:none;stroke:#cccccc;stroke-linecap:round;"/>
     </g>
    </g>
    <g id="ytick_14">
     <g id="line2d_35">
      <path clip-path="url(#p206d5d2155)" d="M 788.727273 180.353892 
L 1296 180.353892 
" style="fill:none;stroke:#cccccc;stroke-linecap:round;"/>
     </g>
    </g>
    <g id="ytick_15">
     <g id="line2d_36">
      <path clip-path="url(#p206d5d2155)" d="M 788.727273 146.692365 
L 1296 146.692365 
" style="fill:none;stroke:#cccccc;stroke-linecap:round;"/>
     </g>
    </g>
    <g id="ytick_16">
     <g id="line2d_37">
      <path clip-path="url(#p206d5d2155)" d="M 788.727273 113.030838 
L 1296 113.030838 
" style="fill:none;stroke:#cccccc;stroke-linecap:round;"/>
     </g>
    </g>
    <g id="ytick_17">
     <g id="line2d_38">
      <path clip-path="url(#p206d5d2155)" d="M 788.727273 79.369311 
L 1296 79.369311 
" style="fill:none;stroke:#cccccc;stroke-linecap:round;"/>
     </g>
    </g>
    <g id="ytick_18">
     <g id="line2d_39">
      <path clip-path="url(#p206d5d2155)" d="M 788.727273 45.707784 
L 1296 45.707784 
" style="fill:none;stroke:#cccccc;stroke-linecap:round;"/>
     </g>
    </g>
   </g>
   <g id="patch_28">
    <path clip-path="url(#p206d5d2155)" d="M 910.961665 315 
L 929.296824 315 
L 929.296824 95.526844 
L 910.961665 95.526844 
z
" style="fill:#4c72b0;fill-opacity:0.5;"/>
   </g>
   <g id="patch_29">
    <path clip-path="url(#p206d5d2155)" d="M 929.296824 315 
L 947.631982 315 
L 947.631982 128.51514 
L 929.296824 128.51514 
z
" style="fill:#4c72b0;fill-opacity:0.5;"/>
   </g>
   <g id="patch_30">
    <path clip-path="url(#p206d5d2155)" d="M 947.631982 315 
L 965.967141 315 
L 965.967141 91.487461 
L 947.631982 91.487461 
z
" style="fill:#4c72b0;fill-opacity:0.5;"/>
   </g>
   <g id="patch_31">
    <path clip-path="url(#p206d5d2155)" d="M 965.967141 315 
L 984.3023 315 
L 984.3023 133.227754 
L 965.967141 133.227754 
z
" style="fill:#4c72b0;fill-opacity:0.5;"/>
   </g>
   <g id="patch_32">
    <path clip-path="url(#p206d5d2155)" d="M 984.3023 315 
L 1002.637459 315 
L 1002.637459 58.835779 
L 984.3023 58.835779 
z
" style="fill:#4c72b0;fill-opacity:0.5;"/>
   </g>
   <g id="patch_33">
    <path clip-path="url(#p206d5d2155)" d="M 1002.637459 315 
L 1020.972618 315 
L 1020.972618 85.428386 
L 1002.637459 85.428386 
z
" style="fill:#4c72b0;fill-opacity:0.5;"/>
   </g>
   <g id="patch_34">
    <path clip-path="url(#p206d5d2155)" d="M 1020.972618 315 
L 1039.307777 315 
L 1039.307777 56.142857 
L 1020.972618 56.142857 
z
" style="fill:#4c72b0;fill-opacity:0.5;"/>
   </g>
   <g id="patch_35">
    <path clip-path="url(#p206d5d2155)" d="M 1039.307777 315 
L 1057.642935 315 
L 1057.642935 121.44622 
L 1039.307777 121.44622 
z
" style="fill:#4c72b0;fill-opacity:0.5;"/>
   </g>
   <g id="patch_36">
    <path clip-path="url(#p206d5d2155)" d="M 1057.642935 315 
L 1075.978094 315 
L 1075.978094 68.597622 
L 1057.642935 68.597622 
z
" style="fill:#4c72b0;fill-opacity:0.5;"/>
   </g>
   <g id="patch_37">
    <path clip-path="url(#p206d5d2155)" d="M 1075.978094 315 
L 1094.313253 315 
L 1094.313253 94.853613 
L 1075.978094 94.853613 
z
" style="fill:#4c72b0;fill-opacity:0.5;"/>
   </g>
   <g id="patch_38">
    <path clip-path="url(#p206d5d2155)" d="M 1094.313253 315 
L 1112.648412 315 
L 1112.648412 180.690507 
L 1094.313253 180.690507 
z
" style="fill:#4c72b0;fill-opacity:0.5;"/>
   </g>
   <g id="patch_39">
    <path clip-path="url(#p206d5d2155)" d="M 1112.648412 315 
L 1130.983571 315 
L 1130.983571 234.885566 
L 1112.648412 234.885566 
z
" style="fill:#4c72b0;fill-opacity:0.5;"/>
   </g>
   <g id="patch_40">
    <path clip-path="url(#p206d5d2155)" d="M 1130.983571 315 
L 1149.318729 315 
L 1149.318729 217.381572 
L 1130.983571 217.381572 
z
" style="fill:#4c72b0;fill-opacity:0.5;"/>
   </g>
   <g id="patch_41">
    <path clip-path="url(#p206d5d2155)" d="M 1149.318729 315 
L 1167.653888 315 
L 1167.653888 232.192644 
L 1149.318729 232.192644 
z
" style="fill:#4c72b0;fill-opacity:0.5;"/>
   </g>
   <g id="patch_42">
    <path clip-path="url(#p206d5d2155)" d="M 1167.653888 315 
L 1185.989047 315 
L 1185.989047 222.094185 
L 1167.653888 222.094185 
z
" style="fill:#4c72b0;fill-opacity:0.5;"/>
   </g>
   <g id="patch_43">
    <path clip-path="url(#p206d5d2155)" d="M 1185.989047 315 
L 1204.324206 315 
L 1204.324206 267.537247 
L 1185.989047 267.537247 
z
" style="fill:#4c72b0;fill-opacity:0.5;"/>
   </g>
   <g id="patch_44">
    <path clip-path="url(#p206d5d2155)" d="M 1204.324206 315 
L 1222.659365 315 
L 1222.659365 283.358165 
L 1204.324206 283.358165 
z
" style="fill:#4c72b0;fill-opacity:0.5;"/>
   </g>
   <g id="patch_45">
    <path clip-path="url(#p206d5d2155)" d="M 1222.659365 315 
L 1240.994524 315 
L 1240.994524 295.139699 
L 1222.659365 295.139699 
z
" style="fill:#4c72b0;fill-opacity:0.5;"/>
   </g>
   <g id="patch_46">
    <path clip-path="url(#p206d5d2155)" d="M 1240.994524 315 
L 1259.329682 315 
L 1259.329682 286.387702 
L 1240.994524 286.387702 
z
" style="fill:#4c72b0;fill-opacity:0.5;"/>
   </g>
   <g id="patch_47">
    <path clip-path="url(#p206d5d2155)" d="M 1259.329682 315 
L 1277.664841 315 
L 1277.664841 290.427085 
L 1259.329682 290.427085 
z
" style="fill:#4c72b0;fill-opacity:0.5;"/>
   </g>
   <g id="line2d_40">
    <path clip-path="url(#p206d5d2155)" d="M 910.961665 206.037182 
L 914.647124 182.578201 
L 918.332583 160.986841 
L 920.175312 151.353343 
L 922.018042 142.668308 
L 923.860772 135.007596 
L 925.703501 128.402919 
L 927.546231 122.845121 
L 929.38896 118.29006 
L 931.23169 114.666253 
L 933.074419 111.883318 
L 934.917149 109.840316 
L 936.759878 108.433198 
L 938.602608 107.560775 
L 940.445337 107.12893 
L 942.288067 107.052991 
L 944.130796 107.258479 
L 945.973526 107.680552 
L 949.658985 108.9546 
L 957.029903 111.960658 
L 958.872633 112.579068 
L 960.715362 113.074878 
L 962.558092 113.417728 
L 964.400821 113.580055 
L 966.243551 113.537066 
L 968.08628 113.266505 
L 969.92901 112.748364 
L 971.771739 111.964684 
L 973.614469 110.899686 
L 975.457198 109.540387 
L 977.299928 107.877798 
L 979.142657 105.908674 
L 980.985387 103.637637 
L 982.828116 101.079388 
L 984.670846 98.260612 
L 988.356305 92.014475 
L 995.727223 78.956785 
L 997.569953 76.04263 
L 999.412682 73.426252 
L 1001.255412 71.171233 
L 1003.098141 69.326672 
L 1004.940871 67.925164 
L 1006.7836 66.982042 
L 1008.62633 66.495827 
L 1010.469059 66.449699 
L 1012.311789 66.813722 
L 1014.154518 67.547536 
L 1015.997248 68.603215 
L 1017.839978 69.928081 
L 1019.682707 71.467276 
L 1023.368166 74.971356 
L 1030.739084 82.338116 
L 1034.424543 85.607403 
L 1036.267273 87.051375 
L 1038.110002 88.34864 
L 1039.952732 89.489849 
L 1041.795461 90.469203 
L 1043.638191 91.283846 
L 1045.48092 91.933311 
L 1047.32365 92.419071 
L 1049.16638 92.744279 
L 1051.009109 92.91374 
L 1052.851839 92.934185 
L 1054.694568 92.814903 
L 1058.380027 92.213406 
L 1062.065486 91.280463 
L 1065.750945 90.318143 
L 1067.593675 89.967131 
L 1069.436404 89.80109 
L 1071.279134 89.906227 
L 1073.121863 90.375491 
L 1074.964593 91.304227 
L 1076.807322 92.784623 
L 1078.650052 94.899316 
L 1080.492782 97.714686 
L 1082.335511 101.274475 
L 1084.178241 105.594454 
L 1086.02097 110.658773 
L 1087.8637 116.41854 
L 1089.706429 122.792926 
L 1093.391888 136.926945 
L 1100.762806 166.734845 
L 1104.448265 180.216889 
L 1106.290995 186.255685 
L 1108.133724 191.760507 
L 1109.976454 196.713398 
L 1111.819184 201.118089 
L 1113.661913 204.995848 
L 1115.504643 208.380874 
L 1117.347372 211.315749 
L 1119.190102 213.847313 
L 1121.032831 216.023244 
L 1122.875561 217.889441 
L 1124.71829 219.488202 
L 1126.56102 220.857144 
L 1128.403749 222.028717 
L 1130.246479 223.030201 
L 1132.089208 223.884056 
L 1135.774667 225.218497 
L 1139.460126 226.142607 
L 1143.145586 226.74157 
L 1146.831045 227.101265 
L 1157.887422 227.83811 
L 1161.572881 228.375323 
L 1165.25834 229.252447 
L 1167.101069 229.854346 
L 1168.943799 230.586007 
L 1170.786528 231.46476 
L 1172.629258 232.509195 
L 1174.471988 233.738565 
L 1176.314717 235.171656 
L 1178.157447 236.825179 
L 1180.000176 238.711801 
L 1181.842906 240.838028 
L 1183.685635 243.202188 
L 1185.528365 245.792836 
L 1189.213824 251.554175 
L 1194.742012 261.016823 
L 1198.427471 267.242175 
L 1202.11293 272.900552 
L 1203.95566 275.415186 
L 1205.79839 277.686337 
L 1207.641119 279.702679 
L 1209.483849 281.463355 
L 1211.326578 282.976462 
L 1213.169308 284.257068 
L 1215.012037 285.325016 
L 1216.854767 286.202821 
L 1218.697496 286.913851 
L 1220.540226 287.480967 
L 1224.225685 288.267582 
L 1227.911144 288.713279 
L 1233.439332 289.014751 
L 1242.65298 289.399177 
L 1246.338439 289.745594 
L 1250.023898 290.277571 
L 1253.709357 291.02664 
L 1257.394816 292.026203 
L 1261.080275 293.317951 
L 1264.765734 294.94368 
L 1268.451194 296.922823 
L 1272.136653 299.225897 
L 1277.664841 303.065978 
L 1277.664841 303.065978 
" style="fill:none;stroke:#4c72b0;stroke-linecap:round;stroke-width:1.5;"/>
   </g>
   <g id="patch_48">
    <path d="M 788.727273 315 
L 788.727273 43.2 
" style="fill:none;stroke:#cccccc;stroke-linecap:square;stroke-linejoin:miter;stroke-width:1.25;"/>
   </g>
   <g id="patch_49">
    <path d="M 1296 315 
L 1296 43.2 
" style="fill:none;stroke:#cccccc;stroke-linecap:square;stroke-linejoin:miter;stroke-width:1.25;"/>
   </g>
   <g id="patch_50">
    <path d="M 788.727273 315 
L 1296 315 
" style="fill:none;stroke:#cccccc;stroke-linecap:square;stroke-linejoin:miter;stroke-width:1.25;"/>
   </g>
   <g id="patch_51">
    <path d="M 788.727273 43.2 
L 1296 43.2 
" style="fill:none;stroke:#cccccc;stroke-linecap:square;stroke-linejoin:miter;stroke-width:1.25;"/>
   </g>
   <g id="text_34">
    <!-- Number of male / income in Profile dataset -->
    <g style="fill:#262626;" transform="translate(928.986136 37.2)scale(0.12 -0.12)">
     <use xlink:href="#ArialMT-78"/>
     <use x="72.216797" xlink:href="#ArialMT-117"/>
     <use x="127.832031" xlink:href="#ArialMT-109"/>
     <use x="211.132812" xlink:href="#ArialMT-98"/>
     <use x="266.748047" xlink:href="#ArialMT-101"/>
     <use x="322.363281" xlink:href="#ArialMT-114"/>
     <use x="355.664062" xlink:href="#ArialMT-32"/>
     <use x="383.447266" xlink:href="#ArialMT-111"/>
     <use x="439.0625" xlink:href="#ArialMT-102"/>
     <use x="466.845703" xlink:href="#ArialMT-32"/>
     <use x="494.628906" xlink:href="#ArialMT-109"/>
     <use x="577.929688" xlink:href="#ArialMT-97"/>
     <use x="633.544922" xlink:href="#ArialMT-108"/>
     <use x="655.761719" xlink:href="#ArialMT-101"/>
     <use x="711.376953" xlink:href="#ArialMT-32"/>
     <use x="739.160156" xlink:href="#ArialMT-47"/>
     <use x="766.943359" xlink:href="#ArialMT-32"/>
     <use x="794.726562" xlink:href="#ArialMT-105"/>
     <use x="816.943359" xlink:href="#ArialMT-110"/>
     <use x="872.558594" xlink:href="#ArialMT-99"/>
     <use x="922.558594" xlink:href="#ArialMT-111"/>
     <use x="978.173828" xlink:href="#ArialMT-109"/>
     <use x="1061.474609" xlink:href="#ArialMT-101"/>
     <use x="1117.089844" xlink:href="#ArialMT-32"/>
     <use x="1144.873047" xlink:href="#ArialMT-105"/>
     <use x="1167.089844" xlink:href="#ArialMT-110"/>
     <use x="1222.705078" xlink:href="#ArialMT-32"/>
     <use x="1250.488281" xlink:href="#ArialMT-80"/>
     <use x="1317.1875" xlink:href="#ArialMT-114"/>
     <use x="1350.488281" xlink:href="#ArialMT-111"/>
     <use x="1406.103516" xlink:href="#ArialMT-102"/>
     <use x="1433.886719" xlink:href="#ArialMT-105"/>
     <use x="1456.103516" xlink:href="#ArialMT-108"/>
     <use x="1478.320312" xlink:href="#ArialMT-101"/>
     <use x="1533.935547" xlink:href="#ArialMT-32"/>
     <use x="1561.71875" xlink:href="#ArialMT-100"/>
     <use x="1617.333984" xlink:href="#ArialMT-97"/>
     <use x="1672.949219" xlink:href="#ArialMT-116"/>
     <use x="1700.732422" xlink:href="#ArialMT-97"/>
     <use x="1756.347656" xlink:href="#ArialMT-115"/>
     <use x="1806.347656" xlink:href="#ArialMT-101"/>
     <use x="1861.962891" xlink:href="#ArialMT-116"/>
    </g>
   </g>
  </g>
 </g>
 <defs>
  <clipPath id="pce9d29fbcc">
   <rect height="271.8" width="507.272727" x="180" y="43.2"/>
  </clipPath>
  <clipPath id="p206d5d2155">
   <rect height="271.8" width="507.272727" x="788.727273" y="43.2"/>
  </clipPath>
 </defs>
</svg>
