<?xml version="1.0" encoding="utf-8" standalone="no"?>
<!DOCTYPE svg PUBLIC "-//W3C//DTD SVG 1.1//EN"
  "http://www.w3.org/Graphics/SVG/1.1/DTD/svg11.dtd">
<svg xmlns:xlink="http://www.w3.org/1999/xlink" width="1440pt" height="360pt" viewBox="0 0 1440 360" xmlns="http://www.w3.org/2000/svg" version="1.1">
 <metadata>
  <rdf:RDF xmlns:dc="http://purl.org/dc/elements/1.1/" xmlns:cc="http://creativecommons.org/ns#" xmlns:rdf="http://www.w3.org/1999/02/22-rdf-syntax-ns#">
   <cc:Work>
    <dc:type rdf:resource="http://purl.org/dc/dcmitype/StillImage"/>
    <dc:date>2021-11-20T13:17:01.986996</dc:date>
    <dc:format>image/svg+xml</dc:format>
    <dc:creator>
     <cc:Agent>
      <dc:title>Matplotlib v3.5.0, https://matplotlib.org/</dc:title>
     </cc:Agent>
    </dc:creator>
   </cc:Work>
  </rdf:RDF>
 </metadata>
 <defs>
  <style type="text/css">*{stroke-linejoin: round; stroke-linecap: butt}</style>
 </defs>
 <g id="figure_1">
  <g id="patch_1">
   <path d="M 0 360 
L 1440 360 
L 1440 0 
L 0 0 
z
" style="fill: #ffffff"/>
  </g>
  <g id="axes_1">
   <g id="patch_2">
    <path d="M 180 315 
L 687.272727 315 
L 687.272727 43.2 
L 180 43.2 
z
" style="fill: #ffffff"/>
   </g>
   <g id="matplotlib.axis_1">
    <g id="xtick_1">
     <g id="line2d_1">
      <path d="M 180 315 
L 180 43.2 
" clip-path="url(#p6ded19fe6a)" style="fill: none; stroke: #cccccc; stroke-linecap: round"/>
     </g>
     <g id="text_1">
      <!-- 0 -->
      <g style="fill: #262626" transform="translate(176.941484 332.373594)scale(0.11 -0.11)">
       <defs>
        <path id="ArialMT-30" d="M 266 2259 
Q 266 3072 433 3567 
Q 600 4063 929 4331 
Q 1259 4600 1759 4600 
Q 2128 4600 2406 4451 
Q 2684 4303 2865 4023 
Q 3047 3744 3150 3342 
Q 3253 2941 3253 2259 
Q 3253 1453 3087 958 
Q 2922 463 2592 192 
Q 2263 -78 1759 -78 
Q 1097 -78 719 397 
Q 266 969 266 2259 
z
M 844 2259 
Q 844 1131 1108 757 
Q 1372 384 1759 384 
Q 2147 384 2411 759 
Q 2675 1134 2675 2259 
Q 2675 3391 2411 3762 
Q 2147 4134 1753 4134 
Q 1366 4134 1134 3806 
Q 844 3388 844 2259 
z
" transform="scale(0.015625)"/>
       </defs>
       <use xlink:href="#ArialMT-30"/>
      </g>
     </g>
    </g>
    <g id="xtick_2">
     <g id="line2d_2">
      <path d="M 228.893757 315 
L 228.893757 43.2 
" clip-path="url(#p6ded19fe6a)" style="fill: none; stroke: #cccccc; stroke-linecap: round"/>
     </g>
     <g id="text_2">
      <!-- 12000 -->
      <g style="fill: #262626" transform="translate(213.601179 332.373594)scale(0.11 -0.11)">
       <defs>
        <path id="ArialMT-31" d="M 2384 0 
L 1822 0 
L 1822 3584 
Q 1619 3391 1289 3197 
Q 959 3003 697 2906 
L 697 3450 
Q 1169 3672 1522 3987 
Q 1875 4303 2022 4600 
L 2384 4600 
L 2384 0 
z
" transform="scale(0.015625)"/>
        <path id="ArialMT-32" d="M 3222 541 
L 3222 0 
L 194 0 
Q 188 203 259 391 
Q 375 700 629 1000 
Q 884 1300 1366 1694 
Q 2113 2306 2375 2664 
Q 2638 3022 2638 3341 
Q 2638 3675 2398 3904 
Q 2159 4134 1775 4134 
Q 1369 4134 1125 3890 
Q 881 3647 878 3216 
L 300 3275 
Q 359 3922 746 4261 
Q 1134 4600 1788 4600 
Q 2447 4600 2831 4234 
Q 3216 3869 3216 3328 
Q 3216 3053 3103 2787 
Q 2991 2522 2730 2228 
Q 2469 1934 1863 1422 
Q 1356 997 1212 845 
Q 1069 694 975 541 
L 3222 541 
z
" transform="scale(0.015625)"/>
       </defs>
       <use xlink:href="#ArialMT-31"/>
       <use xlink:href="#ArialMT-32" x="55.615234"/>
       <use xlink:href="#ArialMT-30" x="111.230469"/>
       <use xlink:href="#ArialMT-30" x="166.845703"/>
       <use xlink:href="#ArialMT-30" x="222.460938"/>
      </g>
     </g>
    </g>
    <g id="xtick_3">
     <g id="line2d_3">
      <path d="M 277.787514 315 
L 277.787514 43.2 
" clip-path="url(#p6ded19fe6a)" style="fill: none; stroke: #cccccc; stroke-linecap: round"/>
     </g>
     <g id="text_3">
      <!-- 24000 -->
      <g style="fill: #262626" transform="translate(262.494936 332.373594)scale(0.11 -0.11)">
       <defs>
        <path id="ArialMT-34" d="M 2069 0 
L 2069 1097 
L 81 1097 
L 81 1613 
L 2172 4581 
L 2631 4581 
L 2631 1613 
L 3250 1613 
L 3250 1097 
L 2631 1097 
L 2631 0 
L 2069 0 
z
M 2069 1613 
L 2069 3678 
L 634 1613 
L 2069 1613 
z
" transform="scale(0.015625)"/>
       </defs>
       <use xlink:href="#ArialMT-32"/>
       <use xlink:href="#ArialMT-34" x="55.615234"/>
       <use xlink:href="#ArialMT-30" x="111.230469"/>
       <use xlink:href="#ArialMT-30" x="166.845703"/>
       <use xlink:href="#ArialMT-30" x="222.460938"/>
      </g>
     </g>
    </g>
    <g id="xtick_4">
     <g id="line2d_4">
      <path d="M 326.681271 315 
L 326.681271 43.2 
" clip-path="url(#p6ded19fe6a)" style="fill: none; stroke: #cccccc; stroke-linecap: round"/>
     </g>
     <g id="text_4">
      <!-- 36000 -->
      <g style="fill: #262626" transform="translate(311.388692 332.373594)scale(0.11 -0.11)">
       <defs>
        <path id="ArialMT-33" d="M 269 1209 
L 831 1284 
Q 928 806 1161 595 
Q 1394 384 1728 384 
Q 2125 384 2398 659 
Q 2672 934 2672 1341 
Q 2672 1728 2419 1979 
Q 2166 2231 1775 2231 
Q 1616 2231 1378 2169 
L 1441 2663 
Q 1497 2656 1531 2656 
Q 1891 2656 2178 2843 
Q 2466 3031 2466 3422 
Q 2466 3731 2256 3934 
Q 2047 4138 1716 4138 
Q 1388 4138 1169 3931 
Q 950 3725 888 3313 
L 325 3413 
Q 428 3978 793 4289 
Q 1159 4600 1703 4600 
Q 2078 4600 2393 4439 
Q 2709 4278 2876 4000 
Q 3044 3722 3044 3409 
Q 3044 3113 2884 2869 
Q 2725 2625 2413 2481 
Q 2819 2388 3044 2092 
Q 3269 1797 3269 1353 
Q 3269 753 2831 336 
Q 2394 -81 1725 -81 
Q 1122 -81 723 278 
Q 325 638 269 1209 
z
" transform="scale(0.015625)"/>
        <path id="ArialMT-36" d="M 3184 3459 
L 2625 3416 
Q 2550 3747 2413 3897 
Q 2184 4138 1850 4138 
Q 1581 4138 1378 3988 
Q 1113 3794 959 3422 
Q 806 3050 800 2363 
Q 1003 2672 1297 2822 
Q 1591 2972 1913 2972 
Q 2475 2972 2870 2558 
Q 3266 2144 3266 1488 
Q 3266 1056 3080 686 
Q 2894 316 2569 119 
Q 2244 -78 1831 -78 
Q 1128 -78 684 439 
Q 241 956 241 2144 
Q 241 3472 731 4075 
Q 1159 4600 1884 4600 
Q 2425 4600 2770 4297 
Q 3116 3994 3184 3459 
z
M 888 1484 
Q 888 1194 1011 928 
Q 1134 663 1356 523 
Q 1578 384 1822 384 
Q 2178 384 2434 671 
Q 2691 959 2691 1453 
Q 2691 1928 2437 2201 
Q 2184 2475 1800 2475 
Q 1419 2475 1153 2201 
Q 888 1928 888 1484 
z
" transform="scale(0.015625)"/>
       </defs>
       <use xlink:href="#ArialMT-33"/>
       <use xlink:href="#ArialMT-36" x="55.615234"/>
       <use xlink:href="#ArialMT-30" x="111.230469"/>
       <use xlink:href="#ArialMT-30" x="166.845703"/>
       <use xlink:href="#ArialMT-30" x="222.460938"/>
      </g>
     </g>
    </g>
    <g id="xtick_5">
     <g id="line2d_5">
      <path d="M 375.575027 315 
L 375.575027 43.2 
" clip-path="url(#p6ded19fe6a)" style="fill: none; stroke: #cccccc; stroke-linecap: round"/>
     </g>
     <g id="text_5">
      <!-- 48000 -->
      <g style="fill: #262626" transform="translate(360.282449 332.373594)scale(0.11 -0.11)">
       <defs>
        <path id="ArialMT-38" d="M 1131 2484 
Q 781 2613 612 2850 
Q 444 3088 444 3419 
Q 444 3919 803 4259 
Q 1163 4600 1759 4600 
Q 2359 4600 2725 4251 
Q 3091 3903 3091 3403 
Q 3091 3084 2923 2848 
Q 2756 2613 2416 2484 
Q 2838 2347 3058 2040 
Q 3278 1734 3278 1309 
Q 3278 722 2862 322 
Q 2447 -78 1769 -78 
Q 1091 -78 675 323 
Q 259 725 259 1325 
Q 259 1772 486 2073 
Q 713 2375 1131 2484 
z
M 1019 3438 
Q 1019 3113 1228 2906 
Q 1438 2700 1772 2700 
Q 2097 2700 2305 2904 
Q 2513 3109 2513 3406 
Q 2513 3716 2298 3927 
Q 2084 4138 1766 4138 
Q 1444 4138 1231 3931 
Q 1019 3725 1019 3438 
z
M 838 1322 
Q 838 1081 952 856 
Q 1066 631 1291 507 
Q 1516 384 1775 384 
Q 2178 384 2440 643 
Q 2703 903 2703 1303 
Q 2703 1709 2433 1975 
Q 2163 2241 1756 2241 
Q 1359 2241 1098 1978 
Q 838 1716 838 1322 
z
" transform="scale(0.015625)"/>
       </defs>
       <use xlink:href="#ArialMT-34"/>
       <use xlink:href="#ArialMT-38" x="55.615234"/>
       <use xlink:href="#ArialMT-30" x="111.230469"/>
       <use xlink:href="#ArialMT-30" x="166.845703"/>
       <use xlink:href="#ArialMT-30" x="222.460938"/>
      </g>
     </g>
    </g>
    <g id="xtick_6">
     <g id="line2d_6">
      <path d="M 424.468784 315 
L 424.468784 43.2 
" clip-path="url(#p6ded19fe6a)" style="fill: none; stroke: #cccccc; stroke-linecap: round"/>
     </g>
     <g id="text_6">
      <!-- 60000 -->
      <g style="fill: #262626" transform="translate(409.176206 332.373594)scale(0.11 -0.11)">
       <use xlink:href="#ArialMT-36"/>
       <use xlink:href="#ArialMT-30" x="55.615234"/>
       <use xlink:href="#ArialMT-30" x="111.230469"/>
       <use xlink:href="#ArialMT-30" x="166.845703"/>
       <use xlink:href="#ArialMT-30" x="222.460938"/>
      </g>
     </g>
    </g>
    <g id="xtick_7">
     <g id="line2d_7">
      <path d="M 473.362541 315 
L 473.362541 43.2 
" clip-path="url(#p6ded19fe6a)" style="fill: none; stroke: #cccccc; stroke-linecap: round"/>
     </g>
     <g id="text_7">
      <!-- 72000 -->
      <g style="fill: #262626" transform="translate(458.069963 332.373594)scale(0.11 -0.11)">
       <defs>
        <path id="ArialMT-37" d="M 303 3981 
L 303 4522 
L 3269 4522 
L 3269 4084 
Q 2831 3619 2401 2847 
Q 1972 2075 1738 1259 
Q 1569 684 1522 0 
L 944 0 
Q 953 541 1156 1306 
Q 1359 2072 1739 2783 
Q 2119 3494 2547 3981 
L 303 3981 
z
" transform="scale(0.015625)"/>
       </defs>
       <use xlink:href="#ArialMT-37"/>
       <use xlink:href="#ArialMT-32" x="55.615234"/>
       <use xlink:href="#ArialMT-30" x="111.230469"/>
       <use xlink:href="#ArialMT-30" x="166.845703"/>
       <use xlink:href="#ArialMT-30" x="222.460938"/>
      </g>
     </g>
    </g>
    <g id="xtick_8">
     <g id="line2d_8">
      <path d="M 522.256298 315 
L 522.256298 43.2 
" clip-path="url(#p6ded19fe6a)" style="fill: none; stroke: #cccccc; stroke-linecap: round"/>
     </g>
     <g id="text_8">
      <!-- 84000 -->
      <g style="fill: #262626" transform="translate(506.96372 332.373594)scale(0.11 -0.11)">
       <use xlink:href="#ArialMT-38"/>
       <use xlink:href="#ArialMT-34" x="55.615234"/>
       <use xlink:href="#ArialMT-30" x="111.230469"/>
       <use xlink:href="#ArialMT-30" x="166.845703"/>
       <use xlink:href="#ArialMT-30" x="222.460938"/>
      </g>
     </g>
    </g>
    <g id="xtick_9">
     <g id="line2d_9">
      <path d="M 571.150055 315 
L 571.150055 43.2 
" clip-path="url(#p6ded19fe6a)" style="fill: none; stroke: #cccccc; stroke-linecap: round"/>
     </g>
     <g id="text_9">
      <!-- 96000 -->
      <g style="fill: #262626" transform="translate(555.857477 332.373594)scale(0.11 -0.11)">
       <defs>
        <path id="ArialMT-39" d="M 350 1059 
L 891 1109 
Q 959 728 1153 556 
Q 1347 384 1650 384 
Q 1909 384 2104 503 
Q 2300 622 2425 820 
Q 2550 1019 2634 1356 
Q 2719 1694 2719 2044 
Q 2719 2081 2716 2156 
Q 2547 1888 2255 1720 
Q 1963 1553 1622 1553 
Q 1053 1553 659 1965 
Q 266 2378 266 3053 
Q 266 3750 677 4175 
Q 1088 4600 1706 4600 
Q 2153 4600 2523 4359 
Q 2894 4119 3086 3673 
Q 3278 3228 3278 2384 
Q 3278 1506 3087 986 
Q 2897 466 2520 194 
Q 2144 -78 1638 -78 
Q 1100 -78 759 220 
Q 419 519 350 1059 
z
M 2653 3081 
Q 2653 3566 2395 3850 
Q 2138 4134 1775 4134 
Q 1400 4134 1122 3828 
Q 844 3522 844 3034 
Q 844 2597 1108 2323 
Q 1372 2050 1759 2050 
Q 2150 2050 2401 2323 
Q 2653 2597 2653 3081 
z
" transform="scale(0.015625)"/>
       </defs>
       <use xlink:href="#ArialMT-39"/>
       <use xlink:href="#ArialMT-36" x="55.615234"/>
       <use xlink:href="#ArialMT-30" x="111.230469"/>
       <use xlink:href="#ArialMT-30" x="166.845703"/>
       <use xlink:href="#ArialMT-30" x="222.460938"/>
      </g>
     </g>
    </g>
    <g id="xtick_10">
     <g id="line2d_10">
      <path d="M 620.043812 315 
L 620.043812 43.2 
" clip-path="url(#p6ded19fe6a)" style="fill: none; stroke: #cccccc; stroke-linecap: round"/>
     </g>
     <g id="text_10">
      <!-- 108000 -->
      <g style="fill: #262626" transform="translate(601.692718 332.373594)scale(0.11 -0.11)">
       <use xlink:href="#ArialMT-31"/>
       <use xlink:href="#ArialMT-30" x="55.615234"/>
       <use xlink:href="#ArialMT-38" x="111.230469"/>
       <use xlink:href="#ArialMT-30" x="166.845703"/>
       <use xlink:href="#ArialMT-30" x="222.460938"/>
       <use xlink:href="#ArialMT-30" x="278.076172"/>
      </g>
     </g>
    </g>
    <g id="text_11">
     <!-- income -->
     <g style="fill: #262626" transform="translate(414.295739 347.149219)scale(0.12 -0.12)">
      <defs>
       <path id="ArialMT-69" d="M 425 3934 
L 425 4581 
L 988 4581 
L 988 3934 
L 425 3934 
z
M 425 0 
L 425 3319 
L 988 3319 
L 988 0 
L 425 0 
z
" transform="scale(0.015625)"/>
       <path id="ArialMT-6e" d="M 422 0 
L 422 3319 
L 928 3319 
L 928 2847 
Q 1294 3394 1984 3394 
Q 2284 3394 2536 3286 
Q 2788 3178 2913 3003 
Q 3038 2828 3088 2588 
Q 3119 2431 3119 2041 
L 3119 0 
L 2556 0 
L 2556 2019 
Q 2556 2363 2490 2533 
Q 2425 2703 2258 2804 
Q 2091 2906 1866 2906 
Q 1506 2906 1245 2678 
Q 984 2450 984 1813 
L 984 0 
L 422 0 
z
" transform="scale(0.015625)"/>
       <path id="ArialMT-63" d="M 2588 1216 
L 3141 1144 
Q 3050 572 2676 248 
Q 2303 -75 1759 -75 
Q 1078 -75 664 370 
Q 250 816 250 1647 
Q 250 2184 428 2587 
Q 606 2991 970 3192 
Q 1334 3394 1763 3394 
Q 2303 3394 2647 3120 
Q 2991 2847 3088 2344 
L 2541 2259 
Q 2463 2594 2264 2762 
Q 2066 2931 1784 2931 
Q 1359 2931 1093 2626 
Q 828 2322 828 1663 
Q 828 994 1084 691 
Q 1341 388 1753 388 
Q 2084 388 2306 591 
Q 2528 794 2588 1216 
z
" transform="scale(0.015625)"/>
       <path id="ArialMT-6f" d="M 213 1659 
Q 213 2581 725 3025 
Q 1153 3394 1769 3394 
Q 2453 3394 2887 2945 
Q 3322 2497 3322 1706 
Q 3322 1066 3130 698 
Q 2938 331 2570 128 
Q 2203 -75 1769 -75 
Q 1072 -75 642 372 
Q 213 819 213 1659 
z
M 791 1659 
Q 791 1022 1069 705 
Q 1347 388 1769 388 
Q 2188 388 2466 706 
Q 2744 1025 2744 1678 
Q 2744 2294 2464 2611 
Q 2184 2928 1769 2928 
Q 1347 2928 1069 2612 
Q 791 2297 791 1659 
z
" transform="scale(0.015625)"/>
       <path id="ArialMT-6d" d="M 422 0 
L 422 3319 
L 925 3319 
L 925 2853 
Q 1081 3097 1340 3245 
Q 1600 3394 1931 3394 
Q 2300 3394 2536 3241 
Q 2772 3088 2869 2813 
Q 3263 3394 3894 3394 
Q 4388 3394 4653 3120 
Q 4919 2847 4919 2278 
L 4919 0 
L 4359 0 
L 4359 2091 
Q 4359 2428 4304 2576 
Q 4250 2725 4106 2815 
Q 3963 2906 3769 2906 
Q 3419 2906 3187 2673 
Q 2956 2441 2956 1928 
L 2956 0 
L 2394 0 
L 2394 2156 
Q 2394 2531 2256 2718 
Q 2119 2906 1806 2906 
Q 1569 2906 1367 2781 
Q 1166 2656 1075 2415 
Q 984 2175 984 1722 
L 984 0 
L 422 0 
z
" transform="scale(0.015625)"/>
       <path id="ArialMT-65" d="M 2694 1069 
L 3275 997 
Q 3138 488 2766 206 
Q 2394 -75 1816 -75 
Q 1088 -75 661 373 
Q 234 822 234 1631 
Q 234 2469 665 2931 
Q 1097 3394 1784 3394 
Q 2450 3394 2872 2941 
Q 3294 2488 3294 1666 
Q 3294 1616 3291 1516 
L 816 1516 
Q 847 969 1125 678 
Q 1403 388 1819 388 
Q 2128 388 2347 550 
Q 2566 713 2694 1069 
z
M 847 1978 
L 2700 1978 
Q 2663 2397 2488 2606 
Q 2219 2931 1791 2931 
Q 1403 2931 1139 2672 
Q 875 2413 847 1978 
z
" transform="scale(0.015625)"/>
      </defs>
      <use xlink:href="#ArialMT-69"/>
      <use xlink:href="#ArialMT-6e" x="22.216797"/>
      <use xlink:href="#ArialMT-63" x="77.832031"/>
      <use xlink:href="#ArialMT-6f" x="127.832031"/>
      <use xlink:href="#ArialMT-6d" x="183.447266"/>
      <use xlink:href="#ArialMT-65" x="266.748047"/>
     </g>
    </g>
   </g>
   <g id="matplotlib.axis_2">
    <g id="ytick_1">
     <g id="line2d_11">
      <path d="M 180 315 
L 687.272727 315 
" clip-path="url(#p6ded19fe6a)" style="fill: none; stroke: #cccccc; stroke-linecap: round"/>
     </g>
     <g id="text_12">
      <!-- 0 -->
      <g style="fill: #262626" transform="translate(164.382969 318.936797)scale(0.11 -0.11)">
       <use xlink:href="#ArialMT-30"/>
      </g>
     </g>
    </g>
    <g id="ytick_2">
     <g id="line2d_12">
      <path d="M 180 281.338473 
L 687.272727 281.338473 
" clip-path="url(#p6ded19fe6a)" style="fill: none; stroke: #cccccc; stroke-linecap: round"/>
     </g>
     <g id="text_13">
      <!-- 100 -->
      <g style="fill: #262626" transform="translate(152.148906 285.27527)scale(0.11 -0.11)">
       <use xlink:href="#ArialMT-31"/>
       <use xlink:href="#ArialMT-30" x="55.615234"/>
       <use xlink:href="#ArialMT-30" x="111.230469"/>
      </g>
     </g>
    </g>
    <g id="ytick_3">
     <g id="line2d_13">
      <path d="M 180 247.676946 
L 687.272727 247.676946 
" clip-path="url(#p6ded19fe6a)" style="fill: none; stroke: #cccccc; stroke-linecap: round"/>
     </g>
     <g id="text_14">
      <!-- 200 -->
      <g style="fill: #262626" transform="translate(152.148906 251.613743)scale(0.11 -0.11)">
       <use xlink:href="#ArialMT-32"/>
       <use xlink:href="#ArialMT-30" x="55.615234"/>
       <use xlink:href="#ArialMT-30" x="111.230469"/>
      </g>
     </g>
    </g>
    <g id="ytick_4">
     <g id="line2d_14">
      <path d="M 180 214.015419 
L 687.272727 214.015419 
" clip-path="url(#p6ded19fe6a)" style="fill: none; stroke: #cccccc; stroke-linecap: round"/>
     </g>
     <g id="text_15">
      <!-- 300 -->
      <g style="fill: #262626" transform="translate(152.148906 217.952216)scale(0.11 -0.11)">
       <use xlink:href="#ArialMT-33"/>
       <use xlink:href="#ArialMT-30" x="55.615234"/>
       <use xlink:href="#ArialMT-30" x="111.230469"/>
      </g>
     </g>
    </g>
    <g id="ytick_5">
     <g id="line2d_15">
      <path d="M 180 180.353892 
L 687.272727 180.353892 
" clip-path="url(#p6ded19fe6a)" style="fill: none; stroke: #cccccc; stroke-linecap: round"/>
     </g>
     <g id="text_16">
      <!-- 400 -->
      <g style="fill: #262626" transform="translate(152.148906 184.290689)scale(0.11 -0.11)">
       <use xlink:href="#ArialMT-34"/>
       <use xlink:href="#ArialMT-30" x="55.615234"/>
       <use xlink:href="#ArialMT-30" x="111.230469"/>
      </g>
     </g>
    </g>
    <g id="ytick_6">
     <g id="line2d_16">
      <path d="M 180 146.692365 
L 687.272727 146.692365 
" clip-path="url(#p6ded19fe6a)" style="fill: none; stroke: #cccccc; stroke-linecap: round"/>
     </g>
     <g id="text_17">
      <!-- 500 -->
      <g style="fill: #262626" transform="translate(152.148906 150.629162)scale(0.11 -0.11)">
       <defs>
        <path id="ArialMT-35" d="M 266 1200 
L 856 1250 
Q 922 819 1161 601 
Q 1400 384 1738 384 
Q 2144 384 2425 690 
Q 2706 997 2706 1503 
Q 2706 1984 2436 2262 
Q 2166 2541 1728 2541 
Q 1456 2541 1237 2417 
Q 1019 2294 894 2097 
L 366 2166 
L 809 4519 
L 3088 4519 
L 3088 3981 
L 1259 3981 
L 1013 2750 
Q 1425 3038 1878 3038 
Q 2478 3038 2890 2622 
Q 3303 2206 3303 1553 
Q 3303 931 2941 478 
Q 2500 -78 1738 -78 
Q 1113 -78 717 272 
Q 322 622 266 1200 
z
" transform="scale(0.015625)"/>
       </defs>
       <use xlink:href="#ArialMT-35"/>
       <use xlink:href="#ArialMT-30" x="55.615234"/>
       <use xlink:href="#ArialMT-30" x="111.230469"/>
      </g>
     </g>
    </g>
    <g id="ytick_7">
     <g id="line2d_17">
      <path d="M 180 113.030838 
L 687.272727 113.030838 
" clip-path="url(#p6ded19fe6a)" style="fill: none; stroke: #cccccc; stroke-linecap: round"/>
     </g>
     <g id="text_18">
      <!-- 600 -->
      <g style="fill: #262626" transform="translate(152.148906 116.967635)scale(0.11 -0.11)">
       <use xlink:href="#ArialMT-36"/>
       <use xlink:href="#ArialMT-30" x="55.615234"/>
       <use xlink:href="#ArialMT-30" x="111.230469"/>
      </g>
     </g>
    </g>
    <g id="ytick_8">
     <g id="line2d_18">
      <path d="M 180 79.369311 
L 687.272727 79.369311 
" clip-path="url(#p6ded19fe6a)" style="fill: none; stroke: #cccccc; stroke-linecap: round"/>
     </g>
     <g id="text_19">
      <!-- 700 -->
      <g style="fill: #262626" transform="translate(152.148906 83.306108)scale(0.11 -0.11)">
       <use xlink:href="#ArialMT-37"/>
       <use xlink:href="#ArialMT-30" x="55.615234"/>
       <use xlink:href="#ArialMT-30" x="111.230469"/>
      </g>
     </g>
    </g>
    <g id="ytick_9">
     <g id="line2d_19">
      <path d="M 180 45.707784 
L 687.272727 45.707784 
" clip-path="url(#p6ded19fe6a)" style="fill: none; stroke: #cccccc; stroke-linecap: round"/>
     </g>
     <g id="text_20">
      <!-- 800 -->
      <g style="fill: #262626" transform="translate(152.148906 49.644581)scale(0.11 -0.11)">
       <use xlink:href="#ArialMT-38"/>
       <use xlink:href="#ArialMT-30" x="55.615234"/>
       <use xlink:href="#ArialMT-30" x="111.230469"/>
      </g>
     </g>
    </g>
    <g id="text_21">
     <!-- count of user -->
     <g style="fill: #262626" transform="translate(145.763906 213.784687)rotate(-90)scale(0.12 -0.12)">
      <defs>
       <path id="ArialMT-75" d="M 2597 0 
L 2597 488 
Q 2209 -75 1544 -75 
Q 1250 -75 995 37 
Q 741 150 617 320 
Q 494 491 444 738 
Q 409 903 409 1263 
L 409 3319 
L 972 3319 
L 972 1478 
Q 972 1038 1006 884 
Q 1059 663 1231 536 
Q 1403 409 1656 409 
Q 1909 409 2131 539 
Q 2353 669 2445 892 
Q 2538 1116 2538 1541 
L 2538 3319 
L 3100 3319 
L 3100 0 
L 2597 0 
z
" transform="scale(0.015625)"/>
       <path id="ArialMT-74" d="M 1650 503 
L 1731 6 
Q 1494 -44 1306 -44 
Q 1000 -44 831 53 
Q 663 150 594 308 
Q 525 466 525 972 
L 525 2881 
L 113 2881 
L 113 3319 
L 525 3319 
L 525 4141 
L 1084 4478 
L 1084 3319 
L 1650 3319 
L 1650 2881 
L 1084 2881 
L 1084 941 
Q 1084 700 1114 631 
Q 1144 563 1211 522 
Q 1278 481 1403 481 
Q 1497 481 1650 503 
z
" transform="scale(0.015625)"/>
       <path id="ArialMT-20" transform="scale(0.015625)"/>
       <path id="ArialMT-66" d="M 556 0 
L 556 2881 
L 59 2881 
L 59 3319 
L 556 3319 
L 556 3672 
Q 556 4006 616 4169 
Q 697 4388 901 4523 
Q 1106 4659 1475 4659 
Q 1713 4659 2000 4603 
L 1916 4113 
Q 1741 4144 1584 4144 
Q 1328 4144 1222 4034 
Q 1116 3925 1116 3625 
L 1116 3319 
L 1763 3319 
L 1763 2881 
L 1116 2881 
L 1116 0 
L 556 0 
z
" transform="scale(0.015625)"/>
       <path id="ArialMT-73" d="M 197 991 
L 753 1078 
Q 800 744 1014 566 
Q 1228 388 1613 388 
Q 2000 388 2187 545 
Q 2375 703 2375 916 
Q 2375 1106 2209 1216 
Q 2094 1291 1634 1406 
Q 1016 1563 777 1677 
Q 538 1791 414 1992 
Q 291 2194 291 2438 
Q 291 2659 392 2848 
Q 494 3038 669 3163 
Q 800 3259 1026 3326 
Q 1253 3394 1513 3394 
Q 1903 3394 2198 3281 
Q 2494 3169 2634 2976 
Q 2775 2784 2828 2463 
L 2278 2388 
Q 2241 2644 2061 2787 
Q 1881 2931 1553 2931 
Q 1166 2931 1000 2803 
Q 834 2675 834 2503 
Q 834 2394 903 2306 
Q 972 2216 1119 2156 
Q 1203 2125 1616 2013 
Q 2213 1853 2448 1751 
Q 2684 1650 2818 1456 
Q 2953 1263 2953 975 
Q 2953 694 2789 445 
Q 2625 197 2315 61 
Q 2006 -75 1616 -75 
Q 969 -75 630 194 
Q 291 463 197 991 
z
" transform="scale(0.015625)"/>
       <path id="ArialMT-72" d="M 416 0 
L 416 3319 
L 922 3319 
L 922 2816 
Q 1116 3169 1280 3281 
Q 1444 3394 1641 3394 
Q 1925 3394 2219 3213 
L 2025 2691 
Q 1819 2813 1613 2813 
Q 1428 2813 1281 2702 
Q 1134 2591 1072 2394 
Q 978 2094 978 1738 
L 978 0 
L 416 0 
z
" transform="scale(0.015625)"/>
      </defs>
      <use xlink:href="#ArialMT-63"/>
      <use xlink:href="#ArialMT-6f" x="50"/>
      <use xlink:href="#ArialMT-75" x="105.615234"/>
      <use xlink:href="#ArialMT-6e" x="161.230469"/>
      <use xlink:href="#ArialMT-74" x="216.845703"/>
      <use xlink:href="#ArialMT-20" x="244.628906"/>
      <use xlink:href="#ArialMT-6f" x="272.412109"/>
      <use xlink:href="#ArialMT-66" x="328.027344"/>
      <use xlink:href="#ArialMT-20" x="355.810547"/>
      <use xlink:href="#ArialMT-75" x="383.59375"/>
      <use xlink:href="#ArialMT-73" x="439.208984"/>
      <use xlink:href="#ArialMT-65" x="489.208984"/>
      <use xlink:href="#ArialMT-72" x="544.824219"/>
     </g>
    </g>
   </g>
   <g id="patch_3">
    <path d="M 302.234392 315 
L 320.569551 315 
L 320.569551 224.787108 
L 302.234392 224.787108 
z
" clip-path="url(#p6ded19fe6a)" style="fill: #4c72b0; fill-opacity: 0.5"/>
   </g>
   <g id="patch_4">
    <path d="M 320.569551 315 
L 338.90471 315 
L 338.90471 237.578488 
L 320.569551 237.578488 
z
" clip-path="url(#p6ded19fe6a)" style="fill: #4c72b0; fill-opacity: 0.5"/>
   </g>
   <g id="patch_5">
    <path d="M 338.90471 315 
L 357.239869 315 
L 357.239869 219.737879 
L 338.90471 219.737879 
z
" clip-path="url(#p6ded19fe6a)" style="fill: #4c72b0; fill-opacity: 0.5"/>
   </g>
   <g id="patch_6">
    <path d="M 357.239869 315 
L 375.575027 315 
L 375.575027 247.003715 
L 357.239869 247.003715 
z
" clip-path="url(#p6ded19fe6a)" style="fill: #4c72b0; fill-opacity: 0.5"/>
   </g>
   <g id="patch_7">
    <path d="M 375.575027 315 
L 393.910186 315 
L 393.910186 191.798811 
L 375.575027 191.798811 
z
" clip-path="url(#p6ded19fe6a)" style="fill: #4c72b0; fill-opacity: 0.5"/>
   </g>
   <g id="patch_8">
    <path d="M 393.910186 315 
L 412.245345 315 
L 412.245345 183.383429 
L 393.910186 183.383429 
z
" clip-path="url(#p6ded19fe6a)" style="fill: #4c72b0; fill-opacity: 0.5"/>
   </g>
   <g id="patch_9">
    <path d="M 412.245345 315 
L 430.580504 315 
L 430.580504 152.414824 
L 412.245345 152.414824 
z
" clip-path="url(#p6ded19fe6a)" style="fill: #4c72b0; fill-opacity: 0.5"/>
   </g>
   <g id="patch_10">
    <path d="M 430.580504 315 
L 448.915663 315 
L 448.915663 200.214193 
L 430.580504 200.214193 
z
" clip-path="url(#p6ded19fe6a)" style="fill: #4c72b0; fill-opacity: 0.5"/>
   </g>
   <g id="patch_11">
    <path d="M 448.915663 315 
L 467.250821 315 
L 467.250821 177.324354 
L 448.915663 177.324354 
z
" clip-path="url(#p6ded19fe6a)" style="fill: #4c72b0; fill-opacity: 0.5"/>
   </g>
   <g id="patch_12">
    <path d="M 467.250821 315 
L 485.58598 315 
L 485.58598 138.950214 
L 467.250821 138.950214 
z
" clip-path="url(#p6ded19fe6a)" style="fill: #4c72b0; fill-opacity: 0.5"/>
   </g>
   <g id="patch_13">
    <path d="M 485.58598 315 
L 503.921139 315 
L 503.921139 156.454208 
L 485.58598 156.454208 
z
" clip-path="url(#p6ded19fe6a)" style="fill: #4c72b0; fill-opacity: 0.5"/>
   </g>
   <g id="patch_14">
    <path d="M 503.921139 315 
L 522.256298 315 
L 522.256298 212.332343 
L 503.921139 212.332343 
z
" clip-path="url(#p6ded19fe6a)" style="fill: #4c72b0; fill-opacity: 0.5"/>
   </g>
   <g id="patch_15">
    <path d="M 522.256298 315 
L 540.591457 315 
L 540.591457 177.66097 
L 522.256298 177.66097 
z
" clip-path="url(#p6ded19fe6a)" style="fill: #4c72b0; fill-opacity: 0.5"/>
   </g>
   <g id="patch_16">
    <path d="M 540.591457 315 
L 558.926616 315 
L 558.926616 233.87572 
L 540.591457 233.87572 
z
" clip-path="url(#p6ded19fe6a)" style="fill: #4c72b0; fill-opacity: 0.5"/>
   </g>
   <g id="patch_17">
    <path d="M 558.926616 315 
L 577.261774 315 
L 577.261774 201.560654 
L 558.926616 201.560654 
z
" clip-path="url(#p6ded19fe6a)" style="fill: #4c72b0; fill-opacity: 0.5"/>
   </g>
   <g id="patch_18">
    <path d="M 577.261774 315 
L 595.596933 315 
L 595.596933 239.598179 
L 577.261774 239.598179 
z
" clip-path="url(#p6ded19fe6a)" style="fill: #4c72b0; fill-opacity: 0.5"/>
   </g>
   <g id="patch_19">
    <path d="M 595.596933 315 
L 613.932092 315 
L 613.932092 253.736021 
L 595.596933 253.736021 
z
" clip-path="url(#p6ded19fe6a)" style="fill: #4c72b0; fill-opacity: 0.5"/>
   </g>
   <g id="patch_20">
    <path d="M 613.932092 315 
L 632.267251 315 
L 632.267251 260.131711 
L 613.932092 260.131711 
z
" clip-path="url(#p6ded19fe6a)" style="fill: #4c72b0; fill-opacity: 0.5"/>
   </g>
   <g id="patch_21">
    <path d="M 632.267251 315 
L 650.60241 315 
L 650.60241 257.102174 
L 632.267251 257.102174 
z
" clip-path="url(#p6ded19fe6a)" style="fill: #4c72b0; fill-opacity: 0.5"/>
   </g>
   <g id="patch_22">
    <path d="M 650.60241 315 
L 668.937568 315 
L 668.937568 271.240015 
L 650.60241 271.240015 
z
" clip-path="url(#p6ded19fe6a)" style="fill: #4c72b0; fill-opacity: 0.5"/>
   </g>
   <g id="line2d_20">
    <path d="M 302.234392 269.848276 
L 305.919851 261.75528 
L 309.60531 254.163964 
L 311.44804 250.674206 
L 313.290769 247.437495 
L 315.133499 244.480227 
L 316.976228 241.819939 
L 318.818958 239.465457 
L 320.661687 237.417466 
L 322.504417 235.669416 
L 324.347146 234.208671 
L 326.189876 233.017771 
L 328.032606 232.075709 
L 329.875335 231.359121 
L 331.718065 230.843316 
L 333.560794 230.503083 
L 335.403524 230.313265 
L 339.088983 230.286212 
L 342.774442 230.56893 
L 350.14536 231.293053 
L 353.830819 231.327856 
L 355.673548 231.169295 
L 357.516278 230.85719 
L 359.359008 230.365551 
L 361.201737 229.670395 
L 363.044467 228.75075 
L 364.887196 227.589695 
L 366.729926 226.175373 
L 368.572655 224.501903 
L 370.415385 222.570115 
L 372.258114 220.388043 
L 374.100844 217.971133 
L 377.786303 212.530515 
L 381.471762 206.506682 
L 388.84268 194.080489 
L 392.528139 188.392932 
L 394.370869 185.8168 
L 396.213598 183.457796 
L 398.056328 181.337108 
L 399.899057 179.469393 
L 401.741787 177.862883 
L 403.584516 176.519743 
L 405.427246 175.436611 
L 407.269975 174.605275 
L 409.112705 174.013408 
L 410.955434 173.645333 
L 412.798164 173.482743 
L 414.640893 173.505353 
L 416.483623 173.691459 
L 418.326352 174.018381 
L 422.011812 175.000949 
L 427.54 176.935866 
L 433.068189 178.830243 
L 436.753648 179.72896 
L 438.596377 179.990758 
L 440.439107 180.093588 
L 442.281836 180.013712 
L 444.124566 179.729874 
L 445.967295 179.224451 
L 447.810025 178.484755 
L 449.652754 177.504379 
L 451.495484 176.284512 
L 453.338214 174.835087 
L 455.180943 173.175628 
L 458.866402 169.354737 
L 466.23732 161.1013 
L 468.08005 159.271849 
L 469.922779 157.66645 
L 471.765509 156.344017 
L 473.608238 155.355168 
L 475.450968 154.739775 
L 477.293697 154.525107 
L 479.136427 154.724672 
L 480.979156 155.337828 
L 482.821886 156.350185 
L 484.664616 157.734709 
L 486.507345 159.453461 
L 488.350075 161.459786 
L 490.192804 163.700803 
L 493.878263 168.659846 
L 501.249181 178.960174 
L 504.93464 183.598933 
L 506.77737 185.690824 
L 508.620099 187.613521 
L 510.462829 189.363083 
L 512.305558 190.94229 
L 514.148288 192.359916 
L 517.833747 194.770248 
L 521.519206 196.748868 
L 527.047395 199.312002 
L 532.575583 201.876579 
L 538.103772 204.726832 
L 551.002879 211.712907 
L 556.531067 214.279296 
L 565.744715 218.393861 
L 569.430174 220.391831 
L 573.115633 222.800685 
L 576.801092 225.690895 
L 580.486551 229.051663 
L 584.17201 232.787482 
L 595.228387 244.415091 
L 598.913846 247.761483 
L 602.599305 250.600521 
L 604.442035 251.813928 
L 606.284764 252.891282 
L 609.970224 254.668147 
L 613.655683 256.025103 
L 617.341142 257.091234 
L 630.240248 260.390263 
L 633.925707 261.611336 
L 637.611166 263.080522 
L 641.296626 264.856493 
L 644.982085 267.001681 
L 648.667544 269.577817 
L 652.353003 272.632465 
L 656.038462 276.180124 
L 659.723921 280.184122 
L 663.40938 284.546303 
L 668.937568 291.405993 
L 668.937568 291.405993 
" clip-path="url(#p6ded19fe6a)" style="fill: none; stroke: #4c72b0; stroke-width: 1.5; stroke-linecap: round"/>
   </g>
   <g id="patch_23">
    <path d="M 180 315 
L 180 43.2 
" style="fill: none; stroke: #cccccc; stroke-width: 1.25; stroke-linejoin: miter; stroke-linecap: square"/>
   </g>
   <g id="patch_24">
    <path d="M 687.272727 315 
L 687.272727 43.2 
" style="fill: none; stroke: #cccccc; stroke-width: 1.25; stroke-linejoin: miter; stroke-linecap: square"/>
   </g>
   <g id="patch_25">
    <path d="M 180 315 
L 687.272727 315 
" style="fill: none; stroke: #cccccc; stroke-width: 1.25; stroke-linejoin: miter; stroke-linecap: square"/>
   </g>
   <g id="patch_26">
    <path d="M 180 43.2 
L 687.272727 43.2 
" style="fill: none; stroke: #cccccc; stroke-width: 1.25; stroke-linejoin: miter; stroke-linecap: square"/>
   </g>
   <g id="text_22">
    <!-- Number of female / income in Profile dataset -->
    <g style="fill: #262626" transform="translate(315.255426 37.2)scale(0.12 -0.12)">
     <defs>
      <path id="ArialMT-4e" d="M 488 0 
L 488 4581 
L 1109 4581 
L 3516 984 
L 3516 4581 
L 4097 4581 
L 4097 0 
L 3475 0 
L 1069 3600 
L 1069 0 
L 488 0 
z
" transform="scale(0.015625)"/>
      <path id="ArialMT-62" d="M 941 0 
L 419 0 
L 419 4581 
L 981 4581 
L 981 2947 
Q 1338 3394 1891 3394 
Q 2197 3394 2470 3270 
Q 2744 3147 2920 2923 
Q 3097 2700 3197 2384 
Q 3297 2069 3297 1709 
Q 3297 856 2875 390 
Q 2453 -75 1863 -75 
Q 1275 -75 941 416 
L 941 0 
z
M 934 1684 
Q 934 1088 1097 822 
Q 1363 388 1816 388 
Q 2184 388 2453 708 
Q 2722 1028 2722 1663 
Q 2722 2313 2464 2622 
Q 2206 2931 1841 2931 
Q 1472 2931 1203 2611 
Q 934 2291 934 1684 
z
" transform="scale(0.015625)"/>
      <path id="ArialMT-61" d="M 2588 409 
Q 2275 144 1986 34 
Q 1697 -75 1366 -75 
Q 819 -75 525 192 
Q 231 459 231 875 
Q 231 1119 342 1320 
Q 453 1522 633 1644 
Q 813 1766 1038 1828 
Q 1203 1872 1538 1913 
Q 2219 1994 2541 2106 
Q 2544 2222 2544 2253 
Q 2544 2597 2384 2738 
Q 2169 2928 1744 2928 
Q 1347 2928 1158 2789 
Q 969 2650 878 2297 
L 328 2372 
Q 403 2725 575 2942 
Q 747 3159 1072 3276 
Q 1397 3394 1825 3394 
Q 2250 3394 2515 3294 
Q 2781 3194 2906 3042 
Q 3031 2891 3081 2659 
Q 3109 2516 3109 2141 
L 3109 1391 
Q 3109 606 3145 398 
Q 3181 191 3288 0 
L 2700 0 
Q 2613 175 2588 409 
z
M 2541 1666 
Q 2234 1541 1622 1453 
Q 1275 1403 1131 1340 
Q 988 1278 909 1158 
Q 831 1038 831 891 
Q 831 666 1001 516 
Q 1172 366 1500 366 
Q 1825 366 2078 508 
Q 2331 650 2450 897 
Q 2541 1088 2541 1459 
L 2541 1666 
z
" transform="scale(0.015625)"/>
      <path id="ArialMT-6c" d="M 409 0 
L 409 4581 
L 972 4581 
L 972 0 
L 409 0 
z
" transform="scale(0.015625)"/>
      <path id="ArialMT-2f" d="M 0 -78 
L 1328 4659 
L 1778 4659 
L 453 -78 
L 0 -78 
z
" transform="scale(0.015625)"/>
      <path id="ArialMT-50" d="M 494 0 
L 494 4581 
L 2222 4581 
Q 2678 4581 2919 4538 
Q 3256 4481 3484 4323 
Q 3713 4166 3852 3881 
Q 3991 3597 3991 3256 
Q 3991 2672 3619 2267 
Q 3247 1863 2275 1863 
L 1100 1863 
L 1100 0 
L 494 0 
z
M 1100 2403 
L 2284 2403 
Q 2872 2403 3119 2622 
Q 3366 2841 3366 3238 
Q 3366 3525 3220 3729 
Q 3075 3934 2838 4000 
Q 2684 4041 2272 4041 
L 1100 4041 
L 1100 2403 
z
" transform="scale(0.015625)"/>
      <path id="ArialMT-64" d="M 2575 0 
L 2575 419 
Q 2259 -75 1647 -75 
Q 1250 -75 917 144 
Q 584 363 401 755 
Q 219 1147 219 1656 
Q 219 2153 384 2558 
Q 550 2963 881 3178 
Q 1213 3394 1622 3394 
Q 1922 3394 2156 3267 
Q 2391 3141 2538 2938 
L 2538 4581 
L 3097 4581 
L 3097 0 
L 2575 0 
z
M 797 1656 
Q 797 1019 1065 703 
Q 1334 388 1700 388 
Q 2069 388 2326 689 
Q 2584 991 2584 1609 
Q 2584 2291 2321 2609 
Q 2059 2928 1675 2928 
Q 1300 2928 1048 2622 
Q 797 2316 797 1656 
z
" transform="scale(0.015625)"/>
     </defs>
     <use xlink:href="#ArialMT-4e"/>
     <use xlink:href="#ArialMT-75" x="72.216797"/>
     <use xlink:href="#ArialMT-6d" x="127.832031"/>
     <use xlink:href="#ArialMT-62" x="211.132812"/>
     <use xlink:href="#ArialMT-65" x="266.748047"/>
     <use xlink:href="#ArialMT-72" x="322.363281"/>
     <use xlink:href="#ArialMT-20" x="355.664062"/>
     <use xlink:href="#ArialMT-6f" x="383.447266"/>
     <use xlink:href="#ArialMT-66" x="439.0625"/>
     <use xlink:href="#ArialMT-20" x="466.845703"/>
     <use xlink:href="#ArialMT-66" x="494.628906"/>
     <use xlink:href="#ArialMT-65" x="522.412109"/>
     <use xlink:href="#ArialMT-6d" x="578.027344"/>
     <use xlink:href="#ArialMT-61" x="661.328125"/>
     <use xlink:href="#ArialMT-6c" x="716.943359"/>
     <use xlink:href="#ArialMT-65" x="739.160156"/>
     <use xlink:href="#ArialMT-20" x="794.775391"/>
     <use xlink:href="#ArialMT-2f" x="822.558594"/>
     <use xlink:href="#ArialMT-20" x="850.341797"/>
     <use xlink:href="#ArialMT-69" x="878.125"/>
     <use xlink:href="#ArialMT-6e" x="900.341797"/>
     <use xlink:href="#ArialMT-63" x="955.957031"/>
     <use xlink:href="#ArialMT-6f" x="1005.957031"/>
     <use xlink:href="#ArialMT-6d" x="1061.572266"/>
     <use xlink:href="#ArialMT-65" x="1144.873047"/>
     <use xlink:href="#ArialMT-20" x="1200.488281"/>
     <use xlink:href="#ArialMT-69" x="1228.271484"/>
     <use xlink:href="#ArialMT-6e" x="1250.488281"/>
     <use xlink:href="#ArialMT-20" x="1306.103516"/>
     <use xlink:href="#ArialMT-50" x="1333.886719"/>
     <use xlink:href="#ArialMT-72" x="1400.585938"/>
     <use xlink:href="#ArialMT-6f" x="1433.886719"/>
     <use xlink:href="#ArialMT-66" x="1489.501953"/>
     <use xlink:href="#ArialMT-69" x="1517.285156"/>
     <use xlink:href="#ArialMT-6c" x="1539.501953"/>
     <use xlink:href="#ArialMT-65" x="1561.71875"/>
     <use xlink:href="#ArialMT-20" x="1617.333984"/>
     <use xlink:href="#ArialMT-64" x="1645.117188"/>
     <use xlink:href="#ArialMT-61" x="1700.732422"/>
     <use xlink:href="#ArialMT-74" x="1756.347656"/>
     <use xlink:href="#ArialMT-61" x="1784.130859"/>
     <use xlink:href="#ArialMT-73" x="1839.746094"/>
     <use xlink:href="#ArialMT-65" x="1889.746094"/>
     <use xlink:href="#ArialMT-74" x="1945.361328"/>
    </g>
   </g>
  </g>
  <g id="axes_2">
   <g id="patch_27">
    <path d="M 788.727273 315 
L 1296 315 
L 1296 43.2 
L 788.727273 43.2 
z
" style="fill: #ffffff"/>
   </g>
   <g id="matplotlib.axis_3">
    <g id="xtick_11">
     <g id="line2d_21">
      <path d="M 788.727273 315 
L 788.727273 43.2 
" clip-path="url(#pa54c77b068)" style="fill: none; stroke: #cccccc; stroke-linecap: round"/>
     </g>
     <g id="text_23">
      <!-- 0 -->
      <g style="fill: #262626" transform="translate(785.668757 332.373594)scale(0.11 -0.11)">
       <use xlink:href="#ArialMT-30"/>
      </g>
     </g>
    </g>
    <g id="xtick_12">
     <g id="line2d_22">
      <path d="M 837.62103 315 
L 837.62103 43.2 
" clip-path="url(#pa54c77b068)" style="fill: none; stroke: #cccccc; stroke-linecap: round"/>
     </g>
     <g id="text_24">
      <!-- 12000 -->
      <g style="fill: #262626" transform="translate(822.328451 332.373594)scale(0.11 -0.11)">
       <use xlink:href="#ArialMT-31"/>
       <use xlink:href="#ArialMT-32" x="55.615234"/>
       <use xlink:href="#ArialMT-30" x="111.230469"/>
       <use xlink:href="#ArialMT-30" x="166.845703"/>
       <use xlink:href="#ArialMT-30" x="222.460938"/>
      </g>
     </g>
    </g>
    <g id="xtick_13">
     <g id="line2d_23">
      <path d="M 886.514786 315 
L 886.514786 43.2 
" clip-path="url(#pa54c77b068)" style="fill: none; stroke: #cccccc; stroke-linecap: round"/>
     </g>
     <g id="text_25">
      <!-- 24000 -->
      <g style="fill: #262626" transform="translate(871.222208 332.373594)scale(0.11 -0.11)">
       <use xlink:href="#ArialMT-32"/>
       <use xlink:href="#ArialMT-34" x="55.615234"/>
       <use xlink:href="#ArialMT-30" x="111.230469"/>
       <use xlink:href="#ArialMT-30" x="166.845703"/>
       <use xlink:href="#ArialMT-30" x="222.460938"/>
      </g>
     </g>
    </g>
    <g id="xtick_14">
     <g id="line2d_24">
      <path d="M 935.408543 315 
L 935.408543 43.2 
" clip-path="url(#pa54c77b068)" style="fill: none; stroke: #cccccc; stroke-linecap: round"/>
     </g>
     <g id="text_26">
      <!-- 36000 -->
      <g style="fill: #262626" transform="translate(920.115965 332.373594)scale(0.11 -0.11)">
       <use xlink:href="#ArialMT-33"/>
       <use xlink:href="#ArialMT-36" x="55.615234"/>
       <use xlink:href="#ArialMT-30" x="111.230469"/>
       <use xlink:href="#ArialMT-30" x="166.845703"/>
       <use xlink:href="#ArialMT-30" x="222.460938"/>
      </g>
     </g>
    </g>
    <g id="xtick_15">
     <g id="line2d_25">
      <path d="M 984.3023 315 
L 984.3023 43.2 
" clip-path="url(#pa54c77b068)" style="fill: none; stroke: #cccccc; stroke-linecap: round"/>
     </g>
     <g id="text_27">
      <!-- 48000 -->
      <g style="fill: #262626" transform="translate(969.009722 332.373594)scale(0.11 -0.11)">
       <use xlink:href="#ArialMT-34"/>
       <use xlink:href="#ArialMT-38" x="55.615234"/>
       <use xlink:href="#ArialMT-30" x="111.230469"/>
       <use xlink:href="#ArialMT-30" x="166.845703"/>
       <use xlink:href="#ArialMT-30" x="222.460938"/>
      </g>
     </g>
    </g>
    <g id="xtick_16">
     <g id="line2d_26">
      <path d="M 1033.196057 315 
L 1033.196057 43.2 
" clip-path="url(#pa54c77b068)" style="fill: none; stroke: #cccccc; stroke-linecap: round"/>
     </g>
     <g id="text_28">
      <!-- 60000 -->
      <g style="fill: #262626" transform="translate(1017.903479 332.373594)scale(0.11 -0.11)">
       <use xlink:href="#ArialMT-36"/>
       <use xlink:href="#ArialMT-30" x="55.615234"/>
       <use xlink:href="#ArialMT-30" x="111.230469"/>
       <use xlink:href="#ArialMT-30" x="166.845703"/>
       <use xlink:href="#ArialMT-30" x="222.460938"/>
      </g>
     </g>
    </g>
    <g id="xtick_17">
     <g id="line2d_27">
      <path d="M 1082.089814 315 
L 1082.089814 43.2 
" clip-path="url(#pa54c77b068)" style="fill: none; stroke: #cccccc; stroke-linecap: round"/>
     </g>
     <g id="text_29">
      <!-- 72000 -->
      <g style="fill: #262626" transform="translate(1066.797236 332.373594)scale(0.11 -0.11)">
       <use xlink:href="#ArialMT-37"/>
       <use xlink:href="#ArialMT-32" x="55.615234"/>
       <use xlink:href="#ArialMT-30" x="111.230469"/>
       <use xlink:href="#ArialMT-30" x="166.845703"/>
       <use xlink:href="#ArialMT-30" x="222.460938"/>
      </g>
     </g>
    </g>
    <g id="xtick_18">
     <g id="line2d_28">
      <path d="M 1130.983571 315 
L 1130.983571 43.2 
" clip-path="url(#pa54c77b068)" style="fill: none; stroke: #cccccc; stroke-linecap: round"/>
     </g>
     <g id="text_30">
      <!-- 84000 -->
      <g style="fill: #262626" transform="translate(1115.690993 332.373594)scale(0.11 -0.11)">
       <use xlink:href="#ArialMT-38"/>
       <use xlink:href="#ArialMT-34" x="55.615234"/>
       <use xlink:href="#ArialMT-30" x="111.230469"/>
       <use xlink:href="#ArialMT-30" x="166.845703"/>
       <use xlink:href="#ArialMT-30" x="222.460938"/>
      </g>
     </g>
    </g>
    <g id="xtick_19">
     <g id="line2d_29">
      <path d="M 1179.877327 315 
L 1179.877327 43.2 
" clip-path="url(#pa54c77b068)" style="fill: none; stroke: #cccccc; stroke-linecap: round"/>
     </g>
     <g id="text_31">
      <!-- 96000 -->
      <g style="fill: #262626" transform="translate(1164.584749 332.373594)scale(0.11 -0.11)">
       <use xlink:href="#ArialMT-39"/>
       <use xlink:href="#ArialMT-36" x="55.615234"/>
       <use xlink:href="#ArialMT-30" x="111.230469"/>
       <use xlink:href="#ArialMT-30" x="166.845703"/>
       <use xlink:href="#ArialMT-30" x="222.460938"/>
      </g>
     </g>
    </g>
    <g id="xtick_20">
     <g id="line2d_30">
      <path d="M 1228.771084 315 
L 1228.771084 43.2 
" clip-path="url(#pa54c77b068)" style="fill: none; stroke: #cccccc; stroke-linecap: round"/>
     </g>
     <g id="text_32">
      <!-- 108000 -->
      <g style="fill: #262626" transform="translate(1210.419991 332.373594)scale(0.11 -0.11)">
       <use xlink:href="#ArialMT-31"/>
       <use xlink:href="#ArialMT-30" x="55.615234"/>
       <use xlink:href="#ArialMT-38" x="111.230469"/>
       <use xlink:href="#ArialMT-30" x="166.845703"/>
       <use xlink:href="#ArialMT-30" x="222.460938"/>
       <use xlink:href="#ArialMT-30" x="278.076172"/>
      </g>
     </g>
    </g>
    <g id="text_33">
     <!-- income -->
     <g style="fill: #262626" transform="translate(1023.023011 347.149219)scale(0.12 -0.12)">
      <use xlink:href="#ArialMT-69"/>
      <use xlink:href="#ArialMT-6e" x="22.216797"/>
      <use xlink:href="#ArialMT-63" x="77.832031"/>
      <use xlink:href="#ArialMT-6f" x="127.832031"/>
      <use xlink:href="#ArialMT-6d" x="183.447266"/>
      <use xlink:href="#ArialMT-65" x="266.748047"/>
     </g>
    </g>
   </g>
   <g id="matplotlib.axis_4">
    <g id="ytick_10">
     <g id="line2d_31">
      <path d="M 788.727273 315 
L 1296 315 
" clip-path="url(#pa54c77b068)" style="fill: none; stroke: #cccccc; stroke-linecap: round"/>
     </g>
    </g>
    <g id="ytick_11">
     <g id="line2d_32">
      <path d="M 788.727273 281.338473 
L 1296 281.338473 
" clip-path="url(#pa54c77b068)" style="fill: none; stroke: #cccccc; stroke-linecap: round"/>
     </g>
    </g>
    <g id="ytick_12">
     <g id="line2d_33">
      <path d="M 788.727273 247.676946 
L 1296 247.676946 
" clip-path="url(#pa54c77b068)" style="fill: none; stroke: #cccccc; stroke-linecap: round"/>
     </g>
    </g>
    <g id="ytick_13">
     <g id="line2d_34">
      <path d="M 788.727273 214.015419 
L 1296 214.015419 
" clip-path="url(#pa54c77b068)" style="fill: none; stroke: #cccccc; stroke-linecap: round"/>
     </g>
    </g>
    <g id="ytick_14">
     <g id="line2d_35">
      <path d="M 788.727273 180.353892 
L 1296 180.353892 
" clip-path="url(#pa54c77b068)" style="fill: none; stroke: #cccccc; stroke-linecap: round"/>
     </g>
    </g>
    <g id="ytick_15">
     <g id="line2d_36">
      <path d="M 788.727273 146.692365 
L 1296 146.692365 
" clip-path="url(#pa54c77b068)" style="fill: none; stroke: #cccccc; stroke-linecap: round"/>
     </g>
    </g>
    <g id="ytick_16">
     <g id="line2d_37">
      <path d="M 788.727273 113.030838 
L 1296 113.030838 
" clip-path="url(#pa54c77b068)" style="fill: none; stroke: #cccccc; stroke-linecap: round"/>
     </g>
    </g>
    <g id="ytick_17">
     <g id="line2d_38">
      <path d="M 788.727273 79.369311 
L 1296 79.369311 
" clip-path="url(#pa54c77b068)" style="fill: none; stroke: #cccccc; stroke-linecap: round"/>
     </g>
    </g>
    <g id="ytick_18">
     <g id="line2d_39">
      <path d="M 788.727273 45.707784 
L 1296 45.707784 
" clip-path="url(#pa54c77b068)" style="fill: none; stroke: #cccccc; stroke-linecap: round"/>
     </g>
    </g>
   </g>
   <g id="patch_28">
    <path d="M 910.961665 315 
L 929.296824 315 
L 929.296824 95.526844 
L 910.961665 95.526844 
z
" clip-path="url(#pa54c77b068)" style="fill: #4c72b0; fill-opacity: 0.5"/>
   </g>
   <g id="patch_29">
    <path d="M 929.296824 315 
L 947.631982 315 
L 947.631982 128.51514 
L 929.296824 128.51514 
z
" clip-path="url(#pa54c77b068)" style="fill: #4c72b0; fill-opacity: 0.5"/>
   </g>
   <g id="patch_30">
    <path d="M 947.631982 315 
L 965.967141 315 
L 965.967141 91.487461 
L 947.631982 91.487461 
z
" clip-path="url(#pa54c77b068)" style="fill: #4c72b0; fill-opacity: 0.5"/>
   </g>
   <g id="patch_31">
    <path d="M 965.967141 315 
L 984.3023 315 
L 984.3023 133.227754 
L 965.967141 133.227754 
z
" clip-path="url(#pa54c77b068)" style="fill: #4c72b0; fill-opacity: 0.5"/>
   </g>
   <g id="patch_32">
    <path d="M 984.3023 315 
L 1002.637459 315 
L 1002.637459 58.835779 
L 984.3023 58.835779 
z
" clip-path="url(#pa54c77b068)" style="fill: #4c72b0; fill-opacity: 0.5"/>
   </g>
   <g id="patch_33">
    <path d="M 1002.637459 315 
L 1020.972618 315 
L 1020.972618 85.428386 
L 1002.637459 85.428386 
z
" clip-path="url(#pa54c77b068)" style="fill: #4c72b0; fill-opacity: 0.5"/>
   </g>
   <g id="patch_34">
    <path d="M 1020.972618 315 
L 1039.307777 315 
L 1039.307777 56.142857 
L 1020.972618 56.142857 
z
" clip-path="url(#pa54c77b068)" style="fill: #4c72b0; fill-opacity: 0.5"/>
   </g>
   <g id="patch_35">
    <path d="M 1039.307777 315 
L 1057.642935 315 
L 1057.642935 121.44622 
L 1039.307777 121.44622 
z
" clip-path="url(#pa54c77b068)" style="fill: #4c72b0; fill-opacity: 0.5"/>
   </g>
   <g id="patch_36">
    <path d="M 1057.642935 315 
L 1075.978094 315 
L 1075.978094 68.597622 
L 1057.642935 68.597622 
z
" clip-path="url(#pa54c77b068)" style="fill: #4c72b0; fill-opacity: 0.5"/>
   </g>
   <g id="patch_37">
    <path d="M 1075.978094 315 
L 1094.313253 315 
L 1094.313253 94.853613 
L 1075.978094 94.853613 
z
" clip-path="url(#pa54c77b068)" style="fill: #4c72b0; fill-opacity: 0.5"/>
   </g>
   <g id="patch_38">
    <path d="M 1094.313253 315 
L 1112.648412 315 
L 1112.648412 180.690507 
L 1094.313253 180.690507 
z
" clip-path="url(#pa54c77b068)" style="fill: #4c72b0; fill-opacity: 0.5"/>
   </g>
   <g id="patch_39">
    <path d="M 1112.648412 315 
L 1130.983571 315 
L 1130.983571 234.885566 
L 1112.648412 234.885566 
z
" clip-path="url(#pa54c77b068)" style="fill: #4c72b0; fill-opacity: 0.5"/>
   </g>
   <g id="patch_40">
    <path d="M 1130.983571 315 
L 1149.318729 315 
L 1149.318729 217.381572 
L 1130.983571 217.381572 
z
" clip-path="url(#pa54c77b068)" style="fill: #4c72b0; fill-opacity: 0.5"/>
   </g>
   <g id="patch_41">
    <path d="M 1149.318729 315 
L 1167.653888 315 
L 1167.653888 232.192644 
L 1149.318729 232.192644 
z
" clip-path="url(#pa54c77b068)" style="fill: #4c72b0; fill-opacity: 0.5"/>
   </g>
   <g id="patch_42">
    <path d="M 1167.653888 315 
L 1185.989047 315 
L 1185.989047 222.094185 
L 1167.653888 222.094185 
z
" clip-path="url(#pa54c77b068)" style="fill: #4c72b0; fill-opacity: 0.5"/>
   </g>
   <g id="patch_43">
    <path d="M 1185.989047 315 
L 1204.324206 315 
L 1204.324206 267.537247 
L 1185.989047 267.537247 
z
" clip-path="url(#pa54c77b068)" style="fill: #4c72b0; fill-opacity: 0.5"/>
   </g>
   <g id="patch_44">
    <path d="M 1204.324206 315 
L 1222.659365 315 
L 1222.659365 283.358165 
L 1204.324206 283.358165 
z
" clip-path="url(#pa54c77b068)" style="fill: #4c72b0; fill-opacity: 0.5"/>
   </g>
   <g id="patch_45">
    <path d="M 1222.659365 315 
L 1240.994524 315 
L 1240.994524 295.139699 
L 1222.659365 295.139699 
z
" clip-path="url(#pa54c77b068)" style="fill: #4c72b0; fill-opacity: 0.5"/>
   </g>
   <g id="patch_46">
    <path d="M 1240.994524 315 
L 1259.329682 315 
L 1259.329682 286.387702 
L 1240.994524 286.387702 
z
" clip-path="url(#pa54c77b068)" style="fill: #4c72b0; fill-opacity: 0.5"/>
   </g>
   <g id="patch_47">
    <path d="M 1259.329682 315 
L 1277.664841 315 
L 1277.664841 290.427085 
L 1259.329682 290.427085 
z
" clip-path="url(#pa54c77b068)" style="fill: #4c72b0; fill-opacity: 0.5"/>
   </g>
   <g id="line2d_40">
    <path d="M 910.961665 206.037182 
L 914.647124 182.578201 
L 918.332583 160.986841 
L 920.175312 151.353343 
L 922.018042 142.668308 
L 923.860772 135.007596 
L 925.703501 128.402919 
L 927.546231 122.845121 
L 929.38896 118.29006 
L 931.23169 114.666253 
L 933.074419 111.883318 
L 934.917149 109.840316 
L 936.759878 108.433198 
L 938.602608 107.560775 
L 940.445337 107.12893 
L 942.288067 107.052991 
L 944.130796 107.258479 
L 945.973526 107.680552 
L 949.658985 108.9546 
L 957.029903 111.960658 
L 958.872633 112.579068 
L 960.715362 113.074878 
L 962.558092 113.417728 
L 964.400821 113.580055 
L 966.243551 113.537066 
L 968.08628 113.266505 
L 969.92901 112.748364 
L 971.771739 111.964684 
L 973.614469 110.899686 
L 975.457198 109.540387 
L 977.299928 107.877798 
L 979.142657 105.908674 
L 980.985387 103.637637 
L 982.828116 101.079388 
L 984.670846 98.260612 
L 988.356305 92.014475 
L 995.727223 78.956785 
L 997.569953 76.04263 
L 999.412682 73.426252 
L 1001.255412 71.171233 
L 1003.098141 69.326672 
L 1004.940871 67.925164 
L 1006.7836 66.982042 
L 1008.62633 66.495827 
L 1010.469059 66.449699 
L 1012.311789 66.813722 
L 1014.154518 67.547536 
L 1015.997248 68.603215 
L 1017.839978 69.928081 
L 1019.682707 71.467276 
L 1023.368166 74.971356 
L 1030.739084 82.338116 
L 1034.424543 85.607403 
L 1036.267273 87.051375 
L 1038.110002 88.34864 
L 1039.952732 89.489849 
L 1041.795461 90.469203 
L 1043.638191 91.283846 
L 1045.48092 91.933311 
L 1047.32365 92.419071 
L 1049.16638 92.744279 
L 1051.009109 92.91374 
L 1052.851839 92.934185 
L 1054.694568 92.814903 
L 1058.380027 92.213406 
L 1062.065486 91.280463 
L 1065.750945 90.318143 
L 1067.593675 89.967131 
L 1069.436404 89.80109 
L 1071.279134 89.906227 
L 1073.121863 90.375491 
L 1074.964593 91.304227 
L 1076.807322 92.784623 
L 1078.650052 94.899316 
L 1080.492782 97.714686 
L 1082.335511 101.274475 
L 1084.178241 105.594454 
L 1086.02097 110.658773 
L 1087.8637 116.41854 
L 1089.706429 122.792926 
L 1093.391888 136.926945 
L 1100.762806 166.734845 
L 1104.448265 180.216889 
L 1106.290995 186.255685 
L 1108.133724 191.760507 
L 1109.976454 196.713398 
L 1111.819184 201.118089 
L 1113.661913 204.995848 
L 1115.504643 208.380874 
L 1117.347372 211.315749 
L 1119.190102 213.847313 
L 1121.032831 216.023244 
L 1122.875561 217.889441 
L 1124.71829 219.488202 
L 1126.56102 220.857144 
L 1128.403749 222.028717 
L 1130.246479 223.030201 
L 1132.089208 223.884056 
L 1135.774667 225.218497 
L 1139.460126 226.142607 
L 1143.145586 226.74157 
L 1146.831045 227.101265 
L 1157.887422 227.83811 
L 1161.572881 228.375323 
L 1165.25834 229.252447 
L 1167.101069 229.854346 
L 1168.943799 230.586007 
L 1170.786528 231.46476 
L 1172.629258 232.509195 
L 1174.471988 233.738565 
L 1176.314717 235.171656 
L 1178.157447 236.825179 
L 1180.000176 238.711801 
L 1181.842906 240.838028 
L 1183.685635 243.202188 
L 1185.528365 245.792836 
L 1189.213824 251.554175 
L 1194.742012 261.016823 
L 1198.427471 267.242175 
L 1202.11293 272.900552 
L 1203.95566 275.415186 
L 1205.79839 277.686337 
L 1207.641119 279.702679 
L 1209.483849 281.463355 
L 1211.326578 282.976462 
L 1213.169308 284.257068 
L 1215.012037 285.325016 
L 1216.854767 286.202821 
L 1218.697496 286.913851 
L 1220.540226 287.480967 
L 1224.225685 288.267582 
L 1227.911144 288.713279 
L 1233.439332 289.014751 
L 1242.65298 289.399177 
L 1246.338439 289.745594 
L 1250.023898 290.277571 
L 1253.709357 291.02664 
L 1257.394816 292.026203 
L 1261.080275 293.317951 
L 1264.765734 294.94368 
L 1268.451194 296.922823 
L 1272.136653 299.225897 
L 1277.664841 303.065978 
L 1277.664841 303.065978 
" clip-path="url(#pa54c77b068)" style="fill: none; stroke: #4c72b0; stroke-width: 1.5; stroke-linecap: round"/>
   </g>
   <g id="patch_48">
    <path d="M 788.727273 315 
L 788.727273 43.2 
" style="fill: none; stroke: #cccccc; stroke-width: 1.25; stroke-linejoin: miter; stroke-linecap: square"/>
   </g>
   <g id="patch_49">
    <path d="M 1296 315 
L 1296 43.2 
" style="fill: none; stroke: #cccccc; stroke-width: 1.25; stroke-linejoin: miter; stroke-linecap: square"/>
   </g>
   <g id="patch_50">
    <path d="M 788.727273 315 
L 1296 315 
" style="fill: none; stroke: #cccccc; stroke-width: 1.25; stroke-linejoin: miter; stroke-linecap: square"/>
   </g>
   <g id="patch_51">
    <path d="M 788.727273 43.2 
L 1296 43.2 
" style="fill: none; stroke: #cccccc; stroke-width: 1.25; stroke-linejoin: miter; stroke-linecap: square"/>
   </g>
   <g id="text_34">
    <!-- Number of male / income in Profile dataset -->
    <g style="fill: #262626" transform="translate(928.986136 37.2)scale(0.12 -0.12)">
     <use xlink:href="#ArialMT-4e"/>
     <use xlink:href="#ArialMT-75" x="72.216797"/>
     <use xlink:href="#ArialMT-6d" x="127.832031"/>
     <use xlink:href="#ArialMT-62" x="211.132812"/>
     <use xlink:href="#ArialMT-65" x="266.748047"/>
     <use xlink:href="#ArialMT-72" x="322.363281"/>
     <use xlink:href="#ArialMT-20" x="355.664062"/>
     <use xlink:href="#ArialMT-6f" x="383.447266"/>
     <use xlink:href="#ArialMT-66" x="439.0625"/>
     <use xlink:href="#ArialMT-20" x="466.845703"/>
     <use xlink:href="#ArialMT-6d" x="494.628906"/>
     <use xlink:href="#ArialMT-61" x="577.929688"/>
     <use xlink:href="#ArialMT-6c" x="633.544922"/>
     <use xlink:href="#ArialMT-65" x="655.761719"/>
     <use xlink:href="#ArialMT-20" x="711.376953"/>
     <use xlink:href="#ArialMT-2f" x="739.160156"/>
     <use xlink:href="#ArialMT-20" x="766.943359"/>
     <use xlink:href="#ArialMT-69" x="794.726562"/>
     <use xlink:href="#ArialMT-6e" x="816.943359"/>
     <use xlink:href="#ArialMT-63" x="872.558594"/>
     <use xlink:href="#ArialMT-6f" x="922.558594"/>
     <use xlink:href="#ArialMT-6d" x="978.173828"/>
     <use xlink:href="#ArialMT-65" x="1061.474609"/>
     <use xlink:href="#ArialMT-20" x="1117.089844"/>
     <use xlink:href="#ArialMT-69" x="1144.873047"/>
     <use xlink:href="#ArialMT-6e" x="1167.089844"/>
     <use xlink:href="#ArialMT-20" x="1222.705078"/>
     <use xlink:href="#ArialMT-50" x="1250.488281"/>
     <use xlink:href="#ArialMT-72" x="1317.1875"/>
     <use xlink:href="#ArialMT-6f" x="1350.488281"/>
     <use xlink:href="#ArialMT-66" x="1406.103516"/>
     <use xlink:href="#ArialMT-69" x="1433.886719"/>
     <use xlink:href="#ArialMT-6c" x="1456.103516"/>
     <use xlink:href="#ArialMT-65" x="1478.320312"/>
     <use xlink:href="#ArialMT-20" x="1533.935547"/>
     <use xlink:href="#ArialMT-64" x="1561.71875"/>
     <use xlink:href="#ArialMT-61" x="1617.333984"/>
     <use xlink:href="#ArialMT-74" x="1672.949219"/>
     <use xlink:href="#ArialMT-61" x="1700.732422"/>
     <use xlink:href="#ArialMT-73" x="1756.347656"/>
     <use xlink:href="#ArialMT-65" x="1806.347656"/>
     <use xlink:href="#ArialMT-74" x="1861.962891"/>
    </g>
   </g>
  </g>
 </g>
 <defs>
  <clipPath id="p6ded19fe6a">
   <rect x="180" y="43.2" width="507.272727" height="271.8"/>
  </clipPath>
  <clipPath id="pa54c77b068">
   <rect x="788.727273" y="43.2" width="507.272727" height="271.8"/>
  </clipPath>
 </defs>
</svg>
