<?xml version="1.0" encoding="utf-8" standalone="no"?>
<!DOCTYPE svg PUBLIC "-//W3C//DTD SVG 1.1//EN"
  "http://www.w3.org/Graphics/SVG/1.1/DTD/svg11.dtd">
<!-- Created with matplotlib (https://matplotlib.org/) -->
<svg height="360pt" version="1.1" viewBox="0 0 1440 360" width="1440pt" xmlns="http://www.w3.org/2000/svg" xmlns:xlink="http://www.w3.org/1999/xlink">
 <metadata>
  <rdf:RDF xmlns:cc="http://creativecommons.org/ns#" xmlns:dc="http://purl.org/dc/elements/1.1/" xmlns:rdf="http://www.w3.org/1999/02/22-rdf-syntax-ns#">
   <cc:Work>
    <dc:type rdf:resource="http://purl.org/dc/dcmitype/StillImage"/>
    <dc:date>2021-11-15T06:02:32.066447</dc:date>
    <dc:format>image/svg+xml</dc:format>
    <dc:creator>
     <cc:Agent>
      <dc:title>Matplotlib v3.3.4, https://matplotlib.org/</dc:title>
     </cc:Agent>
    </dc:creator>
   </cc:Work>
  </rdf:RDF>
 </metadata>
 <defs>
  <style type="text/css">*{stroke-linecap:butt;stroke-linejoin:round;}</style>
 </defs>
 <g id="figure_1">
  <g id="patch_1">
   <path d="M 0 360 
L 1440 360 
L 1440 0 
L 0 0 
z
" style="fill:#ffffff;"/>
  </g>
  <g id="axes_1">
   <g id="patch_2">
    <path d="M 180 315 
L 687.272727 315 
L 687.272727 43.2 
L 180 43.2 
z
" style="fill:#ffffff;"/>
   </g>
   <g id="matplotlib.axis_1">
    <g id="xtick_1">
     <g id="line2d_1">
      <path clip-path="url(#pf1758ec1ed)" d="M 180 315 
L 180 43.2 
" style="fill:none;stroke:#cccccc;stroke-linecap:round;"/>
     </g>
     <g id="text_1">
      <!-- 0 -->
      <g style="fill:#262626;" transform="translate(176.941484 332.373594)scale(0.11 -0.11)">
       <defs>
        <path d="M 4.15625 35.296875 
Q 4.15625 48 6.765625 55.734375 
Q 9.375 63.484375 14.515625 67.671875 
Q 19.671875 71.875 27.484375 71.875 
Q 33.25 71.875 37.59375 69.546875 
Q 41.9375 67.234375 44.765625 62.859375 
Q 47.609375 58.5 49.21875 52.21875 
Q 50.828125 45.953125 50.828125 35.296875 
Q 50.828125 22.703125 48.234375 14.96875 
Q 45.65625 7.234375 40.5 3 
Q 35.359375 -1.21875 27.484375 -1.21875 
Q 17.140625 -1.21875 11.234375 6.203125 
Q 4.15625 15.140625 4.15625 35.296875 
z
M 13.1875 35.296875 
Q 13.1875 17.671875 17.3125 11.828125 
Q 21.4375 6 27.484375 6 
Q 33.546875 6 37.671875 11.859375 
Q 41.796875 17.71875 41.796875 35.296875 
Q 41.796875 52.984375 37.671875 58.78125 
Q 33.546875 64.59375 27.390625 64.59375 
Q 21.34375 64.59375 17.71875 59.46875 
Q 13.1875 52.9375 13.1875 35.296875 
z
" id="ArialMT-48"/>
       </defs>
       <use xlink:href="#ArialMT-48"/>
      </g>
     </g>
    </g>
    <g id="xtick_2">
     <g id="line2d_2">
      <path clip-path="url(#pf1758ec1ed)" d="M 229.246623 315 
L 229.246623 43.2 
" style="fill:none;stroke:#cccccc;stroke-linecap:round;"/>
     </g>
     <g id="text_2">
      <!-- 303 -->
      <g style="fill:#262626;" transform="translate(220.071077 332.373594)scale(0.11 -0.11)">
       <defs>
        <path d="M 4.203125 18.890625 
L 12.984375 20.0625 
Q 14.5 12.59375 18.140625 9.296875 
Q 21.78125 6 27 6 
Q 33.203125 6 37.46875 10.296875 
Q 41.75 14.59375 41.75 20.953125 
Q 41.75 27 37.796875 30.921875 
Q 33.84375 34.859375 27.734375 34.859375 
Q 25.25 34.859375 21.53125 33.890625 
L 22.515625 41.609375 
Q 23.390625 41.5 23.921875 41.5 
Q 29.546875 41.5 34.03125 44.421875 
Q 38.53125 47.359375 38.53125 53.46875 
Q 38.53125 58.296875 35.25 61.46875 
Q 31.984375 64.65625 26.8125 64.65625 
Q 21.6875 64.65625 18.265625 61.421875 
Q 14.84375 58.203125 13.875 51.765625 
L 5.078125 53.328125 
Q 6.6875 62.15625 12.390625 67.015625 
Q 18.109375 71.875 26.609375 71.875 
Q 32.46875 71.875 37.390625 69.359375 
Q 42.328125 66.84375 44.9375 62.5 
Q 47.5625 58.15625 47.5625 53.265625 
Q 47.5625 48.640625 45.0625 44.828125 
Q 42.578125 41.015625 37.703125 38.765625 
Q 44.046875 37.3125 47.5625 32.6875 
Q 51.078125 28.078125 51.078125 21.140625 
Q 51.078125 11.765625 44.234375 5.25 
Q 37.40625 -1.265625 26.953125 -1.265625 
Q 17.53125 -1.265625 11.296875 4.34375 
Q 5.078125 9.96875 4.203125 18.890625 
z
" id="ArialMT-51"/>
       </defs>
       <use xlink:href="#ArialMT-51"/>
       <use x="55.615234" xlink:href="#ArialMT-48"/>
       <use x="111.230469" xlink:href="#ArialMT-51"/>
      </g>
     </g>
    </g>
    <g id="xtick_3">
     <g id="line2d_3">
      <path clip-path="url(#pf1758ec1ed)" d="M 278.493247 315 
L 278.493247 43.2 
" style="fill:none;stroke:#cccccc;stroke-linecap:round;"/>
     </g>
     <g id="text_3">
      <!-- 606 -->
      <g style="fill:#262626;" transform="translate(269.3177 332.373594)scale(0.11 -0.11)">
       <defs>
        <path d="M 49.75 54.046875 
L 41.015625 53.375 
Q 39.84375 58.546875 37.703125 60.890625 
Q 34.125 64.65625 28.90625 64.65625 
Q 24.703125 64.65625 21.53125 62.3125 
Q 17.390625 59.28125 14.984375 53.46875 
Q 12.59375 47.65625 12.5 36.921875 
Q 15.671875 41.75 20.265625 44.09375 
Q 24.859375 46.4375 29.890625 46.4375 
Q 38.671875 46.4375 44.84375 39.96875 
Q 51.03125 33.5 51.03125 23.25 
Q 51.03125 16.5 48.125 10.71875 
Q 45.21875 4.9375 40.140625 1.859375 
Q 35.0625 -1.21875 28.609375 -1.21875 
Q 17.625 -1.21875 10.6875 6.859375 
Q 3.765625 14.9375 3.765625 33.5 
Q 3.765625 54.25 11.421875 63.671875 
Q 18.109375 71.875 29.4375 71.875 
Q 37.890625 71.875 43.28125 67.140625 
Q 48.6875 62.40625 49.75 54.046875 
z
M 13.875 23.1875 
Q 13.875 18.65625 15.796875 14.5 
Q 17.71875 10.359375 21.1875 8.171875 
Q 24.65625 6 28.46875 6 
Q 34.03125 6 38.03125 10.484375 
Q 42.046875 14.984375 42.046875 22.703125 
Q 42.046875 30.125 38.078125 34.390625 
Q 34.125 38.671875 28.125 38.671875 
Q 22.171875 38.671875 18.015625 34.390625 
Q 13.875 30.125 13.875 23.1875 
z
" id="ArialMT-54"/>
       </defs>
       <use xlink:href="#ArialMT-54"/>
       <use x="55.615234" xlink:href="#ArialMT-48"/>
       <use x="111.230469" xlink:href="#ArialMT-54"/>
      </g>
     </g>
    </g>
    <g id="xtick_4">
     <g id="line2d_4">
      <path clip-path="url(#pf1758ec1ed)" d="M 327.73987 315 
L 327.73987 43.2 
" style="fill:none;stroke:#cccccc;stroke-linecap:round;"/>
     </g>
     <g id="text_4">
      <!-- 909 -->
      <g style="fill:#262626;" transform="translate(318.564323 332.373594)scale(0.11 -0.11)">
       <defs>
        <path d="M 5.46875 16.546875 
L 13.921875 17.328125 
Q 14.984375 11.375 18.015625 8.6875 
Q 21.046875 6 25.78125 6 
Q 29.828125 6 32.875 7.859375 
Q 35.9375 9.71875 37.890625 12.8125 
Q 39.84375 15.921875 41.15625 21.1875 
Q 42.484375 26.46875 42.484375 31.9375 
Q 42.484375 32.515625 42.4375 33.6875 
Q 39.796875 29.5 35.234375 26.875 
Q 30.671875 24.265625 25.34375 24.265625 
Q 16.453125 24.265625 10.296875 30.703125 
Q 4.15625 37.15625 4.15625 47.703125 
Q 4.15625 58.59375 10.578125 65.234375 
Q 17 71.875 26.65625 71.875 
Q 33.640625 71.875 39.421875 68.109375 
Q 45.21875 64.359375 48.21875 57.390625 
Q 51.21875 50.4375 51.21875 37.25 
Q 51.21875 23.53125 48.234375 15.40625 
Q 45.265625 7.28125 39.375 3.03125 
Q 33.5 -1.21875 25.59375 -1.21875 
Q 17.1875 -1.21875 11.859375 3.4375 
Q 6.546875 8.109375 5.46875 16.546875 
z
M 41.453125 48.140625 
Q 41.453125 55.71875 37.421875 60.15625 
Q 33.40625 64.59375 27.734375 64.59375 
Q 21.875 64.59375 17.53125 59.8125 
Q 13.1875 55.03125 13.1875 47.40625 
Q 13.1875 40.578125 17.3125 36.296875 
Q 21.4375 32.03125 27.484375 32.03125 
Q 33.59375 32.03125 37.515625 36.296875 
Q 41.453125 40.578125 41.453125 48.140625 
z
" id="ArialMT-57"/>
       </defs>
       <use xlink:href="#ArialMT-57"/>
       <use x="55.615234" xlink:href="#ArialMT-48"/>
       <use x="111.230469" xlink:href="#ArialMT-57"/>
      </g>
     </g>
    </g>
    <g id="xtick_5">
     <g id="line2d_5">
      <path clip-path="url(#pf1758ec1ed)" d="M 376.986494 315 
L 376.986494 43.2 
" style="fill:none;stroke:#cccccc;stroke-linecap:round;"/>
     </g>
     <g id="text_5">
      <!-- 1212 -->
      <g style="fill:#262626;" transform="translate(364.752431 332.373594)scale(0.11 -0.11)">
       <defs>
        <path d="M 37.25 0 
L 28.46875 0 
L 28.46875 56 
Q 25.296875 52.984375 20.140625 49.953125 
Q 14.984375 46.921875 10.890625 45.40625 
L 10.890625 53.90625 
Q 18.265625 57.375 23.78125 62.296875 
Q 29.296875 67.234375 31.59375 71.875 
L 37.25 71.875 
z
" id="ArialMT-49"/>
        <path d="M 50.34375 8.453125 
L 50.34375 0 
L 3.03125 0 
Q 2.9375 3.171875 4.046875 6.109375 
Q 5.859375 10.9375 9.828125 15.625 
Q 13.8125 20.3125 21.34375 26.46875 
Q 33.015625 36.03125 37.109375 41.625 
Q 41.21875 47.21875 41.21875 52.203125 
Q 41.21875 57.421875 37.46875 61 
Q 33.734375 64.59375 27.734375 64.59375 
Q 21.390625 64.59375 17.578125 60.78125 
Q 13.765625 56.984375 13.71875 50.25 
L 4.6875 51.171875 
Q 5.609375 61.28125 11.65625 66.578125 
Q 17.71875 71.875 27.9375 71.875 
Q 38.234375 71.875 44.234375 66.15625 
Q 50.25 60.453125 50.25 52 
Q 50.25 47.703125 48.484375 43.546875 
Q 46.734375 39.40625 42.65625 34.8125 
Q 38.578125 30.21875 29.109375 22.21875 
Q 21.1875 15.578125 18.9375 13.203125 
Q 16.703125 10.84375 15.234375 8.453125 
z
" id="ArialMT-50"/>
       </defs>
       <use xlink:href="#ArialMT-49"/>
       <use x="55.615234" xlink:href="#ArialMT-50"/>
       <use x="111.230469" xlink:href="#ArialMT-49"/>
       <use x="166.845703" xlink:href="#ArialMT-50"/>
      </g>
     </g>
    </g>
    <g id="xtick_6">
     <g id="line2d_6">
      <path clip-path="url(#pf1758ec1ed)" d="M 426.233117 315 
L 426.233117 43.2 
" style="fill:none;stroke:#cccccc;stroke-linecap:round;"/>
     </g>
     <g id="text_6">
      <!-- 1515 -->
      <g style="fill:#262626;" transform="translate(413.999055 332.373594)scale(0.11 -0.11)">
       <defs>
        <path d="M 4.15625 18.75 
L 13.375 19.53125 
Q 14.40625 12.796875 18.140625 9.390625 
Q 21.875 6 27.15625 6 
Q 33.5 6 37.890625 10.78125 
Q 42.28125 15.578125 42.28125 23.484375 
Q 42.28125 31 38.0625 35.34375 
Q 33.84375 39.703125 27 39.703125 
Q 22.75 39.703125 19.328125 37.765625 
Q 15.921875 35.84375 13.96875 32.765625 
L 5.71875 33.84375 
L 12.640625 70.609375 
L 48.25 70.609375 
L 48.25 62.203125 
L 19.671875 62.203125 
L 15.828125 42.96875 
Q 22.265625 47.46875 29.34375 47.46875 
Q 38.71875 47.46875 45.15625 40.96875 
Q 51.609375 34.46875 51.609375 24.265625 
Q 51.609375 14.546875 45.953125 7.46875 
Q 39.0625 -1.21875 27.15625 -1.21875 
Q 17.390625 -1.21875 11.203125 4.25 
Q 5.03125 9.71875 4.15625 18.75 
z
" id="ArialMT-53"/>
       </defs>
       <use xlink:href="#ArialMT-49"/>
       <use x="55.615234" xlink:href="#ArialMT-53"/>
       <use x="111.230469" xlink:href="#ArialMT-49"/>
       <use x="166.845703" xlink:href="#ArialMT-53"/>
      </g>
     </g>
    </g>
    <g id="xtick_7">
     <g id="line2d_7">
      <path clip-path="url(#pf1758ec1ed)" d="M 475.479741 315 
L 475.479741 43.2 
" style="fill:none;stroke:#cccccc;stroke-linecap:round;"/>
     </g>
     <g id="text_7">
      <!-- 1818 -->
      <g style="fill:#262626;" transform="translate(463.245678 332.373594)scale(0.11 -0.11)">
       <defs>
        <path d="M 17.671875 38.8125 
Q 12.203125 40.828125 9.5625 44.53125 
Q 6.9375 48.25 6.9375 53.421875 
Q 6.9375 61.234375 12.546875 66.546875 
Q 18.171875 71.875 27.484375 71.875 
Q 36.859375 71.875 42.578125 66.421875 
Q 48.296875 60.984375 48.296875 53.171875 
Q 48.296875 48.1875 45.671875 44.5 
Q 43.0625 40.828125 37.75 38.8125 
Q 44.34375 36.671875 47.78125 31.875 
Q 51.21875 27.09375 51.21875 20.453125 
Q 51.21875 11.28125 44.71875 5.03125 
Q 38.234375 -1.21875 27.640625 -1.21875 
Q 17.046875 -1.21875 10.546875 5.046875 
Q 4.046875 11.328125 4.046875 20.703125 
Q 4.046875 27.6875 7.59375 32.390625 
Q 11.140625 37.109375 17.671875 38.8125 
z
M 15.921875 53.71875 
Q 15.921875 48.640625 19.1875 45.40625 
Q 22.46875 42.1875 27.6875 42.1875 
Q 32.765625 42.1875 36.015625 45.375 
Q 39.265625 48.578125 39.265625 53.21875 
Q 39.265625 58.0625 35.90625 61.359375 
Q 32.5625 64.65625 27.59375 64.65625 
Q 22.5625 64.65625 19.234375 61.421875 
Q 15.921875 58.203125 15.921875 53.71875 
z
M 13.09375 20.65625 
Q 13.09375 16.890625 14.875 13.375 
Q 16.65625 9.859375 20.171875 7.921875 
Q 23.6875 6 27.734375 6 
Q 34.03125 6 38.125 10.046875 
Q 42.234375 14.109375 42.234375 20.359375 
Q 42.234375 26.703125 38.015625 30.859375 
Q 33.796875 35.015625 27.4375 35.015625 
Q 21.234375 35.015625 17.15625 30.90625 
Q 13.09375 26.8125 13.09375 20.65625 
z
" id="ArialMT-56"/>
       </defs>
       <use xlink:href="#ArialMT-49"/>
       <use x="55.615234" xlink:href="#ArialMT-56"/>
       <use x="111.230469" xlink:href="#ArialMT-49"/>
       <use x="166.845703" xlink:href="#ArialMT-56"/>
      </g>
     </g>
    </g>
    <g id="xtick_8">
     <g id="line2d_8">
      <path clip-path="url(#pf1758ec1ed)" d="M 524.726364 315 
L 524.726364 43.2 
" style="fill:none;stroke:#cccccc;stroke-linecap:round;"/>
     </g>
     <g id="text_8">
      <!-- 2121 -->
      <g style="fill:#262626;" transform="translate(512.492301 332.373594)scale(0.11 -0.11)">
       <use xlink:href="#ArialMT-50"/>
       <use x="55.615234" xlink:href="#ArialMT-49"/>
       <use x="111.230469" xlink:href="#ArialMT-50"/>
       <use x="166.845703" xlink:href="#ArialMT-49"/>
      </g>
     </g>
    </g>
    <g id="xtick_9">
     <g id="line2d_9">
      <path clip-path="url(#pf1758ec1ed)" d="M 573.972987 315 
L 573.972987 43.2 
" style="fill:none;stroke:#cccccc;stroke-linecap:round;"/>
     </g>
     <g id="text_9">
      <!-- 2424 -->
      <g style="fill:#262626;" transform="translate(561.738925 332.373594)scale(0.11 -0.11)">
       <defs>
        <path d="M 32.328125 0 
L 32.328125 17.140625 
L 1.265625 17.140625 
L 1.265625 25.203125 
L 33.9375 71.578125 
L 41.109375 71.578125 
L 41.109375 25.203125 
L 50.78125 25.203125 
L 50.78125 17.140625 
L 41.109375 17.140625 
L 41.109375 0 
z
M 32.328125 25.203125 
L 32.328125 57.46875 
L 9.90625 25.203125 
z
" id="ArialMT-52"/>
       </defs>
       <use xlink:href="#ArialMT-50"/>
       <use x="55.615234" xlink:href="#ArialMT-52"/>
       <use x="111.230469" xlink:href="#ArialMT-50"/>
       <use x="166.845703" xlink:href="#ArialMT-52"/>
      </g>
     </g>
    </g>
    <g id="xtick_10">
     <g id="line2d_10">
      <path clip-path="url(#pf1758ec1ed)" d="M 623.219611 315 
L 623.219611 43.2 
" style="fill:none;stroke:#cccccc;stroke-linecap:round;"/>
     </g>
     <g id="text_10">
      <!-- 2727 -->
      <g style="fill:#262626;" transform="translate(610.985548 332.373594)scale(0.11 -0.11)">
       <defs>
        <path d="M 4.734375 62.203125 
L 4.734375 70.65625 
L 51.078125 70.65625 
L 51.078125 63.8125 
Q 44.234375 56.546875 37.515625 44.484375 
Q 30.8125 32.421875 27.15625 19.671875 
Q 24.515625 10.6875 23.78125 0 
L 14.75 0 
Q 14.890625 8.453125 18.0625 20.40625 
Q 21.234375 32.375 27.171875 43.484375 
Q 33.109375 54.59375 39.796875 62.203125 
z
" id="ArialMT-55"/>
       </defs>
       <use xlink:href="#ArialMT-50"/>
       <use x="55.615234" xlink:href="#ArialMT-55"/>
       <use x="111.230469" xlink:href="#ArialMT-50"/>
       <use x="166.845703" xlink:href="#ArialMT-55"/>
      </g>
     </g>
    </g>
    <g id="text_11">
     <!-- membership_days -->
     <g style="fill:#262626;" transform="translate(384.617301 347.149219)scale(0.12 -0.12)">
      <defs>
       <path d="M 6.59375 0 
L 6.59375 51.859375 
L 14.453125 51.859375 
L 14.453125 44.578125 
Q 16.890625 48.390625 20.9375 50.703125 
Q 25 53.03125 30.171875 53.03125 
Q 35.9375 53.03125 39.625 50.640625 
Q 43.3125 48.25 44.828125 43.953125 
Q 50.984375 53.03125 60.84375 53.03125 
Q 68.5625 53.03125 72.703125 48.75 
Q 76.859375 44.484375 76.859375 35.59375 
L 76.859375 0 
L 68.109375 0 
L 68.109375 32.671875 
Q 68.109375 37.9375 67.25 40.25 
Q 66.40625 42.578125 64.15625 43.984375 
Q 61.921875 45.40625 58.890625 45.40625 
Q 53.421875 45.40625 49.796875 41.765625 
Q 46.1875 38.140625 46.1875 30.125 
L 46.1875 0 
L 37.40625 0 
L 37.40625 33.6875 
Q 37.40625 39.546875 35.25 42.46875 
Q 33.109375 45.40625 28.21875 45.40625 
Q 24.515625 45.40625 21.359375 43.453125 
Q 18.21875 41.5 16.796875 37.734375 
Q 15.375 33.984375 15.375 26.90625 
L 15.375 0 
z
" id="ArialMT-109"/>
       <path d="M 42.09375 16.703125 
L 51.171875 15.578125 
Q 49.03125 7.625 43.21875 3.21875 
Q 37.40625 -1.171875 28.375 -1.171875 
Q 17 -1.171875 10.328125 5.828125 
Q 3.65625 12.84375 3.65625 25.484375 
Q 3.65625 38.578125 10.390625 45.796875 
Q 17.140625 53.03125 27.875 53.03125 
Q 38.28125 53.03125 44.875 45.953125 
Q 51.46875 38.875 51.46875 26.03125 
Q 51.46875 25.25 51.421875 23.6875 
L 12.75 23.6875 
Q 13.234375 15.140625 17.578125 10.59375 
Q 21.921875 6.0625 28.421875 6.0625 
Q 33.25 6.0625 36.671875 8.59375 
Q 40.09375 11.140625 42.09375 16.703125 
z
M 13.234375 30.90625 
L 42.1875 30.90625 
Q 41.609375 37.453125 38.875 40.71875 
Q 34.671875 45.796875 27.984375 45.796875 
Q 21.921875 45.796875 17.796875 41.75 
Q 13.671875 37.703125 13.234375 30.90625 
z
" id="ArialMT-101"/>
       <path d="M 14.703125 0 
L 6.546875 0 
L 6.546875 71.578125 
L 15.328125 71.578125 
L 15.328125 46.046875 
Q 20.90625 53.03125 29.546875 53.03125 
Q 34.328125 53.03125 38.59375 51.09375 
Q 42.875 49.171875 45.625 45.671875 
Q 48.390625 42.1875 49.953125 37.25 
Q 51.515625 32.328125 51.515625 26.703125 
Q 51.515625 13.375 44.921875 6.09375 
Q 38.328125 -1.171875 29.109375 -1.171875 
Q 19.921875 -1.171875 14.703125 6.5 
z
M 14.59375 26.3125 
Q 14.59375 17 17.140625 12.84375 
Q 21.296875 6.0625 28.375 6.0625 
Q 34.125 6.0625 38.328125 11.0625 
Q 42.53125 16.0625 42.53125 25.984375 
Q 42.53125 36.140625 38.5 40.96875 
Q 34.46875 45.796875 28.765625 45.796875 
Q 23 45.796875 18.796875 40.796875 
Q 14.59375 35.796875 14.59375 26.3125 
z
" id="ArialMT-98"/>
       <path d="M 6.5 0 
L 6.5 51.859375 
L 14.40625 51.859375 
L 14.40625 44 
Q 17.4375 49.515625 20 51.265625 
Q 22.5625 53.03125 25.640625 53.03125 
Q 30.078125 53.03125 34.671875 50.203125 
L 31.640625 42.046875 
Q 28.421875 43.953125 25.203125 43.953125 
Q 22.3125 43.953125 20.015625 42.21875 
Q 17.71875 40.484375 16.75 37.40625 
Q 15.28125 32.71875 15.28125 27.15625 
L 15.28125 0 
z
" id="ArialMT-114"/>
       <path d="M 3.078125 15.484375 
L 11.765625 16.84375 
Q 12.5 11.625 15.84375 8.84375 
Q 19.1875 6.0625 25.203125 6.0625 
Q 31.25 6.0625 34.171875 8.515625 
Q 37.109375 10.984375 37.109375 14.3125 
Q 37.109375 17.28125 34.515625 19 
Q 32.71875 20.171875 25.53125 21.96875 
Q 15.875 24.421875 12.140625 26.203125 
Q 8.40625 27.984375 6.46875 31.125 
Q 4.546875 34.28125 4.546875 38.09375 
Q 4.546875 41.546875 6.125 44.5 
Q 7.71875 47.46875 10.453125 49.421875 
Q 12.5 50.921875 16.03125 51.96875 
Q 19.578125 53.03125 23.640625 53.03125 
Q 29.734375 53.03125 34.34375 51.265625 
Q 38.96875 49.515625 41.15625 46.5 
Q 43.359375 43.5 44.1875 38.484375 
L 35.59375 37.3125 
Q 35.015625 41.3125 32.203125 43.546875 
Q 29.390625 45.796875 24.265625 45.796875 
Q 18.21875 45.796875 15.625 43.796875 
Q 13.03125 41.796875 13.03125 39.109375 
Q 13.03125 37.40625 14.109375 36.03125 
Q 15.1875 34.625 17.484375 33.6875 
Q 18.796875 33.203125 25.25 31.453125 
Q 34.578125 28.953125 38.25 27.359375 
Q 41.9375 25.78125 44.03125 22.75 
Q 46.140625 19.734375 46.140625 15.234375 
Q 46.140625 10.84375 43.578125 6.953125 
Q 41.015625 3.078125 36.171875 0.953125 
Q 31.34375 -1.171875 25.25 -1.171875 
Q 15.140625 -1.171875 9.84375 3.03125 
Q 4.546875 7.234375 3.078125 15.484375 
z
" id="ArialMT-115"/>
       <path d="M 6.59375 0 
L 6.59375 71.578125 
L 15.375 71.578125 
L 15.375 45.90625 
Q 21.53125 53.03125 30.90625 53.03125 
Q 36.671875 53.03125 40.921875 50.75 
Q 45.171875 48.484375 47 44.484375 
Q 48.828125 40.484375 48.828125 32.859375 
L 48.828125 0 
L 40.046875 0 
L 40.046875 32.859375 
Q 40.046875 39.453125 37.1875 42.453125 
Q 34.328125 45.453125 29.109375 45.453125 
Q 25.203125 45.453125 21.75 43.421875 
Q 18.3125 41.40625 16.84375 37.9375 
Q 15.375 34.46875 15.375 28.375 
L 15.375 0 
z
" id="ArialMT-104"/>
       <path d="M 6.640625 61.46875 
L 6.640625 71.578125 
L 15.4375 71.578125 
L 15.4375 61.46875 
z
M 6.640625 0 
L 6.640625 51.859375 
L 15.4375 51.859375 
L 15.4375 0 
z
" id="ArialMT-105"/>
       <path d="M 6.59375 -19.875 
L 6.59375 51.859375 
L 14.59375 51.859375 
L 14.59375 45.125 
Q 17.4375 49.078125 21 51.046875 
Q 24.5625 53.03125 29.640625 53.03125 
Q 36.28125 53.03125 41.359375 49.609375 
Q 46.4375 46.1875 49.015625 39.953125 
Q 51.609375 33.734375 51.609375 26.3125 
Q 51.609375 18.359375 48.75 11.984375 
Q 45.90625 5.609375 40.453125 2.21875 
Q 35.015625 -1.171875 29 -1.171875 
Q 24.609375 -1.171875 21.109375 0.6875 
Q 17.625 2.546875 15.375 5.375 
L 15.375 -19.875 
z
M 14.546875 25.640625 
Q 14.546875 15.625 18.59375 10.84375 
Q 22.65625 6.0625 28.421875 6.0625 
Q 34.28125 6.0625 38.453125 11.015625 
Q 42.625 15.96875 42.625 26.375 
Q 42.625 36.28125 38.546875 41.203125 
Q 34.46875 46.140625 28.8125 46.140625 
Q 23.1875 46.140625 18.859375 40.890625 
Q 14.546875 35.640625 14.546875 25.640625 
z
" id="ArialMT-112"/>
       <path d="M -1.515625 -19.875 
L -1.515625 -13.53125 
L 56.734375 -13.53125 
L 56.734375 -19.875 
z
" id="ArialMT-95"/>
       <path d="M 40.234375 0 
L 40.234375 6.546875 
Q 35.296875 -1.171875 25.734375 -1.171875 
Q 19.53125 -1.171875 14.328125 2.25 
Q 9.125 5.671875 6.265625 11.796875 
Q 3.421875 17.921875 3.421875 25.875 
Q 3.421875 33.640625 6 39.96875 
Q 8.59375 46.296875 13.765625 49.65625 
Q 18.953125 53.03125 25.34375 53.03125 
Q 30.03125 53.03125 33.6875 51.046875 
Q 37.359375 49.078125 39.65625 45.90625 
L 39.65625 71.578125 
L 48.390625 71.578125 
L 48.390625 0 
z
M 12.453125 25.875 
Q 12.453125 15.921875 16.640625 10.984375 
Q 20.84375 6.0625 26.5625 6.0625 
Q 32.328125 6.0625 36.34375 10.765625 
Q 40.375 15.484375 40.375 25.140625 
Q 40.375 35.796875 36.265625 40.765625 
Q 32.171875 45.75 26.171875 45.75 
Q 20.3125 45.75 16.375 40.96875 
Q 12.453125 36.1875 12.453125 25.875 
z
" id="ArialMT-100"/>
       <path d="M 40.4375 6.390625 
Q 35.546875 2.25 31.03125 0.53125 
Q 26.515625 -1.171875 21.34375 -1.171875 
Q 12.796875 -1.171875 8.203125 3 
Q 3.609375 7.171875 3.609375 13.671875 
Q 3.609375 17.484375 5.34375 20.625 
Q 7.078125 23.78125 9.890625 25.6875 
Q 12.703125 27.59375 16.21875 28.5625 
Q 18.796875 29.25 24.03125 29.890625 
Q 34.671875 31.15625 39.703125 32.90625 
Q 39.75 34.71875 39.75 35.203125 
Q 39.75 40.578125 37.25 42.78125 
Q 33.890625 45.75 27.25 45.75 
Q 21.046875 45.75 18.09375 43.578125 
Q 15.140625 41.40625 13.71875 35.890625 
L 5.125 37.0625 
Q 6.296875 42.578125 8.984375 45.96875 
Q 11.671875 49.359375 16.75 51.1875 
Q 21.828125 53.03125 28.515625 53.03125 
Q 35.15625 53.03125 39.296875 51.46875 
Q 43.453125 49.90625 45.40625 47.53125 
Q 47.359375 45.171875 48.140625 41.546875 
Q 48.578125 39.3125 48.578125 33.453125 
L 48.578125 21.734375 
Q 48.578125 9.46875 49.140625 6.21875 
Q 49.703125 2.984375 51.375 0 
L 42.1875 0 
Q 40.828125 2.734375 40.4375 6.390625 
z
M 39.703125 26.03125 
Q 34.90625 24.078125 25.34375 22.703125 
Q 19.921875 21.921875 17.671875 20.9375 
Q 15.4375 19.96875 14.203125 18.09375 
Q 12.984375 16.21875 12.984375 13.921875 
Q 12.984375 10.40625 15.640625 8.0625 
Q 18.3125 5.71875 23.4375 5.71875 
Q 28.515625 5.71875 32.46875 7.9375 
Q 36.421875 10.15625 38.28125 14.015625 
Q 39.703125 17 39.703125 22.796875 
z
" id="ArialMT-97"/>
       <path d="M 6.203125 -19.96875 
L 5.21875 -11.71875 
Q 8.109375 -12.5 10.25 -12.5 
Q 13.1875 -12.5 14.9375 -11.515625 
Q 16.703125 -10.546875 17.828125 -8.796875 
Q 18.65625 -7.46875 20.515625 -2.25 
Q 20.75 -1.515625 21.296875 -0.09375 
L 1.609375 51.859375 
L 11.078125 51.859375 
L 21.875 21.828125 
Q 23.96875 16.109375 25.640625 9.8125 
Q 27.15625 15.875 29.25 21.625 
L 40.328125 51.859375 
L 49.125 51.859375 
L 29.390625 -0.875 
Q 26.21875 -9.421875 24.46875 -12.640625 
Q 22.125 -17 19.09375 -19.015625 
Q 16.0625 -21.046875 11.859375 -21.046875 
Q 9.328125 -21.046875 6.203125 -19.96875 
z
" id="ArialMT-121"/>
      </defs>
      <use xlink:href="#ArialMT-109"/>
      <use x="83.300781" xlink:href="#ArialMT-101"/>
      <use x="138.916016" xlink:href="#ArialMT-109"/>
      <use x="222.216797" xlink:href="#ArialMT-98"/>
      <use x="277.832031" xlink:href="#ArialMT-101"/>
      <use x="333.447266" xlink:href="#ArialMT-114"/>
      <use x="366.748047" xlink:href="#ArialMT-115"/>
      <use x="416.748047" xlink:href="#ArialMT-104"/>
      <use x="472.363281" xlink:href="#ArialMT-105"/>
      <use x="494.580078" xlink:href="#ArialMT-112"/>
      <use x="550.195312" xlink:href="#ArialMT-95"/>
      <use x="605.810547" xlink:href="#ArialMT-100"/>
      <use x="661.425781" xlink:href="#ArialMT-97"/>
      <use x="717.041016" xlink:href="#ArialMT-121"/>
      <use x="767.041016" xlink:href="#ArialMT-115"/>
     </g>
    </g>
   </g>
   <g id="matplotlib.axis_2">
    <g id="ytick_1">
     <g id="line2d_11">
      <path clip-path="url(#pf1758ec1ed)" d="M 180 315 
L 687.272727 315 
" style="fill:none;stroke:#cccccc;stroke-linecap:round;"/>
     </g>
     <g id="text_12">
      <!-- 0 -->
      <g style="fill:#262626;" transform="translate(164.382969 318.936797)scale(0.11 -0.11)">
       <use xlink:href="#ArialMT-48"/>
      </g>
     </g>
    </g>
    <g id="ytick_2">
     <g id="line2d_12">
      <path clip-path="url(#pf1758ec1ed)" d="M 180 275.68988 
L 687.272727 275.68988 
" style="fill:none;stroke:#cccccc;stroke-linecap:round;"/>
     </g>
     <g id="text_13">
      <!-- 200 -->
      <g style="fill:#262626;" transform="translate(152.148906 279.626676)scale(0.11 -0.11)">
       <use xlink:href="#ArialMT-50"/>
       <use x="55.615234" xlink:href="#ArialMT-48"/>
       <use x="111.230469" xlink:href="#ArialMT-48"/>
      </g>
     </g>
    </g>
    <g id="ytick_3">
     <g id="line2d_13">
      <path clip-path="url(#pf1758ec1ed)" d="M 180 236.379759 
L 687.272727 236.379759 
" style="fill:none;stroke:#cccccc;stroke-linecap:round;"/>
     </g>
     <g id="text_14">
      <!-- 400 -->
      <g style="fill:#262626;" transform="translate(152.148906 240.316556)scale(0.11 -0.11)">
       <use xlink:href="#ArialMT-52"/>
       <use x="55.615234" xlink:href="#ArialMT-48"/>
       <use x="111.230469" xlink:href="#ArialMT-48"/>
      </g>
     </g>
    </g>
    <g id="ytick_4">
     <g id="line2d_14">
      <path clip-path="url(#pf1758ec1ed)" d="M 180 197.069639 
L 687.272727 197.069639 
" style="fill:none;stroke:#cccccc;stroke-linecap:round;"/>
     </g>
     <g id="text_15">
      <!-- 600 -->
      <g style="fill:#262626;" transform="translate(152.148906 201.006436)scale(0.11 -0.11)">
       <use xlink:href="#ArialMT-54"/>
       <use x="55.615234" xlink:href="#ArialMT-48"/>
       <use x="111.230469" xlink:href="#ArialMT-48"/>
      </g>
     </g>
    </g>
    <g id="ytick_5">
     <g id="line2d_15">
      <path clip-path="url(#pf1758ec1ed)" d="M 180 157.759518 
L 687.272727 157.759518 
" style="fill:none;stroke:#cccccc;stroke-linecap:round;"/>
     </g>
     <g id="text_16">
      <!-- 800 -->
      <g style="fill:#262626;" transform="translate(152.148906 161.696315)scale(0.11 -0.11)">
       <use xlink:href="#ArialMT-56"/>
       <use x="55.615234" xlink:href="#ArialMT-48"/>
       <use x="111.230469" xlink:href="#ArialMT-48"/>
      </g>
     </g>
    </g>
    <g id="ytick_6">
     <g id="line2d_16">
      <path clip-path="url(#pf1758ec1ed)" d="M 180 118.449398 
L 687.272727 118.449398 
" style="fill:none;stroke:#cccccc;stroke-linecap:round;"/>
     </g>
     <g id="text_17">
      <!-- 1000 -->
      <g style="fill:#262626;" transform="translate(146.031875 122.386195)scale(0.11 -0.11)">
       <use xlink:href="#ArialMT-49"/>
       <use x="55.615234" xlink:href="#ArialMT-48"/>
       <use x="111.230469" xlink:href="#ArialMT-48"/>
       <use x="166.845703" xlink:href="#ArialMT-48"/>
      </g>
     </g>
    </g>
    <g id="ytick_7">
     <g id="line2d_17">
      <path clip-path="url(#pf1758ec1ed)" d="M 180 79.139278 
L 687.272727 79.139278 
" style="fill:none;stroke:#cccccc;stroke-linecap:round;"/>
     </g>
     <g id="text_18">
      <!-- 1200 -->
      <g style="fill:#262626;" transform="translate(146.031875 83.076074)scale(0.11 -0.11)">
       <use xlink:href="#ArialMT-49"/>
       <use x="55.615234" xlink:href="#ArialMT-50"/>
       <use x="111.230469" xlink:href="#ArialMT-48"/>
       <use x="166.845703" xlink:href="#ArialMT-48"/>
      </g>
     </g>
    </g>
    <g id="text_19">
     <!-- count of user -->
     <g style="fill:#262626;" transform="translate(139.646875 213.784687)rotate(-90)scale(0.12 -0.12)">
      <defs>
       <path d="M 40.4375 19 
L 49.078125 17.875 
Q 47.65625 8.9375 41.8125 3.875 
Q 35.984375 -1.171875 27.484375 -1.171875 
Q 16.84375 -1.171875 10.375 5.78125 
Q 3.90625 12.75 3.90625 25.734375 
Q 3.90625 34.125 6.6875 40.421875 
Q 9.46875 46.734375 15.15625 49.875 
Q 20.84375 53.03125 27.546875 53.03125 
Q 35.984375 53.03125 41.359375 48.75 
Q 46.734375 44.484375 48.25 36.625 
L 39.703125 35.296875 
Q 38.484375 40.53125 35.375 43.15625 
Q 32.28125 45.796875 27.875 45.796875 
Q 21.234375 45.796875 17.078125 41.03125 
Q 12.9375 36.28125 12.9375 25.984375 
Q 12.9375 15.53125 16.9375 10.796875 
Q 20.953125 6.0625 27.390625 6.0625 
Q 32.5625 6.0625 36.03125 9.234375 
Q 39.5 12.40625 40.4375 19 
z
" id="ArialMT-99"/>
       <path d="M 3.328125 25.921875 
Q 3.328125 40.328125 11.328125 47.265625 
Q 18.015625 53.03125 27.640625 53.03125 
Q 38.328125 53.03125 45.109375 46.015625 
Q 51.90625 39.015625 51.90625 26.65625 
Q 51.90625 16.65625 48.90625 10.90625 
Q 45.90625 5.171875 40.15625 2 
Q 34.421875 -1.171875 27.640625 -1.171875 
Q 16.75 -1.171875 10.03125 5.8125 
Q 3.328125 12.796875 3.328125 25.921875 
z
M 12.359375 25.921875 
Q 12.359375 15.96875 16.703125 11.015625 
Q 21.046875 6.0625 27.640625 6.0625 
Q 34.1875 6.0625 38.53125 11.03125 
Q 42.875 16.015625 42.875 26.21875 
Q 42.875 35.84375 38.5 40.796875 
Q 34.125 45.75 27.640625 45.75 
Q 21.046875 45.75 16.703125 40.8125 
Q 12.359375 35.890625 12.359375 25.921875 
z
" id="ArialMT-111"/>
       <path d="M 40.578125 0 
L 40.578125 7.625 
Q 34.515625 -1.171875 24.125 -1.171875 
Q 19.53125 -1.171875 15.546875 0.578125 
Q 11.578125 2.34375 9.640625 5 
Q 7.71875 7.671875 6.9375 11.53125 
Q 6.390625 14.109375 6.390625 19.734375 
L 6.390625 51.859375 
L 15.1875 51.859375 
L 15.1875 23.09375 
Q 15.1875 16.21875 15.71875 13.8125 
Q 16.546875 10.359375 19.234375 8.375 
Q 21.921875 6.390625 25.875 6.390625 
Q 29.828125 6.390625 33.296875 8.421875 
Q 36.765625 10.453125 38.203125 13.9375 
Q 39.65625 17.4375 39.65625 24.078125 
L 39.65625 51.859375 
L 48.4375 51.859375 
L 48.4375 0 
z
" id="ArialMT-117"/>
       <path d="M 6.59375 0 
L 6.59375 51.859375 
L 14.5 51.859375 
L 14.5 44.484375 
Q 20.21875 53.03125 31 53.03125 
Q 35.6875 53.03125 39.625 51.34375 
Q 43.5625 49.65625 45.515625 46.921875 
Q 47.46875 44.1875 48.25 40.4375 
Q 48.734375 37.984375 48.734375 31.890625 
L 48.734375 0 
L 39.9375 0 
L 39.9375 31.546875 
Q 39.9375 36.921875 38.90625 39.578125 
Q 37.890625 42.234375 35.28125 43.8125 
Q 32.671875 45.40625 29.15625 45.40625 
Q 23.53125 45.40625 19.453125 41.84375 
Q 15.375 38.28125 15.375 28.328125 
L 15.375 0 
z
" id="ArialMT-110"/>
       <path d="M 25.78125 7.859375 
L 27.046875 0.09375 
Q 23.34375 -0.6875 20.40625 -0.6875 
Q 15.625 -0.6875 12.984375 0.828125 
Q 10.359375 2.34375 9.28125 4.8125 
Q 8.203125 7.28125 8.203125 15.1875 
L 8.203125 45.015625 
L 1.765625 45.015625 
L 1.765625 51.859375 
L 8.203125 51.859375 
L 8.203125 64.703125 
L 16.9375 69.96875 
L 16.9375 51.859375 
L 25.78125 51.859375 
L 25.78125 45.015625 
L 16.9375 45.015625 
L 16.9375 14.703125 
Q 16.9375 10.9375 17.40625 9.859375 
Q 17.875 8.796875 18.921875 8.15625 
Q 19.96875 7.515625 21.921875 7.515625 
Q 23.390625 7.515625 25.78125 7.859375 
z
" id="ArialMT-116"/>
       <path id="ArialMT-32"/>
       <path d="M 8.6875 0 
L 8.6875 45.015625 
L 0.921875 45.015625 
L 0.921875 51.859375 
L 8.6875 51.859375 
L 8.6875 57.375 
Q 8.6875 62.59375 9.625 65.140625 
Q 10.890625 68.5625 14.078125 70.671875 
Q 17.28125 72.796875 23.046875 72.796875 
Q 26.765625 72.796875 31.25 71.921875 
L 29.9375 64.265625 
Q 27.203125 64.75 24.75 64.75 
Q 20.75 64.75 19.09375 63.03125 
Q 17.4375 61.328125 17.4375 56.640625 
L 17.4375 51.859375 
L 27.546875 51.859375 
L 27.546875 45.015625 
L 17.4375 45.015625 
L 17.4375 0 
z
" id="ArialMT-102"/>
      </defs>
      <use xlink:href="#ArialMT-99"/>
      <use x="50" xlink:href="#ArialMT-111"/>
      <use x="105.615234" xlink:href="#ArialMT-117"/>
      <use x="161.230469" xlink:href="#ArialMT-110"/>
      <use x="216.845703" xlink:href="#ArialMT-116"/>
      <use x="244.628906" xlink:href="#ArialMT-32"/>
      <use x="272.412109" xlink:href="#ArialMT-111"/>
      <use x="328.027344" xlink:href="#ArialMT-102"/>
      <use x="355.810547" xlink:href="#ArialMT-32"/>
      <use x="383.59375" xlink:href="#ArialMT-117"/>
      <use x="439.208984" xlink:href="#ArialMT-115"/>
      <use x="489.208984" xlink:href="#ArialMT-101"/>
      <use x="544.824219" xlink:href="#ArialMT-114"/>
     </g>
    </g>
   </g>
   <g id="patch_3">
    <path clip-path="url(#pf1758ec1ed)" d="M 376.336373 315 
L 391.142866 315 
L 391.142866 204.14546 
L 376.336373 204.14546 
z
" style="fill:#4c72b0;fill-opacity:0.5;"/>
   </g>
   <g id="patch_4">
    <path clip-path="url(#pf1758ec1ed)" d="M 391.142866 315 
L 405.949359 315 
L 405.949359 212.400586 
L 391.142866 212.400586 
z
" style="fill:#4c72b0;fill-opacity:0.5;"/>
   </g>
   <g id="patch_5">
    <path clip-path="url(#pf1758ec1ed)" d="M 405.949359 315 
L 420.755852 315 
L 420.755852 132.01139 
L 405.949359 132.01139 
z
" style="fill:#4c72b0;fill-opacity:0.5;"/>
   </g>
   <g id="patch_6">
    <path clip-path="url(#pf1758ec1ed)" d="M 420.755852 315 
L 435.562345 315 
L 435.562345 136.532053 
L 420.755852 136.532053 
z
" style="fill:#4c72b0;fill-opacity:0.5;"/>
   </g>
   <g id="patch_7">
    <path clip-path="url(#pf1758ec1ed)" d="M 435.562345 315 
L 450.368838 315 
L 450.368838 246.207289 
L 435.562345 246.207289 
z
" style="fill:#4c72b0;fill-opacity:0.5;"/>
   </g>
   <g id="patch_8">
    <path clip-path="url(#pf1758ec1ed)" d="M 450.368838 315 
L 465.175332 315 
L 465.175332 241.096974 
L 450.368838 241.096974 
z
" style="fill:#4c72b0;fill-opacity:0.5;"/>
   </g>
   <g id="patch_9">
    <path clip-path="url(#pf1758ec1ed)" d="M 465.175332 315 
L 479.981825 315 
L 479.981825 243.25903 
L 465.175332 243.25903 
z
" style="fill:#4c72b0;fill-opacity:0.5;"/>
   </g>
   <g id="patch_10">
    <path clip-path="url(#pf1758ec1ed)" d="M 479.981825 315 
L 494.788318 315 
L 494.788318 243.06248 
L 479.981825 243.06248 
z
" style="fill:#4c72b0;fill-opacity:0.5;"/>
   </g>
   <g id="patch_11">
    <path clip-path="url(#pf1758ec1ed)" d="M 494.788318 315 
L 509.594811 315 
L 509.594811 237.362512 
L 494.788318 237.362512 
z
" style="fill:#4c72b0;fill-opacity:0.5;"/>
   </g>
   <g id="patch_12">
    <path clip-path="url(#pf1758ec1ed)" d="M 509.594811 315 
L 524.401304 315 
L 524.401304 240.900423 
L 509.594811 240.900423 
z
" style="fill:#4c72b0;fill-opacity:0.5;"/>
   </g>
   <g id="patch_13">
    <path clip-path="url(#pf1758ec1ed)" d="M 524.401304 315 
L 539.207797 315 
L 539.207797 247.779694 
L 524.401304 247.779694 
z
" style="fill:#4c72b0;fill-opacity:0.5;"/>
   </g>
   <g id="patch_14">
    <path clip-path="url(#pf1758ec1ed)" d="M 539.207797 315 
L 554.01429 315 
L 554.01429 250.334852 
L 539.207797 250.334852 
z
" style="fill:#4c72b0;fill-opacity:0.5;"/>
   </g>
   <g id="patch_15">
    <path clip-path="url(#pf1758ec1ed)" d="M 554.01429 315 
L 568.820783 315 
L 568.820783 307.531077 
L 554.01429 307.531077 
z
" style="fill:#4c72b0;fill-opacity:0.5;"/>
   </g>
   <g id="patch_16">
    <path clip-path="url(#pf1758ec1ed)" d="M 568.820783 315 
L 583.627276 315 
L 583.627276 306.155223 
L 568.820783 306.155223 
z
" style="fill:#4c72b0;fill-opacity:0.5;"/>
   </g>
   <g id="patch_17">
    <path clip-path="url(#pf1758ec1ed)" d="M 583.627276 315 
L 598.433769 315 
L 598.433769 308.906931 
L 583.627276 308.906931 
z
" style="fill:#4c72b0;fill-opacity:0.5;"/>
   </g>
   <g id="patch_18">
    <path clip-path="url(#pf1758ec1ed)" d="M 598.433769 315 
L 613.240262 315 
L 613.240262 309.103482 
L 598.433769 309.103482 
z
" style="fill:#4c72b0;fill-opacity:0.5;"/>
   </g>
   <g id="patch_19">
    <path clip-path="url(#pf1758ec1ed)" d="M 613.240262 315 
L 628.046755 315 
L 628.046755 308.31728 
L 613.240262 308.31728 
z
" style="fill:#4c72b0;fill-opacity:0.5;"/>
   </g>
   <g id="patch_20">
    <path clip-path="url(#pf1758ec1ed)" d="M 628.046755 315 
L 642.853248 315 
L 642.853248 306.548324 
L 628.046755 306.548324 
z
" style="fill:#4c72b0;fill-opacity:0.5;"/>
   </g>
   <g id="patch_21">
    <path clip-path="url(#pf1758ec1ed)" d="M 642.853248 315 
L 657.659741 315 
L 657.659741 308.31728 
L 642.853248 308.31728 
z
" style="fill:#4c72b0;fill-opacity:0.5;"/>
   </g>
   <g id="patch_22">
    <path clip-path="url(#pf1758ec1ed)" d="M 657.659741 315 
L 672.466234 315 
L 672.466234 305.369021 
L 657.659741 305.369021 
z
" style="fill:#4c72b0;fill-opacity:0.5;"/>
   </g>
   <g id="line2d_18">
    <path clip-path="url(#pf1758ec1ed)" d="M 376.336373 260.643656 
L 380.800643 242.935734 
L 383.776822 232.296865 
L 386.753002 223.017031 
L 389.729181 215.001455 
L 392.705361 207.807292 
L 397.16963 197.21844 
L 400.145809 189.562678 
L 403.121989 181.245758 
L 409.074348 164.146675 
L 410.562438 160.301002 
L 412.050527 156.841287 
L 413.538617 153.870545 
L 415.026707 151.481048 
L 416.514797 149.750699 
L 418.002886 148.740648 
L 419.490976 148.494023 
L 420.979066 149.035498 
L 422.467156 150.371397 
L 423.955245 152.490026 
L 425.443335 155.362035 
L 426.931425 158.940749 
L 428.419515 163.162548 
L 429.907604 167.94752 
L 432.883784 178.813851 
L 440.324233 208.034596 
L 441.812322 213.290139 
L 443.300412 218.12939 
L 444.788502 222.495991 
L 446.276592 226.35655 
L 447.764681 229.700233 
L 449.252771 232.536833 
L 450.740861 234.893612 
L 452.228951 236.811293 
L 453.71704 238.339671 
L 455.20513 239.533264 
L 456.69322 240.447382 
L 458.18131 241.134882 
L 459.669399 241.643759 
L 462.645579 242.284915 
L 465.621758 242.618374 
L 470.086028 242.830348 
L 474.550297 242.82196 
L 479.014566 242.558354 
L 481.990746 242.201929 
L 486.455015 241.398075 
L 495.383554 239.573076 
L 498.359733 239.241827 
L 501.335913 239.168652 
L 504.312092 239.368318 
L 507.288272 239.820174 
L 510.264451 240.483068 
L 514.72872 241.769142 
L 520.681079 243.797902 
L 528.121528 246.556155 
L 531.097708 247.817219 
L 534.073887 249.345947 
L 535.561977 250.272655 
L 537.050067 251.346046 
L 538.538156 252.595802 
L 540.026246 254.049891 
L 541.514336 255.732253 
L 543.002426 257.660401 
L 544.490515 259.843142 
L 545.978605 262.278683 
L 548.954785 267.841011 
L 551.930964 274.093129 
L 557.883323 286.936301 
L 560.859503 292.588854 
L 562.347592 295.062098 
L 563.835682 297.267535 
L 565.323772 299.196553 
L 566.811862 300.852339 
L 568.299951 302.248243 
L 569.788041 303.405579 
L 571.276131 304.351132 
L 572.764221 305.114624 
L 574.25231 305.726397 
L 577.22849 306.608031 
L 580.204669 307.189474 
L 584.668939 307.766627 
L 590.621298 308.248779 
L 596.573657 308.478934 
L 604.014106 308.485019 
L 614.430734 308.2303 
L 636.75208 307.51679 
L 657.585337 307.543765 
L 660.561516 307.782154 
L 663.537696 308.211607 
L 666.513875 308.845481 
L 670.978144 310.111863 
L 672.466234 310.584918 
L 672.466234 310.584918 
" style="fill:none;stroke:#4c72b0;stroke-linecap:round;stroke-width:1.5;"/>
   </g>
   <g id="patch_23">
    <path d="M 180 315 
L 180 43.2 
" style="fill:none;stroke:#cccccc;stroke-linecap:square;stroke-linejoin:miter;stroke-width:1.25;"/>
   </g>
   <g id="patch_24">
    <path d="M 687.272727 315 
L 687.272727 43.2 
" style="fill:none;stroke:#cccccc;stroke-linecap:square;stroke-linejoin:miter;stroke-width:1.25;"/>
   </g>
   <g id="patch_25">
    <path d="M 180 315 
L 687.272727 315 
" style="fill:none;stroke:#cccccc;stroke-linecap:square;stroke-linejoin:miter;stroke-width:1.25;"/>
   </g>
   <g id="patch_26">
    <path d="M 180 43.2 
L 687.272727 43.2 
" style="fill:none;stroke:#cccccc;stroke-linecap:square;stroke-linejoin:miter;stroke-width:1.25;"/>
   </g>
   <g id="text_20">
    <!-- Number of female / membership_days in Profile dataset -->
    <g style="fill:#262626;" transform="translate(285.576989 37.2)scale(0.12 -0.12)">
     <defs>
      <path d="M 7.625 0 
L 7.625 71.578125 
L 17.328125 71.578125 
L 54.9375 15.375 
L 54.9375 71.578125 
L 64.015625 71.578125 
L 64.015625 0 
L 54.296875 0 
L 16.703125 56.25 
L 16.703125 0 
z
" id="ArialMT-78"/>
      <path d="M 6.390625 0 
L 6.390625 71.578125 
L 15.1875 71.578125 
L 15.1875 0 
z
" id="ArialMT-108"/>
      <path d="M 0 -1.21875 
L 20.75 72.796875 
L 27.78125 72.796875 
L 7.078125 -1.21875 
z
" id="ArialMT-47"/>
      <path d="M 7.71875 0 
L 7.71875 71.578125 
L 34.71875 71.578125 
Q 41.84375 71.578125 45.609375 70.90625 
Q 50.875 70.015625 54.4375 67.546875 
Q 58.015625 65.09375 60.1875 60.640625 
Q 62.359375 56.203125 62.359375 50.875 
Q 62.359375 41.75 56.546875 35.421875 
Q 50.734375 29.109375 35.546875 29.109375 
L 17.1875 29.109375 
L 17.1875 0 
z
M 17.1875 37.546875 
L 35.6875 37.546875 
Q 44.875 37.546875 48.734375 40.96875 
Q 52.59375 44.390625 52.59375 50.59375 
Q 52.59375 55.078125 50.3125 58.265625 
Q 48.046875 61.46875 44.34375 62.5 
Q 41.9375 63.140625 35.5 63.140625 
L 17.1875 63.140625 
z
" id="ArialMT-80"/>
     </defs>
     <use xlink:href="#ArialMT-78"/>
     <use x="72.216797" xlink:href="#ArialMT-117"/>
     <use x="127.832031" xlink:href="#ArialMT-109"/>
     <use x="211.132812" xlink:href="#ArialMT-98"/>
     <use x="266.748047" xlink:href="#ArialMT-101"/>
     <use x="322.363281" xlink:href="#ArialMT-114"/>
     <use x="355.664062" xlink:href="#ArialMT-32"/>
     <use x="383.447266" xlink:href="#ArialMT-111"/>
     <use x="439.0625" xlink:href="#ArialMT-102"/>
     <use x="466.845703" xlink:href="#ArialMT-32"/>
     <use x="494.628906" xlink:href="#ArialMT-102"/>
     <use x="522.412109" xlink:href="#ArialMT-101"/>
     <use x="578.027344" xlink:href="#ArialMT-109"/>
     <use x="661.328125" xlink:href="#ArialMT-97"/>
     <use x="716.943359" xlink:href="#ArialMT-108"/>
     <use x="739.160156" xlink:href="#ArialMT-101"/>
     <use x="794.775391" xlink:href="#ArialMT-32"/>
     <use x="822.558594" xlink:href="#ArialMT-47"/>
     <use x="850.341797" xlink:href="#ArialMT-32"/>
     <use x="878.125" xlink:href="#ArialMT-109"/>
     <use x="961.425781" xlink:href="#ArialMT-101"/>
     <use x="1017.041016" xlink:href="#ArialMT-109"/>
     <use x="1100.341797" xlink:href="#ArialMT-98"/>
     <use x="1155.957031" xlink:href="#ArialMT-101"/>
     <use x="1211.572266" xlink:href="#ArialMT-114"/>
     <use x="1244.873047" xlink:href="#ArialMT-115"/>
     <use x="1294.873047" xlink:href="#ArialMT-104"/>
     <use x="1350.488281" xlink:href="#ArialMT-105"/>
     <use x="1372.705078" xlink:href="#ArialMT-112"/>
     <use x="1428.320312" xlink:href="#ArialMT-95"/>
     <use x="1483.935547" xlink:href="#ArialMT-100"/>
     <use x="1539.550781" xlink:href="#ArialMT-97"/>
     <use x="1595.166016" xlink:href="#ArialMT-121"/>
     <use x="1645.166016" xlink:href="#ArialMT-115"/>
     <use x="1695.166016" xlink:href="#ArialMT-32"/>
     <use x="1722.949219" xlink:href="#ArialMT-105"/>
     <use x="1745.166016" xlink:href="#ArialMT-110"/>
     <use x="1800.78125" xlink:href="#ArialMT-32"/>
     <use x="1828.564453" xlink:href="#ArialMT-80"/>
     <use x="1895.263672" xlink:href="#ArialMT-114"/>
     <use x="1928.564453" xlink:href="#ArialMT-111"/>
     <use x="1984.179688" xlink:href="#ArialMT-102"/>
     <use x="2011.962891" xlink:href="#ArialMT-105"/>
     <use x="2034.179688" xlink:href="#ArialMT-108"/>
     <use x="2056.396484" xlink:href="#ArialMT-101"/>
     <use x="2112.011719" xlink:href="#ArialMT-32"/>
     <use x="2139.794922" xlink:href="#ArialMT-100"/>
     <use x="2195.410156" xlink:href="#ArialMT-97"/>
     <use x="2251.025391" xlink:href="#ArialMT-116"/>
     <use x="2278.808594" xlink:href="#ArialMT-97"/>
     <use x="2334.423828" xlink:href="#ArialMT-115"/>
     <use x="2384.423828" xlink:href="#ArialMT-101"/>
     <use x="2440.039062" xlink:href="#ArialMT-116"/>
    </g>
   </g>
  </g>
  <g id="axes_2">
   <g id="patch_27">
    <path d="M 788.727273 315 
L 1296 315 
L 1296 43.2 
L 788.727273 43.2 
z
" style="fill:#ffffff;"/>
   </g>
   <g id="matplotlib.axis_3">
    <g id="xtick_11">
     <g id="line2d_19">
      <path clip-path="url(#p13bceb2d1a)" d="M 788.727273 315 
L 788.727273 43.2 
" style="fill:none;stroke:#cccccc;stroke-linecap:round;"/>
     </g>
     <g id="text_21">
      <!-- 0 -->
      <g style="fill:#262626;" transform="translate(785.668757 332.373594)scale(0.11 -0.11)">
       <use xlink:href="#ArialMT-48"/>
      </g>
     </g>
    </g>
    <g id="xtick_12">
     <g id="line2d_20">
      <path clip-path="url(#p13bceb2d1a)" d="M 837.957334 315 
L 837.957334 43.2 
" style="fill:none;stroke:#cccccc;stroke-linecap:round;"/>
     </g>
     <g id="text_22">
      <!-- 303 -->
      <g style="fill:#262626;" transform="translate(828.781787 332.373594)scale(0.11 -0.11)">
       <use xlink:href="#ArialMT-51"/>
       <use x="55.615234" xlink:href="#ArialMT-48"/>
       <use x="111.230469" xlink:href="#ArialMT-51"/>
      </g>
     </g>
    </g>
    <g id="xtick_13">
     <g id="line2d_21">
      <path clip-path="url(#p13bceb2d1a)" d="M 887.187396 315 
L 887.187396 43.2 
" style="fill:none;stroke:#cccccc;stroke-linecap:round;"/>
     </g>
     <g id="text_23">
      <!-- 606 -->
      <g style="fill:#262626;" transform="translate(878.011849 332.373594)scale(0.11 -0.11)">
       <use xlink:href="#ArialMT-54"/>
       <use x="55.615234" xlink:href="#ArialMT-48"/>
       <use x="111.230469" xlink:href="#ArialMT-54"/>
      </g>
     </g>
    </g>
    <g id="xtick_14">
     <g id="line2d_22">
      <path clip-path="url(#p13bceb2d1a)" d="M 936.417457 315 
L 936.417457 43.2 
" style="fill:none;stroke:#cccccc;stroke-linecap:round;"/>
     </g>
     <g id="text_24">
      <!-- 909 -->
      <g style="fill:#262626;" transform="translate(927.24191 332.373594)scale(0.11 -0.11)">
       <use xlink:href="#ArialMT-57"/>
       <use x="55.615234" xlink:href="#ArialMT-48"/>
       <use x="111.230469" xlink:href="#ArialMT-57"/>
      </g>
     </g>
    </g>
    <g id="xtick_15">
     <g id="line2d_23">
      <path clip-path="url(#p13bceb2d1a)" d="M 985.647519 315 
L 985.647519 43.2 
" style="fill:none;stroke:#cccccc;stroke-linecap:round;"/>
     </g>
     <g id="text_25">
      <!-- 1212 -->
      <g style="fill:#262626;" transform="translate(973.413456 332.373594)scale(0.11 -0.11)">
       <use xlink:href="#ArialMT-49"/>
       <use x="55.615234" xlink:href="#ArialMT-50"/>
       <use x="111.230469" xlink:href="#ArialMT-49"/>
       <use x="166.845703" xlink:href="#ArialMT-50"/>
      </g>
     </g>
    </g>
    <g id="xtick_16">
     <g id="line2d_24">
      <path clip-path="url(#p13bceb2d1a)" d="M 1034.87758 315 
L 1034.87758 43.2 
" style="fill:none;stroke:#cccccc;stroke-linecap:round;"/>
     </g>
     <g id="text_26">
      <!-- 1515 -->
      <g style="fill:#262626;" transform="translate(1022.643517 332.373594)scale(0.11 -0.11)">
       <use xlink:href="#ArialMT-49"/>
       <use x="55.615234" xlink:href="#ArialMT-53"/>
       <use x="111.230469" xlink:href="#ArialMT-49"/>
       <use x="166.845703" xlink:href="#ArialMT-53"/>
      </g>
     </g>
    </g>
    <g id="xtick_17">
     <g id="line2d_25">
      <path clip-path="url(#p13bceb2d1a)" d="M 1084.107641 315 
L 1084.107641 43.2 
" style="fill:none;stroke:#cccccc;stroke-linecap:round;"/>
     </g>
     <g id="text_27">
      <!-- 1818 -->
      <g style="fill:#262626;" transform="translate(1071.873579 332.373594)scale(0.11 -0.11)">
       <use xlink:href="#ArialMT-49"/>
       <use x="55.615234" xlink:href="#ArialMT-56"/>
       <use x="111.230469" xlink:href="#ArialMT-49"/>
       <use x="166.845703" xlink:href="#ArialMT-56"/>
      </g>
     </g>
    </g>
    <g id="xtick_18">
     <g id="line2d_26">
      <path clip-path="url(#p13bceb2d1a)" d="M 1133.337703 315 
L 1133.337703 43.2 
" style="fill:none;stroke:#cccccc;stroke-linecap:round;"/>
     </g>
     <g id="text_28">
      <!-- 2121 -->
      <g style="fill:#262626;" transform="translate(1121.10364 332.373594)scale(0.11 -0.11)">
       <use xlink:href="#ArialMT-50"/>
       <use x="55.615234" xlink:href="#ArialMT-49"/>
       <use x="111.230469" xlink:href="#ArialMT-50"/>
       <use x="166.845703" xlink:href="#ArialMT-49"/>
      </g>
     </g>
    </g>
    <g id="xtick_19">
     <g id="line2d_27">
      <path clip-path="url(#p13bceb2d1a)" d="M 1182.567764 315 
L 1182.567764 43.2 
" style="fill:none;stroke:#cccccc;stroke-linecap:round;"/>
     </g>
     <g id="text_29">
      <!-- 2424 -->
      <g style="fill:#262626;" transform="translate(1170.333702 332.373594)scale(0.11 -0.11)">
       <use xlink:href="#ArialMT-50"/>
       <use x="55.615234" xlink:href="#ArialMT-52"/>
       <use x="111.230469" xlink:href="#ArialMT-50"/>
       <use x="166.845703" xlink:href="#ArialMT-52"/>
      </g>
     </g>
    </g>
    <g id="xtick_20">
     <g id="line2d_28">
      <path clip-path="url(#p13bceb2d1a)" d="M 1231.797826 315 
L 1231.797826 43.2 
" style="fill:none;stroke:#cccccc;stroke-linecap:round;"/>
     </g>
     <g id="text_30">
      <!-- 2727 -->
      <g style="fill:#262626;" transform="translate(1219.563763 332.373594)scale(0.11 -0.11)">
       <use xlink:href="#ArialMT-50"/>
       <use x="55.615234" xlink:href="#ArialMT-55"/>
       <use x="111.230469" xlink:href="#ArialMT-50"/>
       <use x="166.845703" xlink:href="#ArialMT-55"/>
      </g>
     </g>
    </g>
    <g id="xtick_21">
     <g id="line2d_29">
      <path clip-path="url(#p13bceb2d1a)" d="M 1281.027887 315 
L 1281.027887 43.2 
" style="fill:none;stroke:#cccccc;stroke-linecap:round;"/>
     </g>
     <g id="text_31">
      <!-- 3030 -->
      <g style="fill:#262626;" transform="translate(1268.793825 332.373594)scale(0.11 -0.11)">
       <use xlink:href="#ArialMT-51"/>
       <use x="55.615234" xlink:href="#ArialMT-48"/>
       <use x="111.230469" xlink:href="#ArialMT-51"/>
       <use x="166.845703" xlink:href="#ArialMT-48"/>
      </g>
     </g>
    </g>
    <g id="text_32">
     <!-- membership_days -->
     <g style="fill:#262626;" transform="translate(993.344574 347.149219)scale(0.12 -0.12)">
      <use xlink:href="#ArialMT-109"/>
      <use x="83.300781" xlink:href="#ArialMT-101"/>
      <use x="138.916016" xlink:href="#ArialMT-109"/>
      <use x="222.216797" xlink:href="#ArialMT-98"/>
      <use x="277.832031" xlink:href="#ArialMT-101"/>
      <use x="333.447266" xlink:href="#ArialMT-114"/>
      <use x="366.748047" xlink:href="#ArialMT-115"/>
      <use x="416.748047" xlink:href="#ArialMT-104"/>
      <use x="472.363281" xlink:href="#ArialMT-105"/>
      <use x="494.580078" xlink:href="#ArialMT-112"/>
      <use x="550.195312" xlink:href="#ArialMT-95"/>
      <use x="605.810547" xlink:href="#ArialMT-100"/>
      <use x="661.425781" xlink:href="#ArialMT-97"/>
      <use x="717.041016" xlink:href="#ArialMT-121"/>
      <use x="767.041016" xlink:href="#ArialMT-115"/>
     </g>
    </g>
   </g>
   <g id="matplotlib.axis_4">
    <g id="ytick_8">
     <g id="line2d_30">
      <path clip-path="url(#p13bceb2d1a)" d="M 788.727273 315 
L 1296 315 
" style="fill:none;stroke:#cccccc;stroke-linecap:round;"/>
     </g>
    </g>
    <g id="ytick_9">
     <g id="line2d_31">
      <path clip-path="url(#p13bceb2d1a)" d="M 788.727273 275.68988 
L 1296 275.68988 
" style="fill:none;stroke:#cccccc;stroke-linecap:round;"/>
     </g>
    </g>
    <g id="ytick_10">
     <g id="line2d_32">
      <path clip-path="url(#p13bceb2d1a)" d="M 788.727273 236.379759 
L 1296 236.379759 
" style="fill:none;stroke:#cccccc;stroke-linecap:round;"/>
     </g>
    </g>
    <g id="ytick_11">
     <g id="line2d_33">
      <path clip-path="url(#p13bceb2d1a)" d="M 788.727273 197.069639 
L 1296 197.069639 
" style="fill:none;stroke:#cccccc;stroke-linecap:round;"/>
     </g>
    </g>
    <g id="ytick_12">
     <g id="line2d_34">
      <path clip-path="url(#p13bceb2d1a)" d="M 788.727273 157.759518 
L 1296 157.759518 
" style="fill:none;stroke:#cccccc;stroke-linecap:round;"/>
     </g>
    </g>
    <g id="ytick_13">
     <g id="line2d_35">
      <path clip-path="url(#p13bceb2d1a)" d="M 788.727273 118.449398 
L 1296 118.449398 
" style="fill:none;stroke:#cccccc;stroke-linecap:round;"/>
     </g>
    </g>
    <g id="ytick_14">
     <g id="line2d_36">
      <path clip-path="url(#p13bceb2d1a)" d="M 788.727273 79.139278 
L 1296 79.139278 
" style="fill:none;stroke:#cccccc;stroke-linecap:round;"/>
     </g>
    </g>
   </g>
   <g id="patch_28">
    <path clip-path="url(#p13bceb2d1a)" d="M 984.997617 315 
L 999.807254 315 
L 999.807254 122.970062 
L 984.997617 122.970062 
z
" style="fill:#4c72b0;fill-opacity:0.5;"/>
   </g>
   <g id="patch_29">
    <path clip-path="url(#p13bceb2d1a)" d="M 999.807254 315 
L 1014.616891 315 
L 1014.616891 118.645949 
L 999.807254 118.645949 
z
" style="fill:#4c72b0;fill-opacity:0.5;"/>
   </g>
   <g id="patch_30">
    <path clip-path="url(#p13bceb2d1a)" d="M 1014.616891 315 
L 1029.426529 315 
L 1029.426529 68.722096 
L 1014.616891 68.722096 
z
" style="fill:#4c72b0;fill-opacity:0.5;"/>
   </g>
   <g id="patch_31">
    <path clip-path="url(#p13bceb2d1a)" d="M 1029.426529 315 
L 1044.236166 315 
L 1044.236166 56.142857 
L 1029.426529 56.142857 
z
" style="fill:#4c72b0;fill-opacity:0.5;"/>
   </g>
   <g id="patch_32">
    <path clip-path="url(#p13bceb2d1a)" d="M 1044.236166 315 
L 1059.045803 315 
L 1059.045803 242.669378 
L 1044.236166 242.669378 
z
" style="fill:#4c72b0;fill-opacity:0.5;"/>
   </g>
   <g id="patch_33">
    <path clip-path="url(#p13bceb2d1a)" d="M 1059.045803 315 
L 1073.855441 315 
L 1073.855441 243.06248 
L 1059.045803 243.06248 
z
" style="fill:#4c72b0;fill-opacity:0.5;"/>
   </g>
   <g id="patch_34">
    <path clip-path="url(#p13bceb2d1a)" d="M 1073.855441 315 
L 1088.665078 315 
L 1088.665078 245.224536 
L 1073.855441 245.224536 
z
" style="fill:#4c72b0;fill-opacity:0.5;"/>
   </g>
   <g id="patch_35">
    <path clip-path="url(#p13bceb2d1a)" d="M 1088.665078 315 
L 1103.474715 315 
L 1103.474715 241.686625 
L 1088.665078 241.686625 
z
" style="fill:#4c72b0;fill-opacity:0.5;"/>
   </g>
   <g id="patch_36">
    <path clip-path="url(#p13bceb2d1a)" d="M 1103.474715 315 
L 1118.284352 315 
L 1118.284352 243.25903 
L 1103.474715 243.25903 
z
" style="fill:#4c72b0;fill-opacity:0.5;"/>
   </g>
   <g id="patch_37">
    <path clip-path="url(#p13bceb2d1a)" d="M 1118.284352 315 
L 1133.09399 315 
L 1133.09399 240.507322 
L 1118.284352 240.507322 
z
" style="fill:#4c72b0;fill-opacity:0.5;"/>
   </g>
   <g id="patch_38">
    <path clip-path="url(#p13bceb2d1a)" d="M 1133.09399 315 
L 1147.903627 315 
L 1147.903627 244.831435 
L 1133.09399 244.831435 
z
" style="fill:#4c72b0;fill-opacity:0.5;"/>
   </g>
   <g id="patch_39">
    <path clip-path="url(#p13bceb2d1a)" d="M 1147.903627 315 
L 1162.713264 315 
L 1162.713264 245.027986 
L 1147.903627 245.027986 
z
" style="fill:#4c72b0;fill-opacity:0.5;"/>
   </g>
   <g id="patch_40">
    <path clip-path="url(#p13bceb2d1a)" d="M 1162.713264 315 
L 1177.522902 315 
L 1177.522902 290.824276 
L 1162.713264 290.824276 
z
" style="fill:#4c72b0;fill-opacity:0.5;"/>
   </g>
   <g id="patch_41">
    <path clip-path="url(#p13bceb2d1a)" d="M 1177.522902 315 
L 1192.332539 315 
L 1192.332539 288.072568 
L 1177.522902 288.072568 
z
" style="fill:#4c72b0;fill-opacity:0.5;"/>
   </g>
   <g id="patch_42">
    <path clip-path="url(#p13bceb2d1a)" d="M 1192.332539 315 
L 1207.142176 315 
L 1207.142176 291.217377 
L 1192.332539 291.217377 
z
" style="fill:#4c72b0;fill-opacity:0.5;"/>
   </g>
   <g id="patch_43">
    <path clip-path="url(#p13bceb2d1a)" d="M 1207.142176 315 
L 1221.951814 315 
L 1221.951814 289.448422 
L 1207.142176 289.448422 
z
" style="fill:#4c72b0;fill-opacity:0.5;"/>
   </g>
   <g id="patch_44">
    <path clip-path="url(#p13bceb2d1a)" d="M 1221.951814 315 
L 1236.761451 315 
L 1236.761451 288.465669 
L 1221.951814 288.465669 
z
" style="fill:#4c72b0;fill-opacity:0.5;"/>
   </g>
   <g id="patch_45">
    <path clip-path="url(#p13bceb2d1a)" d="M 1236.761451 315 
L 1251.571088 315 
L 1251.571088 289.448422 
L 1236.761451 289.448422 
z
" style="fill:#4c72b0;fill-opacity:0.5;"/>
   </g>
   <g id="patch_46">
    <path clip-path="url(#p13bceb2d1a)" d="M 1251.571088 315 
L 1266.380725 315 
L 1266.380725 291.217377 
L 1251.571088 291.217377 
z
" style="fill:#4c72b0;fill-opacity:0.5;"/>
   </g>
   <g id="patch_47">
    <path clip-path="url(#p13bceb2d1a)" d="M 1266.380725 315 
L 1281.190363 315 
L 1281.190363 291.020827 
L 1266.380725 291.020827 
z
" style="fill:#4c72b0;fill-opacity:0.5;"/>
   </g>
   <g id="line2d_37">
    <path clip-path="url(#p13bceb2d1a)" d="M 984.997617 218.1806 
L 989.462834 189.767652 
L 992.439646 172.213203 
L 995.416457 156.502597 
L 998.393269 142.854832 
L 1001.37008 131.155483 
L 1004.346892 121.077829 
L 1007.323703 112.241628 
L 1010.300515 104.358974 
L 1013.277326 97.331363 
L 1014.765732 94.169161 
L 1016.254138 91.285365 
L 1017.742543 88.727916 
L 1019.230949 86.554369 
L 1020.719355 84.829532 
L 1022.207761 83.622841 
L 1023.696166 83.005496 
L 1025.184572 83.047379 
L 1026.672978 83.813768 
L 1028.161384 85.361899 
L 1029.649789 87.73744 
L 1031.138195 90.971021 
L 1032.626601 95.075016 
L 1034.115007 100.040803 
L 1035.603413 105.836765 
L 1037.091818 112.407288 
L 1038.580224 119.672962 
L 1041.557036 135.863749 
L 1050.48747 187.792066 
L 1053.464282 202.610938 
L 1054.952687 209.113594 
L 1056.441093 214.95507 
L 1057.929499 220.122451 
L 1059.417905 224.624174 
L 1060.90631 228.486967 
L 1062.394716 231.752178 
L 1063.883122 234.471813 
L 1065.371528 236.704585 
L 1066.859933 238.512248 
L 1068.348339 239.956392 
L 1069.836745 241.09584 
L 1071.325151 241.984689 
L 1072.813556 242.671018 
L 1074.301962 243.196181 
L 1077.278774 243.894139 
L 1080.255585 244.277575 
L 1083.232397 244.460197 
L 1087.697614 244.468247 
L 1092.162831 244.206547 
L 1096.628049 243.701403 
L 1102.581672 242.743999 
L 1111.512106 241.241354 
L 1115.977323 240.791231 
L 1118.954135 240.699547 
L 1121.930947 240.801654 
L 1124.907758 241.101576 
L 1127.88457 241.589137 
L 1130.861381 242.247775 
L 1133.838193 243.06558 
L 1136.815004 244.047214 
L 1139.791816 245.223895 
L 1142.768627 246.658033 
L 1145.745439 248.438689 
L 1148.72225 250.664988 
L 1151.699062 253.417958 
L 1154.675873 256.72672 
L 1157.652685 260.539958 
L 1162.117902 266.871537 
L 1166.583119 273.233008 
L 1169.559931 277.073089 
L 1172.536742 280.369098 
L 1174.025148 281.780666 
L 1175.513554 283.029773 
L 1177.00196 284.120076 
L 1178.490365 285.060151 
L 1181.467177 286.542116 
L 1184.443988 287.600374 
L 1187.4208 288.365885 
L 1191.886017 289.192 
L 1196.351234 289.797958 
L 1200.816452 290.215286 
L 1205.281669 290.397641 
L 1209.746886 290.318913 
L 1214.212104 290.020214 
L 1229.096161 288.791217 
L 1233.561378 288.689868 
L 1238.026596 288.764379 
L 1242.491813 289.014722 
L 1246.95703 289.453463 
L 1251.422248 290.100492 
L 1255.887465 290.968477 
L 1260.352682 292.075817 
L 1263.329494 292.977224 
L 1266.306305 294.051351 
L 1269.283117 295.344231 
L 1272.259928 296.89427 
L 1275.23674 298.712548 
L 1278.213551 300.766997 
L 1281.190363 302.977924 
L 1281.190363 302.977924 
" style="fill:none;stroke:#4c72b0;stroke-linecap:round;stroke-width:1.5;"/>
   </g>
   <g id="patch_48">
    <path d="M 788.727273 315 
L 788.727273 43.2 
" style="fill:none;stroke:#cccccc;stroke-linecap:square;stroke-linejoin:miter;stroke-width:1.25;"/>
   </g>
   <g id="patch_49">
    <path d="M 1296 315 
L 1296 43.2 
" style="fill:none;stroke:#cccccc;stroke-linecap:square;stroke-linejoin:miter;stroke-width:1.25;"/>
   </g>
   <g id="patch_50">
    <path d="M 788.727273 315 
L 1296 315 
" style="fill:none;stroke:#cccccc;stroke-linecap:square;stroke-linejoin:miter;stroke-width:1.25;"/>
   </g>
   <g id="patch_51">
    <path d="M 788.727273 43.2 
L 1296 43.2 
" style="fill:none;stroke:#cccccc;stroke-linecap:square;stroke-linejoin:miter;stroke-width:1.25;"/>
   </g>
   <g id="text_33">
    <!-- Number of male / membership_days in Profile dataset -->
    <g style="fill:#262626;" transform="translate(899.307699 37.2)scale(0.12 -0.12)">
     <use xlink:href="#ArialMT-78"/>
     <use x="72.216797" xlink:href="#ArialMT-117"/>
     <use x="127.832031" xlink:href="#ArialMT-109"/>
     <use x="211.132812" xlink:href="#ArialMT-98"/>
     <use x="266.748047" xlink:href="#ArialMT-101"/>
     <use x="322.363281" xlink:href="#ArialMT-114"/>
     <use x="355.664062" xlink:href="#ArialMT-32"/>
     <use x="383.447266" xlink:href="#ArialMT-111"/>
     <use x="439.0625" xlink:href="#ArialMT-102"/>
     <use x="466.845703" xlink:href="#ArialMT-32"/>
     <use x="494.628906" xlink:href="#ArialMT-109"/>
     <use x="577.929688" xlink:href="#ArialMT-97"/>
     <use x="633.544922" xlink:href="#ArialMT-108"/>
     <use x="655.761719" xlink:href="#ArialMT-101"/>
     <use x="711.376953" xlink:href="#ArialMT-32"/>
     <use x="739.160156" xlink:href="#ArialMT-47"/>
     <use x="766.943359" xlink:href="#ArialMT-32"/>
     <use x="794.726562" xlink:href="#ArialMT-109"/>
     <use x="878.027344" xlink:href="#ArialMT-101"/>
     <use x="933.642578" xlink:href="#ArialMT-109"/>
     <use x="1016.943359" xlink:href="#ArialMT-98"/>
     <use x="1072.558594" xlink:href="#ArialMT-101"/>
     <use x="1128.173828" xlink:href="#ArialMT-114"/>
     <use x="1161.474609" xlink:href="#ArialMT-115"/>
     <use x="1211.474609" xlink:href="#ArialMT-104"/>
     <use x="1267.089844" xlink:href="#ArialMT-105"/>
     <use x="1289.306641" xlink:href="#ArialMT-112"/>
     <use x="1344.921875" xlink:href="#ArialMT-95"/>
     <use x="1400.537109" xlink:href="#ArialMT-100"/>
     <use x="1456.152344" xlink:href="#ArialMT-97"/>
     <use x="1511.767578" xlink:href="#ArialMT-121"/>
     <use x="1561.767578" xlink:href="#ArialMT-115"/>
     <use x="1611.767578" xlink:href="#ArialMT-32"/>
     <use x="1639.550781" xlink:href="#ArialMT-105"/>
     <use x="1661.767578" xlink:href="#ArialMT-110"/>
     <use x="1717.382812" xlink:href="#ArialMT-32"/>
     <use x="1745.166016" xlink:href="#ArialMT-80"/>
     <use x="1811.865234" xlink:href="#ArialMT-114"/>
     <use x="1845.166016" xlink:href="#ArialMT-111"/>
     <use x="1900.78125" xlink:href="#ArialMT-102"/>
     <use x="1928.564453" xlink:href="#ArialMT-105"/>
     <use x="1950.78125" xlink:href="#ArialMT-108"/>
     <use x="1972.998047" xlink:href="#ArialMT-101"/>
     <use x="2028.613281" xlink:href="#ArialMT-32"/>
     <use x="2056.396484" xlink:href="#ArialMT-100"/>
     <use x="2112.011719" xlink:href="#ArialMT-97"/>
     <use x="2167.626953" xlink:href="#ArialMT-116"/>
     <use x="2195.410156" xlink:href="#ArialMT-97"/>
     <use x="2251.025391" xlink:href="#ArialMT-115"/>
     <use x="2301.025391" xlink:href="#ArialMT-101"/>
     <use x="2356.640625" xlink:href="#ArialMT-116"/>
    </g>
   </g>
  </g>
 </g>
 <defs>
  <clipPath id="pf1758ec1ed">
   <rect height="271.8" width="507.272727" x="180" y="43.2"/>
  </clipPath>
  <clipPath id="p13bceb2d1a">
   <rect height="271.8" width="507.272727" x="788.727273" y="43.2"/>
  </clipPath>
 </defs>
</svg>
