<?xml version="1.0" encoding="utf-8" standalone="no"?>
<!DOCTYPE svg PUBLIC "-//W3C//DTD SVG 1.1//EN"
  "http://www.w3.org/Graphics/SVG/1.1/DTD/svg11.dtd">
<!-- Created with matplotlib (https://matplotlib.org/) -->
<svg height="360pt" version="1.1" viewBox="0 0 1440 360" width="1440pt" xmlns="http://www.w3.org/2000/svg" xmlns:xlink="http://www.w3.org/1999/xlink">
 <metadata>
  <rdf:RDF xmlns:cc="http://creativecommons.org/ns#" xmlns:dc="http://purl.org/dc/elements/1.1/" xmlns:rdf="http://www.w3.org/1999/02/22-rdf-syntax-ns#">
   <cc:Work>
    <dc:type rdf:resource="http://purl.org/dc/dcmitype/StillImage"/>
    <dc:date>2021-11-08T04:30:14.869549</dc:date>
    <dc:format>image/svg+xml</dc:format>
    <dc:creator>
     <cc:Agent>
      <dc:title>Matplotlib v3.3.4, https://matplotlib.org/</dc:title>
     </cc:Agent>
    </dc:creator>
   </cc:Work>
  </rdf:RDF>
 </metadata>
 <defs>
  <style type="text/css">*{stroke-linecap:butt;stroke-linejoin:round;}</style>
 </defs>
 <g id="figure_1">
  <g id="patch_1">
   <path d="M 0 360 
L 1440 360 
L 1440 0 
L 0 0 
z
" style="fill:#ffffff;"/>
  </g>
  <g id="axes_1">
   <g id="patch_2">
    <path d="M 180 315 
L 687.272727 315 
L 687.272727 43.2 
L 180 43.2 
z
" style="fill:#ffffff;"/>
   </g>
   <g id="matplotlib.axis_1">
    <g id="xtick_1">
     <g id="line2d_1">
      <path clip-path="url(#pcb3f34cac6)" d="M 180 315 
L 180 43.2 
" style="fill:none;stroke:#cccccc;stroke-linecap:round;"/>
     </g>
     <g id="text_1">
      <!-- 0 -->
      <g style="fill:#262626;" transform="translate(176.941484 332.373594)scale(0.11 -0.11)">
       <defs>
        <path d="M 4.15625 35.296875 
Q 4.15625 48 6.765625 55.734375 
Q 9.375 63.484375 14.515625 67.671875 
Q 19.671875 71.875 27.484375 71.875 
Q 33.25 71.875 37.59375 69.546875 
Q 41.9375 67.234375 44.765625 62.859375 
Q 47.609375 58.5 49.21875 52.21875 
Q 50.828125 45.953125 50.828125 35.296875 
Q 50.828125 22.703125 48.234375 14.96875 
Q 45.65625 7.234375 40.5 3 
Q 35.359375 -1.21875 27.484375 -1.21875 
Q 17.140625 -1.21875 11.234375 6.203125 
Q 4.15625 15.140625 4.15625 35.296875 
z
M 13.1875 35.296875 
Q 13.1875 17.671875 17.3125 11.828125 
Q 21.4375 6 27.484375 6 
Q 33.546875 6 37.671875 11.859375 
Q 41.796875 17.71875 41.796875 35.296875 
Q 41.796875 52.984375 37.671875 58.78125 
Q 33.546875 64.59375 27.390625 64.59375 
Q 21.34375 64.59375 17.71875 59.46875 
Q 13.1875 52.9375 13.1875 35.296875 
z
" id="ArialMT-48"/>
       </defs>
       <use xlink:href="#ArialMT-48"/>
      </g>
     </g>
    </g>
    <g id="xtick_2">
     <g id="line2d_2">
      <path clip-path="url(#pcb3f34cac6)" d="M 228.24277 315 
L 228.24277 43.2 
" style="fill:none;stroke:#cccccc;stroke-linecap:round;"/>
     </g>
     <g id="text_2">
      <!-- 10 -->
      <g style="fill:#262626;" transform="translate(222.125739 332.373594)scale(0.11 -0.11)">
       <defs>
        <path d="M 37.25 0 
L 28.46875 0 
L 28.46875 56 
Q 25.296875 52.984375 20.140625 49.953125 
Q 14.984375 46.921875 10.890625 45.40625 
L 10.890625 53.90625 
Q 18.265625 57.375 23.78125 62.296875 
Q 29.296875 67.234375 31.59375 71.875 
L 37.25 71.875 
z
" id="ArialMT-49"/>
       </defs>
       <use xlink:href="#ArialMT-49"/>
       <use x="55.615234" xlink:href="#ArialMT-48"/>
      </g>
     </g>
    </g>
    <g id="xtick_3">
     <g id="line2d_3">
      <path clip-path="url(#pcb3f34cac6)" d="M 276.48554 315 
L 276.48554 43.2 
" style="fill:none;stroke:#cccccc;stroke-linecap:round;"/>
     </g>
     <g id="text_3">
      <!-- 20 -->
      <g style="fill:#262626;" transform="translate(270.368509 332.373594)scale(0.11 -0.11)">
       <defs>
        <path d="M 50.34375 8.453125 
L 50.34375 0 
L 3.03125 0 
Q 2.9375 3.171875 4.046875 6.109375 
Q 5.859375 10.9375 9.828125 15.625 
Q 13.8125 20.3125 21.34375 26.46875 
Q 33.015625 36.03125 37.109375 41.625 
Q 41.21875 47.21875 41.21875 52.203125 
Q 41.21875 57.421875 37.46875 61 
Q 33.734375 64.59375 27.734375 64.59375 
Q 21.390625 64.59375 17.578125 60.78125 
Q 13.765625 56.984375 13.71875 50.25 
L 4.6875 51.171875 
Q 5.609375 61.28125 11.65625 66.578125 
Q 17.71875 71.875 27.9375 71.875 
Q 38.234375 71.875 44.234375 66.15625 
Q 50.25 60.453125 50.25 52 
Q 50.25 47.703125 48.484375 43.546875 
Q 46.734375 39.40625 42.65625 34.8125 
Q 38.578125 30.21875 29.109375 22.21875 
Q 21.1875 15.578125 18.9375 13.203125 
Q 16.703125 10.84375 15.234375 8.453125 
z
" id="ArialMT-50"/>
       </defs>
       <use xlink:href="#ArialMT-50"/>
       <use x="55.615234" xlink:href="#ArialMT-48"/>
      </g>
     </g>
    </g>
    <g id="xtick_4">
     <g id="line2d_4">
      <path clip-path="url(#pcb3f34cac6)" d="M 324.72831 315 
L 324.72831 43.2 
" style="fill:none;stroke:#cccccc;stroke-linecap:round;"/>
     </g>
     <g id="text_4">
      <!-- 30 -->
      <g style="fill:#262626;" transform="translate(318.611279 332.373594)scale(0.11 -0.11)">
       <defs>
        <path d="M 4.203125 18.890625 
L 12.984375 20.0625 
Q 14.5 12.59375 18.140625 9.296875 
Q 21.78125 6 27 6 
Q 33.203125 6 37.46875 10.296875 
Q 41.75 14.59375 41.75 20.953125 
Q 41.75 27 37.796875 30.921875 
Q 33.84375 34.859375 27.734375 34.859375 
Q 25.25 34.859375 21.53125 33.890625 
L 22.515625 41.609375 
Q 23.390625 41.5 23.921875 41.5 
Q 29.546875 41.5 34.03125 44.421875 
Q 38.53125 47.359375 38.53125 53.46875 
Q 38.53125 58.296875 35.25 61.46875 
Q 31.984375 64.65625 26.8125 64.65625 
Q 21.6875 64.65625 18.265625 61.421875 
Q 14.84375 58.203125 13.875 51.765625 
L 5.078125 53.328125 
Q 6.6875 62.15625 12.390625 67.015625 
Q 18.109375 71.875 26.609375 71.875 
Q 32.46875 71.875 37.390625 69.359375 
Q 42.328125 66.84375 44.9375 62.5 
Q 47.5625 58.15625 47.5625 53.265625 
Q 47.5625 48.640625 45.0625 44.828125 
Q 42.578125 41.015625 37.703125 38.765625 
Q 44.046875 37.3125 47.5625 32.6875 
Q 51.078125 28.078125 51.078125 21.140625 
Q 51.078125 11.765625 44.234375 5.25 
Q 37.40625 -1.265625 26.953125 -1.265625 
Q 17.53125 -1.265625 11.296875 4.34375 
Q 5.078125 9.96875 4.203125 18.890625 
z
" id="ArialMT-51"/>
       </defs>
       <use xlink:href="#ArialMT-51"/>
       <use x="55.615234" xlink:href="#ArialMT-48"/>
      </g>
     </g>
    </g>
    <g id="xtick_5">
     <g id="line2d_5">
      <path clip-path="url(#pcb3f34cac6)" d="M 372.97108 315 
L 372.97108 43.2 
" style="fill:none;stroke:#cccccc;stroke-linecap:round;"/>
     </g>
     <g id="text_5">
      <!-- 40 -->
      <g style="fill:#262626;" transform="translate(366.854049 332.373594)scale(0.11 -0.11)">
       <defs>
        <path d="M 32.328125 0 
L 32.328125 17.140625 
L 1.265625 17.140625 
L 1.265625 25.203125 
L 33.9375 71.578125 
L 41.109375 71.578125 
L 41.109375 25.203125 
L 50.78125 25.203125 
L 50.78125 17.140625 
L 41.109375 17.140625 
L 41.109375 0 
z
M 32.328125 25.203125 
L 32.328125 57.46875 
L 9.90625 25.203125 
z
" id="ArialMT-52"/>
       </defs>
       <use xlink:href="#ArialMT-52"/>
       <use x="55.615234" xlink:href="#ArialMT-48"/>
      </g>
     </g>
    </g>
    <g id="xtick_6">
     <g id="line2d_6">
      <path clip-path="url(#pcb3f34cac6)" d="M 421.21385 315 
L 421.21385 43.2 
" style="fill:none;stroke:#cccccc;stroke-linecap:round;"/>
     </g>
     <g id="text_6">
      <!-- 50 -->
      <g style="fill:#262626;" transform="translate(415.096819 332.373594)scale(0.11 -0.11)">
       <defs>
        <path d="M 4.15625 18.75 
L 13.375 19.53125 
Q 14.40625 12.796875 18.140625 9.390625 
Q 21.875 6 27.15625 6 
Q 33.5 6 37.890625 10.78125 
Q 42.28125 15.578125 42.28125 23.484375 
Q 42.28125 31 38.0625 35.34375 
Q 33.84375 39.703125 27 39.703125 
Q 22.75 39.703125 19.328125 37.765625 
Q 15.921875 35.84375 13.96875 32.765625 
L 5.71875 33.84375 
L 12.640625 70.609375 
L 48.25 70.609375 
L 48.25 62.203125 
L 19.671875 62.203125 
L 15.828125 42.96875 
Q 22.265625 47.46875 29.34375 47.46875 
Q 38.71875 47.46875 45.15625 40.96875 
Q 51.609375 34.46875 51.609375 24.265625 
Q 51.609375 14.546875 45.953125 7.46875 
Q 39.0625 -1.21875 27.15625 -1.21875 
Q 17.390625 -1.21875 11.203125 4.25 
Q 5.03125 9.71875 4.15625 18.75 
z
" id="ArialMT-53"/>
       </defs>
       <use xlink:href="#ArialMT-53"/>
       <use x="55.615234" xlink:href="#ArialMT-48"/>
      </g>
     </g>
    </g>
    <g id="xtick_7">
     <g id="line2d_7">
      <path clip-path="url(#pcb3f34cac6)" d="M 469.45662 315 
L 469.45662 43.2 
" style="fill:none;stroke:#cccccc;stroke-linecap:round;"/>
     </g>
     <g id="text_7">
      <!-- 60 -->
      <g style="fill:#262626;" transform="translate(463.339589 332.373594)scale(0.11 -0.11)">
       <defs>
        <path d="M 49.75 54.046875 
L 41.015625 53.375 
Q 39.84375 58.546875 37.703125 60.890625 
Q 34.125 64.65625 28.90625 64.65625 
Q 24.703125 64.65625 21.53125 62.3125 
Q 17.390625 59.28125 14.984375 53.46875 
Q 12.59375 47.65625 12.5 36.921875 
Q 15.671875 41.75 20.265625 44.09375 
Q 24.859375 46.4375 29.890625 46.4375 
Q 38.671875 46.4375 44.84375 39.96875 
Q 51.03125 33.5 51.03125 23.25 
Q 51.03125 16.5 48.125 10.71875 
Q 45.21875 4.9375 40.140625 1.859375 
Q 35.0625 -1.21875 28.609375 -1.21875 
Q 17.625 -1.21875 10.6875 6.859375 
Q 3.765625 14.9375 3.765625 33.5 
Q 3.765625 54.25 11.421875 63.671875 
Q 18.109375 71.875 29.4375 71.875 
Q 37.890625 71.875 43.28125 67.140625 
Q 48.6875 62.40625 49.75 54.046875 
z
M 13.875 23.1875 
Q 13.875 18.65625 15.796875 14.5 
Q 17.71875 10.359375 21.1875 8.171875 
Q 24.65625 6 28.46875 6 
Q 34.03125 6 38.03125 10.484375 
Q 42.046875 14.984375 42.046875 22.703125 
Q 42.046875 30.125 38.078125 34.390625 
Q 34.125 38.671875 28.125 38.671875 
Q 22.171875 38.671875 18.015625 34.390625 
Q 13.875 30.125 13.875 23.1875 
z
" id="ArialMT-54"/>
       </defs>
       <use xlink:href="#ArialMT-54"/>
       <use x="55.615234" xlink:href="#ArialMT-48"/>
      </g>
     </g>
    </g>
    <g id="xtick_8">
     <g id="line2d_8">
      <path clip-path="url(#pcb3f34cac6)" d="M 517.69939 315 
L 517.69939 43.2 
" style="fill:none;stroke:#cccccc;stroke-linecap:round;"/>
     </g>
     <g id="text_8">
      <!-- 70 -->
      <g style="fill:#262626;" transform="translate(511.582359 332.373594)scale(0.11 -0.11)">
       <defs>
        <path d="M 4.734375 62.203125 
L 4.734375 70.65625 
L 51.078125 70.65625 
L 51.078125 63.8125 
Q 44.234375 56.546875 37.515625 44.484375 
Q 30.8125 32.421875 27.15625 19.671875 
Q 24.515625 10.6875 23.78125 0 
L 14.75 0 
Q 14.890625 8.453125 18.0625 20.40625 
Q 21.234375 32.375 27.171875 43.484375 
Q 33.109375 54.59375 39.796875 62.203125 
z
" id="ArialMT-55"/>
       </defs>
       <use xlink:href="#ArialMT-55"/>
       <use x="55.615234" xlink:href="#ArialMT-48"/>
      </g>
     </g>
    </g>
    <g id="xtick_9">
     <g id="line2d_9">
      <path clip-path="url(#pcb3f34cac6)" d="M 565.942161 315 
L 565.942161 43.2 
" style="fill:none;stroke:#cccccc;stroke-linecap:round;"/>
     </g>
     <g id="text_9">
      <!-- 80 -->
      <g style="fill:#262626;" transform="translate(559.825129 332.373594)scale(0.11 -0.11)">
       <defs>
        <path d="M 17.671875 38.8125 
Q 12.203125 40.828125 9.5625 44.53125 
Q 6.9375 48.25 6.9375 53.421875 
Q 6.9375 61.234375 12.546875 66.546875 
Q 18.171875 71.875 27.484375 71.875 
Q 36.859375 71.875 42.578125 66.421875 
Q 48.296875 60.984375 48.296875 53.171875 
Q 48.296875 48.1875 45.671875 44.5 
Q 43.0625 40.828125 37.75 38.8125 
Q 44.34375 36.671875 47.78125 31.875 
Q 51.21875 27.09375 51.21875 20.453125 
Q 51.21875 11.28125 44.71875 5.03125 
Q 38.234375 -1.21875 27.640625 -1.21875 
Q 17.046875 -1.21875 10.546875 5.046875 
Q 4.046875 11.328125 4.046875 20.703125 
Q 4.046875 27.6875 7.59375 32.390625 
Q 11.140625 37.109375 17.671875 38.8125 
z
M 15.921875 53.71875 
Q 15.921875 48.640625 19.1875 45.40625 
Q 22.46875 42.1875 27.6875 42.1875 
Q 32.765625 42.1875 36.015625 45.375 
Q 39.265625 48.578125 39.265625 53.21875 
Q 39.265625 58.0625 35.90625 61.359375 
Q 32.5625 64.65625 27.59375 64.65625 
Q 22.5625 64.65625 19.234375 61.421875 
Q 15.921875 58.203125 15.921875 53.71875 
z
M 13.09375 20.65625 
Q 13.09375 16.890625 14.875 13.375 
Q 16.65625 9.859375 20.171875 7.921875 
Q 23.6875 6 27.734375 6 
Q 34.03125 6 38.125 10.046875 
Q 42.234375 14.109375 42.234375 20.359375 
Q 42.234375 26.703125 38.015625 30.859375 
Q 33.796875 35.015625 27.4375 35.015625 
Q 21.234375 35.015625 17.15625 30.90625 
Q 13.09375 26.8125 13.09375 20.65625 
z
" id="ArialMT-56"/>
       </defs>
       <use xlink:href="#ArialMT-56"/>
       <use x="55.615234" xlink:href="#ArialMT-48"/>
      </g>
     </g>
    </g>
    <g id="xtick_10">
     <g id="line2d_10">
      <path clip-path="url(#pcb3f34cac6)" d="M 614.184931 315 
L 614.184931 43.2 
" style="fill:none;stroke:#cccccc;stroke-linecap:round;"/>
     </g>
     <g id="text_10">
      <!-- 90 -->
      <g style="fill:#262626;" transform="translate(608.067899 332.373594)scale(0.11 -0.11)">
       <defs>
        <path d="M 5.46875 16.546875 
L 13.921875 17.328125 
Q 14.984375 11.375 18.015625 8.6875 
Q 21.046875 6 25.78125 6 
Q 29.828125 6 32.875 7.859375 
Q 35.9375 9.71875 37.890625 12.8125 
Q 39.84375 15.921875 41.15625 21.1875 
Q 42.484375 26.46875 42.484375 31.9375 
Q 42.484375 32.515625 42.4375 33.6875 
Q 39.796875 29.5 35.234375 26.875 
Q 30.671875 24.265625 25.34375 24.265625 
Q 16.453125 24.265625 10.296875 30.703125 
Q 4.15625 37.15625 4.15625 47.703125 
Q 4.15625 58.59375 10.578125 65.234375 
Q 17 71.875 26.65625 71.875 
Q 33.640625 71.875 39.421875 68.109375 
Q 45.21875 64.359375 48.21875 57.390625 
Q 51.21875 50.4375 51.21875 37.25 
Q 51.21875 23.53125 48.234375 15.40625 
Q 45.265625 7.28125 39.375 3.03125 
Q 33.5 -1.21875 25.59375 -1.21875 
Q 17.1875 -1.21875 11.859375 3.4375 
Q 6.546875 8.109375 5.46875 16.546875 
z
M 41.453125 48.140625 
Q 41.453125 55.71875 37.421875 60.15625 
Q 33.40625 64.59375 27.734375 64.59375 
Q 21.875 64.59375 17.53125 59.8125 
Q 13.1875 55.03125 13.1875 47.40625 
Q 13.1875 40.578125 17.3125 36.296875 
Q 21.4375 32.03125 27.484375 32.03125 
Q 33.59375 32.03125 37.515625 36.296875 
Q 41.453125 40.578125 41.453125 48.140625 
z
" id="ArialMT-57"/>
       </defs>
       <use xlink:href="#ArialMT-57"/>
       <use x="55.615234" xlink:href="#ArialMT-48"/>
      </g>
     </g>
    </g>
    <g id="xtick_11">
     <g id="line2d_11">
      <path clip-path="url(#pcb3f34cac6)" d="M 662.427701 315 
L 662.427701 43.2 
" style="fill:none;stroke:#cccccc;stroke-linecap:round;"/>
     </g>
     <g id="text_11">
      <!-- 100 -->
      <g style="fill:#262626;" transform="translate(653.252154 332.373594)scale(0.11 -0.11)">
       <use xlink:href="#ArialMT-49"/>
       <use x="55.615234" xlink:href="#ArialMT-48"/>
       <use x="111.230469" xlink:href="#ArialMT-48"/>
      </g>
     </g>
    </g>
    <g id="text_12">
     <!-- age -->
     <g style="fill:#262626;" transform="translate(423.626676 347.008594)scale(0.12 -0.12)">
      <defs>
       <path d="M 40.4375 6.390625 
Q 35.546875 2.25 31.03125 0.53125 
Q 26.515625 -1.171875 21.34375 -1.171875 
Q 12.796875 -1.171875 8.203125 3 
Q 3.609375 7.171875 3.609375 13.671875 
Q 3.609375 17.484375 5.34375 20.625 
Q 7.078125 23.78125 9.890625 25.6875 
Q 12.703125 27.59375 16.21875 28.5625 
Q 18.796875 29.25 24.03125 29.890625 
Q 34.671875 31.15625 39.703125 32.90625 
Q 39.75 34.71875 39.75 35.203125 
Q 39.75 40.578125 37.25 42.78125 
Q 33.890625 45.75 27.25 45.75 
Q 21.046875 45.75 18.09375 43.578125 
Q 15.140625 41.40625 13.71875 35.890625 
L 5.125 37.0625 
Q 6.296875 42.578125 8.984375 45.96875 
Q 11.671875 49.359375 16.75 51.1875 
Q 21.828125 53.03125 28.515625 53.03125 
Q 35.15625 53.03125 39.296875 51.46875 
Q 43.453125 49.90625 45.40625 47.53125 
Q 47.359375 45.171875 48.140625 41.546875 
Q 48.578125 39.3125 48.578125 33.453125 
L 48.578125 21.734375 
Q 48.578125 9.46875 49.140625 6.21875 
Q 49.703125 2.984375 51.375 0 
L 42.1875 0 
Q 40.828125 2.734375 40.4375 6.390625 
z
M 39.703125 26.03125 
Q 34.90625 24.078125 25.34375 22.703125 
Q 19.921875 21.921875 17.671875 20.9375 
Q 15.4375 19.96875 14.203125 18.09375 
Q 12.984375 16.21875 12.984375 13.921875 
Q 12.984375 10.40625 15.640625 8.0625 
Q 18.3125 5.71875 23.4375 5.71875 
Q 28.515625 5.71875 32.46875 7.9375 
Q 36.421875 10.15625 38.28125 14.015625 
Q 39.703125 17 39.703125 22.796875 
z
" id="ArialMT-97"/>
       <path d="M 4.984375 -4.296875 
L 13.53125 -5.5625 
Q 14.0625 -9.515625 16.5 -11.328125 
Q 19.78125 -13.765625 25.4375 -13.765625 
Q 31.546875 -13.765625 34.859375 -11.328125 
Q 38.1875 -8.890625 39.359375 -4.5 
Q 40.046875 -1.8125 39.984375 6.78125 
Q 34.234375 0 25.640625 0 
Q 14.9375 0 9.078125 7.71875 
Q 3.21875 15.4375 3.21875 26.21875 
Q 3.21875 33.640625 5.90625 39.90625 
Q 8.59375 46.1875 13.6875 49.609375 
Q 18.796875 53.03125 25.6875 53.03125 
Q 34.859375 53.03125 40.828125 45.609375 
L 40.828125 51.859375 
L 48.921875 51.859375 
L 48.921875 7.03125 
Q 48.921875 -5.078125 46.453125 -10.125 
Q 44 -15.1875 38.640625 -18.109375 
Q 33.296875 -21.046875 25.484375 -21.046875 
Q 16.21875 -21.046875 10.5 -16.875 
Q 4.78125 -12.703125 4.984375 -4.296875 
z
M 12.25 26.859375 
Q 12.25 16.65625 16.296875 11.96875 
Q 20.359375 7.28125 26.46875 7.28125 
Q 32.515625 7.28125 36.609375 11.9375 
Q 40.71875 16.609375 40.71875 26.5625 
Q 40.71875 36.078125 36.5 40.90625 
Q 32.28125 45.75 26.3125 45.75 
Q 20.453125 45.75 16.34375 40.984375 
Q 12.25 36.234375 12.25 26.859375 
z
" id="ArialMT-103"/>
       <path d="M 42.09375 16.703125 
L 51.171875 15.578125 
Q 49.03125 7.625 43.21875 3.21875 
Q 37.40625 -1.171875 28.375 -1.171875 
Q 17 -1.171875 10.328125 5.828125 
Q 3.65625 12.84375 3.65625 25.484375 
Q 3.65625 38.578125 10.390625 45.796875 
Q 17.140625 53.03125 27.875 53.03125 
Q 38.28125 53.03125 44.875 45.953125 
Q 51.46875 38.875 51.46875 26.03125 
Q 51.46875 25.25 51.421875 23.6875 
L 12.75 23.6875 
Q 13.234375 15.140625 17.578125 10.59375 
Q 21.921875 6.0625 28.421875 6.0625 
Q 33.25 6.0625 36.671875 8.59375 
Q 40.09375 11.140625 42.09375 16.703125 
z
M 13.234375 30.90625 
L 42.1875 30.90625 
Q 41.609375 37.453125 38.875 40.71875 
Q 34.671875 45.796875 27.984375 45.796875 
Q 21.921875 45.796875 17.796875 41.75 
Q 13.671875 37.703125 13.234375 30.90625 
z
" id="ArialMT-101"/>
      </defs>
      <use xlink:href="#ArialMT-97"/>
      <use x="55.615234" xlink:href="#ArialMT-103"/>
      <use x="111.230469" xlink:href="#ArialMT-101"/>
     </g>
    </g>
   </g>
   <g id="matplotlib.axis_2">
    <g id="ytick_1">
     <g id="line2d_12">
      <path clip-path="url(#pcb3f34cac6)" d="M 180 315 
L 687.272727 315 
" style="fill:none;stroke:#cccccc;stroke-linecap:round;"/>
     </g>
     <g id="text_13">
      <!-- 0 -->
      <g style="fill:#262626;" transform="translate(164.382969 318.936797)scale(0.11 -0.11)">
       <use xlink:href="#ArialMT-48"/>
      </g>
     </g>
    </g>
    <g id="ytick_2">
     <g id="line2d_13">
      <path clip-path="url(#pcb3f34cac6)" d="M 180 256.698842 
L 687.272727 256.698842 
" style="fill:none;stroke:#cccccc;stroke-linecap:round;"/>
     </g>
     <g id="text_14">
      <!-- 200 -->
      <g style="fill:#262626;" transform="translate(152.148906 260.635639)scale(0.11 -0.11)">
       <use xlink:href="#ArialMT-50"/>
       <use x="55.615234" xlink:href="#ArialMT-48"/>
       <use x="111.230469" xlink:href="#ArialMT-48"/>
      </g>
     </g>
    </g>
    <g id="ytick_3">
     <g id="line2d_14">
      <path clip-path="url(#pcb3f34cac6)" d="M 180 198.397683 
L 687.272727 198.397683 
" style="fill:none;stroke:#cccccc;stroke-linecap:round;"/>
     </g>
     <g id="text_15">
      <!-- 400 -->
      <g style="fill:#262626;" transform="translate(152.148906 202.33448)scale(0.11 -0.11)">
       <use xlink:href="#ArialMT-52"/>
       <use x="55.615234" xlink:href="#ArialMT-48"/>
       <use x="111.230469" xlink:href="#ArialMT-48"/>
      </g>
     </g>
    </g>
    <g id="ytick_4">
     <g id="line2d_15">
      <path clip-path="url(#pcb3f34cac6)" d="M 180 140.096525 
L 687.272727 140.096525 
" style="fill:none;stroke:#cccccc;stroke-linecap:round;"/>
     </g>
     <g id="text_16">
      <!-- 600 -->
      <g style="fill:#262626;" transform="translate(152.148906 144.033322)scale(0.11 -0.11)">
       <use xlink:href="#ArialMT-54"/>
       <use x="55.615234" xlink:href="#ArialMT-48"/>
       <use x="111.230469" xlink:href="#ArialMT-48"/>
      </g>
     </g>
    </g>
    <g id="ytick_5">
     <g id="line2d_16">
      <path clip-path="url(#pcb3f34cac6)" d="M 180 81.795367 
L 687.272727 81.795367 
" style="fill:none;stroke:#cccccc;stroke-linecap:round;"/>
     </g>
     <g id="text_17">
      <!-- 800 -->
      <g style="fill:#262626;" transform="translate(152.148906 85.732164)scale(0.11 -0.11)">
       <use xlink:href="#ArialMT-56"/>
       <use x="55.615234" xlink:href="#ArialMT-48"/>
       <use x="111.230469" xlink:href="#ArialMT-48"/>
      </g>
     </g>
    </g>
    <g id="text_18">
     <!-- count of user -->
     <g style="fill:#262626;" transform="translate(145.763906 213.784687)rotate(-90)scale(0.12 -0.12)">
      <defs>
       <path d="M 40.4375 19 
L 49.078125 17.875 
Q 47.65625 8.9375 41.8125 3.875 
Q 35.984375 -1.171875 27.484375 -1.171875 
Q 16.84375 -1.171875 10.375 5.78125 
Q 3.90625 12.75 3.90625 25.734375 
Q 3.90625 34.125 6.6875 40.421875 
Q 9.46875 46.734375 15.15625 49.875 
Q 20.84375 53.03125 27.546875 53.03125 
Q 35.984375 53.03125 41.359375 48.75 
Q 46.734375 44.484375 48.25 36.625 
L 39.703125 35.296875 
Q 38.484375 40.53125 35.375 43.15625 
Q 32.28125 45.796875 27.875 45.796875 
Q 21.234375 45.796875 17.078125 41.03125 
Q 12.9375 36.28125 12.9375 25.984375 
Q 12.9375 15.53125 16.9375 10.796875 
Q 20.953125 6.0625 27.390625 6.0625 
Q 32.5625 6.0625 36.03125 9.234375 
Q 39.5 12.40625 40.4375 19 
z
" id="ArialMT-99"/>
       <path d="M 3.328125 25.921875 
Q 3.328125 40.328125 11.328125 47.265625 
Q 18.015625 53.03125 27.640625 53.03125 
Q 38.328125 53.03125 45.109375 46.015625 
Q 51.90625 39.015625 51.90625 26.65625 
Q 51.90625 16.65625 48.90625 10.90625 
Q 45.90625 5.171875 40.15625 2 
Q 34.421875 -1.171875 27.640625 -1.171875 
Q 16.75 -1.171875 10.03125 5.8125 
Q 3.328125 12.796875 3.328125 25.921875 
z
M 12.359375 25.921875 
Q 12.359375 15.96875 16.703125 11.015625 
Q 21.046875 6.0625 27.640625 6.0625 
Q 34.1875 6.0625 38.53125 11.03125 
Q 42.875 16.015625 42.875 26.21875 
Q 42.875 35.84375 38.5 40.796875 
Q 34.125 45.75 27.640625 45.75 
Q 21.046875 45.75 16.703125 40.8125 
Q 12.359375 35.890625 12.359375 25.921875 
z
" id="ArialMT-111"/>
       <path d="M 40.578125 0 
L 40.578125 7.625 
Q 34.515625 -1.171875 24.125 -1.171875 
Q 19.53125 -1.171875 15.546875 0.578125 
Q 11.578125 2.34375 9.640625 5 
Q 7.71875 7.671875 6.9375 11.53125 
Q 6.390625 14.109375 6.390625 19.734375 
L 6.390625 51.859375 
L 15.1875 51.859375 
L 15.1875 23.09375 
Q 15.1875 16.21875 15.71875 13.8125 
Q 16.546875 10.359375 19.234375 8.375 
Q 21.921875 6.390625 25.875 6.390625 
Q 29.828125 6.390625 33.296875 8.421875 
Q 36.765625 10.453125 38.203125 13.9375 
Q 39.65625 17.4375 39.65625 24.078125 
L 39.65625 51.859375 
L 48.4375 51.859375 
L 48.4375 0 
z
" id="ArialMT-117"/>
       <path d="M 6.59375 0 
L 6.59375 51.859375 
L 14.5 51.859375 
L 14.5 44.484375 
Q 20.21875 53.03125 31 53.03125 
Q 35.6875 53.03125 39.625 51.34375 
Q 43.5625 49.65625 45.515625 46.921875 
Q 47.46875 44.1875 48.25 40.4375 
Q 48.734375 37.984375 48.734375 31.890625 
L 48.734375 0 
L 39.9375 0 
L 39.9375 31.546875 
Q 39.9375 36.921875 38.90625 39.578125 
Q 37.890625 42.234375 35.28125 43.8125 
Q 32.671875 45.40625 29.15625 45.40625 
Q 23.53125 45.40625 19.453125 41.84375 
Q 15.375 38.28125 15.375 28.328125 
L 15.375 0 
z
" id="ArialMT-110"/>
       <path d="M 25.78125 7.859375 
L 27.046875 0.09375 
Q 23.34375 -0.6875 20.40625 -0.6875 
Q 15.625 -0.6875 12.984375 0.828125 
Q 10.359375 2.34375 9.28125 4.8125 
Q 8.203125 7.28125 8.203125 15.1875 
L 8.203125 45.015625 
L 1.765625 45.015625 
L 1.765625 51.859375 
L 8.203125 51.859375 
L 8.203125 64.703125 
L 16.9375 69.96875 
L 16.9375 51.859375 
L 25.78125 51.859375 
L 25.78125 45.015625 
L 16.9375 45.015625 
L 16.9375 14.703125 
Q 16.9375 10.9375 17.40625 9.859375 
Q 17.875 8.796875 18.921875 8.15625 
Q 19.96875 7.515625 21.921875 7.515625 
Q 23.390625 7.515625 25.78125 7.859375 
z
" id="ArialMT-116"/>
       <path id="ArialMT-32"/>
       <path d="M 8.6875 0 
L 8.6875 45.015625 
L 0.921875 45.015625 
L 0.921875 51.859375 
L 8.6875 51.859375 
L 8.6875 57.375 
Q 8.6875 62.59375 9.625 65.140625 
Q 10.890625 68.5625 14.078125 70.671875 
Q 17.28125 72.796875 23.046875 72.796875 
Q 26.765625 72.796875 31.25 71.921875 
L 29.9375 64.265625 
Q 27.203125 64.75 24.75 64.75 
Q 20.75 64.75 19.09375 63.03125 
Q 17.4375 61.328125 17.4375 56.640625 
L 17.4375 51.859375 
L 27.546875 51.859375 
L 27.546875 45.015625 
L 17.4375 45.015625 
L 17.4375 0 
z
" id="ArialMT-102"/>
       <path d="M 3.078125 15.484375 
L 11.765625 16.84375 
Q 12.5 11.625 15.84375 8.84375 
Q 19.1875 6.0625 25.203125 6.0625 
Q 31.25 6.0625 34.171875 8.515625 
Q 37.109375 10.984375 37.109375 14.3125 
Q 37.109375 17.28125 34.515625 19 
Q 32.71875 20.171875 25.53125 21.96875 
Q 15.875 24.421875 12.140625 26.203125 
Q 8.40625 27.984375 6.46875 31.125 
Q 4.546875 34.28125 4.546875 38.09375 
Q 4.546875 41.546875 6.125 44.5 
Q 7.71875 47.46875 10.453125 49.421875 
Q 12.5 50.921875 16.03125 51.96875 
Q 19.578125 53.03125 23.640625 53.03125 
Q 29.734375 53.03125 34.34375 51.265625 
Q 38.96875 49.515625 41.15625 46.5 
Q 43.359375 43.5 44.1875 38.484375 
L 35.59375 37.3125 
Q 35.015625 41.3125 32.203125 43.546875 
Q 29.390625 45.796875 24.265625 45.796875 
Q 18.21875 45.796875 15.625 43.796875 
Q 13.03125 41.796875 13.03125 39.109375 
Q 13.03125 37.40625 14.109375 36.03125 
Q 15.1875 34.625 17.484375 33.6875 
Q 18.796875 33.203125 25.25 31.453125 
Q 34.578125 28.953125 38.25 27.359375 
Q 41.9375 25.78125 44.03125 22.75 
Q 46.140625 19.734375 46.140625 15.234375 
Q 46.140625 10.84375 43.578125 6.953125 
Q 41.015625 3.078125 36.171875 0.953125 
Q 31.34375 -1.171875 25.25 -1.171875 
Q 15.140625 -1.171875 9.84375 3.03125 
Q 4.546875 7.234375 3.078125 15.484375 
z
" id="ArialMT-115"/>
       <path d="M 6.5 0 
L 6.5 51.859375 
L 14.40625 51.859375 
L 14.40625 44 
Q 17.4375 49.515625 20 51.265625 
Q 22.5625 53.03125 25.640625 53.03125 
Q 30.078125 53.03125 34.671875 50.203125 
L 31.640625 42.046875 
Q 28.421875 43.953125 25.203125 43.953125 
Q 22.3125 43.953125 20.015625 42.21875 
Q 17.71875 40.484375 16.75 37.40625 
Q 15.28125 32.71875 15.28125 27.15625 
L 15.28125 0 
z
" id="ArialMT-114"/>
      </defs>
      <use xlink:href="#ArialMT-99"/>
      <use x="50" xlink:href="#ArialMT-111"/>
      <use x="105.615234" xlink:href="#ArialMT-117"/>
      <use x="161.230469" xlink:href="#ArialMT-110"/>
      <use x="216.845703" xlink:href="#ArialMT-116"/>
      <use x="244.628906" xlink:href="#ArialMT-32"/>
      <use x="272.412109" xlink:href="#ArialMT-111"/>
      <use x="328.027344" xlink:href="#ArialMT-102"/>
      <use x="355.810547" xlink:href="#ArialMT-32"/>
      <use x="383.59375" xlink:href="#ArialMT-117"/>
      <use x="439.208984" xlink:href="#ArialMT-115"/>
      <use x="489.208984" xlink:href="#ArialMT-101"/>
      <use x="544.824219" xlink:href="#ArialMT-114"/>
     </g>
    </g>
   </g>
   <g id="patch_3">
    <path clip-path="url(#pcb3f34cac6)" d="M 266.836986 315 
L 286.857736 315 
L 286.857736 266.318533 
L 266.836986 266.318533 
z
" style="fill:#4c72b0;fill-opacity:0.5;"/>
   </g>
   <g id="patch_4">
    <path clip-path="url(#pcb3f34cac6)" d="M 286.857736 315 
L 306.878485 315 
L 306.878485 270.399614 
L 286.857736 270.399614 
z
" style="fill:#4c72b0;fill-opacity:0.5;"/>
   </g>
   <g id="patch_5">
    <path clip-path="url(#pcb3f34cac6)" d="M 306.878485 315 
L 326.899235 315 
L 326.899235 268.942085 
L 306.878485 268.942085 
z
" style="fill:#4c72b0;fill-opacity:0.5;"/>
   </g>
   <g id="patch_6">
    <path clip-path="url(#pcb3f34cac6)" d="M 326.899235 315 
L 346.919984 315 
L 346.919984 266.318533 
L 326.899235 266.318533 
z
" style="fill:#4c72b0;fill-opacity:0.5;"/>
   </g>
   <g id="patch_7">
    <path clip-path="url(#pcb3f34cac6)" d="M 346.919984 315 
L 366.940734 315 
L 366.940734 250.57722 
L 346.919984 250.57722 
z
" style="fill:#4c72b0;fill-opacity:0.5;"/>
   </g>
   <g id="patch_8">
    <path clip-path="url(#pcb3f34cac6)" d="M 366.940734 315 
L 386.961484 315 
L 386.961484 238.333977 
L 366.940734 238.333977 
z
" style="fill:#4c72b0;fill-opacity:0.5;"/>
   </g>
   <g id="patch_9">
    <path clip-path="url(#pcb3f34cac6)" d="M 386.961484 315 
L 406.982233 315 
L 406.982233 205.393822 
L 386.961484 205.393822 
z
" style="fill:#4c72b0;fill-opacity:0.5;"/>
   </g>
   <g id="patch_10">
    <path clip-path="url(#pcb3f34cac6)" d="M 406.982233 315 
L 427.002983 315 
L 427.002983 156.420849 
L 406.982233 156.420849 
z
" style="fill:#4c72b0;fill-opacity:0.5;"/>
   </g>
   <g id="patch_11">
    <path clip-path="url(#pcb3f34cac6)" d="M 427.002983 315 
L 447.023732 315 
L 447.023732 136.015444 
L 427.002983 136.015444 
z
" style="fill:#4c72b0;fill-opacity:0.5;"/>
   </g>
   <g id="patch_12">
    <path clip-path="url(#pcb3f34cac6)" d="M 447.023732 315 
L 467.044482 315 
L 467.044482 121.148649 
L 447.023732 121.148649 
z
" style="fill:#4c72b0;fill-opacity:0.5;"/>
   </g>
   <g id="patch_13">
    <path clip-path="url(#pcb3f34cac6)" d="M 467.044482 315 
L 487.065231 315 
L 487.065231 143.594595 
L 467.044482 143.594595 
z
" style="fill:#4c72b0;fill-opacity:0.5;"/>
   </g>
   <g id="patch_14">
    <path clip-path="url(#pcb3f34cac6)" d="M 487.065231 315 
L 507.085981 315 
L 507.085981 161.959459 
L 487.065231 161.959459 
z
" style="fill:#4c72b0;fill-opacity:0.5;"/>
   </g>
   <g id="patch_15">
    <path clip-path="url(#pcb3f34cac6)" d="M 507.085981 315 
L 527.106731 315 
L 527.106731 182.656371 
L 507.085981 182.656371 
z
" style="fill:#4c72b0;fill-opacity:0.5;"/>
   </g>
   <g id="patch_16">
    <path clip-path="url(#pcb3f34cac6)" d="M 527.106731 315 
L 547.12748 315 
L 547.12748 190.235521 
L 527.106731 190.235521 
z
" style="fill:#4c72b0;fill-opacity:0.5;"/>
   </g>
   <g id="patch_17">
    <path clip-path="url(#pcb3f34cac6)" d="M 547.12748 315 
L 567.14823 315 
L 567.14823 242.998069 
L 547.12748 242.998069 
z
" style="fill:#4c72b0;fill-opacity:0.5;"/>
   </g>
   <g id="patch_18">
    <path clip-path="url(#pcb3f34cac6)" d="M 567.14823 315 
L 587.168979 315 
L 587.168979 252.909266 
L 567.14823 252.909266 
z
" style="fill:#4c72b0;fill-opacity:0.5;"/>
   </g>
   <g id="patch_19">
    <path clip-path="url(#pcb3f34cac6)" d="M 587.168979 315 
L 607.189729 315 
L 607.189729 272.148649 
L 587.168979 272.148649 
z
" style="fill:#4c72b0;fill-opacity:0.5;"/>
   </g>
   <g id="patch_20">
    <path clip-path="url(#pcb3f34cac6)" d="M 607.189729 315 
L 627.210479 315 
L 627.210479 281.476834 
L 607.189729 281.476834 
z
" style="fill:#4c72b0;fill-opacity:0.5;"/>
   </g>
   <g id="patch_21">
    <path clip-path="url(#pcb3f34cac6)" d="M 627.210479 315 
L 647.231228 315 
L 647.231228 298.092664 
L 627.210479 298.092664 
z
" style="fill:#4c72b0;fill-opacity:0.5;"/>
   </g>
   <g id="patch_22">
    <path clip-path="url(#pcb3f34cac6)" d="M 647.231228 315 
L 667.251978 315 
L 667.251978 307.420849 
L 647.231228 307.420849 
z
" style="fill:#4c72b0;fill-opacity:0.5;"/>
   </g>
   <g id="line2d_17">
    <path clip-path="url(#pcb3f34cac6)" d="M 266.836986 293.716374 
L 272.873393 286.038181 
L 276.897664 281.340387 
L 278.9098 279.235123 
L 280.921936 277.326348 
L 282.934071 275.627715 
L 284.946207 274.143399 
L 286.958342 272.868964 
L 288.970478 271.792804 
L 290.982614 270.897933 
L 292.994749 270.163938 
L 295.006885 269.568846 
L 299.031156 268.708919 
L 303.055428 268.161784 
L 309.091834 267.664146 
L 317.140377 267.088396 
L 321.164648 266.601587 
L 325.18892 265.828642 
L 329.213191 264.67173 
L 333.237462 263.073003 
L 337.261733 261.026463 
L 341.286005 258.576807 
L 345.310276 255.809513 
L 351.346683 251.316235 
L 359.395225 245.354174 
L 363.419497 242.617713 
L 367.443768 240.09028 
L 377.504446 234.078717 
L 381.528717 231.283589 
L 383.540853 229.672416 
L 385.552989 227.871692 
L 387.565124 225.847124 
L 389.57726 223.566827 
L 391.589396 221.002814 
L 393.601531 218.132634 
L 395.613667 214.941108 
L 397.625802 211.422039 
L 399.637938 207.579723 
L 401.650074 203.430092 
L 405.674345 194.333393 
L 409.698616 184.494386 
L 415.735023 169.463599 
L 419.759294 160.059901 
L 421.77143 155.720406 
L 423.783566 151.678451 
L 425.795701 147.960279 
L 427.807837 144.579054 
L 429.819973 141.535552 
L 431.832108 138.819767 
L 433.844244 136.413261 
L 435.85638 134.292079 
L 437.868515 132.429943 
L 439.880651 130.801423 
L 441.892786 129.384737 
L 443.904922 128.163876 
L 445.917058 127.129793 
L 447.929193 126.280509 
L 449.941329 125.620152 
L 451.953465 125.157057 
L 453.9656 124.90125 
L 455.977736 124.861705 
L 457.989872 125.043826 
L 460.002007 125.447555 
L 462.014143 126.066417 
L 464.026278 126.887626 
L 466.038414 127.893211 
L 468.05055 129.061923 
L 472.074821 131.801303 
L 476.099092 134.955371 
L 480.123364 138.438735 
L 484.147635 142.229929 
L 488.171906 146.333374 
L 492.196177 150.738484 
L 496.220449 155.405303 
L 502.256856 162.782311 
L 508.293262 170.517899 
L 514.329669 178.598537 
L 520.366076 187.004293 
L 530.426754 201.469914 
L 538.475297 213.033854 
L 542.499568 218.589597 
L 546.52384 223.830222 
L 550.548111 228.641464 
L 554.572382 232.966297 
L 558.596653 236.833417 
L 562.620925 240.354566 
L 580.730145 255.580819 
L 586.766552 260.728609 
L 590.790824 263.941437 
L 594.815095 266.89901 
L 598.839366 269.611725 
L 614.936451 279.932023 
L 620.972858 284.337462 
L 629.021401 290.65902 
L 635.057808 295.396543 
L 639.082079 298.368287 
L 643.10635 301.079701 
L 647.130621 303.461809 
L 651.154893 305.486115 
L 655.179164 307.170531 
L 659.203435 308.570641 
L 663.227706 309.758309 
L 667.251978 310.796637 
L 667.251978 310.796637 
" style="fill:none;stroke:#4c72b0;stroke-linecap:round;stroke-width:1.5;"/>
   </g>
   <g id="patch_23">
    <path d="M 180 315 
L 180 43.2 
" style="fill:none;stroke:#cccccc;stroke-linecap:square;stroke-linejoin:miter;stroke-width:1.25;"/>
   </g>
   <g id="patch_24">
    <path d="M 687.272727 315 
L 687.272727 43.2 
" style="fill:none;stroke:#cccccc;stroke-linecap:square;stroke-linejoin:miter;stroke-width:1.25;"/>
   </g>
   <g id="patch_25">
    <path d="M 180 315 
L 687.272727 315 
" style="fill:none;stroke:#cccccc;stroke-linecap:square;stroke-linejoin:miter;stroke-width:1.25;"/>
   </g>
   <g id="patch_26">
    <path d="M 180 43.2 
L 687.272727 43.2 
" style="fill:none;stroke:#cccccc;stroke-linecap:square;stroke-linejoin:miter;stroke-width:1.25;"/>
   </g>
   <g id="text_19">
    <!-- Number of female / age in Profile dataset -->
    <g style="fill:#262626;" transform="translate(324.586364 37.2)scale(0.12 -0.12)">
     <defs>
      <path d="M 7.625 0 
L 7.625 71.578125 
L 17.328125 71.578125 
L 54.9375 15.375 
L 54.9375 71.578125 
L 64.015625 71.578125 
L 64.015625 0 
L 54.296875 0 
L 16.703125 56.25 
L 16.703125 0 
z
" id="ArialMT-78"/>
      <path d="M 6.59375 0 
L 6.59375 51.859375 
L 14.453125 51.859375 
L 14.453125 44.578125 
Q 16.890625 48.390625 20.9375 50.703125 
Q 25 53.03125 30.171875 53.03125 
Q 35.9375 53.03125 39.625 50.640625 
Q 43.3125 48.25 44.828125 43.953125 
Q 50.984375 53.03125 60.84375 53.03125 
Q 68.5625 53.03125 72.703125 48.75 
Q 76.859375 44.484375 76.859375 35.59375 
L 76.859375 0 
L 68.109375 0 
L 68.109375 32.671875 
Q 68.109375 37.9375 67.25 40.25 
Q 66.40625 42.578125 64.15625 43.984375 
Q 61.921875 45.40625 58.890625 45.40625 
Q 53.421875 45.40625 49.796875 41.765625 
Q 46.1875 38.140625 46.1875 30.125 
L 46.1875 0 
L 37.40625 0 
L 37.40625 33.6875 
Q 37.40625 39.546875 35.25 42.46875 
Q 33.109375 45.40625 28.21875 45.40625 
Q 24.515625 45.40625 21.359375 43.453125 
Q 18.21875 41.5 16.796875 37.734375 
Q 15.375 33.984375 15.375 26.90625 
L 15.375 0 
z
" id="ArialMT-109"/>
      <path d="M 14.703125 0 
L 6.546875 0 
L 6.546875 71.578125 
L 15.328125 71.578125 
L 15.328125 46.046875 
Q 20.90625 53.03125 29.546875 53.03125 
Q 34.328125 53.03125 38.59375 51.09375 
Q 42.875 49.171875 45.625 45.671875 
Q 48.390625 42.1875 49.953125 37.25 
Q 51.515625 32.328125 51.515625 26.703125 
Q 51.515625 13.375 44.921875 6.09375 
Q 38.328125 -1.171875 29.109375 -1.171875 
Q 19.921875 -1.171875 14.703125 6.5 
z
M 14.59375 26.3125 
Q 14.59375 17 17.140625 12.84375 
Q 21.296875 6.0625 28.375 6.0625 
Q 34.125 6.0625 38.328125 11.0625 
Q 42.53125 16.0625 42.53125 25.984375 
Q 42.53125 36.140625 38.5 40.96875 
Q 34.46875 45.796875 28.765625 45.796875 
Q 23 45.796875 18.796875 40.796875 
Q 14.59375 35.796875 14.59375 26.3125 
z
" id="ArialMT-98"/>
      <path d="M 6.390625 0 
L 6.390625 71.578125 
L 15.1875 71.578125 
L 15.1875 0 
z
" id="ArialMT-108"/>
      <path d="M 0 -1.21875 
L 20.75 72.796875 
L 27.78125 72.796875 
L 7.078125 -1.21875 
z
" id="ArialMT-47"/>
      <path d="M 6.640625 61.46875 
L 6.640625 71.578125 
L 15.4375 71.578125 
L 15.4375 61.46875 
z
M 6.640625 0 
L 6.640625 51.859375 
L 15.4375 51.859375 
L 15.4375 0 
z
" id="ArialMT-105"/>
      <path d="M 7.71875 0 
L 7.71875 71.578125 
L 34.71875 71.578125 
Q 41.84375 71.578125 45.609375 70.90625 
Q 50.875 70.015625 54.4375 67.546875 
Q 58.015625 65.09375 60.1875 60.640625 
Q 62.359375 56.203125 62.359375 50.875 
Q 62.359375 41.75 56.546875 35.421875 
Q 50.734375 29.109375 35.546875 29.109375 
L 17.1875 29.109375 
L 17.1875 0 
z
M 17.1875 37.546875 
L 35.6875 37.546875 
Q 44.875 37.546875 48.734375 40.96875 
Q 52.59375 44.390625 52.59375 50.59375 
Q 52.59375 55.078125 50.3125 58.265625 
Q 48.046875 61.46875 44.34375 62.5 
Q 41.9375 63.140625 35.5 63.140625 
L 17.1875 63.140625 
z
" id="ArialMT-80"/>
      <path d="M 40.234375 0 
L 40.234375 6.546875 
Q 35.296875 -1.171875 25.734375 -1.171875 
Q 19.53125 -1.171875 14.328125 2.25 
Q 9.125 5.671875 6.265625 11.796875 
Q 3.421875 17.921875 3.421875 25.875 
Q 3.421875 33.640625 6 39.96875 
Q 8.59375 46.296875 13.765625 49.65625 
Q 18.953125 53.03125 25.34375 53.03125 
Q 30.03125 53.03125 33.6875 51.046875 
Q 37.359375 49.078125 39.65625 45.90625 
L 39.65625 71.578125 
L 48.390625 71.578125 
L 48.390625 0 
z
M 12.453125 25.875 
Q 12.453125 15.921875 16.640625 10.984375 
Q 20.84375 6.0625 26.5625 6.0625 
Q 32.328125 6.0625 36.34375 10.765625 
Q 40.375 15.484375 40.375 25.140625 
Q 40.375 35.796875 36.265625 40.765625 
Q 32.171875 45.75 26.171875 45.75 
Q 20.3125 45.75 16.375 40.96875 
Q 12.453125 36.1875 12.453125 25.875 
z
" id="ArialMT-100"/>
     </defs>
     <use xlink:href="#ArialMT-78"/>
     <use x="72.216797" xlink:href="#ArialMT-117"/>
     <use x="127.832031" xlink:href="#ArialMT-109"/>
     <use x="211.132812" xlink:href="#ArialMT-98"/>
     <use x="266.748047" xlink:href="#ArialMT-101"/>
     <use x="322.363281" xlink:href="#ArialMT-114"/>
     <use x="355.664062" xlink:href="#ArialMT-32"/>
     <use x="383.447266" xlink:href="#ArialMT-111"/>
     <use x="439.0625" xlink:href="#ArialMT-102"/>
     <use x="466.845703" xlink:href="#ArialMT-32"/>
     <use x="494.628906" xlink:href="#ArialMT-102"/>
     <use x="522.412109" xlink:href="#ArialMT-101"/>
     <use x="578.027344" xlink:href="#ArialMT-109"/>
     <use x="661.328125" xlink:href="#ArialMT-97"/>
     <use x="716.943359" xlink:href="#ArialMT-108"/>
     <use x="739.160156" xlink:href="#ArialMT-101"/>
     <use x="794.775391" xlink:href="#ArialMT-32"/>
     <use x="822.558594" xlink:href="#ArialMT-47"/>
     <use x="850.341797" xlink:href="#ArialMT-32"/>
     <use x="878.125" xlink:href="#ArialMT-97"/>
     <use x="933.740234" xlink:href="#ArialMT-103"/>
     <use x="989.355469" xlink:href="#ArialMT-101"/>
     <use x="1044.970703" xlink:href="#ArialMT-32"/>
     <use x="1072.753906" xlink:href="#ArialMT-105"/>
     <use x="1094.970703" xlink:href="#ArialMT-110"/>
     <use x="1150.585938" xlink:href="#ArialMT-32"/>
     <use x="1178.369141" xlink:href="#ArialMT-80"/>
     <use x="1245.068359" xlink:href="#ArialMT-114"/>
     <use x="1278.369141" xlink:href="#ArialMT-111"/>
     <use x="1333.984375" xlink:href="#ArialMT-102"/>
     <use x="1361.767578" xlink:href="#ArialMT-105"/>
     <use x="1383.984375" xlink:href="#ArialMT-108"/>
     <use x="1406.201172" xlink:href="#ArialMT-101"/>
     <use x="1461.816406" xlink:href="#ArialMT-32"/>
     <use x="1489.599609" xlink:href="#ArialMT-100"/>
     <use x="1545.214844" xlink:href="#ArialMT-97"/>
     <use x="1600.830078" xlink:href="#ArialMT-116"/>
     <use x="1628.613281" xlink:href="#ArialMT-97"/>
     <use x="1684.228516" xlink:href="#ArialMT-115"/>
     <use x="1734.228516" xlink:href="#ArialMT-101"/>
     <use x="1789.84375" xlink:href="#ArialMT-116"/>
    </g>
   </g>
  </g>
  <g id="axes_2">
   <g id="patch_27">
    <path d="M 788.727273 315 
L 1296 315 
L 1296 43.2 
L 788.727273 43.2 
z
" style="fill:#ffffff;"/>
   </g>
   <g id="matplotlib.axis_3">
    <g id="xtick_12">
     <g id="line2d_18">
      <path clip-path="url(#pa846c7a07d)" d="M 788.727273 315 
L 788.727273 43.2 
" style="fill:none;stroke:#cccccc;stroke-linecap:round;"/>
     </g>
     <g id="text_20">
      <!-- 0 -->
      <g style="fill:#262626;" transform="translate(785.668757 332.373594)scale(0.11 -0.11)">
       <use xlink:href="#ArialMT-48"/>
      </g>
     </g>
    </g>
    <g id="xtick_13">
     <g id="line2d_19">
      <path clip-path="url(#pa846c7a07d)" d="M 837.456641 315 
L 837.456641 43.2 
" style="fill:none;stroke:#cccccc;stroke-linecap:round;"/>
     </g>
     <g id="text_21">
      <!-- 10 -->
      <g style="fill:#262626;" transform="translate(831.33961 332.373594)scale(0.11 -0.11)">
       <use xlink:href="#ArialMT-49"/>
       <use x="55.615234" xlink:href="#ArialMT-48"/>
      </g>
     </g>
    </g>
    <g id="xtick_14">
     <g id="line2d_20">
      <path clip-path="url(#pa846c7a07d)" d="M 886.18601 315 
L 886.18601 43.2 
" style="fill:none;stroke:#cccccc;stroke-linecap:round;"/>
     </g>
     <g id="text_22">
      <!-- 20 -->
      <g style="fill:#262626;" transform="translate(880.068979 332.373594)scale(0.11 -0.11)">
       <use xlink:href="#ArialMT-50"/>
       <use x="55.615234" xlink:href="#ArialMT-48"/>
      </g>
     </g>
    </g>
    <g id="xtick_15">
     <g id="line2d_21">
      <path clip-path="url(#pa846c7a07d)" d="M 934.915379 315 
L 934.915379 43.2 
" style="fill:none;stroke:#cccccc;stroke-linecap:round;"/>
     </g>
     <g id="text_23">
      <!-- 30 -->
      <g style="fill:#262626;" transform="translate(928.798347 332.373594)scale(0.11 -0.11)">
       <use xlink:href="#ArialMT-51"/>
       <use x="55.615234" xlink:href="#ArialMT-48"/>
      </g>
     </g>
    </g>
    <g id="xtick_16">
     <g id="line2d_22">
      <path clip-path="url(#pa846c7a07d)" d="M 983.644747 315 
L 983.644747 43.2 
" style="fill:none;stroke:#cccccc;stroke-linecap:round;"/>
     </g>
     <g id="text_24">
      <!-- 40 -->
      <g style="fill:#262626;" transform="translate(977.527716 332.373594)scale(0.11 -0.11)">
       <use xlink:href="#ArialMT-52"/>
       <use x="55.615234" xlink:href="#ArialMT-48"/>
      </g>
     </g>
    </g>
    <g id="xtick_17">
     <g id="line2d_23">
      <path clip-path="url(#pa846c7a07d)" d="M 1032.374116 315 
L 1032.374116 43.2 
" style="fill:none;stroke:#cccccc;stroke-linecap:round;"/>
     </g>
     <g id="text_25">
      <!-- 50 -->
      <g style="fill:#262626;" transform="translate(1026.257085 332.373594)scale(0.11 -0.11)">
       <use xlink:href="#ArialMT-53"/>
       <use x="55.615234" xlink:href="#ArialMT-48"/>
      </g>
     </g>
    </g>
    <g id="xtick_18">
     <g id="line2d_24">
      <path clip-path="url(#pa846c7a07d)" d="M 1081.103484 315 
L 1081.103484 43.2 
" style="fill:none;stroke:#cccccc;stroke-linecap:round;"/>
     </g>
     <g id="text_26">
      <!-- 60 -->
      <g style="fill:#262626;" transform="translate(1074.986453 332.373594)scale(0.11 -0.11)">
       <use xlink:href="#ArialMT-54"/>
       <use x="55.615234" xlink:href="#ArialMT-48"/>
      </g>
     </g>
    </g>
    <g id="xtick_19">
     <g id="line2d_25">
      <path clip-path="url(#pa846c7a07d)" d="M 1129.832853 315 
L 1129.832853 43.2 
" style="fill:none;stroke:#cccccc;stroke-linecap:round;"/>
     </g>
     <g id="text_27">
      <!-- 70 -->
      <g style="fill:#262626;" transform="translate(1123.715822 332.373594)scale(0.11 -0.11)">
       <use xlink:href="#ArialMT-55"/>
       <use x="55.615234" xlink:href="#ArialMT-48"/>
      </g>
     </g>
    </g>
    <g id="xtick_20">
     <g id="line2d_26">
      <path clip-path="url(#pa846c7a07d)" d="M 1178.562222 315 
L 1178.562222 43.2 
" style="fill:none;stroke:#cccccc;stroke-linecap:round;"/>
     </g>
     <g id="text_28">
      <!-- 80 -->
      <g style="fill:#262626;" transform="translate(1172.44519 332.373594)scale(0.11 -0.11)">
       <use xlink:href="#ArialMT-56"/>
       <use x="55.615234" xlink:href="#ArialMT-48"/>
      </g>
     </g>
    </g>
    <g id="xtick_21">
     <g id="line2d_27">
      <path clip-path="url(#pa846c7a07d)" d="M 1227.29159 315 
L 1227.29159 43.2 
" style="fill:none;stroke:#cccccc;stroke-linecap:round;"/>
     </g>
     <g id="text_29">
      <!-- 90 -->
      <g style="fill:#262626;" transform="translate(1221.174559 332.373594)scale(0.11 -0.11)">
       <use xlink:href="#ArialMT-57"/>
       <use x="55.615234" xlink:href="#ArialMT-48"/>
      </g>
     </g>
    </g>
    <g id="text_30">
     <!-- age -->
     <g style="fill:#262626;" transform="translate(1032.353949 347.008594)scale(0.12 -0.12)">
      <use xlink:href="#ArialMT-97"/>
      <use x="55.615234" xlink:href="#ArialMT-103"/>
      <use x="111.230469" xlink:href="#ArialMT-101"/>
     </g>
    </g>
   </g>
   <g id="matplotlib.axis_4">
    <g id="ytick_6">
     <g id="line2d_28">
      <path clip-path="url(#pa846c7a07d)" d="M 788.727273 315 
L 1296 315 
" style="fill:none;stroke:#cccccc;stroke-linecap:round;"/>
     </g>
    </g>
    <g id="ytick_7">
     <g id="line2d_29">
      <path clip-path="url(#pa846c7a07d)" d="M 788.727273 256.698842 
L 1296 256.698842 
" style="fill:none;stroke:#cccccc;stroke-linecap:round;"/>
     </g>
    </g>
    <g id="ytick_8">
     <g id="line2d_30">
      <path clip-path="url(#pa846c7a07d)" d="M 788.727273 198.397683 
L 1296 198.397683 
" style="fill:none;stroke:#cccccc;stroke-linecap:round;"/>
     </g>
    </g>
    <g id="ytick_9">
     <g id="line2d_31">
      <path clip-path="url(#pa846c7a07d)" d="M 788.727273 140.096525 
L 1296 140.096525 
" style="fill:none;stroke:#cccccc;stroke-linecap:round;"/>
     </g>
    </g>
    <g id="ytick_10">
     <g id="line2d_32">
      <path clip-path="url(#pa846c7a07d)" d="M 788.727273 81.795367 
L 1296 81.795367 
" style="fill:none;stroke:#cccccc;stroke-linecap:round;"/>
     </g>
    </g>
   </g>
   <g id="patch_28">
    <path clip-path="url(#pa846c7a07d)" d="M 876.440136 315 
L 896.419177 315 
L 896.419177 187.903475 
L 876.440136 187.903475 
z
" style="fill:#4c72b0;fill-opacity:0.5;"/>
   </g>
   <g id="patch_29">
    <path clip-path="url(#pa846c7a07d)" d="M 896.419177 315 
L 916.398218 315 
L 916.398218 198.106178 
L 896.419177 198.106178 
z
" style="fill:#4c72b0;fill-opacity:0.5;"/>
   </g>
   <g id="patch_30">
    <path clip-path="url(#pa846c7a07d)" d="M 916.398218 315 
L 936.37726 315 
L 936.37726 206.559846 
L 916.398218 206.559846 
z
" style="fill:#4c72b0;fill-opacity:0.5;"/>
   </g>
   <g id="patch_31">
    <path clip-path="url(#pa846c7a07d)" d="M 936.37726 315 
L 956.356301 315 
L 956.356301 205.685328 
L 936.37726 205.685328 
z
" style="fill:#4c72b0;fill-opacity:0.5;"/>
   </g>
   <g id="patch_32">
    <path clip-path="url(#pa846c7a07d)" d="M 956.356301 315 
L 976.335342 315 
L 976.335342 188.194981 
L 956.356301 188.194981 
z
" style="fill:#4c72b0;fill-opacity:0.5;"/>
   </g>
   <g id="patch_33">
    <path clip-path="url(#pa846c7a07d)" d="M 976.335342 315 
L 996.314383 315 
L 996.314383 163.708494 
L 976.335342 163.708494 
z
" style="fill:#4c72b0;fill-opacity:0.5;"/>
   </g>
   <g id="patch_34">
    <path clip-path="url(#pa846c7a07d)" d="M 996.314383 315 
L 1016.293424 315 
L 1016.293424 155.837838 
L 996.314383 155.837838 
z
" style="fill:#4c72b0;fill-opacity:0.5;"/>
   </g>
   <g id="patch_35">
    <path clip-path="url(#pa846c7a07d)" d="M 1016.293424 315 
L 1036.272465 315 
L 1036.272465 131.059846 
L 1016.293424 131.059846 
z
" style="fill:#4c72b0;fill-opacity:0.5;"/>
   </g>
   <g id="patch_36">
    <path clip-path="url(#pa846c7a07d)" d="M 1036.272465 315 
L 1056.251506 315 
L 1056.251506 80.337838 
L 1036.272465 80.337838 
z
" style="fill:#4c72b0;fill-opacity:0.5;"/>
   </g>
   <g id="patch_37">
    <path clip-path="url(#pa846c7a07d)" d="M 1056.251506 315 
L 1076.230548 315 
L 1076.230548 89.957529 
L 1056.251506 89.957529 
z
" style="fill:#4c72b0;fill-opacity:0.5;"/>
   </g>
   <g id="patch_38">
    <path clip-path="url(#pa846c7a07d)" d="M 1076.230548 315 
L 1096.209589 315 
L 1096.209589 56.142857 
L 1076.230548 56.142857 
z
" style="fill:#4c72b0;fill-opacity:0.5;"/>
   </g>
   <g id="patch_39">
    <path clip-path="url(#pa846c7a07d)" d="M 1096.209589 315 
L 1116.18863 315 
L 1116.18863 125.22973 
L 1096.209589 125.22973 
z
" style="fill:#4c72b0;fill-opacity:0.5;"/>
   </g>
   <g id="patch_40">
    <path clip-path="url(#pa846c7a07d)" d="M 1116.18863 315 
L 1136.167671 315 
L 1136.167671 164 
L 1116.18863 164 
z
" style="fill:#4c72b0;fill-opacity:0.5;"/>
   </g>
   <g id="patch_41">
    <path clip-path="url(#pa846c7a07d)" d="M 1136.167671 315 
L 1156.146712 315 
L 1156.146712 204.519305 
L 1136.167671 204.519305 
z
" style="fill:#4c72b0;fill-opacity:0.5;"/>
   </g>
   <g id="patch_42">
    <path clip-path="url(#pa846c7a07d)" d="M 1156.146712 315 
L 1176.125753 315 
L 1176.125753 231.629344 
L 1156.146712 231.629344 
z
" style="fill:#4c72b0;fill-opacity:0.5;"/>
   </g>
   <g id="patch_43">
    <path clip-path="url(#pa846c7a07d)" d="M 1176.125753 315 
L 1196.104794 315 
L 1196.104794 254.07529 
L 1176.125753 254.07529 
z
" style="fill:#4c72b0;fill-opacity:0.5;"/>
   </g>
   <g id="patch_44">
    <path clip-path="url(#pa846c7a07d)" d="M 1196.104794 315 
L 1216.083835 315 
L 1216.083835 280.019305 
L 1196.104794 280.019305 
z
" style="fill:#4c72b0;fill-opacity:0.5;"/>
   </g>
   <g id="patch_45">
    <path clip-path="url(#pa846c7a07d)" d="M 1216.083835 315 
L 1236.062877 315 
L 1236.062877 291.096525 
L 1216.083835 291.096525 
z
" style="fill:#4c72b0;fill-opacity:0.5;"/>
   </g>
   <g id="patch_46">
    <path clip-path="url(#pa846c7a07d)" d="M 1236.062877 315 
L 1256.041918 315 
L 1256.041918 302.173745 
L 1236.062877 302.173745 
z
" style="fill:#4c72b0;fill-opacity:0.5;"/>
   </g>
   <g id="patch_47">
    <path clip-path="url(#pa846c7a07d)" d="M 1256.041918 315 
L 1276.020959 315 
L 1276.020959 310.627413 
L 1256.041918 310.627413 
z
" style="fill:#4c72b0;fill-opacity:0.5;"/>
   </g>
   <g id="line2d_33">
    <path clip-path="url(#pa846c7a07d)" d="M 876.440136 255.705655 
L 880.456024 243.004717 
L 882.463968 237.039106 
L 884.471912 231.462154 
L 886.479855 226.344049 
L 888.487799 221.72895 
L 890.495743 217.635498 
L 892.503687 214.059605 
L 894.511631 210.978971 
L 896.519575 208.358623 
L 898.527518 206.156677 
L 900.535462 204.329593 
L 902.543406 202.836354 
L 904.55135 201.641186 
L 906.559294 200.714707 
L 908.567238 200.033624 
L 910.575181 199.579268 
L 912.583125 199.335403 
L 914.591069 199.285776 
L 916.599013 199.411856 
L 918.606957 199.691139 
L 922.622844 200.594873 
L 930.65462 202.768629 
L 932.662564 203.16447 
L 934.670507 203.432948 
L 936.678451 203.547991 
L 938.686395 203.489155 
L 940.694339 203.241549 
L 942.702283 202.795439 
L 944.710227 202.145715 
L 946.71817 201.291371 
L 948.726114 200.23512 
L 950.734058 198.983175 
L 952.742002 197.545156 
L 954.749946 195.934022 
L 958.765833 192.259683 
L 962.781721 188.118123 
L 968.805553 181.409743 
L 978.845272 170.062444 
L 982.861159 165.747523 
L 986.877047 161.685722 
L 990.892935 157.940251 
L 994.908822 154.508775 
L 1004.948542 146.322989 
L 1008.964429 142.521629 
L 1010.972373 140.376262 
L 1012.980317 138.039299 
L 1014.988261 135.500249 
L 1016.996204 132.758182 
L 1021.012092 126.709045 
L 1025.02798 120.068227 
L 1035.067699 103.01905 
L 1037.075643 99.929928 
L 1039.083587 97.061521 
L 1041.09153 94.453439 
L 1043.099474 92.13711 
L 1045.107418 90.134398 
L 1047.115362 88.456908 
L 1049.123306 87.106131 
L 1051.13125 86.074441 
L 1053.139193 85.346898 
L 1055.147137 84.903639 
L 1057.155081 84.722574 
L 1059.163025 84.782013 
L 1061.170969 85.062877 
L 1063.178913 85.550166 
L 1065.186856 86.233502 
L 1067.1948 87.106679 
L 1069.202744 88.166363 
L 1071.210688 89.410165 
L 1073.218632 90.834485 
L 1075.226576 92.432499 
L 1079.242463 96.098076 
L 1083.258351 100.252092 
L 1091.290126 109.176526 
L 1107.353677 127.045294 
L 1111.369565 132.163375 
L 1115.385452 137.877757 
L 1119.40134 144.226166 
L 1123.417228 151.146687 
L 1127.433115 158.513829 
L 1133.456947 170.084511 
L 1145.50461 193.504084 
L 1151.528441 204.629769 
L 1155.544329 211.662088 
L 1159.560217 218.355876 
L 1163.576104 224.708773 
L 1167.591992 230.725403 
L 1171.60788 236.412899 
L 1175.623767 241.788485 
L 1181.647599 249.357668 
L 1187.67143 256.524053 
L 1195.703206 265.709151 
L 1201.727037 272.211364 
L 1205.742925 276.215213 
L 1209.758812 279.867299 
L 1213.7747 283.13682 
L 1217.790588 286.042991 
L 1221.806475 288.646785 
L 1227.830307 292.169439 
L 1237.870026 297.623503 
L 1247.909745 302.866314 
L 1253.933577 305.734032 
L 1257.949464 307.441065 
L 1261.965352 308.952229 
L 1265.98124 310.258903 
L 1269.997127 311.366104 
L 1274.013015 312.286538 
L 1276.020959 312.681479 
L 1276.020959 312.681479 
" style="fill:none;stroke:#4c72b0;stroke-linecap:round;stroke-width:1.5;"/>
   </g>
   <g id="patch_48">
    <path d="M 788.727273 315 
L 788.727273 43.2 
" style="fill:none;stroke:#cccccc;stroke-linecap:square;stroke-linejoin:miter;stroke-width:1.25;"/>
   </g>
   <g id="patch_49">
    <path d="M 1296 315 
L 1296 43.2 
" style="fill:none;stroke:#cccccc;stroke-linecap:square;stroke-linejoin:miter;stroke-width:1.25;"/>
   </g>
   <g id="patch_50">
    <path d="M 788.727273 315 
L 1296 315 
" style="fill:none;stroke:#cccccc;stroke-linecap:square;stroke-linejoin:miter;stroke-width:1.25;"/>
   </g>
   <g id="patch_51">
    <path d="M 788.727273 43.2 
L 1296 43.2 
" style="fill:none;stroke:#cccccc;stroke-linecap:square;stroke-linejoin:miter;stroke-width:1.25;"/>
   </g>
   <g id="text_31">
    <!-- Number of male / age in Profile dataset -->
    <g style="fill:#262626;" transform="translate(938.317074 37.2)scale(0.12 -0.12)">
     <use xlink:href="#ArialMT-78"/>
     <use x="72.216797" xlink:href="#ArialMT-117"/>
     <use x="127.832031" xlink:href="#ArialMT-109"/>
     <use x="211.132812" xlink:href="#ArialMT-98"/>
     <use x="266.748047" xlink:href="#ArialMT-101"/>
     <use x="322.363281" xlink:href="#ArialMT-114"/>
     <use x="355.664062" xlink:href="#ArialMT-32"/>
     <use x="383.447266" xlink:href="#ArialMT-111"/>
     <use x="439.0625" xlink:href="#ArialMT-102"/>
     <use x="466.845703" xlink:href="#ArialMT-32"/>
     <use x="494.628906" xlink:href="#ArialMT-109"/>
     <use x="577.929688" xlink:href="#ArialMT-97"/>
     <use x="633.544922" xlink:href="#ArialMT-108"/>
     <use x="655.761719" xlink:href="#ArialMT-101"/>
     <use x="711.376953" xlink:href="#ArialMT-32"/>
     <use x="739.160156" xlink:href="#ArialMT-47"/>
     <use x="766.943359" xlink:href="#ArialMT-32"/>
     <use x="794.726562" xlink:href="#ArialMT-97"/>
     <use x="850.341797" xlink:href="#ArialMT-103"/>
     <use x="905.957031" xlink:href="#ArialMT-101"/>
     <use x="961.572266" xlink:href="#ArialMT-32"/>
     <use x="989.355469" xlink:href="#ArialMT-105"/>
     <use x="1011.572266" xlink:href="#ArialMT-110"/>
     <use x="1067.1875" xlink:href="#ArialMT-32"/>
     <use x="1094.970703" xlink:href="#ArialMT-80"/>
     <use x="1161.669922" xlink:href="#ArialMT-114"/>
     <use x="1194.970703" xlink:href="#ArialMT-111"/>
     <use x="1250.585938" xlink:href="#ArialMT-102"/>
     <use x="1278.369141" xlink:href="#ArialMT-105"/>
     <use x="1300.585938" xlink:href="#ArialMT-108"/>
     <use x="1322.802734" xlink:href="#ArialMT-101"/>
     <use x="1378.417969" xlink:href="#ArialMT-32"/>
     <use x="1406.201172" xlink:href="#ArialMT-100"/>
     <use x="1461.816406" xlink:href="#ArialMT-97"/>
     <use x="1517.431641" xlink:href="#ArialMT-116"/>
     <use x="1545.214844" xlink:href="#ArialMT-97"/>
     <use x="1600.830078" xlink:href="#ArialMT-115"/>
     <use x="1650.830078" xlink:href="#ArialMT-101"/>
     <use x="1706.445312" xlink:href="#ArialMT-116"/>
    </g>
   </g>
  </g>
 </g>
 <defs>
  <clipPath id="pcb3f34cac6">
   <rect height="271.8" width="507.272727" x="180" y="43.2"/>
  </clipPath>
  <clipPath id="pa846c7a07d">
   <rect height="271.8" width="507.272727" x="788.727273" y="43.2"/>
  </clipPath>
 </defs>
</svg>
