<?xml version="1.0" encoding="utf-8" standalone="no"?>
<!DOCTYPE svg PUBLIC "-//W3C//DTD SVG 1.1//EN"
  "http://www.w3.org/Graphics/SVG/1.1/DTD/svg11.dtd">
<svg xmlns:xlink="http://www.w3.org/1999/xlink" width="1440pt" height="360pt" viewBox="0 0 1440 360" xmlns="http://www.w3.org/2000/svg" version="1.1">
 <metadata>
  <rdf:RDF xmlns:dc="http://purl.org/dc/elements/1.1/" xmlns:cc="http://creativecommons.org/ns#" xmlns:rdf="http://www.w3.org/1999/02/22-rdf-syntax-ns#">
   <cc:Work>
    <dc:type rdf:resource="http://purl.org/dc/dcmitype/StillImage"/>
    <dc:date>2021-11-20T13:17:01.114374</dc:date>
    <dc:format>image/svg+xml</dc:format>
    <dc:creator>
     <cc:Agent>
      <dc:title>Matplotlib v3.5.0, https://matplotlib.org/</dc:title>
     </cc:Agent>
    </dc:creator>
   </cc:Work>
  </rdf:RDF>
 </metadata>
 <defs>
  <style type="text/css">*{stroke-linejoin: round; stroke-linecap: butt}</style>
 </defs>
 <g id="figure_1">
  <g id="patch_1">
   <path d="M 0 360 
L 1440 360 
L 1440 0 
L 0 0 
z
" style="fill: #ffffff"/>
  </g>
  <g id="axes_1">
   <g id="patch_2">
    <path d="M 180 315 
L 687.272727 315 
L 687.272727 43.2 
L 180 43.2 
z
" style="fill: #ffffff"/>
   </g>
   <g id="matplotlib.axis_1">
    <g id="xtick_1">
     <g id="line2d_1">
      <path d="M 180 315 
L 180 43.2 
" clip-path="url(#p85ffccefdc)" style="fill: none; stroke: #cccccc; stroke-linecap: round"/>
     </g>
     <g id="text_1">
      <!-- 0 -->
      <g style="fill: #262626" transform="translate(176.941484 332.373594)scale(0.11 -0.11)">
       <defs>
        <path id="ArialMT-30" d="M 266 2259 
Q 266 3072 433 3567 
Q 600 4063 929 4331 
Q 1259 4600 1759 4600 
Q 2128 4600 2406 4451 
Q 2684 4303 2865 4023 
Q 3047 3744 3150 3342 
Q 3253 2941 3253 2259 
Q 3253 1453 3087 958 
Q 2922 463 2592 192 
Q 2263 -78 1759 -78 
Q 1097 -78 719 397 
Q 266 969 266 2259 
z
M 844 2259 
Q 844 1131 1108 757 
Q 1372 384 1759 384 
Q 2147 384 2411 759 
Q 2675 1134 2675 2259 
Q 2675 3391 2411 3762 
Q 2147 4134 1753 4134 
Q 1366 4134 1134 3806 
Q 844 3388 844 2259 
z
" transform="scale(0.015625)"/>
       </defs>
       <use xlink:href="#ArialMT-30"/>
      </g>
     </g>
    </g>
    <g id="xtick_2">
     <g id="line2d_2">
      <path d="M 228.24277 315 
L 228.24277 43.2 
" clip-path="url(#p85ffccefdc)" style="fill: none; stroke: #cccccc; stroke-linecap: round"/>
     </g>
     <g id="text_2">
      <!-- 10 -->
      <g style="fill: #262626" transform="translate(222.125739 332.373594)scale(0.11 -0.11)">
       <defs>
        <path id="ArialMT-31" d="M 2384 0 
L 1822 0 
L 1822 3584 
Q 1619 3391 1289 3197 
Q 959 3003 697 2906 
L 697 3450 
Q 1169 3672 1522 3987 
Q 1875 4303 2022 4600 
L 2384 4600 
L 2384 0 
z
" transform="scale(0.015625)"/>
       </defs>
       <use xlink:href="#ArialMT-31"/>
       <use xlink:href="#ArialMT-30" x="55.615234"/>
      </g>
     </g>
    </g>
    <g id="xtick_3">
     <g id="line2d_3">
      <path d="M 276.48554 315 
L 276.48554 43.2 
" clip-path="url(#p85ffccefdc)" style="fill: none; stroke: #cccccc; stroke-linecap: round"/>
     </g>
     <g id="text_3">
      <!-- 20 -->
      <g style="fill: #262626" transform="translate(270.368509 332.373594)scale(0.11 -0.11)">
       <defs>
        <path id="ArialMT-32" d="M 3222 541 
L 3222 0 
L 194 0 
Q 188 203 259 391 
Q 375 700 629 1000 
Q 884 1300 1366 1694 
Q 2113 2306 2375 2664 
Q 2638 3022 2638 3341 
Q 2638 3675 2398 3904 
Q 2159 4134 1775 4134 
Q 1369 4134 1125 3890 
Q 881 3647 878 3216 
L 300 3275 
Q 359 3922 746 4261 
Q 1134 4600 1788 4600 
Q 2447 4600 2831 4234 
Q 3216 3869 3216 3328 
Q 3216 3053 3103 2787 
Q 2991 2522 2730 2228 
Q 2469 1934 1863 1422 
Q 1356 997 1212 845 
Q 1069 694 975 541 
L 3222 541 
z
" transform="scale(0.015625)"/>
       </defs>
       <use xlink:href="#ArialMT-32"/>
       <use xlink:href="#ArialMT-30" x="55.615234"/>
      </g>
     </g>
    </g>
    <g id="xtick_4">
     <g id="line2d_4">
      <path d="M 324.72831 315 
L 324.72831 43.2 
" clip-path="url(#p85ffccefdc)" style="fill: none; stroke: #cccccc; stroke-linecap: round"/>
     </g>
     <g id="text_4">
      <!-- 30 -->
      <g style="fill: #262626" transform="translate(318.611279 332.373594)scale(0.11 -0.11)">
       <defs>
        <path id="ArialMT-33" d="M 269 1209 
L 831 1284 
Q 928 806 1161 595 
Q 1394 384 1728 384 
Q 2125 384 2398 659 
Q 2672 934 2672 1341 
Q 2672 1728 2419 1979 
Q 2166 2231 1775 2231 
Q 1616 2231 1378 2169 
L 1441 2663 
Q 1497 2656 1531 2656 
Q 1891 2656 2178 2843 
Q 2466 3031 2466 3422 
Q 2466 3731 2256 3934 
Q 2047 4138 1716 4138 
Q 1388 4138 1169 3931 
Q 950 3725 888 3313 
L 325 3413 
Q 428 3978 793 4289 
Q 1159 4600 1703 4600 
Q 2078 4600 2393 4439 
Q 2709 4278 2876 4000 
Q 3044 3722 3044 3409 
Q 3044 3113 2884 2869 
Q 2725 2625 2413 2481 
Q 2819 2388 3044 2092 
Q 3269 1797 3269 1353 
Q 3269 753 2831 336 
Q 2394 -81 1725 -81 
Q 1122 -81 723 278 
Q 325 638 269 1209 
z
" transform="scale(0.015625)"/>
       </defs>
       <use xlink:href="#ArialMT-33"/>
       <use xlink:href="#ArialMT-30" x="55.615234"/>
      </g>
     </g>
    </g>
    <g id="xtick_5">
     <g id="line2d_5">
      <path d="M 372.97108 315 
L 372.97108 43.2 
" clip-path="url(#p85ffccefdc)" style="fill: none; stroke: #cccccc; stroke-linecap: round"/>
     </g>
     <g id="text_5">
      <!-- 40 -->
      <g style="fill: #262626" transform="translate(366.854049 332.373594)scale(0.11 -0.11)">
       <defs>
        <path id="ArialMT-34" d="M 2069 0 
L 2069 1097 
L 81 1097 
L 81 1613 
L 2172 4581 
L 2631 4581 
L 2631 1613 
L 3250 1613 
L 3250 1097 
L 2631 1097 
L 2631 0 
L 2069 0 
z
M 2069 1613 
L 2069 3678 
L 634 1613 
L 2069 1613 
z
" transform="scale(0.015625)"/>
       </defs>
       <use xlink:href="#ArialMT-34"/>
       <use xlink:href="#ArialMT-30" x="55.615234"/>
      </g>
     </g>
    </g>
    <g id="xtick_6">
     <g id="line2d_6">
      <path d="M 421.21385 315 
L 421.21385 43.2 
" clip-path="url(#p85ffccefdc)" style="fill: none; stroke: #cccccc; stroke-linecap: round"/>
     </g>
     <g id="text_6">
      <!-- 50 -->
      <g style="fill: #262626" transform="translate(415.096819 332.373594)scale(0.11 -0.11)">
       <defs>
        <path id="ArialMT-35" d="M 266 1200 
L 856 1250 
Q 922 819 1161 601 
Q 1400 384 1738 384 
Q 2144 384 2425 690 
Q 2706 997 2706 1503 
Q 2706 1984 2436 2262 
Q 2166 2541 1728 2541 
Q 1456 2541 1237 2417 
Q 1019 2294 894 2097 
L 366 2166 
L 809 4519 
L 3088 4519 
L 3088 3981 
L 1259 3981 
L 1013 2750 
Q 1425 3038 1878 3038 
Q 2478 3038 2890 2622 
Q 3303 2206 3303 1553 
Q 3303 931 2941 478 
Q 2500 -78 1738 -78 
Q 1113 -78 717 272 
Q 322 622 266 1200 
z
" transform="scale(0.015625)"/>
       </defs>
       <use xlink:href="#ArialMT-35"/>
       <use xlink:href="#ArialMT-30" x="55.615234"/>
      </g>
     </g>
    </g>
    <g id="xtick_7">
     <g id="line2d_7">
      <path d="M 469.45662 315 
L 469.45662 43.2 
" clip-path="url(#p85ffccefdc)" style="fill: none; stroke: #cccccc; stroke-linecap: round"/>
     </g>
     <g id="text_7">
      <!-- 60 -->
      <g style="fill: #262626" transform="translate(463.339589 332.373594)scale(0.11 -0.11)">
       <defs>
        <path id="ArialMT-36" d="M 3184 3459 
L 2625 3416 
Q 2550 3747 2413 3897 
Q 2184 4138 1850 4138 
Q 1581 4138 1378 3988 
Q 1113 3794 959 3422 
Q 806 3050 800 2363 
Q 1003 2672 1297 2822 
Q 1591 2972 1913 2972 
Q 2475 2972 2870 2558 
Q 3266 2144 3266 1488 
Q 3266 1056 3080 686 
Q 2894 316 2569 119 
Q 2244 -78 1831 -78 
Q 1128 -78 684 439 
Q 241 956 241 2144 
Q 241 3472 731 4075 
Q 1159 4600 1884 4600 
Q 2425 4600 2770 4297 
Q 3116 3994 3184 3459 
z
M 888 1484 
Q 888 1194 1011 928 
Q 1134 663 1356 523 
Q 1578 384 1822 384 
Q 2178 384 2434 671 
Q 2691 959 2691 1453 
Q 2691 1928 2437 2201 
Q 2184 2475 1800 2475 
Q 1419 2475 1153 2201 
Q 888 1928 888 1484 
z
" transform="scale(0.015625)"/>
       </defs>
       <use xlink:href="#ArialMT-36"/>
       <use xlink:href="#ArialMT-30" x="55.615234"/>
      </g>
     </g>
    </g>
    <g id="xtick_8">
     <g id="line2d_8">
      <path d="M 517.69939 315 
L 517.69939 43.2 
" clip-path="url(#p85ffccefdc)" style="fill: none; stroke: #cccccc; stroke-linecap: round"/>
     </g>
     <g id="text_8">
      <!-- 70 -->
      <g style="fill: #262626" transform="translate(511.582359 332.373594)scale(0.11 -0.11)">
       <defs>
        <path id="ArialMT-37" d="M 303 3981 
L 303 4522 
L 3269 4522 
L 3269 4084 
Q 2831 3619 2401 2847 
Q 1972 2075 1738 1259 
Q 1569 684 1522 0 
L 944 0 
Q 953 541 1156 1306 
Q 1359 2072 1739 2783 
Q 2119 3494 2547 3981 
L 303 3981 
z
" transform="scale(0.015625)"/>
       </defs>
       <use xlink:href="#ArialMT-37"/>
       <use xlink:href="#ArialMT-30" x="55.615234"/>
      </g>
     </g>
    </g>
    <g id="xtick_9">
     <g id="line2d_9">
      <path d="M 565.942161 315 
L 565.942161 43.2 
" clip-path="url(#p85ffccefdc)" style="fill: none; stroke: #cccccc; stroke-linecap: round"/>
     </g>
     <g id="text_9">
      <!-- 80 -->
      <g style="fill: #262626" transform="translate(559.825129 332.373594)scale(0.11 -0.11)">
       <defs>
        <path id="ArialMT-38" d="M 1131 2484 
Q 781 2613 612 2850 
Q 444 3088 444 3419 
Q 444 3919 803 4259 
Q 1163 4600 1759 4600 
Q 2359 4600 2725 4251 
Q 3091 3903 3091 3403 
Q 3091 3084 2923 2848 
Q 2756 2613 2416 2484 
Q 2838 2347 3058 2040 
Q 3278 1734 3278 1309 
Q 3278 722 2862 322 
Q 2447 -78 1769 -78 
Q 1091 -78 675 323 
Q 259 725 259 1325 
Q 259 1772 486 2073 
Q 713 2375 1131 2484 
z
M 1019 3438 
Q 1019 3113 1228 2906 
Q 1438 2700 1772 2700 
Q 2097 2700 2305 2904 
Q 2513 3109 2513 3406 
Q 2513 3716 2298 3927 
Q 2084 4138 1766 4138 
Q 1444 4138 1231 3931 
Q 1019 3725 1019 3438 
z
M 838 1322 
Q 838 1081 952 856 
Q 1066 631 1291 507 
Q 1516 384 1775 384 
Q 2178 384 2440 643 
Q 2703 903 2703 1303 
Q 2703 1709 2433 1975 
Q 2163 2241 1756 2241 
Q 1359 2241 1098 1978 
Q 838 1716 838 1322 
z
" transform="scale(0.015625)"/>
       </defs>
       <use xlink:href="#ArialMT-38"/>
       <use xlink:href="#ArialMT-30" x="55.615234"/>
      </g>
     </g>
    </g>
    <g id="xtick_10">
     <g id="line2d_10">
      <path d="M 614.184931 315 
L 614.184931 43.2 
" clip-path="url(#p85ffccefdc)" style="fill: none; stroke: #cccccc; stroke-linecap: round"/>
     </g>
     <g id="text_10">
      <!-- 90 -->
      <g style="fill: #262626" transform="translate(608.067899 332.373594)scale(0.11 -0.11)">
       <defs>
        <path id="ArialMT-39" d="M 350 1059 
L 891 1109 
Q 959 728 1153 556 
Q 1347 384 1650 384 
Q 1909 384 2104 503 
Q 2300 622 2425 820 
Q 2550 1019 2634 1356 
Q 2719 1694 2719 2044 
Q 2719 2081 2716 2156 
Q 2547 1888 2255 1720 
Q 1963 1553 1622 1553 
Q 1053 1553 659 1965 
Q 266 2378 266 3053 
Q 266 3750 677 4175 
Q 1088 4600 1706 4600 
Q 2153 4600 2523 4359 
Q 2894 4119 3086 3673 
Q 3278 3228 3278 2384 
Q 3278 1506 3087 986 
Q 2897 466 2520 194 
Q 2144 -78 1638 -78 
Q 1100 -78 759 220 
Q 419 519 350 1059 
z
M 2653 3081 
Q 2653 3566 2395 3850 
Q 2138 4134 1775 4134 
Q 1400 4134 1122 3828 
Q 844 3522 844 3034 
Q 844 2597 1108 2323 
Q 1372 2050 1759 2050 
Q 2150 2050 2401 2323 
Q 2653 2597 2653 3081 
z
" transform="scale(0.015625)"/>
       </defs>
       <use xlink:href="#ArialMT-39"/>
       <use xlink:href="#ArialMT-30" x="55.615234"/>
      </g>
     </g>
    </g>
    <g id="xtick_11">
     <g id="line2d_11">
      <path d="M 662.427701 315 
L 662.427701 43.2 
" clip-path="url(#p85ffccefdc)" style="fill: none; stroke: #cccccc; stroke-linecap: round"/>
     </g>
     <g id="text_11">
      <!-- 100 -->
      <g style="fill: #262626" transform="translate(653.252154 332.373594)scale(0.11 -0.11)">
       <use xlink:href="#ArialMT-31"/>
       <use xlink:href="#ArialMT-30" x="55.615234"/>
       <use xlink:href="#ArialMT-30" x="111.230469"/>
      </g>
     </g>
    </g>
    <g id="text_12">
     <!-- age -->
     <g style="fill: #262626" transform="translate(423.626676 347.008594)scale(0.12 -0.12)">
      <defs>
       <path id="ArialMT-61" d="M 2588 409 
Q 2275 144 1986 34 
Q 1697 -75 1366 -75 
Q 819 -75 525 192 
Q 231 459 231 875 
Q 231 1119 342 1320 
Q 453 1522 633 1644 
Q 813 1766 1038 1828 
Q 1203 1872 1538 1913 
Q 2219 1994 2541 2106 
Q 2544 2222 2544 2253 
Q 2544 2597 2384 2738 
Q 2169 2928 1744 2928 
Q 1347 2928 1158 2789 
Q 969 2650 878 2297 
L 328 2372 
Q 403 2725 575 2942 
Q 747 3159 1072 3276 
Q 1397 3394 1825 3394 
Q 2250 3394 2515 3294 
Q 2781 3194 2906 3042 
Q 3031 2891 3081 2659 
Q 3109 2516 3109 2141 
L 3109 1391 
Q 3109 606 3145 398 
Q 3181 191 3288 0 
L 2700 0 
Q 2613 175 2588 409 
z
M 2541 1666 
Q 2234 1541 1622 1453 
Q 1275 1403 1131 1340 
Q 988 1278 909 1158 
Q 831 1038 831 891 
Q 831 666 1001 516 
Q 1172 366 1500 366 
Q 1825 366 2078 508 
Q 2331 650 2450 897 
Q 2541 1088 2541 1459 
L 2541 1666 
z
" transform="scale(0.015625)"/>
       <path id="ArialMT-67" d="M 319 -275 
L 866 -356 
Q 900 -609 1056 -725 
Q 1266 -881 1628 -881 
Q 2019 -881 2231 -725 
Q 2444 -569 2519 -288 
Q 2563 -116 2559 434 
Q 2191 0 1641 0 
Q 956 0 581 494 
Q 206 988 206 1678 
Q 206 2153 378 2554 
Q 550 2956 876 3175 
Q 1203 3394 1644 3394 
Q 2231 3394 2613 2919 
L 2613 3319 
L 3131 3319 
L 3131 450 
Q 3131 -325 2973 -648 
Q 2816 -972 2473 -1159 
Q 2131 -1347 1631 -1347 
Q 1038 -1347 672 -1080 
Q 306 -813 319 -275 
z
M 784 1719 
Q 784 1066 1043 766 
Q 1303 466 1694 466 
Q 2081 466 2343 764 
Q 2606 1063 2606 1700 
Q 2606 2309 2336 2618 
Q 2066 2928 1684 2928 
Q 1309 2928 1046 2623 
Q 784 2319 784 1719 
z
" transform="scale(0.015625)"/>
       <path id="ArialMT-65" d="M 2694 1069 
L 3275 997 
Q 3138 488 2766 206 
Q 2394 -75 1816 -75 
Q 1088 -75 661 373 
Q 234 822 234 1631 
Q 234 2469 665 2931 
Q 1097 3394 1784 3394 
Q 2450 3394 2872 2941 
Q 3294 2488 3294 1666 
Q 3294 1616 3291 1516 
L 816 1516 
Q 847 969 1125 678 
Q 1403 388 1819 388 
Q 2128 388 2347 550 
Q 2566 713 2694 1069 
z
M 847 1978 
L 2700 1978 
Q 2663 2397 2488 2606 
Q 2219 2931 1791 2931 
Q 1403 2931 1139 2672 
Q 875 2413 847 1978 
z
" transform="scale(0.015625)"/>
      </defs>
      <use xlink:href="#ArialMT-61"/>
      <use xlink:href="#ArialMT-67" x="55.615234"/>
      <use xlink:href="#ArialMT-65" x="111.230469"/>
     </g>
    </g>
   </g>
   <g id="matplotlib.axis_2">
    <g id="ytick_1">
     <g id="line2d_12">
      <path d="M 180 315 
L 687.272727 315 
" clip-path="url(#p85ffccefdc)" style="fill: none; stroke: #cccccc; stroke-linecap: round"/>
     </g>
     <g id="text_13">
      <!-- 0 -->
      <g style="fill: #262626" transform="translate(164.382969 318.936797)scale(0.11 -0.11)">
       <use xlink:href="#ArialMT-30"/>
      </g>
     </g>
    </g>
    <g id="ytick_2">
     <g id="line2d_13">
      <path d="M 180 256.698842 
L 687.272727 256.698842 
" clip-path="url(#p85ffccefdc)" style="fill: none; stroke: #cccccc; stroke-linecap: round"/>
     </g>
     <g id="text_14">
      <!-- 200 -->
      <g style="fill: #262626" transform="translate(152.148906 260.635639)scale(0.11 -0.11)">
       <use xlink:href="#ArialMT-32"/>
       <use xlink:href="#ArialMT-30" x="55.615234"/>
       <use xlink:href="#ArialMT-30" x="111.230469"/>
      </g>
     </g>
    </g>
    <g id="ytick_3">
     <g id="line2d_14">
      <path d="M 180 198.397683 
L 687.272727 198.397683 
" clip-path="url(#p85ffccefdc)" style="fill: none; stroke: #cccccc; stroke-linecap: round"/>
     </g>
     <g id="text_15">
      <!-- 400 -->
      <g style="fill: #262626" transform="translate(152.148906 202.33448)scale(0.11 -0.11)">
       <use xlink:href="#ArialMT-34"/>
       <use xlink:href="#ArialMT-30" x="55.615234"/>
       <use xlink:href="#ArialMT-30" x="111.230469"/>
      </g>
     </g>
    </g>
    <g id="ytick_4">
     <g id="line2d_15">
      <path d="M 180 140.096525 
L 687.272727 140.096525 
" clip-path="url(#p85ffccefdc)" style="fill: none; stroke: #cccccc; stroke-linecap: round"/>
     </g>
     <g id="text_16">
      <!-- 600 -->
      <g style="fill: #262626" transform="translate(152.148906 144.033322)scale(0.11 -0.11)">
       <use xlink:href="#ArialMT-36"/>
       <use xlink:href="#ArialMT-30" x="55.615234"/>
       <use xlink:href="#ArialMT-30" x="111.230469"/>
      </g>
     </g>
    </g>
    <g id="ytick_5">
     <g id="line2d_16">
      <path d="M 180 81.795367 
L 687.272727 81.795367 
" clip-path="url(#p85ffccefdc)" style="fill: none; stroke: #cccccc; stroke-linecap: round"/>
     </g>
     <g id="text_17">
      <!-- 800 -->
      <g style="fill: #262626" transform="translate(152.148906 85.732164)scale(0.11 -0.11)">
       <use xlink:href="#ArialMT-38"/>
       <use xlink:href="#ArialMT-30" x="55.615234"/>
       <use xlink:href="#ArialMT-30" x="111.230469"/>
      </g>
     </g>
    </g>
    <g id="text_18">
     <!-- count of user -->
     <g style="fill: #262626" transform="translate(145.763906 213.784687)rotate(-90)scale(0.12 -0.12)">
      <defs>
       <path id="ArialMT-63" d="M 2588 1216 
L 3141 1144 
Q 3050 572 2676 248 
Q 2303 -75 1759 -75 
Q 1078 -75 664 370 
Q 250 816 250 1647 
Q 250 2184 428 2587 
Q 606 2991 970 3192 
Q 1334 3394 1763 3394 
Q 2303 3394 2647 3120 
Q 2991 2847 3088 2344 
L 2541 2259 
Q 2463 2594 2264 2762 
Q 2066 2931 1784 2931 
Q 1359 2931 1093 2626 
Q 828 2322 828 1663 
Q 828 994 1084 691 
Q 1341 388 1753 388 
Q 2084 388 2306 591 
Q 2528 794 2588 1216 
z
" transform="scale(0.015625)"/>
       <path id="ArialMT-6f" d="M 213 1659 
Q 213 2581 725 3025 
Q 1153 3394 1769 3394 
Q 2453 3394 2887 2945 
Q 3322 2497 3322 1706 
Q 3322 1066 3130 698 
Q 2938 331 2570 128 
Q 2203 -75 1769 -75 
Q 1072 -75 642 372 
Q 213 819 213 1659 
z
M 791 1659 
Q 791 1022 1069 705 
Q 1347 388 1769 388 
Q 2188 388 2466 706 
Q 2744 1025 2744 1678 
Q 2744 2294 2464 2611 
Q 2184 2928 1769 2928 
Q 1347 2928 1069 2612 
Q 791 2297 791 1659 
z
" transform="scale(0.015625)"/>
       <path id="ArialMT-75" d="M 2597 0 
L 2597 488 
Q 2209 -75 1544 -75 
Q 1250 -75 995 37 
Q 741 150 617 320 
Q 494 491 444 738 
Q 409 903 409 1263 
L 409 3319 
L 972 3319 
L 972 1478 
Q 972 1038 1006 884 
Q 1059 663 1231 536 
Q 1403 409 1656 409 
Q 1909 409 2131 539 
Q 2353 669 2445 892 
Q 2538 1116 2538 1541 
L 2538 3319 
L 3100 3319 
L 3100 0 
L 2597 0 
z
" transform="scale(0.015625)"/>
       <path id="ArialMT-6e" d="M 422 0 
L 422 3319 
L 928 3319 
L 928 2847 
Q 1294 3394 1984 3394 
Q 2284 3394 2536 3286 
Q 2788 3178 2913 3003 
Q 3038 2828 3088 2588 
Q 3119 2431 3119 2041 
L 3119 0 
L 2556 0 
L 2556 2019 
Q 2556 2363 2490 2533 
Q 2425 2703 2258 2804 
Q 2091 2906 1866 2906 
Q 1506 2906 1245 2678 
Q 984 2450 984 1813 
L 984 0 
L 422 0 
z
" transform="scale(0.015625)"/>
       <path id="ArialMT-74" d="M 1650 503 
L 1731 6 
Q 1494 -44 1306 -44 
Q 1000 -44 831 53 
Q 663 150 594 308 
Q 525 466 525 972 
L 525 2881 
L 113 2881 
L 113 3319 
L 525 3319 
L 525 4141 
L 1084 4478 
L 1084 3319 
L 1650 3319 
L 1650 2881 
L 1084 2881 
L 1084 941 
Q 1084 700 1114 631 
Q 1144 563 1211 522 
Q 1278 481 1403 481 
Q 1497 481 1650 503 
z
" transform="scale(0.015625)"/>
       <path id="ArialMT-20" transform="scale(0.015625)"/>
       <path id="ArialMT-66" d="M 556 0 
L 556 2881 
L 59 2881 
L 59 3319 
L 556 3319 
L 556 3672 
Q 556 4006 616 4169 
Q 697 4388 901 4523 
Q 1106 4659 1475 4659 
Q 1713 4659 2000 4603 
L 1916 4113 
Q 1741 4144 1584 4144 
Q 1328 4144 1222 4034 
Q 1116 3925 1116 3625 
L 1116 3319 
L 1763 3319 
L 1763 2881 
L 1116 2881 
L 1116 0 
L 556 0 
z
" transform="scale(0.015625)"/>
       <path id="ArialMT-73" d="M 197 991 
L 753 1078 
Q 800 744 1014 566 
Q 1228 388 1613 388 
Q 2000 388 2187 545 
Q 2375 703 2375 916 
Q 2375 1106 2209 1216 
Q 2094 1291 1634 1406 
Q 1016 1563 777 1677 
Q 538 1791 414 1992 
Q 291 2194 291 2438 
Q 291 2659 392 2848 
Q 494 3038 669 3163 
Q 800 3259 1026 3326 
Q 1253 3394 1513 3394 
Q 1903 3394 2198 3281 
Q 2494 3169 2634 2976 
Q 2775 2784 2828 2463 
L 2278 2388 
Q 2241 2644 2061 2787 
Q 1881 2931 1553 2931 
Q 1166 2931 1000 2803 
Q 834 2675 834 2503 
Q 834 2394 903 2306 
Q 972 2216 1119 2156 
Q 1203 2125 1616 2013 
Q 2213 1853 2448 1751 
Q 2684 1650 2818 1456 
Q 2953 1263 2953 975 
Q 2953 694 2789 445 
Q 2625 197 2315 61 
Q 2006 -75 1616 -75 
Q 969 -75 630 194 
Q 291 463 197 991 
z
" transform="scale(0.015625)"/>
       <path id="ArialMT-72" d="M 416 0 
L 416 3319 
L 922 3319 
L 922 2816 
Q 1116 3169 1280 3281 
Q 1444 3394 1641 3394 
Q 1925 3394 2219 3213 
L 2025 2691 
Q 1819 2813 1613 2813 
Q 1428 2813 1281 2702 
Q 1134 2591 1072 2394 
Q 978 2094 978 1738 
L 978 0 
L 416 0 
z
" transform="scale(0.015625)"/>
      </defs>
      <use xlink:href="#ArialMT-63"/>
      <use xlink:href="#ArialMT-6f" x="50"/>
      <use xlink:href="#ArialMT-75" x="105.615234"/>
      <use xlink:href="#ArialMT-6e" x="161.230469"/>
      <use xlink:href="#ArialMT-74" x="216.845703"/>
      <use xlink:href="#ArialMT-20" x="244.628906"/>
      <use xlink:href="#ArialMT-6f" x="272.412109"/>
      <use xlink:href="#ArialMT-66" x="328.027344"/>
      <use xlink:href="#ArialMT-20" x="355.810547"/>
      <use xlink:href="#ArialMT-75" x="383.59375"/>
      <use xlink:href="#ArialMT-73" x="439.208984"/>
      <use xlink:href="#ArialMT-65" x="489.208984"/>
      <use xlink:href="#ArialMT-72" x="544.824219"/>
     </g>
    </g>
   </g>
   <g id="patch_3">
    <path d="M 266.836986 315 
L 286.857736 315 
L 286.857736 266.318533 
L 266.836986 266.318533 
z
" clip-path="url(#p85ffccefdc)" style="fill: #4c72b0; fill-opacity: 0.5"/>
   </g>
   <g id="patch_4">
    <path d="M 286.857736 315 
L 306.878485 315 
L 306.878485 270.399614 
L 286.857736 270.399614 
z
" clip-path="url(#p85ffccefdc)" style="fill: #4c72b0; fill-opacity: 0.5"/>
   </g>
   <g id="patch_5">
    <path d="M 306.878485 315 
L 326.899235 315 
L 326.899235 268.942085 
L 306.878485 268.942085 
z
" clip-path="url(#p85ffccefdc)" style="fill: #4c72b0; fill-opacity: 0.5"/>
   </g>
   <g id="patch_6">
    <path d="M 326.899235 315 
L 346.919984 315 
L 346.919984 266.318533 
L 326.899235 266.318533 
z
" clip-path="url(#p85ffccefdc)" style="fill: #4c72b0; fill-opacity: 0.5"/>
   </g>
   <g id="patch_7">
    <path d="M 346.919984 315 
L 366.940734 315 
L 366.940734 250.57722 
L 346.919984 250.57722 
z
" clip-path="url(#p85ffccefdc)" style="fill: #4c72b0; fill-opacity: 0.5"/>
   </g>
   <g id="patch_8">
    <path d="M 366.940734 315 
L 386.961484 315 
L 386.961484 238.333977 
L 366.940734 238.333977 
z
" clip-path="url(#p85ffccefdc)" style="fill: #4c72b0; fill-opacity: 0.5"/>
   </g>
   <g id="patch_9">
    <path d="M 386.961484 315 
L 406.982233 315 
L 406.982233 205.393822 
L 386.961484 205.393822 
z
" clip-path="url(#p85ffccefdc)" style="fill: #4c72b0; fill-opacity: 0.5"/>
   </g>
   <g id="patch_10">
    <path d="M 406.982233 315 
L 427.002983 315 
L 427.002983 156.420849 
L 406.982233 156.420849 
z
" clip-path="url(#p85ffccefdc)" style="fill: #4c72b0; fill-opacity: 0.5"/>
   </g>
   <g id="patch_11">
    <path d="M 427.002983 315 
L 447.023732 315 
L 447.023732 136.015444 
L 427.002983 136.015444 
z
" clip-path="url(#p85ffccefdc)" style="fill: #4c72b0; fill-opacity: 0.5"/>
   </g>
   <g id="patch_12">
    <path d="M 447.023732 315 
L 467.044482 315 
L 467.044482 121.148649 
L 447.023732 121.148649 
z
" clip-path="url(#p85ffccefdc)" style="fill: #4c72b0; fill-opacity: 0.5"/>
   </g>
   <g id="patch_13">
    <path d="M 467.044482 315 
L 487.065231 315 
L 487.065231 143.594595 
L 467.044482 143.594595 
z
" clip-path="url(#p85ffccefdc)" style="fill: #4c72b0; fill-opacity: 0.5"/>
   </g>
   <g id="patch_14">
    <path d="M 487.065231 315 
L 507.085981 315 
L 507.085981 161.959459 
L 487.065231 161.959459 
z
" clip-path="url(#p85ffccefdc)" style="fill: #4c72b0; fill-opacity: 0.5"/>
   </g>
   <g id="patch_15">
    <path d="M 507.085981 315 
L 527.106731 315 
L 527.106731 182.656371 
L 507.085981 182.656371 
z
" clip-path="url(#p85ffccefdc)" style="fill: #4c72b0; fill-opacity: 0.5"/>
   </g>
   <g id="patch_16">
    <path d="M 527.106731 315 
L 547.12748 315 
L 547.12748 190.235521 
L 527.106731 190.235521 
z
" clip-path="url(#p85ffccefdc)" style="fill: #4c72b0; fill-opacity: 0.5"/>
   </g>
   <g id="patch_17">
    <path d="M 547.12748 315 
L 567.14823 315 
L 567.14823 242.998069 
L 547.12748 242.998069 
z
" clip-path="url(#p85ffccefdc)" style="fill: #4c72b0; fill-opacity: 0.5"/>
   </g>
   <g id="patch_18">
    <path d="M 567.14823 315 
L 587.168979 315 
L 587.168979 252.909266 
L 567.14823 252.909266 
z
" clip-path="url(#p85ffccefdc)" style="fill: #4c72b0; fill-opacity: 0.5"/>
   </g>
   <g id="patch_19">
    <path d="M 587.168979 315 
L 607.189729 315 
L 607.189729 272.148649 
L 587.168979 272.148649 
z
" clip-path="url(#p85ffccefdc)" style="fill: #4c72b0; fill-opacity: 0.5"/>
   </g>
   <g id="patch_20">
    <path d="M 607.189729 315 
L 627.210479 315 
L 627.210479 281.476834 
L 607.189729 281.476834 
z
" clip-path="url(#p85ffccefdc)" style="fill: #4c72b0; fill-opacity: 0.5"/>
   </g>
   <g id="patch_21">
    <path d="M 627.210479 315 
L 647.231228 315 
L 647.231228 298.092664 
L 627.210479 298.092664 
z
" clip-path="url(#p85ffccefdc)" style="fill: #4c72b0; fill-opacity: 0.5"/>
   </g>
   <g id="patch_22">
    <path d="M 647.231228 315 
L 667.251978 315 
L 667.251978 307.420849 
L 647.231228 307.420849 
z
" clip-path="url(#p85ffccefdc)" style="fill: #4c72b0; fill-opacity: 0.5"/>
   </g>
   <g id="line2d_17">
    <path d="M 266.836986 293.716374 
L 272.873393 286.038181 
L 276.897664 281.340387 
L 278.9098 279.235123 
L 280.921936 277.326348 
L 282.934071 275.627715 
L 284.946207 274.143399 
L 286.958342 272.868964 
L 288.970478 271.792804 
L 290.982614 270.897933 
L 292.994749 270.163938 
L 295.006885 269.568846 
L 299.031156 268.708919 
L 303.055428 268.161784 
L 309.091834 267.664146 
L 317.140377 267.088396 
L 321.164648 266.601587 
L 325.18892 265.828642 
L 329.213191 264.67173 
L 333.237462 263.073003 
L 337.261733 261.026463 
L 341.286005 258.576807 
L 345.310276 255.809513 
L 351.346683 251.316235 
L 359.395225 245.354174 
L 363.419497 242.617713 
L 367.443768 240.09028 
L 377.504446 234.078717 
L 381.528717 231.283589 
L 383.540853 229.672416 
L 385.552989 227.871692 
L 387.565124 225.847124 
L 389.57726 223.566827 
L 391.589396 221.002814 
L 393.601531 218.132634 
L 395.613667 214.941108 
L 397.625802 211.422039 
L 399.637938 207.579723 
L 401.650074 203.430092 
L 405.674345 194.333393 
L 409.698616 184.494386 
L 415.735023 169.463599 
L 419.759294 160.059901 
L 421.77143 155.720406 
L 423.783566 151.678451 
L 425.795701 147.960279 
L 427.807837 144.579054 
L 429.819973 141.535552 
L 431.832108 138.819767 
L 433.844244 136.413261 
L 435.85638 134.292079 
L 437.868515 132.429943 
L 439.880651 130.801423 
L 441.892786 129.384737 
L 443.904922 128.163876 
L 445.917058 127.129793 
L 447.929193 126.280509 
L 449.941329 125.620152 
L 451.953465 125.157057 
L 453.9656 124.90125 
L 455.977736 124.861705 
L 457.989872 125.043826 
L 460.002007 125.447555 
L 462.014143 126.066417 
L 464.026278 126.887626 
L 466.038414 127.893211 
L 468.05055 129.061923 
L 472.074821 131.801303 
L 476.099092 134.955371 
L 480.123364 138.438735 
L 484.147635 142.229929 
L 488.171906 146.333374 
L 492.196177 150.738484 
L 496.220449 155.405303 
L 502.256856 162.782311 
L 508.293262 170.517899 
L 514.329669 178.598537 
L 520.366076 187.004293 
L 530.426754 201.469914 
L 538.475297 213.033854 
L 542.499568 218.589597 
L 546.52384 223.830222 
L 550.548111 228.641464 
L 554.572382 232.966297 
L 558.596653 236.833417 
L 562.620925 240.354566 
L 580.730145 255.580819 
L 586.766552 260.728609 
L 590.790824 263.941437 
L 594.815095 266.89901 
L 598.839366 269.611725 
L 614.936451 279.932023 
L 620.972858 284.337462 
L 629.021401 290.65902 
L 635.057808 295.396543 
L 639.082079 298.368287 
L 643.10635 301.079701 
L 647.130621 303.461809 
L 651.154893 305.486115 
L 655.179164 307.170531 
L 659.203435 308.570641 
L 663.227706 309.758309 
L 667.251978 310.796637 
L 667.251978 310.796637 
" clip-path="url(#p85ffccefdc)" style="fill: none; stroke: #4c72b0; stroke-width: 1.5; stroke-linecap: round"/>
   </g>
   <g id="patch_23">
    <path d="M 180 315 
L 180 43.2 
" style="fill: none; stroke: #cccccc; stroke-width: 1.25; stroke-linejoin: miter; stroke-linecap: square"/>
   </g>
   <g id="patch_24">
    <path d="M 687.272727 315 
L 687.272727 43.2 
" style="fill: none; stroke: #cccccc; stroke-width: 1.25; stroke-linejoin: miter; stroke-linecap: square"/>
   </g>
   <g id="patch_25">
    <path d="M 180 315 
L 687.272727 315 
" style="fill: none; stroke: #cccccc; stroke-width: 1.25; stroke-linejoin: miter; stroke-linecap: square"/>
   </g>
   <g id="patch_26">
    <path d="M 180 43.2 
L 687.272727 43.2 
" style="fill: none; stroke: #cccccc; stroke-width: 1.25; stroke-linejoin: miter; stroke-linecap: square"/>
   </g>
   <g id="text_19">
    <!-- Number of female / age in Profile dataset -->
    <g style="fill: #262626" transform="translate(324.586364 37.2)scale(0.12 -0.12)">
     <defs>
      <path id="ArialMT-4e" d="M 488 0 
L 488 4581 
L 1109 4581 
L 3516 984 
L 3516 4581 
L 4097 4581 
L 4097 0 
L 3475 0 
L 1069 3600 
L 1069 0 
L 488 0 
z
" transform="scale(0.015625)"/>
      <path id="ArialMT-6d" d="M 422 0 
L 422 3319 
L 925 3319 
L 925 2853 
Q 1081 3097 1340 3245 
Q 1600 3394 1931 3394 
Q 2300 3394 2536 3241 
Q 2772 3088 2869 2813 
Q 3263 3394 3894 3394 
Q 4388 3394 4653 3120 
Q 4919 2847 4919 2278 
L 4919 0 
L 4359 0 
L 4359 2091 
Q 4359 2428 4304 2576 
Q 4250 2725 4106 2815 
Q 3963 2906 3769 2906 
Q 3419 2906 3187 2673 
Q 2956 2441 2956 1928 
L 2956 0 
L 2394 0 
L 2394 2156 
Q 2394 2531 2256 2718 
Q 2119 2906 1806 2906 
Q 1569 2906 1367 2781 
Q 1166 2656 1075 2415 
Q 984 2175 984 1722 
L 984 0 
L 422 0 
z
" transform="scale(0.015625)"/>
      <path id="ArialMT-62" d="M 941 0 
L 419 0 
L 419 4581 
L 981 4581 
L 981 2947 
Q 1338 3394 1891 3394 
Q 2197 3394 2470 3270 
Q 2744 3147 2920 2923 
Q 3097 2700 3197 2384 
Q 3297 2069 3297 1709 
Q 3297 856 2875 390 
Q 2453 -75 1863 -75 
Q 1275 -75 941 416 
L 941 0 
z
M 934 1684 
Q 934 1088 1097 822 
Q 1363 388 1816 388 
Q 2184 388 2453 708 
Q 2722 1028 2722 1663 
Q 2722 2313 2464 2622 
Q 2206 2931 1841 2931 
Q 1472 2931 1203 2611 
Q 934 2291 934 1684 
z
" transform="scale(0.015625)"/>
      <path id="ArialMT-6c" d="M 409 0 
L 409 4581 
L 972 4581 
L 972 0 
L 409 0 
z
" transform="scale(0.015625)"/>
      <path id="ArialMT-2f" d="M 0 -78 
L 1328 4659 
L 1778 4659 
L 453 -78 
L 0 -78 
z
" transform="scale(0.015625)"/>
      <path id="ArialMT-69" d="M 425 3934 
L 425 4581 
L 988 4581 
L 988 3934 
L 425 3934 
z
M 425 0 
L 425 3319 
L 988 3319 
L 988 0 
L 425 0 
z
" transform="scale(0.015625)"/>
      <path id="ArialMT-50" d="M 494 0 
L 494 4581 
L 2222 4581 
Q 2678 4581 2919 4538 
Q 3256 4481 3484 4323 
Q 3713 4166 3852 3881 
Q 3991 3597 3991 3256 
Q 3991 2672 3619 2267 
Q 3247 1863 2275 1863 
L 1100 1863 
L 1100 0 
L 494 0 
z
M 1100 2403 
L 2284 2403 
Q 2872 2403 3119 2622 
Q 3366 2841 3366 3238 
Q 3366 3525 3220 3729 
Q 3075 3934 2838 4000 
Q 2684 4041 2272 4041 
L 1100 4041 
L 1100 2403 
z
" transform="scale(0.015625)"/>
      <path id="ArialMT-64" d="M 2575 0 
L 2575 419 
Q 2259 -75 1647 -75 
Q 1250 -75 917 144 
Q 584 363 401 755 
Q 219 1147 219 1656 
Q 219 2153 384 2558 
Q 550 2963 881 3178 
Q 1213 3394 1622 3394 
Q 1922 3394 2156 3267 
Q 2391 3141 2538 2938 
L 2538 4581 
L 3097 4581 
L 3097 0 
L 2575 0 
z
M 797 1656 
Q 797 1019 1065 703 
Q 1334 388 1700 388 
Q 2069 388 2326 689 
Q 2584 991 2584 1609 
Q 2584 2291 2321 2609 
Q 2059 2928 1675 2928 
Q 1300 2928 1048 2622 
Q 797 2316 797 1656 
z
" transform="scale(0.015625)"/>
     </defs>
     <use xlink:href="#ArialMT-4e"/>
     <use xlink:href="#ArialMT-75" x="72.216797"/>
     <use xlink:href="#ArialMT-6d" x="127.832031"/>
     <use xlink:href="#ArialMT-62" x="211.132812"/>
     <use xlink:href="#ArialMT-65" x="266.748047"/>
     <use xlink:href="#ArialMT-72" x="322.363281"/>
     <use xlink:href="#ArialMT-20" x="355.664062"/>
     <use xlink:href="#ArialMT-6f" x="383.447266"/>
     <use xlink:href="#ArialMT-66" x="439.0625"/>
     <use xlink:href="#ArialMT-20" x="466.845703"/>
     <use xlink:href="#ArialMT-66" x="494.628906"/>
     <use xlink:href="#ArialMT-65" x="522.412109"/>
     <use xlink:href="#ArialMT-6d" x="578.027344"/>
     <use xlink:href="#ArialMT-61" x="661.328125"/>
     <use xlink:href="#ArialMT-6c" x="716.943359"/>
     <use xlink:href="#ArialMT-65" x="739.160156"/>
     <use xlink:href="#ArialMT-20" x="794.775391"/>
     <use xlink:href="#ArialMT-2f" x="822.558594"/>
     <use xlink:href="#ArialMT-20" x="850.341797"/>
     <use xlink:href="#ArialMT-61" x="878.125"/>
     <use xlink:href="#ArialMT-67" x="933.740234"/>
     <use xlink:href="#ArialMT-65" x="989.355469"/>
     <use xlink:href="#ArialMT-20" x="1044.970703"/>
     <use xlink:href="#ArialMT-69" x="1072.753906"/>
     <use xlink:href="#ArialMT-6e" x="1094.970703"/>
     <use xlink:href="#ArialMT-20" x="1150.585938"/>
     <use xlink:href="#ArialMT-50" x="1178.369141"/>
     <use xlink:href="#ArialMT-72" x="1245.068359"/>
     <use xlink:href="#ArialMT-6f" x="1278.369141"/>
     <use xlink:href="#ArialMT-66" x="1333.984375"/>
     <use xlink:href="#ArialMT-69" x="1361.767578"/>
     <use xlink:href="#ArialMT-6c" x="1383.984375"/>
     <use xlink:href="#ArialMT-65" x="1406.201172"/>
     <use xlink:href="#ArialMT-20" x="1461.816406"/>
     <use xlink:href="#ArialMT-64" x="1489.599609"/>
     <use xlink:href="#ArialMT-61" x="1545.214844"/>
     <use xlink:href="#ArialMT-74" x="1600.830078"/>
     <use xlink:href="#ArialMT-61" x="1628.613281"/>
     <use xlink:href="#ArialMT-73" x="1684.228516"/>
     <use xlink:href="#ArialMT-65" x="1734.228516"/>
     <use xlink:href="#ArialMT-74" x="1789.84375"/>
    </g>
   </g>
  </g>
  <g id="axes_2">
   <g id="patch_27">
    <path d="M 788.727273 315 
L 1296 315 
L 1296 43.2 
L 788.727273 43.2 
z
" style="fill: #ffffff"/>
   </g>
   <g id="matplotlib.axis_3">
    <g id="xtick_12">
     <g id="line2d_18">
      <path d="M 788.727273 315 
L 788.727273 43.2 
" clip-path="url(#p890c68fd85)" style="fill: none; stroke: #cccccc; stroke-linecap: round"/>
     </g>
     <g id="text_20">
      <!-- 0 -->
      <g style="fill: #262626" transform="translate(785.668757 332.373594)scale(0.11 -0.11)">
       <use xlink:href="#ArialMT-30"/>
      </g>
     </g>
    </g>
    <g id="xtick_13">
     <g id="line2d_19">
      <path d="M 837.456641 315 
L 837.456641 43.2 
" clip-path="url(#p890c68fd85)" style="fill: none; stroke: #cccccc; stroke-linecap: round"/>
     </g>
     <g id="text_21">
      <!-- 10 -->
      <g style="fill: #262626" transform="translate(831.33961 332.373594)scale(0.11 -0.11)">
       <use xlink:href="#ArialMT-31"/>
       <use xlink:href="#ArialMT-30" x="55.615234"/>
      </g>
     </g>
    </g>
    <g id="xtick_14">
     <g id="line2d_20">
      <path d="M 886.18601 315 
L 886.18601 43.2 
" clip-path="url(#p890c68fd85)" style="fill: none; stroke: #cccccc; stroke-linecap: round"/>
     </g>
     <g id="text_22">
      <!-- 20 -->
      <g style="fill: #262626" transform="translate(880.068979 332.373594)scale(0.11 -0.11)">
       <use xlink:href="#ArialMT-32"/>
       <use xlink:href="#ArialMT-30" x="55.615234"/>
      </g>
     </g>
    </g>
    <g id="xtick_15">
     <g id="line2d_21">
      <path d="M 934.915379 315 
L 934.915379 43.2 
" clip-path="url(#p890c68fd85)" style="fill: none; stroke: #cccccc; stroke-linecap: round"/>
     </g>
     <g id="text_23">
      <!-- 30 -->
      <g style="fill: #262626" transform="translate(928.798347 332.373594)scale(0.11 -0.11)">
       <use xlink:href="#ArialMT-33"/>
       <use xlink:href="#ArialMT-30" x="55.615234"/>
      </g>
     </g>
    </g>
    <g id="xtick_16">
     <g id="line2d_22">
      <path d="M 983.644747 315 
L 983.644747 43.2 
" clip-path="url(#p890c68fd85)" style="fill: none; stroke: #cccccc; stroke-linecap: round"/>
     </g>
     <g id="text_24">
      <!-- 40 -->
      <g style="fill: #262626" transform="translate(977.527716 332.373594)scale(0.11 -0.11)">
       <use xlink:href="#ArialMT-34"/>
       <use xlink:href="#ArialMT-30" x="55.615234"/>
      </g>
     </g>
    </g>
    <g id="xtick_17">
     <g id="line2d_23">
      <path d="M 1032.374116 315 
L 1032.374116 43.2 
" clip-path="url(#p890c68fd85)" style="fill: none; stroke: #cccccc; stroke-linecap: round"/>
     </g>
     <g id="text_25">
      <!-- 50 -->
      <g style="fill: #262626" transform="translate(1026.257085 332.373594)scale(0.11 -0.11)">
       <use xlink:href="#ArialMT-35"/>
       <use xlink:href="#ArialMT-30" x="55.615234"/>
      </g>
     </g>
    </g>
    <g id="xtick_18">
     <g id="line2d_24">
      <path d="M 1081.103484 315 
L 1081.103484 43.2 
" clip-path="url(#p890c68fd85)" style="fill: none; stroke: #cccccc; stroke-linecap: round"/>
     </g>
     <g id="text_26">
      <!-- 60 -->
      <g style="fill: #262626" transform="translate(1074.986453 332.373594)scale(0.11 -0.11)">
       <use xlink:href="#ArialMT-36"/>
       <use xlink:href="#ArialMT-30" x="55.615234"/>
      </g>
     </g>
    </g>
    <g id="xtick_19">
     <g id="line2d_25">
      <path d="M 1129.832853 315 
L 1129.832853 43.2 
" clip-path="url(#p890c68fd85)" style="fill: none; stroke: #cccccc; stroke-linecap: round"/>
     </g>
     <g id="text_27">
      <!-- 70 -->
      <g style="fill: #262626" transform="translate(1123.715822 332.373594)scale(0.11 -0.11)">
       <use xlink:href="#ArialMT-37"/>
       <use xlink:href="#ArialMT-30" x="55.615234"/>
      </g>
     </g>
    </g>
    <g id="xtick_20">
     <g id="line2d_26">
      <path d="M 1178.562222 315 
L 1178.562222 43.2 
" clip-path="url(#p890c68fd85)" style="fill: none; stroke: #cccccc; stroke-linecap: round"/>
     </g>
     <g id="text_28">
      <!-- 80 -->
      <g style="fill: #262626" transform="translate(1172.44519 332.373594)scale(0.11 -0.11)">
       <use xlink:href="#ArialMT-38"/>
       <use xlink:href="#ArialMT-30" x="55.615234"/>
      </g>
     </g>
    </g>
    <g id="xtick_21">
     <g id="line2d_27">
      <path d="M 1227.29159 315 
L 1227.29159 43.2 
" clip-path="url(#p890c68fd85)" style="fill: none; stroke: #cccccc; stroke-linecap: round"/>
     </g>
     <g id="text_29">
      <!-- 90 -->
      <g style="fill: #262626" transform="translate(1221.174559 332.373594)scale(0.11 -0.11)">
       <use xlink:href="#ArialMT-39"/>
       <use xlink:href="#ArialMT-30" x="55.615234"/>
      </g>
     </g>
    </g>
    <g id="text_30">
     <!-- age -->
     <g style="fill: #262626" transform="translate(1032.353949 347.008594)scale(0.12 -0.12)">
      <use xlink:href="#ArialMT-61"/>
      <use xlink:href="#ArialMT-67" x="55.615234"/>
      <use xlink:href="#ArialMT-65" x="111.230469"/>
     </g>
    </g>
   </g>
   <g id="matplotlib.axis_4">
    <g id="ytick_6">
     <g id="line2d_28">
      <path d="M 788.727273 315 
L 1296 315 
" clip-path="url(#p890c68fd85)" style="fill: none; stroke: #cccccc; stroke-linecap: round"/>
     </g>
    </g>
    <g id="ytick_7">
     <g id="line2d_29">
      <path d="M 788.727273 256.698842 
L 1296 256.698842 
" clip-path="url(#p890c68fd85)" style="fill: none; stroke: #cccccc; stroke-linecap: round"/>
     </g>
    </g>
    <g id="ytick_8">
     <g id="line2d_30">
      <path d="M 788.727273 198.397683 
L 1296 198.397683 
" clip-path="url(#p890c68fd85)" style="fill: none; stroke: #cccccc; stroke-linecap: round"/>
     </g>
    </g>
    <g id="ytick_9">
     <g id="line2d_31">
      <path d="M 788.727273 140.096525 
L 1296 140.096525 
" clip-path="url(#p890c68fd85)" style="fill: none; stroke: #cccccc; stroke-linecap: round"/>
     </g>
    </g>
    <g id="ytick_10">
     <g id="line2d_32">
      <path d="M 788.727273 81.795367 
L 1296 81.795367 
" clip-path="url(#p890c68fd85)" style="fill: none; stroke: #cccccc; stroke-linecap: round"/>
     </g>
    </g>
   </g>
   <g id="patch_28">
    <path d="M 876.440136 315 
L 896.419177 315 
L 896.419177 187.903475 
L 876.440136 187.903475 
z
" clip-path="url(#p890c68fd85)" style="fill: #4c72b0; fill-opacity: 0.5"/>
   </g>
   <g id="patch_29">
    <path d="M 896.419177 315 
L 916.398218 315 
L 916.398218 198.106178 
L 896.419177 198.106178 
z
" clip-path="url(#p890c68fd85)" style="fill: #4c72b0; fill-opacity: 0.5"/>
   </g>
   <g id="patch_30">
    <path d="M 916.398218 315 
L 936.37726 315 
L 936.37726 206.559846 
L 916.398218 206.559846 
z
" clip-path="url(#p890c68fd85)" style="fill: #4c72b0; fill-opacity: 0.5"/>
   </g>
   <g id="patch_31">
    <path d="M 936.37726 315 
L 956.356301 315 
L 956.356301 205.685328 
L 936.37726 205.685328 
z
" clip-path="url(#p890c68fd85)" style="fill: #4c72b0; fill-opacity: 0.5"/>
   </g>
   <g id="patch_32">
    <path d="M 956.356301 315 
L 976.335342 315 
L 976.335342 188.194981 
L 956.356301 188.194981 
z
" clip-path="url(#p890c68fd85)" style="fill: #4c72b0; fill-opacity: 0.5"/>
   </g>
   <g id="patch_33">
    <path d="M 976.335342 315 
L 996.314383 315 
L 996.314383 163.708494 
L 976.335342 163.708494 
z
" clip-path="url(#p890c68fd85)" style="fill: #4c72b0; fill-opacity: 0.5"/>
   </g>
   <g id="patch_34">
    <path d="M 996.314383 315 
L 1016.293424 315 
L 1016.293424 155.837838 
L 996.314383 155.837838 
z
" clip-path="url(#p890c68fd85)" style="fill: #4c72b0; fill-opacity: 0.5"/>
   </g>
   <g id="patch_35">
    <path d="M 1016.293424 315 
L 1036.272465 315 
L 1036.272465 131.059846 
L 1016.293424 131.059846 
z
" clip-path="url(#p890c68fd85)" style="fill: #4c72b0; fill-opacity: 0.5"/>
   </g>
   <g id="patch_36">
    <path d="M 1036.272465 315 
L 1056.251506 315 
L 1056.251506 80.337838 
L 1036.272465 80.337838 
z
" clip-path="url(#p890c68fd85)" style="fill: #4c72b0; fill-opacity: 0.5"/>
   </g>
   <g id="patch_37">
    <path d="M 1056.251506 315 
L 1076.230548 315 
L 1076.230548 89.957529 
L 1056.251506 89.957529 
z
" clip-path="url(#p890c68fd85)" style="fill: #4c72b0; fill-opacity: 0.5"/>
   </g>
   <g id="patch_38">
    <path d="M 1076.230548 315 
L 1096.209589 315 
L 1096.209589 56.142857 
L 1076.230548 56.142857 
z
" clip-path="url(#p890c68fd85)" style="fill: #4c72b0; fill-opacity: 0.5"/>
   </g>
   <g id="patch_39">
    <path d="M 1096.209589 315 
L 1116.18863 315 
L 1116.18863 125.22973 
L 1096.209589 125.22973 
z
" clip-path="url(#p890c68fd85)" style="fill: #4c72b0; fill-opacity: 0.5"/>
   </g>
   <g id="patch_40">
    <path d="M 1116.18863 315 
L 1136.167671 315 
L 1136.167671 164 
L 1116.18863 164 
z
" clip-path="url(#p890c68fd85)" style="fill: #4c72b0; fill-opacity: 0.5"/>
   </g>
   <g id="patch_41">
    <path d="M 1136.167671 315 
L 1156.146712 315 
L 1156.146712 204.519305 
L 1136.167671 204.519305 
z
" clip-path="url(#p890c68fd85)" style="fill: #4c72b0; fill-opacity: 0.5"/>
   </g>
   <g id="patch_42">
    <path d="M 1156.146712 315 
L 1176.125753 315 
L 1176.125753 231.629344 
L 1156.146712 231.629344 
z
" clip-path="url(#p890c68fd85)" style="fill: #4c72b0; fill-opacity: 0.5"/>
   </g>
   <g id="patch_43">
    <path d="M 1176.125753 315 
L 1196.104794 315 
L 1196.104794 254.07529 
L 1176.125753 254.07529 
z
" clip-path="url(#p890c68fd85)" style="fill: #4c72b0; fill-opacity: 0.5"/>
   </g>
   <g id="patch_44">
    <path d="M 1196.104794 315 
L 1216.083835 315 
L 1216.083835 280.019305 
L 1196.104794 280.019305 
z
" clip-path="url(#p890c68fd85)" style="fill: #4c72b0; fill-opacity: 0.5"/>
   </g>
   <g id="patch_45">
    <path d="M 1216.083835 315 
L 1236.062877 315 
L 1236.062877 291.096525 
L 1216.083835 291.096525 
z
" clip-path="url(#p890c68fd85)" style="fill: #4c72b0; fill-opacity: 0.5"/>
   </g>
   <g id="patch_46">
    <path d="M 1236.062877 315 
L 1256.041918 315 
L 1256.041918 302.173745 
L 1236.062877 302.173745 
z
" clip-path="url(#p890c68fd85)" style="fill: #4c72b0; fill-opacity: 0.5"/>
   </g>
   <g id="patch_47">
    <path d="M 1256.041918 315 
L 1276.020959 315 
L 1276.020959 310.627413 
L 1256.041918 310.627413 
z
" clip-path="url(#p890c68fd85)" style="fill: #4c72b0; fill-opacity: 0.5"/>
   </g>
   <g id="line2d_33">
    <path d="M 876.440136 255.705655 
L 880.456024 243.004717 
L 882.463968 237.039106 
L 884.471912 231.462154 
L 886.479855 226.344049 
L 888.487799 221.72895 
L 890.495743 217.635498 
L 892.503687 214.059605 
L 894.511631 210.978971 
L 896.519575 208.358623 
L 898.527518 206.156677 
L 900.535462 204.329593 
L 902.543406 202.836354 
L 904.55135 201.641186 
L 906.559294 200.714707 
L 908.567238 200.033624 
L 910.575181 199.579268 
L 912.583125 199.335403 
L 914.591069 199.285776 
L 916.599013 199.411856 
L 918.606957 199.691139 
L 922.622844 200.594873 
L 930.65462 202.768629 
L 932.662564 203.16447 
L 934.670507 203.432948 
L 936.678451 203.547991 
L 938.686395 203.489155 
L 940.694339 203.241549 
L 942.702283 202.795439 
L 944.710227 202.145715 
L 946.71817 201.291371 
L 948.726114 200.23512 
L 950.734058 198.983175 
L 952.742002 197.545156 
L 954.749946 195.934022 
L 958.765833 192.259683 
L 962.781721 188.118123 
L 968.805553 181.409743 
L 978.845272 170.062444 
L 982.861159 165.747523 
L 986.877047 161.685722 
L 990.892935 157.940251 
L 994.908822 154.508775 
L 1004.948542 146.322989 
L 1008.964429 142.521629 
L 1010.972373 140.376262 
L 1012.980317 138.039299 
L 1014.988261 135.500249 
L 1016.996204 132.758182 
L 1021.012092 126.709045 
L 1025.02798 120.068227 
L 1035.067699 103.01905 
L 1037.075643 99.929928 
L 1039.083587 97.061521 
L 1041.09153 94.453439 
L 1043.099474 92.13711 
L 1045.107418 90.134398 
L 1047.115362 88.456908 
L 1049.123306 87.106131 
L 1051.13125 86.074441 
L 1053.139193 85.346898 
L 1055.147137 84.903639 
L 1057.155081 84.722574 
L 1059.163025 84.782013 
L 1061.170969 85.062877 
L 1063.178913 85.550166 
L 1065.186856 86.233502 
L 1067.1948 87.106679 
L 1069.202744 88.166363 
L 1071.210688 89.410165 
L 1073.218632 90.834485 
L 1075.226576 92.432499 
L 1079.242463 96.098076 
L 1083.258351 100.252092 
L 1091.290126 109.176526 
L 1107.353677 127.045294 
L 1111.369565 132.163375 
L 1115.385452 137.877757 
L 1119.40134 144.226166 
L 1123.417228 151.146687 
L 1127.433115 158.513829 
L 1133.456947 170.084511 
L 1145.50461 193.504084 
L 1151.528441 204.629769 
L 1155.544329 211.662088 
L 1159.560217 218.355876 
L 1163.576104 224.708773 
L 1167.591992 230.725403 
L 1171.60788 236.412899 
L 1175.623767 241.788485 
L 1181.647599 249.357668 
L 1187.67143 256.524053 
L 1195.703206 265.709151 
L 1201.727037 272.211364 
L 1205.742925 276.215213 
L 1209.758812 279.867299 
L 1213.7747 283.13682 
L 1217.790588 286.042991 
L 1221.806475 288.646785 
L 1227.830307 292.169439 
L 1237.870026 297.623503 
L 1247.909745 302.866314 
L 1253.933577 305.734032 
L 1257.949464 307.441065 
L 1261.965352 308.952229 
L 1265.98124 310.258903 
L 1269.997127 311.366104 
L 1274.013015 312.286538 
L 1276.020959 312.681479 
L 1276.020959 312.681479 
" clip-path="url(#p890c68fd85)" style="fill: none; stroke: #4c72b0; stroke-width: 1.5; stroke-linecap: round"/>
   </g>
   <g id="patch_48">
    <path d="M 788.727273 315 
L 788.727273 43.2 
" style="fill: none; stroke: #cccccc; stroke-width: 1.25; stroke-linejoin: miter; stroke-linecap: square"/>
   </g>
   <g id="patch_49">
    <path d="M 1296 315 
L 1296 43.2 
" style="fill: none; stroke: #cccccc; stroke-width: 1.25; stroke-linejoin: miter; stroke-linecap: square"/>
   </g>
   <g id="patch_50">
    <path d="M 788.727273 315 
L 1296 315 
" style="fill: none; stroke: #cccccc; stroke-width: 1.25; stroke-linejoin: miter; stroke-linecap: square"/>
   </g>
   <g id="patch_51">
    <path d="M 788.727273 43.2 
L 1296 43.2 
" style="fill: none; stroke: #cccccc; stroke-width: 1.25; stroke-linejoin: miter; stroke-linecap: square"/>
   </g>
   <g id="text_31">
    <!-- Number of male / age in Profile dataset -->
    <g style="fill: #262626" transform="translate(938.317074 37.2)scale(0.12 -0.12)">
     <use xlink:href="#ArialMT-4e"/>
     <use xlink:href="#ArialMT-75" x="72.216797"/>
     <use xlink:href="#ArialMT-6d" x="127.832031"/>
     <use xlink:href="#ArialMT-62" x="211.132812"/>
     <use xlink:href="#ArialMT-65" x="266.748047"/>
     <use xlink:href="#ArialMT-72" x="322.363281"/>
     <use xlink:href="#ArialMT-20" x="355.664062"/>
     <use xlink:href="#ArialMT-6f" x="383.447266"/>
     <use xlink:href="#ArialMT-66" x="439.0625"/>
     <use xlink:href="#ArialMT-20" x="466.845703"/>
     <use xlink:href="#ArialMT-6d" x="494.628906"/>
     <use xlink:href="#ArialMT-61" x="577.929688"/>
     <use xlink:href="#ArialMT-6c" x="633.544922"/>
     <use xlink:href="#ArialMT-65" x="655.761719"/>
     <use xlink:href="#ArialMT-20" x="711.376953"/>
     <use xlink:href="#ArialMT-2f" x="739.160156"/>
     <use xlink:href="#ArialMT-20" x="766.943359"/>
     <use xlink:href="#ArialMT-61" x="794.726562"/>
     <use xlink:href="#ArialMT-67" x="850.341797"/>
     <use xlink:href="#ArialMT-65" x="905.957031"/>
     <use xlink:href="#ArialMT-20" x="961.572266"/>
     <use xlink:href="#ArialMT-69" x="989.355469"/>
     <use xlink:href="#ArialMT-6e" x="1011.572266"/>
     <use xlink:href="#ArialMT-20" x="1067.1875"/>
     <use xlink:href="#ArialMT-50" x="1094.970703"/>
     <use xlink:href="#ArialMT-72" x="1161.669922"/>
     <use xlink:href="#ArialMT-6f" x="1194.970703"/>
     <use xlink:href="#ArialMT-66" x="1250.585938"/>
     <use xlink:href="#ArialMT-69" x="1278.369141"/>
     <use xlink:href="#ArialMT-6c" x="1300.585938"/>
     <use xlink:href="#ArialMT-65" x="1322.802734"/>
     <use xlink:href="#ArialMT-20" x="1378.417969"/>
     <use xlink:href="#ArialMT-64" x="1406.201172"/>
     <use xlink:href="#ArialMT-61" x="1461.816406"/>
     <use xlink:href="#ArialMT-74" x="1517.431641"/>
     <use xlink:href="#ArialMT-61" x="1545.214844"/>
     <use xlink:href="#ArialMT-73" x="1600.830078"/>
     <use xlink:href="#ArialMT-65" x="1650.830078"/>
     <use xlink:href="#ArialMT-74" x="1706.445312"/>
    </g>
   </g>
  </g>
 </g>
 <defs>
  <clipPath id="p85ffccefdc">
   <rect x="180" y="43.2" width="507.272727" height="271.8"/>
  </clipPath>
  <clipPath id="p890c68fd85">
   <rect x="788.727273" y="43.2" width="507.272727" height="271.8"/>
  </clipPath>
 </defs>
</svg>
